<svg width="122" height="122" viewBox="0 0 122 122" fill="none" xmlns="http://www.w3.org/2000/svg">
<path d="M84.4158 64.8125C86.12 71.3711 92.038 76.25 99.1241 76.25C107.535 76.25 114.374 69.4087 114.374 61C114.374 52.5913 107.535 45.75 99.1241 45.75C92.038 45.75 86.12 50.6289 84.4158 57.1875H64.8116V41.9375H76.2658C77.2571 41.9375 78.2484 41.5182 78.9344 40.832L83.8014 35.9646C86.0698 37.3036 88.6797 38.125 91.499 38.125C99.9096 38.125 106.749 31.2837 106.749 22.875C106.749 14.4663 99.9096 7.625 91.499 7.625C83.0885 7.625 76.249 14.4663 76.249 22.875C76.249 25.693 77.07 28.3019 78.4075 30.5694L74.6644 34.3125H64.8115V24.7812C64.8115 15.3207 57.1158 7.625 47.6553 7.625C40.2686 7.625 33.8387 12.3571 31.4708 19.0867C22.4458 19.5744 15.249 27.071 15.249 36.2188C15.249 39.0967 15.9862 41.9077 17.3526 44.3985C11.4924 47.7195 7.62402 54.0303 7.62402 61C7.62402 67.9697 11.4924 74.2805 17.3526 77.6015C15.9862 80.0923 15.249 82.9032 15.249 85.7812C15.249 94.929 22.4459 102.426 31.4708 102.913C33.8387 109.643 40.2686 114.375 47.6553 114.375C57.1158 114.375 64.8115 106.679 64.8115 97.2188V87.6875H74.6644L78.4075 91.4306C77.07 93.6981 76.249 96.307 76.249 99.125C76.249 107.534 83.0885 114.375 91.499 114.375C99.9096 114.375 106.749 107.534 106.749 99.125C106.749 90.7163 99.9096 83.875 91.499 83.875C88.6797 83.875 86.0698 84.6964 83.8014 86.0354L78.9344 81.168C78.2484 80.4818 77.2571 80.0625 76.2658 80.0625H64.8116V64.8125H84.4158ZM99.1241 53.375C103.327 53.375 106.749 56.7947 106.749 61C106.749 65.2053 103.327 68.625 99.1241 68.625C94.9206 68.625 91.4991 65.2053 91.4991 61C91.4991 56.7947 94.9206 53.375 99.1241 53.375ZM91.4991 15.25C95.7025 15.25 99.1241 18.6697 99.1241 22.875C99.1241 27.0803 95.7025 30.5 91.4991 30.5C87.2956 30.5 83.8741 27.0803 83.8741 22.875C83.8741 18.6697 87.2956 15.25 91.4991 15.25ZM99.1241 99.125C99.1241 103.33 95.7025 106.75 91.4991 106.75C87.2956 106.75 83.8741 103.33 83.8741 99.125C83.8741 94.9197 87.2956 91.5 91.4991 91.5C95.7025 91.5 99.1241 94.9197 99.1241 99.125ZM47.6553 106.75C43.9899 106.75 40.7628 104.644 39.1773 101.533C45.2767 98.9 49.5616 92.8359 49.5616 85.7812C49.5616 83.6758 47.8563 81.9688 45.7491 81.9688C43.6418 81.9688 41.9366 83.6758 41.9366 85.7812C41.9366 91.0365 37.6624 95.3125 32.4053 95.3125C27.1482 95.3125 22.8741 91.0365 22.8741 85.7812C22.8741 83.0783 23.9984 80.5781 26.035 78.7408C27.0998 77.7821 27.5354 76.3096 27.1669 74.9264C26.7983 73.5433 25.6888 72.4822 24.2889 72.1806C19.0504 71.0506 15.2491 66.3502 15.2491 61C15.2491 56.2171 18.2965 51.9739 22.6833 50.3162C25.6022 52.3304 28.9959 53.3675 32.4053 53.3675C36.8024 53.3675 41.1957 51.694 44.5391 48.3506C46.0283 46.8632 46.0283 44.4487 44.5391 42.9595C43.0499 41.4702 40.6372 41.4702 39.148 42.9595C35.5514 46.5544 29.7778 46.6405 26.0379 43.2625C26.0369 43.2615 26.036 43.2601 26.0351 43.2592C23.9985 41.4219 22.8741 38.9217 22.8741 36.2188C22.8741 30.9635 27.1483 26.6875 32.4054 26.6875C32.9229 26.6875 33.299 26.7173 33.5633 26.7787C34.6058 27.0114 35.7115 26.8104 36.6051 26.1961C37.4875 25.5799 38.072 24.6175 38.2098 23.5489C38.8129 18.8168 42.8749 15.25 47.6554 15.25C52.9125 15.25 57.1866 19.526 57.1866 24.7812V58.2314C51.1472 56.1029 44.1575 57.3909 39.3379 62.2119C37.8486 63.6993 37.8486 66.1137 39.3379 67.603C40.8271 69.0922 43.2398 69.0922 44.729 67.603C48.1292 64.2026 53.4579 63.9515 57.1866 66.7664V97.2188C57.1866 102.474 52.9124 106.75 47.6553 106.75Z" fill="#434F54"/>
</svg>
