<svg width="122" height="122" viewBox="0 0 122 122" fill="none" xmlns="http://www.w3.org/2000/svg">
<path d="M102.938 34.3125H99.125V22.875C99.125 21.8639 98.7233 20.8941 98.0083 20.1792C97.2934 19.4642 96.3236 19.0625 95.3125 19.0625H68.625C67.6139 19.0625 66.6441 19.4642 65.9292 20.1792C65.2142 20.8941 64.8125 21.8639 64.8125 22.875V34.3125H57.1875V22.875C57.1875 21.8639 56.7858 20.8941 56.0708 20.1792C55.3559 19.4642 54.3861 19.0625 53.375 19.0625H26.6875C25.6764 19.0625 24.7066 19.4642 23.9917 20.1792C23.2767 20.8941 22.875 21.8639 22.875 22.875V34.3125H19.0625C18.0514 34.3125 17.0816 34.7142 16.3667 35.4292C15.6517 36.1441 15.25 37.1139 15.25 38.125V99.125C15.25 100.136 15.6517 101.106 16.3667 101.821C17.0816 102.536 18.0514 102.938 19.0625 102.938H102.938C103.949 102.938 104.918 102.536 105.633 101.821C106.348 101.106 106.75 100.136 106.75 99.125V38.125C106.75 37.1139 106.348 36.1441 105.633 35.4292C104.918 34.7142 103.949 34.3125 102.938 34.3125ZM72.4375 26.6875H91.5V34.3125H72.4375V26.6875ZM30.5 26.6875H49.5625V34.3125H30.5V26.6875ZM99.125 95.3125H22.875V72.4375H99.125V95.3125ZM99.125 64.8125H22.875V41.9375H99.125V64.8125Z" fill="#434F54"/>
</svg>
