<svg width="122" height="122" viewBox="0 0 122 122" fill="none" xmlns="http://www.w3.org/2000/svg">
<path d="M110.562 11.4429C111.573 11.4459 112.541 11.8487 113.255 12.563C113.969 13.2773 114.372 14.2452 114.375 15.2554V83.8804C114.372 84.8905 113.969 85.8584 113.255 86.5728C112.541 87.2871 111.573 87.6899 110.562 87.6929H80.0625V102.943H83.875C84.8861 102.943 85.8563 103.345 86.5713 104.06C87.286 104.775 87.6874 105.744 87.6875 106.755C87.6875 107.766 87.2862 108.737 86.5713 109.452C85.8563 110.167 84.8861 110.568 83.875 110.568H38.125C37.1139 110.568 36.1437 110.167 35.4287 109.452C34.7138 108.737 34.3125 107.766 34.3125 106.755C34.3126 105.744 34.714 104.775 35.4287 104.06C36.1437 103.345 37.1139 102.943 38.125 102.943H41.9375V87.6929H11.4375C10.4273 87.6899 9.45945 87.2871 8.74512 86.5728C8.03086 85.8584 7.62802 84.8905 7.625 83.8804V15.2554C7.62807 14.2452 8.03084 13.2773 8.74512 12.563C9.45944 11.8487 10.4273 11.4459 11.4375 11.4429H110.562ZM49.5625 102.943H72.4375V87.6929H49.5625V102.943ZM15.25 80.0679H106.75V19.0679H15.25V80.0679ZM53.3779 38.104C53.882 38.103 54.3818 38.2007 54.8477 38.3931C55.3135 38.5855 55.7364 38.8687 56.0928 39.2251C56.4491 39.5814 56.7314 40.0045 56.9238 40.4702C57.1162 40.9361 57.2149 41.4359 57.2139 41.9399C57.2128 42.4438 57.1122 42.9428 56.918 43.4077C56.7237 43.8727 56.4398 44.295 56.082 44.6499L37.0195 63.7124C36.2968 64.4211 35.3247 64.8179 34.3125 64.8179C33.3003 64.8179 32.3282 64.4211 31.6055 63.7124C30.8911 62.9926 30.4903 62.0194 30.4902 61.0054C30.4902 59.9913 30.8911 59.0181 31.6055 58.2983L50.668 39.2358C51.0228 38.878 51.4452 38.5942 51.9102 38.3999C52.3751 38.2056 52.874 38.1051 53.3779 38.104ZM34.2988 30.5464C35.2984 30.5551 36.2551 30.9567 36.9619 31.6636C37.6685 32.3704 38.0694 33.3263 38.0781 34.3257C38.0868 35.3253 37.7022 36.2883 37.0078 37.0073L29.3828 44.6323C29.0293 44.9869 28.6091 45.2687 28.1465 45.4604C27.684 45.6521 27.1881 45.7501 26.6875 45.7495C25.9336 45.7494 25.1961 45.5259 24.5693 45.1069C23.9427 44.688 23.4545 44.0924 23.166 43.396C22.8776 42.6995 22.8022 41.9332 22.9492 41.1938C23.0963 40.4544 23.4592 39.7749 23.9922 39.2417L31.6172 31.6167C32.3362 30.9223 33.2992 30.5377 34.2988 30.5464Z" fill="#434F54"/>
</svg>
