<svg width="122" height="122" viewBox="0 0 122 122" fill="none" xmlns="http://www.w3.org/2000/svg">
<path d="M53.375 64.813C55.4823 64.813 57.1875 66.52 57.1875 68.6255V95.313C57.1874 97.4183 55.4822 99.1255 53.375 99.1255H26.6875C24.5803 99.1255 22.8751 97.4183 22.875 95.313V68.6255C22.875 66.52 24.5802 64.813 26.6875 64.813H53.375ZM95.3125 64.813C97.4198 64.813 99.125 66.52 99.125 68.6255V95.313C99.1249 97.4183 97.4197 99.1255 95.3125 99.1255H68.625C66.5178 99.1255 64.8126 97.4183 64.8125 95.313V68.6255C64.8125 66.52 66.5177 64.813 68.625 64.813H95.3125ZM30.5 91.5005H49.5625V72.438H30.5V91.5005ZM72.4375 91.5005H91.5V72.438H72.4375V91.5005ZM79.2734 22.0854C80.7626 20.5967 83.1749 20.5967 84.6641 22.0854L99.9141 37.3354C101.403 38.8247 101.403 41.2378 99.9141 42.7271L84.6641 57.9771C83.9195 58.7216 82.9442 59.0942 81.9688 59.0942C80.9933 59.0942 80.018 58.7216 79.2734 57.9771L64.0234 42.7271C62.5342 41.2378 62.5342 38.8247 64.0234 37.3354L79.2734 22.0854ZM53.375 22.8755C55.4823 22.8755 57.1875 24.5825 57.1875 26.688V53.3755C57.1874 55.4808 55.4822 57.188 53.375 57.188H26.6875C24.5803 57.188 22.8751 55.4808 22.875 53.3755V26.688C22.875 24.5825 24.5802 22.8755 26.6875 22.8755H53.375ZM72.1094 40.0317L81.9688 49.8901L91.8271 40.0317L81.9688 30.1724L72.1094 40.0317ZM30.5 49.563H49.5625V30.5005H30.5V49.563Z" fill="#434F54"/>
</svg>
