<svg width="122" height="122" viewBox="0 0 122 122" fill="none" xmlns="http://www.w3.org/2000/svg">
<path d="M49.5625 8.88354C57.0045 7.32047 64.6899 7.32046 72.1318 8.88354C72.9989 9.06955 73.7745 9.55194 74.3242 10.2478C74.8738 10.9436 75.1633 11.8096 75.1436 12.696C75.08 15.1242 75.6828 17.5234 76.8857 19.6335C78.0887 21.7438 79.8469 23.4844 81.9688 24.6667C84.0527 25.8844 86.4305 26.5069 88.8438 26.4666C91.2571 26.4262 93.6131 25.7249 95.6553 24.4382C96.4147 23.9669 97.3162 23.7776 98.2012 23.9031C99.086 24.0286 99.8986 24.461 100.497 25.1248C105.67 30.7615 109.571 37.4443 111.935 44.7205C112.2 45.5661 112.163 46.4785 111.829 47.2996C111.495 48.1205 110.885 48.7993 110.104 49.2195C107.978 50.3653 106.201 52.0655 104.963 54.1394C103.724 56.2134 103.07 58.5842 103.07 60.9998C103.07 63.4155 103.724 65.787 104.963 67.8611C106.201 69.935 107.978 71.6352 110.104 72.781C110.885 73.2012 111.495 73.8799 111.829 74.7009C112.163 75.5218 112.2 76.4335 111.935 77.2791C109.571 84.5554 105.67 91.2389 100.497 96.8757C99.8986 97.5395 99.086 97.9719 98.2012 98.0974C97.3162 98.2228 96.4147 98.0336 95.6553 97.5623C93.6137 96.2778 91.2602 95.5741 88.8486 95.5271C86.4373 95.4801 84.0587 96.091 81.9688 97.2947C79.872 98.5127 78.1435 100.277 76.9688 102.398C75.7942 104.519 75.2168 106.919 75.2969 109.343C75.3166 110.229 75.0263 111.095 74.4766 111.791C73.9268 112.487 73.1513 112.969 72.2842 113.155C68.574 113.944 64.7931 114.352 61 114.375C57.1571 114.375 53.3241 113.979 49.5625 113.193C48.6954 113.007 47.9198 112.525 47.3701 111.829C46.8204 111.133 46.5301 110.267 46.5498 109.381C46.6354 106.961 46.0594 104.564 44.8838 102.448C43.7081 100.332 41.9772 98.5772 39.8779 97.3718C37.794 96.1542 35.4162 95.5307 33.0029 95.571C30.5896 95.6114 28.2335 96.3137 26.1914 97.6003C25.4321 98.0716 24.5313 98.2608 23.6465 98.1355C22.7615 98.0101 21.9482 97.5777 21.3496 96.9138C16.1768 91.2771 12.2761 84.5942 9.91211 77.3181C9.64662 76.4724 9.68457 75.5601 10.0186 74.739C10.3526 73.9181 10.9619 73.2393 11.7422 72.8191C13.8687 71.6733 15.6453 69.9731 16.8838 67.8992C18.1223 65.8251 18.7764 63.4536 18.7764 61.0378C18.7763 58.6223 18.1222 56.2515 16.8838 54.1775C15.6453 52.1035 13.8687 50.4034 11.7422 49.2576C10.9619 48.8374 10.3526 48.1585 10.0186 47.3376C9.68457 46.5166 9.64662 45.6042 9.91211 44.7585C12.2761 37.4824 16.1768 30.7996 21.3496 25.1628C21.9482 24.499 22.7615 24.0666 23.6465 23.9412C24.5313 23.8158 25.4321 24.0051 26.1914 24.4763C28.2415 25.7603 30.6029 26.4614 33.0215 26.5037C35.44 26.546 37.8243 25.928 39.918 24.7166C42.0116 23.505 43.7358 21.7456 44.9043 19.6277C46.0728 17.5098 46.6414 15.1132 46.5498 12.696C46.5301 11.8095 46.8205 10.9436 47.3701 10.2478C47.9198 9.55194 48.6954 9.06955 49.5625 8.88354ZM67.8242 15.7458C63.2977 15.0978 58.7013 15.0978 54.1748 15.7458C53.7748 18.9545 52.6373 22.0273 50.8506 24.7224C49.0639 27.4174 46.6766 29.6613 43.877 31.2791C41.0772 32.8968 37.9411 33.8445 34.7139 34.0466C31.4866 34.2488 28.2561 33.6999 25.2764 32.4441C22.399 36.0242 20.085 40.0231 18.4141 44.3015C20.9825 46.2619 23.0642 48.7883 24.4971 51.6843C25.9299 54.5805 26.6757 57.7686 26.6758 60.9998C26.6758 64.231 25.9299 67.419 24.4971 70.3152C23.0642 73.2114 20.9827 75.7385 18.4141 77.699C20.085 81.9772 22.3991 85.9754 25.2764 89.5554C28.2474 88.2841 31.4761 87.729 34.7012 87.9343C37.9261 88.1397 41.058 89.1004 43.8438 90.738C46.6474 92.3502 49.0395 94.59 50.832 97.282C52.6247 99.9742 53.7687 103.046 54.1748 106.255C58.7013 106.903 63.2977 106.903 67.8242 106.255C68.2361 103.043 69.3821 99.9678 71.1738 97.2703C72.9656 94.5728 75.3552 92.325 78.1562 90.7C80.9514 89.0854 84.0829 88.1416 87.3047 87.9431C90.5265 87.7446 93.7505 88.2962 96.7227 89.5554C99.6 85.9754 101.914 81.9773 103.585 77.699C101.016 75.7385 98.9348 73.2114 97.502 70.3152C96.0691 67.419 95.3232 64.231 95.3232 60.9998C95.3233 57.7686 96.0691 54.5805 97.502 51.6843C98.9348 48.7883 101.017 46.2619 103.585 44.3015C101.914 40.0231 99.6001 36.0242 96.7227 32.4441C93.7424 33.6917 90.5143 34.2338 87.29 34.0281C84.0657 33.8222 80.9323 32.874 78.1348 31.2576C75.3373 29.6411 72.9506 27.4005 71.1621 24.7097C69.3736 22.0189 68.2316 18.951 67.8242 15.7458ZM59.7959 41.9812C63.5561 41.7351 67.3055 42.6085 70.5693 44.4919C73.8345 46.3781 76.4671 49.1905 78.1338 52.573C79.8004 55.9555 80.4264 59.7565 79.9326 63.4949C79.4388 67.2332 77.8471 70.7412 75.3594 73.575C72.8716 76.4087 69.599 78.4411 65.9561 79.4148C64.3416 79.8569 62.6739 80.0744 61 80.0623C56.8079 80.0533 52.7351 78.6632 49.4131 76.1062C46.0913 73.5493 43.7046 69.9687 42.623 65.9187C41.6513 62.278 41.7805 58.4304 42.9941 54.863C44.2078 51.2956 46.4519 48.1676 49.4424 45.8748C52.4328 43.582 56.0358 42.2274 59.7959 41.9812ZM61 49.5623C59.9963 49.5583 58.9956 49.6871 58.0254 49.9441C55.4707 50.6307 53.233 52.1817 51.6934 54.3328C50.1537 56.4839 49.407 59.1023 49.5811 61.7419C49.7551 64.3817 50.8395 66.8799 52.6484 68.8103C54.4573 70.7405 56.8792 71.9838 59.502 72.3289C62.1248 72.674 64.7865 72.0997 67.0332 70.7029C69.2798 69.3061 70.9723 67.1735 71.8232 64.6687C72.6742 62.1638 72.6311 59.4409 71.7002 56.9646C70.7693 54.4885 69.0088 52.4116 66.7188 51.0876C64.9754 50.0962 63.0055 49.5706 61 49.5623Z" fill="#434F54"/>
</svg>
