<svg width="122" height="122" viewBox="0 0 122 122" fill="none" xmlns="http://www.w3.org/2000/svg">
<path d="M102.938 19.0625C103.949 19.0625 104.919 19.4637 105.634 20.1787C106.349 20.8937 106.75 21.8639 106.75 22.875V40.374L113.27 46.8555C113.623 47.2116 113.902 47.6342 114.092 48.0986C114.282 48.5631 114.378 49.0608 114.375 49.5625V91.5C114.378 92.0018 114.282 92.4994 114.092 92.9639C113.902 93.4283 113.623 93.8509 113.27 94.207L105.645 101.832C105.288 102.185 104.866 102.465 104.401 102.654C103.937 102.844 103.439 102.94 102.938 102.938H22.875C21.8639 102.938 20.8937 102.536 20.1787 101.821C19.4637 101.106 19.0625 100.136 19.0625 99.125V61H11.4375C10.4264 61 9.45619 60.5988 8.74121 59.8838C8.02623 59.1688 7.625 58.1986 7.625 57.1875V38.125C7.625 37.1139 8.02623 36.1437 8.74121 35.4287C9.45619 34.7137 10.4264 34.3125 11.4375 34.3125H19.0625V22.875C19.0625 21.8639 19.4637 20.8937 20.1787 20.1787C20.8937 19.4637 21.8639 19.0625 22.875 19.0625H102.938ZM26.6875 26.6875V34.3125H38.125C39.1361 34.3125 40.1063 34.7137 40.8213 35.4287C41.5363 36.1437 41.9375 37.1139 41.9375 38.125V57.1875C41.9375 58.1986 41.5363 59.1688 40.8213 59.8838C40.1063 60.5988 39.1361 61 38.125 61H26.6875V95.3125H101.374L106.75 89.9365V51.126L100.23 44.6445C99.8772 44.2884 99.5979 43.8658 99.4082 43.4014C99.2185 42.9369 99.1221 42.4393 99.125 41.9375V26.6875H26.6875ZM91.5 76.25C92.5111 76.25 93.4813 76.6512 94.1963 77.3662C94.9113 78.0812 95.3125 79.0514 95.3125 80.0625C95.3125 81.0736 94.9113 82.0438 94.1963 82.7588C93.4813 83.4738 92.5111 83.875 91.5 83.875H53.375C52.3639 83.875 51.3937 83.4738 50.6787 82.7588C49.9637 82.0438 49.5625 81.0736 49.5625 80.0625C49.5625 79.0514 49.9637 78.0812 50.6787 77.3662C51.3937 76.6512 52.3639 76.25 53.375 76.25H91.5ZM15.25 41.9375V53.375H34.3125V41.9375H15.25Z" fill="#434F54"/>
</svg>
