<svg width="15" height="8" viewBox="0 0 15 8" fill="none" xmlns="http://www.w3.org/2000/svg">
<path fill-rule="evenodd" clip-rule="evenodd" d="M7.5 4.97755C8.35464 6.46437 9.6849 7.28125 11.2596 7.28125C13.0637 7.28125 14.5312 5.80931 14.5312 4C14.5312 2.19069 13.0637 0.71875 11.2596 0.71875C9.6849 0.71875 8.35464 1.53563 7.5 3.02245C6.64536 1.53563 5.3151 0.71875 3.74039 0.71875C1.93634 0.71875 0.46875 2.19069 0.46875 4C0.46875 5.80931 1.93634 7.28125 3.74039 7.28125C5.3151 7.28125 6.64536 6.46437 7.5 4.97755ZM8.25531 4.40741L8.03353 4L8.25531 3.59259C8.9447 2.32573 9.98337 1.65625 11.2596 1.65625C12.5466 1.65625 13.5938 2.70773 13.5938 4C13.5938 5.29227 12.5466 6.34375 11.2596 6.34375C9.98337 6.34375 8.9447 5.67427 8.25531 4.40741ZM1.40625 4C1.40625 2.70773 2.45338 1.65625 3.74039 1.65625C5.01663 1.65625 6.0553 2.32573 6.74469 3.59259L6.96647 4L6.74469 4.40741C6.0553 5.67427 5.01663 6.34375 3.74039 6.34375C2.45339 6.34375 1.40625 5.29227 1.40625 4ZM11.3688 4.35175H12.0849V3.66663H11.3688V2.94565H10.684V3.66663H9.96693V4.35175H10.684V5.07273H11.3688V4.35175ZM5.013 3.66663H2.89407V4.35175H5.013V3.66663Z" fill="white"/>
</svg>
