<svg width="32" height="32" viewBox="0 0 32 32" fill="none" xmlns="http://www.w3.org/2000/svg">
<path d="M23.64 27.51C23.4842 27.5122 23.3302 27.4779 23.19 27.41L16 23.77L8.80999 27.41C8.65017 27.4845 8.47349 27.5154 8.29787 27.4996C8.12226 27.4838 7.95394 27.4219 7.80999 27.32C7.65484 27.2089 7.53474 27.0557 7.46386 26.8785C7.39298 26.7013 7.37429 26.5075 7.40999 26.32L8.64999 18.32L2.92999 12.69C2.80095 12.5595 2.71032 12.396 2.66803 12.2174C2.62573 12.0388 2.63341 11.852 2.6902 11.6775C2.747 11.503 2.85074 11.3474 2.99004 11.2279C3.12935 11.1084 3.29885 11.0296 3.47999 11L11.48 9.72002L15.15 2.55002C15.2339 2.38622 15.3614 2.24875 15.5184 2.15276C15.6755 2.05677 15.8559 2.00598 16.04 2.00598C16.224 2.00598 16.4045 2.05677 16.5615 2.15276C16.7186 2.24875 16.8461 2.38622 16.93 2.55002L20.6 9.72002L28.6 11C28.7811 11.0296 28.9506 11.1084 29.0899 11.2279C29.2292 11.3474 29.333 11.503 29.3898 11.6775C29.4466 11.852 29.4542 12.0388 29.4119 12.2174C29.3697 12.396 29.279 12.5595 29.15 12.69L23.39 18.4L24.63 26.4C24.6657 26.5875 24.647 26.7813 24.5761 26.9585C24.5052 27.1357 24.3851 27.2889 24.23 27.4C24.0492 27.4962 23.8433 27.5346 23.64 27.51V27.51ZM16 21.64C16.1565 21.641 16.3107 21.6786 16.45 21.75L22.35 24.75L21.35 18.22C21.3258 18.0648 21.3386 17.906 21.3872 17.7566C21.4359 17.6071 21.519 17.4713 21.63 17.36L26.29 12.67L19.77 11.62C19.6153 11.5951 19.4686 11.5341 19.3418 11.442C19.215 11.35 19.1116 11.2294 19.04 11.09L16 5.20002L13 11.08C12.9283 11.2194 12.8249 11.34 12.6981 11.432C12.5713 11.5241 12.4247 11.5851 12.27 11.61L5.72999 12.66L10.39 17.35C10.5009 17.4613 10.5841 17.5971 10.6328 17.7466C10.6814 17.896 10.6942 18.0548 10.67 18.21L9.66999 24.74L15.57 21.74C15.7041 21.6751 15.851 21.6409 16 21.64Z" fill="black"/>
</svg>
