<svg width="32" height="32" viewBox="0 0 32 32" fill="none" xmlns="http://www.w3.org/2000/svg">
<path fill-rule="evenodd" clip-rule="evenodd" d="M24.0153 9.32508C26.4137 10.8413 28.3329 13.0067 29.55 15.5699C29.614 15.7043 29.6472 15.8512 29.6472 15.9999C29.6472 16.1487 29.614 16.2956 29.55 16.4299C28.3329 18.9932 26.4137 21.1586 24.0153 22.6748C21.6168 24.191 18.8375 24.9958 16 24.9958C13.1625 24.9958 10.3832 24.191 7.98474 22.6748C5.5863 21.1586 3.66712 18.9932 2.45 16.4299C2.38603 16.2956 2.35283 16.1487 2.35283 15.9999C2.35283 15.8512 2.38603 15.7043 2.45 15.5699C3.66712 13.0067 5.5863 10.8413 7.98474 9.32508C10.3832 7.80886 13.1625 7.00403 16 7.00403C18.8375 7.00403 21.6168 7.80886 24.0153 9.32508ZM13.2221 20.1573C14.0444 20.7067 15.0111 20.9999 16 20.9999C17.3261 20.9999 18.5979 20.4732 19.5355 19.5355C20.4732 18.5978 21 17.326 21 15.9999C21 15.011 20.7068 14.0443 20.1573 13.2221C19.6079 12.3998 18.827 11.759 17.9134 11.3805C16.9998 11.0021 15.9945 10.9031 15.0245 11.096C14.0546 11.2889 13.1637 11.7651 12.4645 12.4644C11.7652 13.1637 11.289 14.0546 11.0961 15.0245C10.9031 15.9944 11.0022 16.9997 11.3806 17.9134C11.759 18.827 12.3999 19.6079 13.2221 20.1573ZM19 16C19 17.6569 17.6569 19 16 19C14.3431 19 13 17.6569 13 16C13 14.3431 14.3431 13 16 13C17.6569 13 19 14.3431 19 16Z" fill="currentColor"/>
</svg>
