<svg width="32" height="32" viewBox="0 0 32 32" fill="none" xmlns="http://www.w3.org/2000/svg">
<path fill-rule="evenodd" clip-rule="evenodd" d="M26.3846 5.07105C26.5065 5.12182 26.6171 5.19621 26.71 5.28994C26.8037 5.3829 26.8781 5.4935 26.9289 5.61536C26.9797 5.73722 27.0058 5.86793 27.0058 5.99994C27.0058 6.13195 26.9797 6.26266 26.9289 6.38452C26.8781 6.50638 26.8037 6.61698 26.71 6.70994L6.71002 26.7099C6.61705 26.8037 6.50645 26.8781 6.38459 26.9288C6.26273 26.9796 6.13203 27.0057 6.00002 27.0057C5.868 27.0057 5.7373 26.9796 5.61544 26.9288C5.49358 26.8781 5.38298 26.8037 5.29002 26.7099C5.19629 26.617 5.12189 26.5064 5.07112 26.3845C5.02036 26.2627 4.99422 26.132 4.99422 25.9999C4.99422 25.8679 5.02036 25.7372 5.07112 25.6154C5.12189 25.4935 5.19629 25.3829 5.29002 25.2899L8.00002 22.6299C5.59876 21.1323 3.67368 18.9817 2.45002 16.4299C2.38604 16.2956 2.35284 16.1487 2.35284 15.9999C2.35284 15.8512 2.38604 15.7043 2.45002 15.5699C3.67234 13.0104 5.59262 10.8481 7.98981 9.33196C10.387 7.81581 13.1636 7.00745 16 6.99994C18.145 6.99931 20.2644 7.46686 22.21 8.36994L25.29 5.28994C25.383 5.19621 25.4936 5.12182 25.6154 5.07105C25.7373 5.02028 25.868 4.99414 26 4.99414C26.132 4.99414 26.2627 5.02028 26.3846 5.07105ZM16 12.9999C16.4459 13.0024 16.886 13.1013 17.29 13.2899L18.75 11.8299C17.9368 11.2848 16.979 10.9957 16 10.9999C14.6739 10.9999 13.4022 11.5267 12.4645 12.4644C11.5268 13.4021 11 14.6739 11 15.9999C10.9957 16.9789 11.2848 17.9368 11.83 18.7499L13.29 17.2899C13.1014 16.8859 13.0025 16.4458 13 15.9999C13 15.2043 13.3161 14.4412 13.8787 13.8786C14.4413 13.316 15.2044 12.9999 16 12.9999ZM24.0102 22.6679C26.4074 21.1517 28.3277 18.9894 29.55 16.4299C29.6187 16.2978 29.6571 16.1521 29.6623 16.0033C29.6674 15.8545 29.6393 15.7064 29.58 15.5699C28.6856 13.6787 27.4008 11.9985 25.81 10.6399L25.1 11.3499L21 15.4499C21.0103 15.6331 21.0103 15.8167 21 15.9999C21 17.326 20.4732 18.5977 19.5355 19.5354C18.5979 20.4731 17.3261 20.9999 16 20.9999C15.8168 21.0101 15.6332 21.0101 15.45 20.9999L12 24.4399C13.3009 24.8115 14.6471 25 16 24.9999C18.8364 24.9924 21.613 24.184 24.0102 22.6679Z" fill="currentColor"/>
</svg>
