<svg width="16" height="16" viewBox="0 0 16 16" fill="none" xmlns="http://www.w3.org/2000/svg">
  <path fill-rule="evenodd" clip-rule="evenodd"
    d="M13 4.5H13.5C13.6326 4.5 13.7598 4.55268 13.8536 4.64645C13.9473 4.74021 14 4.86739 14 5V9C14 9.13261 13.9473 9.25979 13.8536 9.35355C13.7598 9.44732 13.6326 9.5 13.5 9.5H3V12.5H9.5C9.63261 12.5 9.75979 12.5527 9.85355 12.6464C9.94732 12.7402 10 12.8674 10 13C10 13.1326 9.94732 13.2598 9.85355 13.3536C9.75979 13.4473 9.63261 13.5 9.5 13.5H2.5C2.36739 13.5 2.24021 13.4473 2.14645 13.3536C2.05268 13.2598 2 13.1326 2 13V5C2 4.86739 2.05268 4.74021 2.14645 4.64645C2.24021 4.55268 2.36739 4.5 2.5 4.5H3V3C3 2.86739 3.05268 2.74021 3.14645 2.64645C3.24021 2.55268 3.36739 2.5 3.5 2.5H7C7.13261 2.5 7.25979 2.55268 7.35355 2.64645C7.44732 2.74021 7.5 2.86739 7.5 3V4.5H8.5V3C8.5 2.86739 8.55268 2.74021 8.64645 2.64645C8.74021 2.55268 8.86739 2.5 9 2.5H12.5C12.6326 2.5 12.7598 2.55268 12.8536 2.64645C12.9473 2.74021 13 2.86739 13 3V4.5ZM12 3.5H9.5V4.5H12V3.5ZM6.5 3.5H4V4.5H6.5V3.5ZM3 8.5H13V5.5H3V8.5ZM15.8536 13.3536C15.9473 13.2598 16 13.1326 16 13C16 12.8674 15.9473 12.7402 15.8536 12.6464C15.7598 12.5527 15.6326 12.5 15.5 12.5H14V11C14 10.8674 13.9473 10.7402 13.8536 10.6464C13.7598 10.5527 13.6326 10.5 13.5 10.5C13.3674 10.5 13.2402 10.5527 13.1464 10.6464C13.0527 10.7402 13 10.8674 13 11V12.5H11.5C11.3674 12.5 11.2402 12.5527 11.1464 12.6464C11.0527 12.7402 11 12.8674 11 13C11 13.1326 11.0527 13.2598 11.1464 13.3536C11.2402 13.4473 11.3674 13.5 11.5 13.5H13V15C13 15.1326 13.0527 15.2598 13.1464 15.3536C13.2402 15.4473 13.3674 15.5 13.5 15.5C13.6326 15.5 13.7598 15.4473 13.8536 15.3536C13.9473 15.2598 14 15.1326 14 15V13.5H15.5C15.6326 13.5 15.7598 13.4473 15.8536 13.3536Z"
    fill="white" />
</svg>