<svg width="25" height="24" viewBox="0 0 25 24" fill="none" xmlns="http://www.w3.org/2000/svg">
<title id="AddTabTitle">Add Tab</title>
<path d="M19.7 12C19.6994 12.1987 19.6202 12.3892 19.4796 12.5297C19.3391 12.6702 19.1487 12.7494 18.95 12.75H12.95V18.75C12.95 18.9489 12.8709 19.1397 12.7303 19.2803C12.5896 19.421 12.3989 19.5 12.2 19.5C12.001 19.5 11.8103 19.421 11.6696 19.2803C11.529 19.1397 11.45 18.9489 11.45 18.75V12.75H5.44995C5.25104 12.75 5.06027 12.671 4.91962 12.5303C4.77897 12.3897 4.69995 12.1989 4.69995 12C4.69995 11.8011 4.77897 11.6103 4.91962 11.4697C5.06027 11.329 5.25104 11.25 5.44995 11.25H11.45V5.25C11.45 5.05109 11.529 4.86032 11.6696 4.71967C11.8103 4.57902 12.001 4.5 12.2 4.5C12.3989 4.5 12.5896 4.57902 12.7303 4.71967C12.8709 4.86032 12.95 5.05109 12.95 5.25V11.25H18.95C19.1487 11.2506 19.3391 11.3298 19.4796 11.4703C19.6202 11.6108 19.6994 11.8013 19.7 12Z" fill="#374146"/>
</svg>
