<svg width="16" height="16" viewBox="0 0 16 16" fill="none" xmlns="http://www.w3.org/2000/svg">
<g clip-path="url(#clip0_12929_12076)">
<path d="M3.4502 1.49658C3.53735 1.48966 3.62517 1.50505 3.70508 1.54053L8 3.44971L12.2949 1.54053C12.371 1.50726 12.4544 1.49264 12.5371 1.49951C12.6199 1.50649 12.7 1.53503 12.7695 1.58057C12.8397 1.62565 12.8983 1.6881 12.9385 1.76123C12.9783 1.83429 12.9998 1.91726 13 2.00049V3.50049H14.5C14.6325 3.50049 14.7598 3.55336 14.8535 3.64697C14.9469 3.74058 14.9999 3.86826 15 4.00049V9.50049H14V4.50049H13V11.0005C12.9996 11.0961 12.9718 11.1907 12.9199 11.271C12.8676 11.3515 12.7926 11.4162 12.7051 11.4556L10.3555 12.5005H10.5V13.5005H1.5C1.36759 13.5005 1.24021 13.4475 1.14648 13.354C1.05307 13.2605 1.00022 13.1327 1 13.0005V4.00049C1.00013 3.86826 1.0531 3.74058 1.14648 3.64697C1.24023 3.55336 1.36751 3.50049 1.5 3.50049H3V2.00049C2.99747 1.91947 3.01532 1.83803 3.05078 1.76514C3.08644 1.69226 3.13958 1.62846 3.20508 1.58057C3.2784 1.53281 3.36297 1.50357 3.4502 1.49658ZM2 12.5005H5.64453L3.29492 11.4556C3.2074 11.4162 3.13235 11.3515 3.08008 11.271C3.02816 11.1907 3.00036 11.0961 3 11.0005V4.50049H2V12.5005ZM4 10.6753L7.5 12.23V4.32471L5.64453 3.50049L4 2.77002V10.6753ZM10.3555 3.50049L8.5 4.32471V12.23L12 10.6753V2.77002L10.3555 3.50049Z" fill="white"/>
<path d="M16 13.5C16 13.6326 15.9473 13.7598 15.8536 13.8536C15.7598 13.9473 15.6326 14 15.5 14H14V15.5C14 15.6326 13.9473 15.7598 13.8536 15.8536C13.7598 15.9473 13.6326 16 13.5 16C13.3674 16 13.2402 15.9473 13.1464 15.8536C13.0527 15.7598 13 15.6326 13 15.5V14H11.5C11.3674 14 11.2402 13.9473 11.1464 13.8536C11.0527 13.7598 11 13.6326 11 13.5C11 13.3674 11.0527 13.2402 11.1464 13.1464C11.2402 13.0527 11.3674 13 11.5 13H13V11.5C13 11.3674 13.0527 11.2402 13.1464 11.1464C13.2402 11.0527 13.3674 11 13.5 11C13.6326 11 13.7598 11.0527 13.8536 11.1464C13.9473 11.2402 14 11.3674 14 11.5V13H15.5C15.6326 13 15.7598 13.0527 15.8536 13.1464C15.9473 13.2402 16 13.3674 16 13.5Z" fill="white"/>
</g>
<defs>
<clipPath id="clip0_12929_12076">
<rect width="16" height="16" fill="white"/>
</clipPath>
</defs>
</svg>
