<svg width="12" height="12" viewBox="0 0 12 12" fill="none" xmlns="http://www.w3.org/2000/svg">
<g clip-path="url(#clip0_2988_3148)">
<path d="M4.3125 0.75C5.03613 0.75 5.625 1.33887 5.625 2.0625V5.72754C5.03119 5.51841 4.34337 5.64505 3.86914 6.11914C3.72295 6.26537 3.723 6.50298 3.86914 6.64941C4.01556 6.79583 4.25292 6.7957 4.39941 6.64941C4.73356 6.31495 5.25797 6.29051 5.625 6.56738V9.9375C5.625 10.6611 5.03613 11.25 4.3125 11.25C3.90314 11.2499 3.52606 11.0582 3.28125 10.748C3.99339 10.4797 4.5 9.79768 4.5 9C4.49999 8.79291 4.33227 8.625 4.125 8.625C3.91783 8.62512 3.75001 8.79299 3.75 9C3.75 9.59326 3.28638 10.0866 2.69531 10.123C2.6876 10.1234 2.67969 10.1233 2.67188 10.124C2.65691 10.1258 2.63994 10.125 2.625 10.125C2.00474 10.1249 1.5 9.62029 1.5 9C1.5 8.64324 1.66399 8.31494 1.9502 8.09961C2.064 8.01416 2.11924 7.87221 2.09375 7.73242C2.06812 7.59271 1.9657 7.47882 1.8291 7.43945C1.19392 7.25623 0.75 6.66436 0.75 6C0.750001 5.47638 1.0203 4.99934 1.4541 4.72754C1.84232 5.06973 2.32538 5.24897 2.8125 5.24902C3.34094 5.24902 3.86938 5.04761 4.27148 4.64551C4.41768 4.49919 4.41787 4.26162 4.27148 4.11523C4.12508 3.96899 3.88767 3.96908 3.74121 4.11523C3.22961 4.62665 2.39709 4.62738 1.88477 4.11523L1.80664 4.03027L1.80566 4.0293C1.60864 3.79657 1.5 3.4975 1.5 3.1875C1.5 2.49159 2.04466 1.91631 2.73926 1.87793C2.8905 1.8695 3.02173 1.77075 3.07227 1.62793C3.25724 1.1028 3.75603 0.750097 4.3125 0.75ZM7.875 7.875C7.97461 7.875 8.07031 7.91504 8.14062 7.98535L8.89258 8.7373C9.03915 8.66729 9.20177 8.62505 9.375 8.625C9.99637 8.625 10.5 9.12868 10.5 9.75C10.5 10.3713 9.99637 10.875 9.375 10.875C8.75387 10.8748 8.25 10.3712 8.25 9.75C8.25 9.57667 8.29231 9.4142 8.3623 9.26758L7.71973 8.625H6.375V7.875H7.875ZM10.125 4.875C10.7464 4.875 11.25 5.37868 11.25 6C11.25 6.62132 10.7464 7.125 10.125 7.125C9.63607 7.12486 9.22426 6.81084 9.06934 6.375H6.375V5.625H9.06934C9.22426 5.18916 9.63607 4.87514 10.125 4.875ZM9.375 1.125C9.99637 1.125 10.5 1.62868 10.5 2.25C10.5 2.87132 9.99637 3.375 9.375 3.375C9.20177 3.37495 9.03915 3.33271 8.89258 3.2627L8.14062 4.01465C8.07031 4.08496 7.97461 4.125 7.875 4.125H6.375V3.375H7.71973L8.3623 2.73242C8.29231 2.5858 8.25 2.42333 8.25 2.25C8.25 1.62878 8.75387 1.12517 9.375 1.125Z" fill="white"/>
</g>
<defs>
<clipPath id="clip0_2988_3148">
<rect width="12" height="12" fill="white"/>
</clipPath>
</defs>
</svg>
