<svg width="16" height="16" viewBox="0 0 16 16" fill="none" xmlns="http://www.w3.org/2000/svg">
  <path
    d="M14.6949 10.23C14.5549 9.71497 14.2249 9.28503 13.7649 9.02002C13.2999 8.75 12.7599 8.67993 12.2449 8.82007C11.8949 8.91004 11.5848 9.09497 11.3348 9.34997L10.3699 8.79492C10.4548 8.54492 10.4999 8.28003 10.4999 8C10.4999 7.71997 10.4548 7.45496 10.3699 7.20496L13.8799 5.18506C14.1199 5.04493 14.1999 4.73999 14.0599 4.5C13.9249 4.26001 13.6199 4.17993 13.3799 4.31494L9.86987 6.33996C9.5199 5.94507 9.03992 5.66003 8.49988 5.55005V4.43506C9.36487 4.21497 9.99988 3.42993 9.99988 2.5C9.99988 1.39502 9.10486 0.5 7.99988 0.5C6.8949 0.5 5.99988 1.39502 5.99988 2.5C5.99988 3.42993 6.63489 4.21497 7.49988 4.43506V5.55005C6.95984 5.66003 6.47986 5.94507 6.12988 6.33996L2.61987 4.31494C2.37988 4.17993 2.07489 4.26001 1.93988 4.5C1.79986 4.73999 1.87988 5.04492 2.11987 5.18506L5.62988 7.20496C5.54492 7.45496 5.49988 7.71997 5.49988 8C5.49988 8.28003 5.54492 8.54492 5.62988 8.79492L4.66492 9.34997C4.41492 9.09497 4.10486 8.91004 3.75488 8.82007C3.23987 8.67994 2.69989 8.75 2.23486 9.02002C1.7749 9.28503 1.44488 9.71497 1.30487 10.23C1.25988 10.405 1.23486 10.575 1.23486 10.75C1.23486 11.1 1.32983 11.4451 1.50488 11.75C1.7699 12.215 2.20483 12.5449 2.71985 12.6799C2.88989 12.73 3.06488 12.75 3.23987 12.75C3.58484 12.75 3.92987 12.66 4.23486 12.48C4.69989 12.215 5.02991 11.785 5.16992 11.27C5.25989 10.9199 5.25989 10.5601 5.16492 10.22L6.12988 9.66004C6.47986 10.0549 6.95984 10.34 7.49988 10.45V14.5C7.49988 14.775 7.72485 15 7.99988 15C8.2749 15 8.49988 14.775 8.49988 14.5V10.45C9.03992 10.34 9.5199 10.0549 9.86987 9.66004L10.8348 10.22C10.7399 10.5601 10.7399 10.9199 10.8298 11.27C10.9698 11.785 11.2999 12.215 11.7649 12.48C12.0699 12.66 12.4149 12.75 12.7599 12.75C12.9349 12.75 13.1099 12.73 13.2799 12.6799C13.7949 12.5449 14.2299 12.21 14.4949 11.75C14.7599 11.29 14.8348 10.75 14.6949 10.23ZM7.99988 9.5C7.17487 9.5 6.49988 8.82495 6.49988 8C6.49988 7.17505 7.17487 6.5 7.99988 6.5C8.82489 6.5 9.49988 7.17505 9.49988 8C9.49988 8.82495 8.82489 9.5 7.99988 9.5Z"
    fill="#008184" />
</svg>