<svg width="16" height="16" viewBox="0 0 16 16" fill="none" xmlns="http://www.w3.org/2000/svg">
<path fill-rule="evenodd" clip-rule="evenodd" d="M14.29 10.1C14.4301 9.40879 14.5005 8.70526 14.5 8C14.5 6.27609 13.8152 4.62279 12.5962 3.40381C11.3772 2.18482 9.72391 1.5 8 1.5C6.27609 1.5 4.62279 2.18482 3.40381 3.40381C2.18482 4.62279 1.5 6.27609 1.5 8C1.5 8.66304 1.76339 9.29893 2.23223 9.76777C2.70107 10.2366 3.33696 10.5 4 10.5C4.66304 10.5 5.29893 10.2366 5.76777 9.76777C6.23661 9.29893 6.5 8.66304 6.5 8C6.5 7.60218 6.65804 7.22064 6.93934 6.93934C7.22064 6.65804 7.60218 6.5 8 6.5C8.39782 6.5 8.77936 6.65804 9.06066 6.93934C9.34196 7.22064 9.5 7.60218 9.5 8C9.50003 9.13709 9.14762 10.2462 8.49128 11.1748C7.83494 12.1033 6.90694 12.8056 5.835 13.185C5.7249 13.2249 5.63231 13.3023 5.57338 13.4035C5.51446 13.5047 5.49294 13.6234 5.51258 13.7389C5.53223 13.8543 5.59178 13.9592 5.68086 14.0353C5.76993 14.1113 5.88288 14.1537 6 14.155C6.0563 14.1544 6.11208 14.1442 6.165 14.125C7.43208 13.6774 8.52928 12.8481 9.30561 11.7512C10.0819 10.6543 10.4992 9.34381 10.5 8C10.5 7.33696 10.2366 6.70107 9.76777 6.23223C9.29893 5.76339 8.66304 5.5 8 5.5C7.33696 5.5 6.70107 5.76339 6.23223 6.23223C5.76339 6.70107 5.5 7.33696 5.5 8C5.5 8.39782 5.34196 8.77936 5.06066 9.06066C4.77936 9.34196 4.39782 9.5 4 9.5C3.60218 9.5 3.22064 9.34196 2.93934 9.06066C2.65804 8.77936 2.5 8.39782 2.5 8C2.5 6.54131 3.07946 5.14236 4.11091 4.11091C5.14236 3.07946 6.54131 2.5 8 2.5C9.45869 2.5 10.8576 3.07946 11.8891 4.11091C12.9205 5.14236 13.5 6.54131 13.5 8C13.4971 8.64174 13.4301 9.28158 13.3 9.91C13.2869 9.97435 13.2865 10.0407 13.299 10.1051C13.3115 10.1696 13.3366 10.231 13.3728 10.2858C13.409 10.3406 13.4556 10.3877 13.5101 10.4245C13.5645 10.4612 13.6256 10.4869 13.69 10.5H13.79C13.907 10.5024 14.0211 10.4636 14.1124 10.3905C14.2038 10.3174 14.2666 10.2146 14.29 10.1ZM12.5 8C12.5046 9.15633 12.2713 10.3013 11.8146 11.3636C11.3578 12.4259 10.6874 13.3829 9.845 14.175C9.75153 14.2625 9.62804 14.3108 9.5 14.31C9.43181 14.3104 9.36425 14.2969 9.30148 14.2702C9.23871 14.2436 9.18205 14.2044 9.135 14.155C9.08814 14.1085 9.05094 14.0532 9.02555 13.9923C9.00017 13.9314 8.9871 13.866 8.9871 13.8C8.9871 13.734 9.00017 13.6686 9.02555 13.6077C9.05094 13.5468 9.08814 13.4915 9.135 13.445C9.88374 12.7498 10.4804 11.9072 10.8874 10.97C11.2945 10.0329 11.503 9.02169 11.5 8C11.5 7.07174 11.1313 6.1815 10.4749 5.52513C9.8185 4.86875 8.92826 4.5 8 4.5C7.07174 4.5 6.1815 4.86875 5.52513 5.52513C4.86875 6.1815 4.5 7.07174 4.5 8C4.5 8.13261 4.44732 8.25979 4.35355 8.35355C4.25979 8.44732 4.13261 8.5 4 8.5C3.86739 8.5 3.74021 8.44732 3.64645 8.35355C3.55268 8.25979 3.5 8.13261 3.5 8C3.5 6.80653 3.97411 5.66193 4.81802 4.81802C5.66193 3.97411 6.80653 3.5 8 3.5C9.19347 3.5 10.3381 3.97411 11.182 4.81802C12.0259 5.66193 12.5 6.80653 12.5 8ZM3.99999 12.5C3.81274 12.5009 3.62565 12.4893 3.43999 12.465C3.37433 12.4571 3.31086 12.4364 3.25321 12.404C3.19556 12.3716 3.14486 12.3281 3.10401 12.2761C3.06315 12.2241 3.03293 12.1646 3.01509 12.1009C2.99724 12.0372 2.99211 11.9707 2.99999 11.905C3.00787 11.8393 3.0286 11.7759 3.06101 11.7182C3.09341 11.6606 3.13686 11.6099 3.18886 11.569C3.24086 11.5282 3.3004 11.4979 3.36408 11.4801C3.42776 11.4623 3.49433 11.4571 3.55999 11.465C3.70595 11.4843 3.85281 11.496 3.99999 11.5C4.92824 11.5 5.81848 11.1313 6.47486 10.4749C7.13124 9.8185 7.49999 8.92826 7.49999 8C7.49999 7.86739 7.55267 7.74021 7.64643 7.64645C7.7402 7.55268 7.86738 7.5 7.99999 7.5C8.1326 7.5 8.25977 7.55268 8.35354 7.64645C8.44731 7.74021 8.49999 7.86739 8.49999 8C8.49999 9.19347 8.02588 10.3381 7.18197 11.182C6.33805 12.0259 5.19346 12.5 3.99999 12.5Z" fill="#FF5A49"/>
</svg>
