<svg width="16" height="16" viewBox="0 0 16 16" fill="none" xmlns="http://www.w3.org/2000/svg">
  <path
    d="M14.5 7.5H8.5V6H10C10.2764 6 10.5 5.77637 10.5 5.5V2.5C10.5 2.22363 10.2764 2 10 2H6C5.72364 2 5.5 2.22363 5.5 2.5V5.5C5.5 5.77637 5.72364 6 6 6H7.5V7.5H1.5C1.22363 7.5 1 7.72364 1 8C1 8.27636 1.22363 8.5 1.5 8.5H4V10H2.5C2.22363 10 2 10.2236 2 10.5V13.5C2 13.7764 2.22363 14 2.5 14H6.5C6.77636 14 7 13.7764 7 13.5V10.5C7 10.2236 6.77636 10 6.5 10H5V8.5H11V10H9.5C9.22363 10 9 10.2236 9 10.5V13.5C9 13.7764 9.22363 14 9.5 14H13.5C13.7764 14 14 13.7764 14 13.5V10.5C14 10.2236 13.7764 10 13.5 10H12V8.5H14.5C14.7764 8.5 15 8.27636 15 8C15 7.72364 14.7764 7.5 14.5 7.5Z"
    fill="#E05A00" />
</svg>