<svg width="16" height="16" viewBox="0 0 16 16" fill="none" xmlns="http://www.w3.org/2000/svg">
  <path
    d="M8.00024 3.50214C9.4189 3.50219 10.8089 3.90423 12.0081 4.66229C13.2072 5.4204 14.1661 6.50381 14.7747 7.78534C14.8066 7.85246 14.8235 7.92585 14.8235 8.00018C14.8235 8.07451 14.8066 8.14792 14.7747 8.21503C14.1662 9.4964 13.207 10.579 12.0081 11.3371C10.8089 12.0952 9.4189 12.4982 8.00024 12.4982C6.58149 12.4982 5.19165 12.0952 3.99243 11.3371C2.79325 10.579 1.8334 9.49661 1.22485 8.21503C1.1929 8.14793 1.17605 8.0745 1.17603 8.00018C1.17603 7.92591 1.19296 7.85241 1.22485 7.78534C1.83341 6.50373 2.79321 5.4204 3.99243 4.66229C5.19161 3.90426 6.58157 3.50214 8.00024 3.50214ZM8.9563 5.69061C8.49954 5.50146 7.99684 5.45159 7.51196 5.54803C7.02713 5.64453 6.58223 5.88306 6.23267 6.2326C5.88313 6.58215 5.64461 7.0271 5.5481 7.5119C5.45165 7.99676 5.50154 8.49949 5.69067 8.95624C5.87982 9.41288 6.1997 9.80362 6.6106 10.0783C7.02172 10.353 7.50579 10.5002 8.00024 10.5002C8.66318 10.5001 9.29905 10.2365 9.76782 9.76776C10.2366 9.29897 10.5002 8.66313 10.5002 8.00018C10.5002 7.5058 10.353 7.02259 10.0784 6.61151C9.80367 6.20039 9.41311 5.87983 8.9563 5.69061ZM8.00024 6.50018C8.82854 6.50034 9.50024 7.17185 9.50024 8.00018C9.50016 8.82844 8.82849 9.50003 8.00024 9.50018C7.17187 9.50018 6.50033 8.82854 6.50024 8.00018C6.50024 7.17176 7.17182 6.50018 8.00024 6.50018Z"
    fill="#118AB2" />
</svg>