<svg width="16" height="16" viewBox="0 0 16 16" fill="none" xmlns="http://www.w3.org/2000/svg">
  <path
    d="M13 3.5V5.5C13 5.63261 12.9473 5.75979 12.8536 5.85355C12.7598 5.94732 12.6326 6 12.5 6C12.3674 6 12.2402 5.94732 12.1464 5.85355C12.0527 5.75979 12 5.63261 12 5.5V4H8.5V12H10C10.1326 12 10.2598 12.0527 10.3536 12.1464C10.4473 12.2402 10.5 12.3674 10.5 12.5C10.5 12.6326 10.4473 12.7598 10.3536 12.8536C10.2598 12.9473 10.1326 13 10 13H6C5.86739 13 5.74021 12.9473 5.64645 12.8536C5.55268 12.7598 5.5 12.6326 5.5 12.5C5.5 12.3674 5.55268 12.2402 5.64645 12.1464C5.74021 12.0527 5.86739 12 6 12H7.5V4H4V5.5C4 5.63261 3.94732 5.75979 3.85355 5.85355C3.75979 5.94732 3.63261 6 3.5 6C3.36739 6 3.24021 5.94732 3.14645 5.85355C3.05268 5.75979 3 5.63261 3 5.5V3.5C3 3.36739 3.05268 3.24021 3.14645 3.14645C3.24021 3.05268 3.36739 3 3.5 3H12.5C12.6326 3 12.7598 3.05268 12.8536 3.14645C12.9473 3.24021 13 3.36739 13 3.5Z"
    fill="#938210" />
</svg>