<svg width="16" height="16" viewBox="0 0 16 16" fill="none" xmlns="http://www.w3.org/2000/svg">
<path fill-rule="evenodd" clip-rule="evenodd" d="M4 15C3.72363 15 3.5 14.7764 3.5 14.5V1.5C3.5 1.22363 3.72363 1 4 1C4.27637 1 4.5 1.22363 4.5 1.5V14.5C4.5 14.7764 4.27637 15 4 15ZM2 12.5C1.72363 12.5 1.5 12.2764 1.5 12V4C1.5 3.72363 1.72363 3.5 2 3.5C2.27637 3.5 2.5 3.72363 2.5 4V12C2.5 12.2764 2.27637 12.5 2 12.5ZM5.5 12.5C5.5 12.7764 5.72363 13 6 13C6.27637 13 6.5 12.7764 6.5 12.5V3.5C6.5 3.22363 6.27637 3 6 3C5.72363 3 5.5 3.22363 5.5 3.5V12.5ZM8 10.5C7.72364 10.5 7.5 10.2764 7.5 10V6C7.5 5.72363 7.72364 5.5 8 5.5C8.27636 5.5 8.5 5.72363 8.5 6V10C8.5 10.2764 8.27636 10.5 8 10.5ZM9.5 11.5C9.5 11.7764 9.72363 12 10 12C10.2764 12 10.5 11.7764 10.5 11.5V4.5C10.5 4.22363 10.2764 4 10 4C9.72363 4 9.5 4.22363 9.5 4.5V11.5ZM12 10C11.7236 10 11.5 9.77637 11.5 9.5V6.5C11.5 6.22364 11.7236 6 12 6C12.2764 6 12.5 6.22364 12.5 6.5V9.5C12.5 9.77637 12.2764 10 12 10ZM13.5 10.5C13.5 10.7764 13.7236 11 14 11C14.2764 11 14.5 10.7764 14.5 10.5V5.5C14.5 5.22363 14.2764 5 14 5C13.7236 5 13.5 5.22363 13.5 5.5V10.5Z" fill="#FFD15C"/>
</svg>
