<svg width="16" height="16" viewBox="0 0 16 16" fill="none" xmlns="http://www.w3.org/2000/svg">
  <path
    d="M11.8525 1.1498C11.9846 1.14981 12.1114 1.20219 12.2051 1.2953C13.985 3.07668 14.9854 5.49191 14.9854 8.01015C14.9853 10.5284 13.9851 12.9436 12.2051 14.725C12.1137 14.8131 11.9921 14.8628 11.8652 14.8646C11.763 14.8695 11.6618 14.8429 11.5752 14.7885C11.4886 14.7339 11.4207 14.6542 11.3809 14.56C11.341 14.4656 11.3312 14.3613 11.3525 14.2611C11.3739 14.1611 11.4253 14.0702 11.5 14.0004C13.0876 12.4073 13.9794 10.2495 13.9795 8.00038C13.9795 5.75123 13.0876 3.59357 11.5 2.00038C11.407 1.90678 11.3546 1.77981 11.3545 1.64784C11.3545 1.51582 11.407 1.38897 11.5 1.2953C11.5937 1.20218 11.7204 1.1498 11.8525 1.1498ZM9.73438 3.23085C9.80307 3.2335 9.87071 3.2498 9.93262 3.27968C9.99454 3.30964 10.0499 3.35247 10.0947 3.40468C11.313 4.62357 11.998 6.27706 11.998 8.00038C11.9979 9.72355 11.3129 11.3763 10.0947 12.5951C10.0025 12.6891 9.87685 12.7426 9.74512 12.7445C9.67904 12.7442 9.61361 12.7312 9.55273 12.7055C9.4918 12.6797 9.43596 12.6424 9.38965 12.5951C9.29661 12.5015 9.24417 12.3746 9.24414 12.2426C9.24414 12.1106 9.29666 11.9837 9.38965 11.89C9.90064 11.3793 10.3064 10.7723 10.583 10.1049C10.8594 9.43766 11.0019 8.72258 11.002 8.00038C11.002 7.27801 10.8595 6.56228 10.583 5.89491C10.3064 5.22745 9.90064 4.62051 9.38965 4.10976C9.33744 4.06498 9.2946 4.00956 9.26465 3.94765C9.23476 3.88573 9.21847 3.81811 9.21582 3.7494C9.21317 3.68067 9.22495 3.6123 9.25 3.54823C9.27513 3.48409 9.31262 3.42508 9.36133 3.37636C9.41006 3.32763 9.46904 3.29017 9.5332 3.26503C9.59727 3.23996 9.66563 3.22821 9.73438 3.23085ZM5.44336 3.50722C5.53113 3.49847 5.6199 3.51367 5.7002 3.55019C5.78795 3.58852 5.86287 3.65119 5.91602 3.73085C5.96921 3.81064 5.99841 3.9045 6 4.00038V12.0004C5.99966 12.0924 5.97411 12.1828 5.92578 12.2611C5.87724 12.3397 5.80707 12.4032 5.72461 12.4447C5.64475 12.4819 5.55649 12.4975 5.46875 12.4896C5.38102 12.4817 5.29653 12.4507 5.22461 12.3998L3.33496 11.0004H1.5C1.36747 11.0004 1.24024 10.9476 1.14648 10.8539C1.05279 10.7602 1.00009 10.6329 1 10.5004V5.50038C1 5.36785 1.05282 5.24062 1.14648 5.14687C1.24025 5.0531 1.36739 5.00038 1.5 5.00038H3.33496L5.2002 3.59999C5.27167 3.54834 5.3556 3.51599 5.44336 3.50722ZM7.62207 5.37929C7.75403 5.37929 7.88096 5.43185 7.97461 5.5248C8.30499 5.84854 8.56874 6.23456 8.74902 6.66054C8.9293 7.0866 9.02306 7.54459 9.02539 8.00722C9.02771 8.46967 8.93855 8.92814 8.7627 9.35585C8.5867 9.78371 8.32717 10.1733 8 10.5004C7.94831 10.5453 7.88755 10.5784 7.82227 10.599C7.75693 10.6196 7.68826 10.6266 7.62012 10.6195C7.48895 10.619 7.36266 10.5674 7.26953 10.475C7.17655 10.3813 7.125 10.2544 7.125 10.1225C7.12501 9.99046 7.17654 9.86357 7.26953 9.76991C7.50229 9.53774 7.68745 9.26202 7.81348 8.95839C7.93946 8.65479 8.00483 8.32908 8.00488 8.00038C8.00488 7.67155 7.93951 7.34512 7.81348 7.0414C7.68745 6.73782 7.50225 6.462 7.26953 6.22987C7.17659 6.13622 7.125 6.00929 7.125 5.87733C7.12504 5.74536 7.17653 5.61843 7.26953 5.5248C7.36311 5.43177 7.49013 5.3794 7.62207 5.37929Z"
    fill="#219C22" />
</svg>