<svg width="16" height="16" viewBox="0 0 16 16" fill="none" xmlns="http://www.w3.org/2000/svg">
  <path
    d="M12.5 5C12.6326 5 12.7597 5.05272 12.8535 5.14648C12.9473 5.24025 13 5.36739 13 5.5V13.5C13 13.6326 12.9473 13.7597 12.8535 13.8535C12.7597 13.9473 12.6326 14 12.5 14H3.5C3.36739 14 3.24025 13.9473 3.14648 13.8535C3.05272 13.7597 3 13.6326 3 13.5V5.5C3 5.36739 3.05272 5.24025 3.14648 5.14648C3.24025 5.05272 3.36739 5 3.5 5H12.5ZM6 6.5C5.86739 6.5 5.74025 6.55272 5.64648 6.64648C5.55272 6.74025 5.5 6.86739 5.5 7V9C5.5 9.13261 5.55272 9.25975 5.64648 9.35352C5.74025 9.44728 5.86739 9.5 6 9.5H10C10.1326 9.5 10.2597 9.44728 10.3535 9.35352C10.4473 9.25975 10.5 9.13261 10.5 9V7C10.5 6.86739 10.4473 6.74025 10.3535 6.64648C10.2597 6.55272 10.1326 6.5 10 6.5H6ZM9.5 8.5H6.5V7.5H9.5V8.5ZM13.5 2C13.7761 2 14 2.22386 14 2.5V3.5C14 3.77614 13.7761 4 13.5 4H2.5C2.22386 4 2 3.77614 2 3.5V2.5C2 2.22386 2.22386 2 2.5 2H13.5Z"
    fill="#E6195E" />
</svg>