<svg width="16" height="16" viewBox="0 0 16 16" fill="none" xmlns="http://www.w3.org/2000/svg">
<path fill-rule="evenodd" clip-rule="evenodd" d="M5.86998 6.50022L0.554976 5.06522C0.491136 5.0484 0.43126 5.0191 0.378802 4.97902C0.326344 4.93894 0.282343 4.88886 0.249339 4.83169C0.216335 4.77451 0.19498 4.71136 0.186508 4.64589C0.178035 4.58042 0.182613 4.51391 0.199976 4.45022C0.472076 3.43065 1.00826 2.50087 1.75444 1.75469C2.50062 1.00851 3.4304 0.47232 4.44998 0.20022C4.51367 0.182857 4.58017 0.178279 4.64565 0.186752C4.71112 0.195224 4.77426 0.216579 4.83144 0.249583C4.88862 0.282587 4.93869 0.326588 4.97877 0.379046C5.01886 0.431504 5.04815 0.49138 5.06498 0.55522L6.49998 5.87022C6.52036 5.94575 6.52274 6.02501 6.50692 6.10162C6.49111 6.17824 6.45753 6.25007 6.4089 6.31135C6.36026 6.37262 6.29793 6.42164 6.22691 6.45444C6.15589 6.48724 6.07816 6.50292 5.99998 6.50022C5.95678 6.50513 5.91317 6.50513 5.86998 6.50022ZM8.07897 3.42888C8.06515 3.50057 8.0672 3.57443 8.08497 3.64524L9.26997 8.13024C9.29927 8.23933 9.36464 8.33527 9.45543 8.40246C9.54623 8.46964 9.65709 8.50411 9.76997 8.50024H14.41C14.4834 8.50036 14.556 8.4843 14.6226 8.45319C14.6891 8.42208 14.748 8.37669 14.795 8.32024C14.8414 8.26374 14.8749 8.19774 14.893 8.1269C14.9111 8.05606 14.9135 7.9821 14.9 7.91024C14.6452 6.53139 13.9156 5.2853 12.8378 4.38835C11.7601 3.49142 10.4022 3.00028 8.99997 3.00024H8.52997C8.45582 3.0089 8.38455 3.03405 8.32139 3.07385C8.25823 3.11365 8.20478 3.16709 8.16497 3.23024C8.12215 3.28938 8.09279 3.35718 8.07897 3.42888ZM4.81998 12.4702L7.41498 9.87521H7.39498C7.45795 9.81352 7.5035 9.73627 7.52699 9.65129C7.55049 9.56632 7.5511 9.47665 7.52876 9.39136C7.50643 9.30608 7.46194 9.22822 7.39981 9.16567C7.33768 9.10312 7.26011 9.05812 7.17498 9.03521L3.62498 8.08521C3.55452 8.06673 3.48087 8.06386 3.40918 8.07682C3.3375 8.08977 3.26951 8.11823 3.20998 8.16021C3.14992 8.20265 3.09996 8.25781 3.06366 8.32176C3.02736 8.38572 3.00562 8.45689 2.99998 8.53021V9.00021C2.99858 10.2159 3.36648 11.4033 4.05498 12.4052C4.09741 12.4653 4.15257 12.5152 4.21653 12.5515C4.28048 12.5878 4.35166 12.6096 4.42498 12.6152H4.46998C4.60115 12.6147 4.72685 12.5626 4.81998 12.4702ZM14.893 9.87359C14.8749 9.80275 14.8414 9.73675 14.795 9.68024C14.7485 9.62445 14.6904 9.57944 14.6248 9.54836C14.5592 9.51727 14.4876 9.50085 14.415 9.50024H9.41498C9.28381 9.5008 9.15811 9.55287 9.06498 9.64524L5.52998 13.1802C5.47945 13.232 5.44077 13.2942 5.4166 13.3624C5.39243 13.4306 5.38334 13.5032 5.38998 13.5752C5.39633 13.6477 5.41841 13.7179 5.45468 13.7809C5.49095 13.844 5.54053 13.8983 5.59998 13.9402C6.42404 14.5071 7.37675 14.859 8.37145 14.9638C9.36615 15.0687 10.3713 14.9232 11.2954 14.5406C12.2196 14.158 13.0334 13.5505 13.663 12.7732C14.2925 11.996 14.7177 11.0737 14.9 10.0902C14.9135 10.0184 14.9111 9.94443 14.893 9.87359Z" fill="#16A534"/>
</svg>
