<svg width="16" height="16" viewBox="0 0 16 16" fill="none" xmlns="http://www.w3.org/2000/svg">
  <path
    d="M8 1C6.14348 1 4.36301 1.7375 3.05025 3.05025C1.7375 4.36301 1 6.14348 1 8V10C1 10.5304 1.21071 11.0391 1.58579 11.4142C1.96086 11.7893 2.46957 12 3 12C3.53043 12 4.03914 11.7893 4.41421 11.4142C4.78929 11.0391 5 10.5304 5 10C5 9.73478 5.10536 9.48043 5.29289 9.29289C5.48043 9.10536 5.73478 9 6 9C6.26522 9 6.51957 9.10536 6.70711 9.29289C6.89464 9.48043 7 9.73478 7 10V13C7 13.5304 7.21071 14.0391 7.58579 14.4142C7.96086 14.7893 8.46957 15 9 15C12.31 15 15 11.86 15 8C15 6.14348 14.2625 4.36301 12.9497 3.05025C11.637 1.7375 9.85652 1 8 1ZM5.705 5.705C5.5651 5.84474 5.38692 5.93987 5.19297 5.97837C4.99902 6.01686 4.79801 5.99699 4.61535 5.92127C4.43269 5.84555 4.27657 5.71738 4.16674 5.55295C4.05691 5.38853 3.99829 5.19523 3.99829 4.9975C3.99829 4.79977 4.05691 4.60647 4.16674 4.44205C4.27657 4.27762 4.43269 4.14945 4.61535 4.07373C4.79801 3.99801 4.99902 3.97814 5.19297 4.01663C5.38692 4.05513 5.5651 4.15026 5.705 4.29C5.79798 4.38287 5.87174 4.49316 5.92206 4.61456C5.97238 4.73596 5.99829 4.86608 5.99829 4.9975C5.99829 5.12892 5.97238 5.25904 5.92206 5.38044C5.87174 5.50184 5.79798 5.61213 5.705 5.705ZM8.705 4.705C8.5651 4.84474 8.38692 4.93987 8.19297 4.97837C7.99902 5.01686 7.79801 4.99699 7.61535 4.92127C7.43268 4.84555 7.27657 4.71738 7.16674 4.55295C7.05691 4.38853 6.99829 4.19523 6.99829 3.9975C6.99829 3.79977 7.05691 3.60647 7.16674 3.44205C7.27657 3.27762 7.43268 3.14945 7.61535 3.07373C7.79801 2.99801 7.99902 2.97814 8.19297 3.01663C8.38692 3.05513 8.5651 3.15026 8.705 3.29C8.79798 3.38287 8.87174 3.49316 8.92206 3.61456C8.97238 3.73596 8.99829 3.86608 8.99829 3.9975C8.99829 4.12892 8.97238 4.25904 8.92206 4.38044C8.87174 4.50184 8.79798 4.61213 8.705 4.705ZM10.29 4.29C10.4299 4.15026 10.6081 4.05513 10.802 4.01663C10.996 3.97814 11.197 3.99801 11.3797 4.07373C11.5623 4.14945 11.7184 4.27762 11.8283 4.44205C11.9381 4.60647 11.9967 4.79977 11.9967 4.9975C11.9967 5.19523 11.9381 5.38853 11.8283 5.55295C11.7184 5.71738 11.5623 5.84555 11.3797 5.92127C11.197 5.99699 10.996 6.01686 10.802 5.97837C10.6081 5.93987 10.4299 5.84474 10.29 5.705C10.197 5.61213 10.1233 5.50184 10.0729 5.38044C10.0226 5.25904 9.99671 5.12892 9.99671 4.9975C9.99671 4.86608 10.0226 4.73596 10.0729 4.61456C10.1233 4.49316 10.197 4.38287 10.29 4.29ZM11.705 11.705C11.5651 11.8447 11.3869 11.9399 11.193 11.9784C10.999 12.0169 10.798 11.997 10.6153 11.9213C10.4327 11.8456 10.2766 11.7174 10.1667 11.553C10.0569 11.3885 9.99829 11.1952 9.99829 10.9975C9.99829 10.7998 10.0569 10.6065 10.1667 10.442C10.2766 10.2776 10.4327 10.1494 10.6153 10.0737C10.798 9.99801 10.999 9.97814 11.193 10.0166C11.3869 10.0551 11.5651 10.1503 11.705 10.29C11.798 10.3829 11.8717 10.4932 11.9221 10.6146C11.9724 10.736 11.9983 10.8661 11.9983 10.9975C11.9983 11.1289 11.9724 11.259 11.9221 11.3804C11.8717 11.5018 11.798 11.6121 11.705 11.705ZM12.705 8.705C12.5651 8.84474 12.3869 8.93987 12.193 8.97837C11.999 9.01686 11.798 8.99699 11.6153 8.92127C11.4327 8.84555 11.2766 8.71738 11.1667 8.55295C11.0569 8.38853 10.9983 8.19523 10.9983 7.9975C10.9983 7.79977 11.0569 7.60647 11.1667 7.44205C11.2766 7.27762 11.4327 7.14945 11.6153 7.07373C11.798 6.99801 11.999 6.97814 12.193 7.01663C12.3869 7.05513 12.5651 7.15026 12.705 7.29C12.798 7.38287 12.8717 7.49316 12.9221 7.61456C12.9724 7.73596 12.9983 7.86608 12.9983 7.9975C12.9983 8.12892 12.9724 8.25904 12.9221 8.38044C12.8717 8.50184 12.798 8.61213 12.705 8.705Z"
    fill="#961CC1" />
</svg>