<svg width="14" height="14" viewBox="0 0 14 14" fill="none" xmlns="http://www.w3.org/2000/svg">
<g id="Icon">
<path id="Vector" d="M13.4248 8.54461C13.1459 8.39433 12.9129 8.17136 12.7505 7.89935C12.5881 7.62733 12.5023 7.31643 12.5023 6.99961C12.5023 6.6828 12.5881 6.37189 12.7505 6.09988C12.9129 5.82786 13.1459 5.60489 13.4248 5.45461C13.5272 5.3995 13.6071 5.31045 13.6509 5.20277C13.6947 5.0951 13.6996 4.97552 13.6648 4.86461C13.3548 3.91034 12.8432 3.03387 12.1648 2.29461C12.0863 2.20755 11.9797 2.15084 11.8637 2.13439C11.7476 2.11794 11.6294 2.14279 11.5298 2.20461C11.262 2.37335 10.953 2.46538 10.6365 2.47067C10.32 2.47596 10.0081 2.39431 9.73483 2.23461C9.4595 2.07652 9.23252 1.84631 9.07833 1.56878C8.92415 1.29124 8.8486 0.976901 8.85983 0.659612C8.86242 0.543339 8.82439 0.4298 8.75229 0.33854C8.6802 0.24728 8.57855 0.184007 8.46483 0.159612C7.48881 -0.0453915 6.48085 -0.0453915 5.50483 0.159612C5.39112 0.184007 5.28946 0.24728 5.21737 0.33854C5.14527 0.4298 5.10724 0.543339 5.10983 0.659612C5.12184 0.975974 5.04829 1.28972 4.89694 1.56779C4.74559 1.84585 4.52203 2.07795 4.24983 2.23961C3.97571 2.3975 3.66374 2.47767 3.34747 2.4715C3.03119 2.46533 2.72258 2.37306 2.45483 2.20461C2.35523 2.14279 2.23707 2.11794 2.121 2.13439C2.00493 2.15084 1.89833 2.20755 1.81983 2.29461C1.14142 3.03387 0.629862 3.91034 0.319831 4.86461C0.285012 4.97552 0.289926 5.0951 0.333727 5.20277C0.377528 5.31045 0.457479 5.3995 0.55983 5.45461C0.838736 5.60489 1.07176 5.82786 1.23418 6.09988C1.3966 6.37189 1.48236 6.6828 1.48236 6.99961C1.48236 7.31643 1.3966 7.62733 1.23418 7.89935C1.07176 8.17136 0.838736 8.39433 0.55983 8.54461C0.457479 8.59972 0.377528 8.68877 0.333727 8.79645C0.289926 8.90413 0.285012 9.0237 0.319831 9.13461C0.629862 10.0889 1.14142 10.9653 1.81983 11.7046C1.89833 11.7917 2.00493 11.8484 2.121 11.8648C2.23707 11.8813 2.35523 11.8564 2.45483 11.7946C2.72265 11.6259 3.03163 11.5338 3.34813 11.5286C3.66464 11.5233 3.97652 11.6049 4.24983 11.7646C4.52516 11.9227 4.75214 12.1529 4.90633 12.4304C5.06051 12.708 5.13606 13.0223 5.12483 13.3396C5.12224 13.4559 5.16027 13.5694 5.23237 13.6607C5.30446 13.7519 5.40612 13.8152 5.51983 13.8396C6.49568 14.0462 7.50398 14.0462 8.47983 13.8396C8.59354 13.8152 8.6952 13.7519 8.76729 13.6607C8.83939 13.5694 8.87742 13.4559 8.87483 13.3396C8.86433 13.0218 8.94014 12.707 9.0942 12.4288C9.24827 12.1506 9.47484 11.9194 9.74983 11.7596C10.0239 11.6017 10.3359 11.5216 10.6522 11.5277C10.9685 11.5339 11.2771 11.6262 11.5448 11.7946C11.6444 11.8564 11.7626 11.8813 11.8787 11.8648C11.9947 11.8484 12.1013 11.7917 12.1798 11.7046C12.8582 10.9653 13.3698 10.0889 13.6798 9.13461C13.7135 9.02198 13.7063 8.9011 13.6597 8.79321C13.6131 8.68531 13.5299 8.5973 13.4248 8.54461ZM9.16483 8.24961C8.83755 8.82015 8.29862 9.23872 7.66483 9.41461C7.44825 9.47398 7.22439 9.5026 6.99983 9.49961C6.45005 9.49843 5.91599 9.31606 5.48032 8.98072C5.04465 8.64538 4.73167 8.17578 4.58983 7.64461C4.48369 7.24747 4.47712 6.83028 4.5707 6.42999C4.66428 6.02969 4.85513 5.65866 5.12635 5.34973C5.39756 5.04081 5.74077 4.80353 6.12557 4.65892C6.51038 4.5143 6.92491 4.4668 7.33245 4.52064C7.74 4.57447 8.12798 4.72798 8.46204 4.96755C8.79609 5.20713 9.06591 5.52539 9.24761 5.89414C9.4293 6.26289 9.51726 6.67075 9.5037 7.08161C9.49013 7.49248 9.37546 7.89365 9.16983 8.24961H9.16483Z" fill="#5D6A6B"/>
</g>
</svg>
