<svg width="16" height="16" viewBox="0 0 16 16" fill="none" xmlns="http://www.w3.org/2000/svg">
<path d="M14.5 12C14.5 12.55 14.05 13 13.5 13C13.13 13 12.81 12.8 12.635 12.5H11C10.725 12.5 10.5 12.275 10.5 12V9.5H8.5V11.135C8.79999 11.3101 9 11.63 9 12C9 12.55 8.54999 13 8 13C7.45001 13 7 12.55 7 12C7 11.63 7.20001 11.3101 7.5 11.135V9.5H5.5V13.5C5.5 13.775 5.27502 14 5 14H3.36499C3.19 14.3 2.86999 14.5 2.5 14.5C1.95001 14.5 1.5 14.05 1.5 13.5C1.5 12.95 1.95001 12.5 2.5 12.5C2.86999 12.5 3.19 12.7 3.36499 13H4.5V9.5H4.25C2.73498 9.5 1.5 8.26502 1.5 6.75C1.5 5.66992 2.125 4.70996 3.07996 4.26001C3.42005 2.66504 4.83996 1.5 6.5 1.5C7.28504 1.5 8.03503 1.76001 8.64001 2.22998C8.98498 2.07995 9.35998 2 9.75 2C11.03 2 12.12 2.87 12.42 4.07996C13.63 4.38001 14.5 5.46997 14.5 6.75C14.5 8.26502 13.265 9.5 11.75 9.5H11.5V11.5H12.635C12.81 11.2 13.13 11 13.5 11C14.05 11 14.5 11.45 14.5 12Z" fill="#25C2C7"/>
</svg>
