<svg width="28" height="18" viewBox="0 0 28 18" fill="none" xmlns="http://www.w3.org/2000/svg">
<path fill-rule="evenodd" clip-rule="evenodd" d="M5.98975 15.668C8.38693 17.1841 11.1636 17.9925 14 18C16.8364 17.9925 19.613 17.1841 22.0102 15.668C24.4073 14.1518 26.3276 11.9895 27.55 9.43C27.6139 9.29568 27.6471 9.14878 27.6471 9C27.6471 8.85122 27.6139 8.70432 27.55 8.57C26.3328 6.00678 24.4137 3.84137 22.0152 2.32514C19.6168 0.80892 16.8375 0.00408936 14 0.00408936C11.1624 0.00408936 8.38314 0.80892 5.9847 2.32514C3.58626 3.84137 1.66707 6.00678 0.449954 8.57C0.38598 8.70432 0.352783 8.85122 0.352783 9C0.352783 9.14878 0.38598 9.29568 0.449954 9.43C1.67227 11.9895 3.59256 14.1518 5.98975 15.668ZM7.25696 14.1096C5.22403 12.8762 3.5683 11.1089 2.46995 9C3.5683 6.89107 5.22403 5.12378 7.25696 3.89043C9.28989 2.65708 11.6221 2.00492 14 2.00492C16.3778 2.00492 18.71 2.65708 20.743 3.89043C22.7759 5.12378 24.4316 6.89107 25.53 9C24.4316 11.1089 22.7759 12.8762 20.743 14.1096C18.71 15.3429 16.3778 15.9951 14 15.9951C11.6221 15.9951 9.28989 15.3429 7.25696 14.1096ZM11.2221 13.1573C12.0444 13.7067 13.0111 13.9999 14 13.9999C15.326 13.9999 16.5978 13.4732 17.5355 12.5355C18.4732 11.5978 19 10.326 19 8.99994C19 8.01103 18.7067 7.04434 18.1573 6.22209C17.6079 5.39984 16.827 4.75898 15.9134 4.38054C14.9997 4.00211 13.9944 3.90309 13.0245 4.09601C12.0546 4.28894 11.1637 4.76515 10.4644 5.46441C9.76516 6.16367 9.28896 7.05459 9.09603 8.02449C8.9031 8.9944 9.00212 9.99973 9.38056 10.9134C9.759 11.827 10.3999 12.6079 11.2221 13.1573ZM12.3332 6.50553C12.8266 6.17589 13.4066 5.99994 14 5.99994C14.7956 5.99994 15.5587 6.31601 16.1213 6.87862C16.6839 7.44123 17 8.20429 17 8.99994C17 9.59329 16.824 10.1733 16.4944 10.6667C16.1647 11.16 15.6962 11.5445 15.148 11.7716C14.5998 11.9986 13.9966 12.0581 13.4147 11.9423C12.8327 11.8265 12.2982 11.5408 11.8786 11.1213C11.4591 10.7017 11.1734 10.1672 11.0576 9.58521C10.9418 9.00327 11.0013 8.40007 11.2283 7.85189C11.4554 7.30371 11.8399 6.83518 12.3332 6.50553Z" fill="white"/>
</svg>
