<svg width="16" height="16" viewBox="0 0 16 16" fill="none" xmlns="http://www.w3.org/2000/svg">
  <path
    d="M13.5 10C13.7761 10 14 10.2239 14 10.5V13.5C14 13.7761 13.7761 14 13.5 14H2.5C2.22386 14 2 13.7761 2 13.5V10.5C2 10.2239 2.22386 10 2.5 10H13.5ZM13.5 5C13.7761 5 14 5.22386 14 5.5V8.5C14 8.77614 13.7761 9 13.5 9H2.5C2.22386 9 2 8.77614 2 8.5V5.5C2 5.22386 2.22386 5 2.5 5H13.5ZM7 2C7.27614 2 7.5 2.22386 7.5 2.5V3.5C7.5 3.77614 7.27614 4 7 4H3.5C3.22386 4 3 3.77614 3 3.5V2.5C3 2.22386 3.22386 2 3.5 2H7ZM12.5 2C12.7761 2 13 2.22386 13 2.5V3.5C13 3.77614 12.7761 4 12.5 4H9C8.72386 4 8.5 3.77614 8.5 3.5V2.5C8.5 2.22386 8.72386 2 9 2H12.5Z"
    fill="#5D6A6B" />
</svg>