<svg width="16" height="16" viewBox="0 0 16 16" fill="none" xmlns="http://www.w3.org/2000/svg">
<path fill-rule="evenodd" clip-rule="evenodd" d="M12.0076 4.66248C13.2068 5.42059 14.1664 6.5033 14.775 7.78491C14.807 7.85207 14.8236 7.92552 14.8236 7.99991C14.8236 8.0743 14.807 8.14775 14.775 8.21491C14.1664 9.49652 13.2068 10.5792 12.0076 11.3373C10.8084 12.0954 9.41873 12.4979 7.99998 12.4979C6.58122 12.4979 5.19157 12.0954 3.99235 11.3373C2.79313 10.5792 1.83354 9.49652 1.22498 8.21491C1.19299 8.14775 1.17639 8.0743 1.17639 7.99991C1.17639 7.92552 1.19299 7.85207 1.22498 7.78491C1.83354 6.5033 2.79313 5.42059 3.99235 4.66248C5.19157 3.90437 6.58122 3.50195 7.99998 3.50195C9.41873 3.50195 10.8084 3.90437 12.0076 4.66248ZM6.61105 10.0786C7.02217 10.3533 7.50552 10.4999 7.99998 10.4999C8.66302 10.4999 9.2989 10.2365 9.76774 9.76768C10.2366 9.29883 10.5 8.66295 10.5 7.99991C10.5 7.50546 10.3534 7.02211 10.0787 6.61098C9.80395 6.19986 9.4135 5.87943 8.95669 5.69021C8.49987 5.50099 7.9972 5.45148 7.51225 5.54795C7.0273 5.64441 6.58184 5.88251 6.23221 6.23214C5.88258 6.58177 5.64448 7.02723 5.54801 7.51218C5.45155 7.99714 5.50106 8.4998 5.69028 8.95662C5.8795 9.41343 6.19993 9.80388 6.61105 10.0786ZM9.49998 7.99994C9.49998 8.82837 8.8284 9.49994 7.99998 9.49994C7.17155 9.49994 6.49998 8.82837 6.49998 7.99994C6.49998 7.17151 7.17155 6.49994 7.99998 6.49994C8.8284 6.49994 9.49998 7.17151 9.49998 7.99994Z" fill="#15ADDF"/>
</svg>
