<svg width="16" height="12" viewBox="0 0 16 12" fill="none" xmlns="http://www.w3.org/2000/svg">
<path fill-rule="evenodd" clip-rule="evenodd" d="M3.49428 9.75073C4.8427 10.6036 6.40454 11.0583 8.00002 11.0625C9.59549 11.0583 11.1573 10.6036 12.5058 9.75073C13.8542 8.89789 14.9343 7.68159 15.6219 6.24186C15.6579 6.16631 15.6766 6.08368 15.6766 5.99999C15.6766 5.9163 15.6579 5.83367 15.6219 5.75811C14.9373 4.31631 13.8577 3.09826 12.5086 2.24538C11.1595 1.39251 9.59612 0.939789 8.00002 0.939789C6.40392 0.939789 4.84056 1.39251 3.49144 2.24538C2.14232 3.09826 1.06277 4.31631 0.378145 5.75811C0.34216 5.83367 0.323486 5.9163 0.323486 5.99999C0.323486 6.08368 0.34216 6.16631 0.378145 6.24186C1.0657 7.68159 2.14586 8.89789 3.49428 9.75073ZM4.20708 8.87412C3.06356 8.18036 2.13222 7.18626 1.51439 5.99999C2.13222 4.81372 3.06356 3.81961 4.20708 3.12585C5.35061 2.4321 6.6625 2.06526 8.00002 2.06526C9.33753 2.06526 10.6494 2.4321 11.793 3.12585C12.9365 3.81961 13.8678 4.81372 14.4856 5.99999C13.8678 7.18626 12.9365 8.18036 11.793 8.87412C10.6494 9.56788 9.33753 9.93472 8.00002 9.93472C6.6625 9.93472 5.35061 9.56788 4.20708 8.87412ZM6.43748 8.33846C6.89999 8.64751 7.44376 8.81246 8.00002 8.81246C8.74594 8.81246 9.46131 8.51614 9.98876 7.98869C10.5162 7.46125 10.8125 6.74588 10.8125 5.99996C10.8125 5.4437 10.6476 4.89993 10.3385 4.43741C10.0295 3.9749 9.59024 3.61442 9.07632 3.40154C8.5624 3.18867 7.9969 3.13298 7.45133 3.2415C6.90576 3.35002 6.40462 3.61788 6.01128 4.01122C5.61795 4.40455 5.35008 4.90569 5.24156 5.45126C5.13304 5.99684 5.18874 6.56234 5.40161 7.07625C5.61448 7.59017 5.97497 8.02942 6.43748 8.33846ZM7.0625 4.59685C7.34 4.41143 7.66627 4.31246 8.00002 4.31246C8.44757 4.31246 8.8768 4.49024 9.19326 4.80671C9.50973 5.12318 9.68752 5.5524 9.68752 5.99996C9.68752 6.33371 9.58855 6.65997 9.40313 6.93748C9.2177 7.21499 8.95415 7.43128 8.6458 7.559C8.33745 7.68673 7.99815 7.72014 7.67081 7.65503C7.34346 7.58992 7.04278 7.4292 6.80678 7.1932C6.57078 6.9572 6.41006 6.65651 6.34495 6.32917C6.27983 6.00183 6.31325 5.66253 6.44097 5.35418C6.5687 5.04583 6.78499 4.78228 7.0625 4.59685Z" fill="#95A5A6"/>
</svg>
