<svg width="32" height="32" viewBox="0 0 32 32" fill="none" xmlns="http://www.w3.org/2000/svg">
<path fill-rule="evenodd" clip-rule="evenodd" d="M28 2.99756C28.2661 2.99756 28.5213 3.10272 28.71 3.29012C28.8974 3.47893 29.0025 3.73414 29.0025 4.00012C29.0025 4.26611 28.8974 4.52132 28.71 4.71012L4.71005 28.7101C4.52047 28.896 4.26556 29.0001 4.00005 29.0001C3.73454 29.0001 3.47963 28.896 3.29005 28.7101C3.1027 28.5213 2.99757 28.2661 2.99757 28.0001C2.99757 27.7341 3.1027 27.4789 3.29005 27.2901L7.40005 23.1801C6.82351 22.9428 6.20322 22.8303 5.58005 22.8501C5.23722 22.8463 4.89752 22.9156 4.58366 23.0536C4.2698 23.1915 3.989 23.3949 3.76005 23.6501C3.58766 23.8517 3.34226 23.9765 3.07783 23.9971C2.9469 24.0074 2.81524 23.9917 2.69037 23.951C2.56549 23.9103 2.44985 23.8455 2.35005 23.7601C2.25025 23.6748 2.16823 23.5706 2.10869 23.4535C2.04915 23.3365 2.01324 23.2088 2.00303 23.0779C1.99282 22.947 2.00849 22.8153 2.04916 22.6904C2.08983 22.5656 2.15469 22.4499 2.24005 22.3501C2.64724 21.8847 3.14811 21.5105 3.70989 21.252C4.27167 20.9936 4.88169 20.8566 5.50005 20.8501C6.35415 20.819 7.20542 20.9655 8.00005 21.2801V16.4901C7.27119 16.0497 6.43132 15.8276 5.58005 15.8501C5.23722 15.8463 4.89752 15.9156 4.58366 16.0536C4.2698 16.1915 3.989 16.3949 3.76005 16.6501C3.67469 16.7499 3.57051 16.8319 3.45345 16.8915C3.3364 16.951 3.20876 16.9869 3.07783 16.9971C2.9469 17.0074 2.81524 16.9917 2.69037 16.951C2.56549 16.9103 2.44985 16.8455 2.35005 16.7601C2.25025 16.6748 2.16823 16.5706 2.10869 16.4535C2.04915 16.3365 2.01324 16.2088 2.00303 16.0779C1.99282 15.947 2.00849 15.8153 2.04916 15.6904C2.08983 15.5656 2.15469 15.4499 2.24005 15.3501C2.64724 14.8847 3.14811 14.5105 3.70989 14.252C4.27167 13.9936 4.88169 13.8566 5.50005 13.8501C6.35381 13.824 7.20408 13.9702 8.00005 14.2801V9.49012C7.2693 9.05423 6.43075 8.83246 5.58005 8.85012C5.23722 8.84626 4.89752 8.91562 4.58366 9.05359C4.2698 9.19155 3.989 9.39493 3.76005 9.65012C3.58766 9.85169 3.34226 9.97652 3.07783 9.99714C2.81341 10.0178 2.55161 9.93252 2.35005 9.76012C2.14849 9.58773 2.02366 9.34233 2.00303 9.07791C1.99282 8.94698 2.00849 8.81532 2.04916 8.69044C2.08983 8.56557 2.15469 8.44993 2.24005 8.35012C2.64724 7.88472 3.14811 7.51053 3.70989 7.25204C4.27167 6.99356 4.88169 6.8566 5.50005 6.85012C6.87661 6.81069 8.22952 7.21376 9.36005 8.00012H22.58L27.2901 3.29012C27.4788 3.10272 27.734 2.99756 28 2.99756ZM10 10.0001V20.5801L20.58 10.0001H10ZM29.9971 23.078C30.0177 22.8136 29.9324 22.5518 29.76 22.3502C29.3529 21.8848 28.852 21.5106 28.2902 21.2521C27.7284 20.9936 27.1184 20.8567 26.5 20.8502C25.647 20.8217 24.7969 20.9645 24 21.2702V16.4902C24.7289 16.0498 25.5688 15.8277 26.42 15.8502C26.7629 15.8463 27.1026 15.9157 27.4164 16.0537C27.7303 16.1916 28.0111 16.395 28.24 16.6502C28.3254 16.75 28.4296 16.832 28.5466 16.8916C28.6637 16.9511 28.7913 16.987 28.9223 16.9972C29.0532 17.0074 29.1849 16.9918 29.3097 16.9511C29.4346 16.9104 29.5502 16.8456 29.65 16.7602C29.7498 16.6748 29.8319 16.5707 29.8914 16.4536C29.9509 16.3366 29.9869 16.2089 29.9971 16.078C30.0073 15.9471 29.9916 15.8154 29.9509 15.6905C29.9103 15.5656 29.8454 15.45 29.76 15.3502C29.3529 14.8848 28.852 14.5106 28.2902 14.2521C27.7284 13.9936 27.1184 13.8567 26.5 13.8502C24.9638 13.7711 23.4561 14.2868 22.29 15.2902C22.1035 15.4793 21.9993 15.7345 22 16.0002V22.0002H14.42L12.42 24.0002H23C23.2657 24.001 23.5209 23.8967 23.71 23.7102C24.4842 23.1138 25.4437 22.8094 26.42 22.8502C26.7629 22.8463 27.1026 22.9157 27.4164 23.0537C27.7303 23.1916 28.0111 23.395 28.24 23.6502C28.4124 23.8518 28.6578 23.9766 28.9223 23.9972C29.1867 24.0179 29.4485 23.9326 29.65 23.7602C29.8516 23.5878 29.9764 23.3424 29.9971 23.078Z" fill="black"/>
</svg>
