<svg width="12" height="12" viewBox="0 0 12 12" fill="none" xmlns="http://www.w3.org/2000/svg">
<path d="M9.375 3.75C9.47446 3.75 9.5703 3.78905 9.64062 3.85938C9.71095 3.9297 9.75 4.02554 9.75 4.125V10.125C9.75 10.2245 9.71095 10.3203 9.64062 10.3906C9.5703 10.461 9.47446 10.5 9.375 10.5H2.625C2.52554 10.5 2.4297 10.461 2.35938 10.3906C2.28905 10.3203 2.25 10.2245 2.25 10.125V4.125C2.25 4.02554 2.28905 3.9297 2.35938 3.85938C2.4297 3.78905 2.52554 3.75 2.625 3.75H9.375ZM4.5 4.875C4.40054 4.875 4.3047 4.91405 4.23438 4.98438C4.16405 5.0547 4.125 5.15054 4.125 5.25V6.75C4.125 6.84946 4.16405 6.9453 4.23438 7.01562C4.3047 7.08595 4.40054 7.125 4.5 7.125H7.5C7.59946 7.125 7.6953 7.08595 7.76562 7.01562C7.83595 6.9453 7.875 6.84946 7.875 6.75V5.25C7.875 5.15054 7.83595 5.0547 7.76562 4.98438C7.6953 4.91405 7.59946 4.875 7.5 4.875H4.5ZM7.125 6.375H4.875V5.625H7.125V6.375ZM10.125 1.5C10.3321 1.5 10.5 1.66789 10.5 1.875V2.625C10.5 2.83211 10.3321 3 10.125 3H1.875C1.66789 3 1.5 2.83211 1.5 2.625V1.875C1.5 1.66789 1.66789 1.5 1.875 1.5H10.125Z" fill="#EB477E"/>
</svg>
