<svg width="34" height="16" viewBox="0 0 34 16" fill="none" xmlns="http://www.w3.org/2000/svg">
<g id="Loop" clip-path="url(#clip0_2002_18851)">
<path id="Vector" d="M33.7156 8.00087C33.7156 3.58906 29.9943 0 25.4202 0C24.9979 0 24.5687 0.028771 24.1441 0.0903382C20.5895 0.597213 18.211 3.1541 16.8797 5.11488C15.5437 3.15409 13.1652 0.597213 9.61178 0.0903382C9.18717 0.028771 8.75681 0 8.33566 0C3.7593 0 0.0390625 3.58906 0.0390625 8.00087C0.0390625 12.4132 3.7593 16 8.3322 16C8.75681 16 9.18717 15.9735 9.61178 15.9125C13.1652 15.4028 15.5437 12.8448 16.8797 10.8822C18.211 12.8448 20.5895 15.4028 24.1441 15.9125C24.5687 15.9735 24.9979 16 25.4236 16C29.9966 16 33.7156 12.4132 33.7156 8.00087ZM9.20905 13.1031C8.91906 13.1451 8.62332 13.167 8.3322 13.167C5.32425 13.167 2.87556 10.8471 2.87556 8.00087C2.87556 5.15287 5.32425 2.83304 8.33565 2.83304C8.62448 2.83304 8.91906 2.85662 9.21019 2.89634C12.5587 3.37444 14.6093 6.67697 15.3043 7.99915C14.6082 9.32476 12.5587 12.6256 9.20905 13.1031ZM18.4527 8.00087C19.1477 6.67697 21.1971 3.37444 24.5456 2.89634C24.8356 2.85663 25.1325 2.83304 25.4202 2.83304C28.4304 2.83304 30.8791 5.15287 30.8791 8.00087C30.8791 10.8471 28.4304 13.167 25.4236 13.167C25.1337 13.167 24.8379 13.1451 24.5456 13.1031C21.1971 12.6256 19.1454 9.32187 18.4527 8.00087Z" fill="#25C2C7"/>
<path id="Vector_2" d="M11.0322 7.21875H6.05078V8.82398H11.0322V7.21875Z" fill="#25C2C7"/>
<path id="Vector_3" d="M25.9714 8.8245H27.6549V7.21927H25.9714V5.53003H24.3616V7.21927H22.6758V8.8245H24.3616V10.5137H25.9714V8.8245Z" fill="#25C2C7"/>
<path id="Vector_4" d="M33.0251 0.972231C33.076 0.947267 33.114 0.913216 33.1417 0.869527C33.1683 0.825835 33.1822 0.775904 33.1822 0.723151C33.1822 0.640298 33.1521 0.567672 33.0921 0.506974C33.0332 0.446258 32.9316 0.415039 32.7874 0.415039C32.7331 0.415039 32.6846 0.41618 32.6419 0.419027C32.5992 0.421856 32.5588 0.425265 32.5195 0.430377V1.30132H32.7423V1.01592H32.8324L32.9882 1.30132H33.2422L33.0251 0.972231ZM32.8024 0.854208C32.7723 0.854208 32.7493 0.852503 32.7354 0.84741V0.613069C32.7493 0.608536 32.7747 0.60569 32.8093 0.60569C32.9039 0.60569 32.9513 0.646554 32.9513 0.729949C32.9513 0.813363 32.9016 0.854208 32.8024 0.854208Z" fill="#25C2C7"/>
<path id="Vector_5" d="M32.8313 0C32.3418 0 31.9453 0.396478 31.9453 0.885997C31.9453 1.37495 32.3418 1.77199 32.8313 1.77199C33.3203 1.77199 33.7173 1.37495 33.7173 0.885997C33.7173 0.396478 33.3203 0 32.8313 0ZM32.8313 1.57486C32.4597 1.57486 32.1585 1.26642 32.1585 0.885997C32.1585 0.505579 32.4597 0.196576 32.8313 0.196576C33.2023 0.196576 33.5036 0.505565 33.5036 0.885997C33.5036 1.26643 33.2023 1.57486 32.8313 1.57486Z" fill="#25C2C7"/>
</g>
<defs>
<clipPath id="clip0_2002_18851">
<rect width="33.92" height="16" fill="white" transform="translate(0.0390625)"/>
</clipPath>
</defs>
</svg>
