<svg width="152" height="100" viewBox="0 0 152 100" fill="none" xmlns="http://www.w3.org/2000/svg">
<g filter="url(#filter0_i_3386_32296)">
<circle cx="75.6316" cy="50.0002" r="49.9324" fill="url(#paint0_linear_3386_32296)"/>
</g>
<circle cx="75.6316" cy="50.0002" r="49.5652" stroke="#BDC7C7" stroke-width="0.7343"/>
<path fill-rule="evenodd" clip-rule="evenodd" d="M75.6317 31.4816C78.0583 35.7031 81.8353 38.0225 86.3064 38.0225C91.4286 38.0225 95.5955 33.8432 95.5955 28.7061C95.5955 23.5689 91.4286 19.3896 86.3064 19.3896C81.8353 19.3896 78.0583 21.709 75.6317 25.9305C73.2052 21.709 69.4282 19.3896 64.9571 19.3896C59.8349 19.3896 55.668 23.5689 55.668 28.7061C55.668 33.8432 59.8349 38.0225 64.9571 38.0225C69.4282 38.0225 73.2052 35.7031 75.6317 31.4816ZM77.7763 29.8628L77.1466 28.7061L77.7763 27.5493C79.7337 23.9523 82.6827 22.0515 86.3064 22.0515C89.9605 22.0515 92.9337 25.0369 92.9337 28.7061C92.9337 32.3752 89.9606 35.3607 86.3064 35.3607C82.6827 35.3607 79.7337 33.4598 77.7763 29.8628ZM58.3298 28.7061C58.3298 25.0369 61.3029 22.0515 64.9571 22.0515C68.5807 22.0515 71.5298 23.9523 73.4872 27.5493L74.1169 28.7061L73.4872 29.8628C71.5298 33.4598 68.5807 35.3607 64.9571 35.3607C61.3029 35.3607 58.3298 32.3752 58.3298 28.7061ZM86.6165 29.7047H88.6497V27.7595H86.6165V25.7124H84.6722V27.7595H82.6363V29.7047H84.6722V31.7518H86.6165V29.7047ZM68.5697 27.7595H62.5535V29.7048H68.5697V27.7595Z" fill="#0CA1A6"/>
<rect x="19.3671" y="63.3671" width="113.266" height="27.2657" rx="3.63285" fill="#F7F9F9" stroke="#C9D2D2" stroke-width="0.7343"/>
<rect x="11.3671" y="55.3671" width="129.266" height="31.2657" rx="3.63285" fill="#F7F9F9" stroke="#C9D2D2" stroke-width="0.7343"/>
<rect x="0.36715" y="44.29" width="151.266" height="37.4493" rx="5.50725" fill="#F7F9F9" stroke="#C9D2D2" stroke-width="0.7343"/>
<path fill-rule="evenodd" clip-rule="evenodd" d="M15.2385 59.4085C15.2385 56.9302 16.0439 56.9302 16.4776 56.9302C16.8184 56.9302 17.0971 56.6514 17.0971 56.3107C17.0971 55.9699 16.8184 55.6911 16.4776 55.6911C16.0439 55.6911 15.7775 55.5486 15.5854 55.2264C15.3561 54.8237 15.2385 54.1484 15.2385 53.2128C15.2385 52.8721 14.9597 52.5933 14.6189 52.5933C14.2781 52.5933 13.9993 52.8721 13.9993 53.2128C13.9993 54.1484 13.8816 54.8237 13.6523 55.2264C13.4603 55.5486 13.1939 55.6911 12.7602 55.6911C12.4194 55.6911 12.1406 55.9699 12.1406 56.3107C12.1406 56.6514 12.4194 56.9302 12.7602 56.9302C13.1939 56.9302 13.9993 56.9302 13.9993 59.4085C13.9993 59.7492 14.2781 60.028 14.6189 60.028C14.9597 60.028 15.2385 59.7492 15.2385 59.4085ZM28.2493 60.6476C28.2493 60.9884 27.9705 61.2672 27.6298 61.2672C25.6162 61.2672 23.9124 64.3898 23.9124 68.0824C23.9124 68.4231 23.6336 68.702 23.2928 68.702C22.952 68.702 22.6732 68.4231 22.6732 68.0824C22.6732 64.3898 20.9694 61.2672 18.9558 61.2672C18.6151 61.2672 18.3363 60.9884 18.3363 60.6476C18.3363 60.3069 18.6151 60.028 18.9558 60.028C20.9694 60.028 22.6732 56.9054 22.6732 53.2128C22.6732 52.8721 22.952 52.5933 23.2928 52.5933C23.6336 52.5933 23.9124 52.8721 23.9124 53.2128C23.9124 56.9054 25.6162 60.028 27.6298 60.028C27.9705 60.028 28.2493 60.3069 28.2493 60.6476ZM19.5754 66.2237C19.5754 66.5645 19.2966 66.8433 18.9558 66.8433C18.6957 66.8433 18.3363 66.8433 18.3363 68.0824C18.3363 68.4231 18.0575 68.702 17.7167 68.702C17.3759 68.702 17.0971 68.4231 17.0971 68.0824C17.0971 66.8433 16.7378 66.8433 16.4776 66.8433C16.1368 66.8433 15.858 66.5645 15.858 66.2237C15.858 65.8829 16.1368 65.6041 16.4776 65.6041C16.7688 65.6041 16.8493 65.5112 16.905 65.4244C16.9919 65.2881 17.0971 64.9969 17.0971 64.365C17.0971 64.0242 17.3759 63.7454 17.7167 63.7454C18.0575 63.7454 18.3363 64.0242 18.3363 64.365C18.3363 64.9969 18.4416 65.2881 18.5284 65.4244C18.5841 65.5112 18.6647 65.6041 18.9558 65.6041C19.2966 65.6041 19.5754 65.8829 19.5754 66.2237Z" fill="#A672FB"/>
<rect x="40.3867" y="54.9375" width="96.1932" height="5.1401" rx="0.7343" fill="#7F8C8D"/>
<rect x="40.3867" y="65.2178" width="96.1932" height="5.1401" rx="0.7343" fill="#7F8C8D"/>
<defs>
<filter id="filter0_i_3386_32296" x="25.6992" y="0.0678711" width="99.8633" height="102.802" filterUnits="userSpaceOnUse" color-interpolation-filters="sRGB">
<feFlood flood-opacity="0" result="BackgroundImageFix"/>
<feBlend mode="normal" in="SourceGraphic" in2="BackgroundImageFix" result="shape"/>
<feColorMatrix in="SourceAlpha" type="matrix" values="0 0 0 0 0 0 0 0 0 0 0 0 0 0 0 0 0 0 127 0" result="hardAlpha"/>
<feOffset dy="2.9372"/>
<feGaussianBlur stdDeviation="1.4686"/>
<feComposite in2="hardAlpha" operator="arithmetic" k2="-1" k3="1"/>
<feColorMatrix type="matrix" values="0 0 0 0 0 0 0 0 0 0 0 0 0 0 0 0 0 0 0.25 0"/>
<feBlend mode="normal" in2="shape" result="effect1_innerShadow_3386_32296"/>
</filter>
<linearGradient id="paint0_linear_3386_32296" x1="75.6316" y1="0.0678711" x2="75.6316" y2="99.9326" gradientUnits="userSpaceOnUse">
<stop offset="0.21" stop-color="#E6F0F0"/>
<stop offset="1" stop-color="#7FCBCD"/>
</linearGradient>
</defs>
</svg>
