<svg width="22" height="22" viewBox="0 0 22 22" fill="none" xmlns="http://www.w3.org/2000/svg">
<path fill-rule="evenodd" clip-rule="evenodd" d="M11 12.4337C12.2535 14.6144 14.2045 15.8125 16.5141 15.8125C19.16 15.8125 21.3125 13.6537 21.3125 11C21.3125 8.34635 19.16 6.1875 16.5141 6.1875C14.2045 6.1875 12.2535 7.38559 11 9.56625C9.74652 7.38559 7.79547 6.1875 5.4859 6.1875C2.83997 6.1875 0.6875 8.34635 0.6875 11C0.6875 13.6537 2.83997 15.8125 5.4859 15.8125C7.79547 15.8125 9.74652 14.6144 11 12.4337ZM12.1078 11.5975L11.7825 11L12.1078 10.4025C13.1189 8.5444 14.6423 7.5625 16.5141 7.5625C18.4017 7.5625 19.9375 9.10467 19.9375 11C19.9375 12.8953 18.4017 14.4375 16.5141 14.4375C14.6423 14.4375 13.1189 13.4556 12.1078 11.5975ZM2.0625 11C2.0625 9.10467 3.59829 7.5625 5.4859 7.5625C7.35773 7.5625 8.8811 8.5444 9.89221 10.4025L10.2175 11L9.89221 11.5975C8.8811 13.4556 7.35773 14.4375 5.4859 14.4375C3.5983 14.4375 2.0625 12.8953 2.0625 11ZM16.6742 11.5159H17.7245V10.5111H16.6742V9.45363H15.6699V10.5111H14.6182V11.5159H15.6699V12.5733H16.6742V11.5159ZM7.3524 10.5111H4.24464V11.5159H7.3524V10.5111Z" fill="#7F8C8D"/>
</svg>
