<svg width="36" height="10" viewBox="0 0 36 10" fill="none" xmlns="http://www.w3.org/2000/svg">
  <path data-figma-bg-blur-radius="97.5" fill-rule="evenodd" clip-rule="evenodd"
    d="M0.375 9.74756C1.65937 9.74756 2.94336 9.75394 4.22773 9.74006C5.45699 9.72656 6.83283 9.70744 8.0291 9.2563C9.32134 8.76879 10.1768 7.9164 11.0376 6.91325C11.6573 6.19174 12.8745 4.65233 13.4672 3.90906C13.9523 3.29967 14.9019 2.09515 15.4204 1.51239C16.0731 0.779246 16.8798 -2.09808e-05 18.0004 -2.09808e-05C19.1209 -2.09808e-05 19.9273 0.779245 20.5796 1.51164C21.0981 2.09402 22.0477 3.2993 22.5331 3.90831C23.1251 4.65158 24.3424 6.19099 24.9624 6.9125C25.8247 7.91565 26.6787 8.76804 27.9705 9.25555C29.1672 9.70556 30.5434 9.72581 31.7719 9.73931C33.0566 9.75319 34.3406 9.74681 35.625 9.74681"
    fill="#374146" />
</svg>