<svg width="12" height="7" viewBox="0 0 12 7" fill="none" xmlns="http://www.w3.org/2000/svg">
<path d="M10.4992 6.24995C10.4005 6.25053 10.3026 6.23161 10.2112 6.19428C10.1199 6.15696 10.0367 6.10196 9.96666 6.03245L5.99916 2.05745L2.03166 6.03245C1.96173 6.10238 1.87872 6.15785 1.78735 6.1957C1.69598 6.23354 1.59806 6.25302 1.49916 6.25302C1.40027 6.25302 1.30234 6.23354 1.21097 6.1957C1.11961 6.15785 1.03659 6.10238 0.966662 6.03245C0.896733 5.96252 0.841262 5.87951 0.803417 5.78814C0.765572 5.69677 0.746094 5.59885 0.746094 5.49995C0.746094 5.40106 0.765572 5.30313 0.803417 5.21177C0.841262 5.1204 0.896733 5.03738 0.966662 4.96746L5.46666 0.467454C5.53638 0.397158 5.61934 0.341362 5.71073 0.303286C5.80212 0.265209 5.90015 0.245605 5.99916 0.245605C6.09817 0.245605 6.1962 0.265209 6.2876 0.303286C6.37899 0.341362 6.46194 0.397158 6.53166 0.467454L11.0317 4.96746C11.102 5.03718 11.1578 5.12013 11.1958 5.21152C11.2339 5.30292 11.2535 5.40095 11.2535 5.49995C11.2535 5.59896 11.2339 5.69699 11.1958 5.78839C11.1578 5.87978 11.102 5.96273 11.0317 6.03245C10.9616 6.10196 10.8785 6.15696 10.7871 6.19428C10.6957 6.23161 10.5979 6.25053 10.4992 6.24995Z" fill="#374146"/>
</svg>
