<svg width="12" height="10" viewBox="0 0 12 10" fill="none" xmlns="http://www.w3.org/2000/svg">
<path d="M11.1231 5.31071L7.18562 9.24821C7.14495 9.28921 7.09657 9.32176 7.04325 9.34397C6.98994 9.36618 6.93275 9.37762 6.875 9.37762C6.81725 9.37762 6.76006 9.36618 6.70675 9.34397C6.65343 9.32176 6.60505 9.28921 6.56438 9.24821C6.52337 9.20753 6.49082 9.15915 6.46861 9.10583C6.4464 9.05252 6.43496 8.99534 6.43496 8.93758C6.43496 8.87983 6.4464 8.82264 6.46861 8.76933C6.49082 8.71601 6.52337 8.66763 6.56438 8.62696L9.75813 5.43758H1.1875C1.07147 5.43758 0.960188 5.39149 0.878141 5.30944C0.796094 5.22739 0.75 5.11611 0.75 5.00008C0.75 4.88405 0.796094 4.77277 0.878141 4.69072C0.960188 4.60868 1.07147 4.56258 1.1875 4.56258H9.75813L6.56438 1.37321C6.48199 1.29082 6.43571 1.17909 6.43571 1.06258C6.43571 0.946074 6.48199 0.834339 6.56438 0.751956C6.64676 0.669573 6.75849 0.623291 6.875 0.623291C6.99151 0.623291 7.10324 0.669573 7.18562 0.751956L11.1231 4.68946C11.1641 4.73013 11.1967 4.77852 11.2189 4.83183C11.2411 4.88514 11.2525 4.94233 11.2525 5.00008C11.2525 5.05784 11.2411 5.11502 11.2189 5.16833C11.1967 5.22165 11.1641 5.27003 11.1231 5.31071Z" fill="#00979D"/>
</svg>
