<svg width="13" height="16" viewBox="0 0 13 16" fill="none" xmlns="http://www.w3.org/2000/svg">
<path d="M12.5694 9.69375L6.94435 15.3187C6.88625 15.3773 6.81713 15.4238 6.74096 15.4556C6.6648 15.4873 6.58311 15.5036 6.5006 15.5036C6.4181 15.5036 6.33641 15.4873 6.26024 15.4556C6.18408 15.4238 6.11496 15.3773 6.05685 15.3187L0.431854 9.69375C0.314164 9.57606 0.248047 9.41644 0.248047 9.25C0.248047 9.08356 0.314164 8.92394 0.431854 8.80625C0.549544 8.68856 0.709166 8.62244 0.875604 8.62244C1.04204 8.62244 1.20166 8.68856 1.31935 8.80625L5.8756 13.3687V1.125C5.8756 0.95924 5.94145 0.800269 6.05866 0.683058C6.17587 0.565848 6.33484 0.5 6.5006 0.5C6.66636 0.5 6.82534 0.565848 6.94255 0.683058C7.05976 0.800269 7.1256 0.95924 7.1256 1.125V13.3687L11.6819 8.80625C11.7401 8.74798 11.8093 8.70175 11.8854 8.67021C11.9616 8.63867 12.0432 8.62244 12.1256 8.62244C12.208 8.62244 12.2896 8.63867 12.3658 8.67021C12.4419 8.70175 12.5111 8.74798 12.5694 8.80625C12.6276 8.86452 12.6739 8.93371 12.7054 9.00984C12.7369 9.08598 12.7532 9.16759 12.7532 9.25C12.7532 9.33241 12.7369 9.41402 12.7054 9.49016C12.6739 9.56629 12.6276 9.63548 12.5694 9.69375Z" fill="white"/>
</svg>
