<svg width="6" height="8" viewBox="0 0 6 8" fill="none" xmlns="http://www.w3.org/2000/svg">
<path d="M5.25021 7.9376C5.16795 7.93803 5.08641 7.92384 5.01026 7.89585C4.93412 7.86786 4.86486 7.82661 4.80646 7.77448L1.05646 4.39948C0.997876 4.34719 0.951379 4.28497 0.919649 4.21643C0.887919 4.14788 0.871582 4.07436 0.871582 4.0001C0.871582 3.92585 0.887919 3.85233 0.919649 3.78378C0.951379 3.71523 0.997876 3.65302 1.05646 3.60073L4.80646 0.225729C4.86473 0.173282 4.93391 0.131679 5.01005 0.103295C5.08619 0.0749114 5.16779 0.0603027 5.25021 0.0603027C5.33262 0.0603027 5.41422 0.0749114 5.49036 0.103295C5.5665 0.131679 5.63568 0.173282 5.69396 0.225729C5.75223 0.278176 5.79846 0.340439 5.82999 0.408964C5.86153 0.477488 5.87776 0.550933 5.87776 0.625104C5.87776 0.699275 5.86153 0.77272 5.82999 0.841245C5.79846 0.909769 5.75223 0.972032 5.69396 1.02448L2.38146 4.0001L5.69396 6.97573C5.75254 7.02802 5.79903 7.09023 5.83076 7.15878C5.86249 7.22733 5.87883 7.30085 5.87883 7.3751C5.87883 7.44936 5.86249 7.52288 5.83076 7.59143C5.79903 7.65997 5.75254 7.72219 5.69396 7.77448C5.63556 7.82661 5.5663 7.86786 5.49015 7.89585C5.414 7.92384 5.33246 7.93803 5.25021 7.9376Z" fill="currentColor" />
</svg>
