<svg width="22" height="22" viewBox="0 0 22 22" fill="none" xmlns="http://www.w3.org/2000/svg">
<g id="Icon">
<path id="Vector" d="M4.66895 21.875C4.55417 21.878 4.44029 21.854 4.33645 21.805C4.17665 21.7394 4.03987 21.6279 3.94333 21.4846C3.84678 21.3414 3.79481 21.1727 3.79395 21V16.5375C2.80575 16.3358 1.9176 15.7988 1.2798 15.0175C0.642006 14.2362 0.29374 13.2586 0.293945 12.25V4.375C0.293945 3.21468 0.754882 2.10188 1.57535 1.28141C2.39582 0.460936 3.50862 0 4.66895 0H16.9189C18.0793 0 19.1921 0.460936 20.0125 1.28141C20.833 2.10188 21.2939 3.21468 21.2939 4.375V12.25C21.2939 12.8245 21.1808 13.3934 20.9609 13.9242C20.7411 14.455 20.4188 14.9373 20.0125 15.3436C19.6063 15.7498 19.124 16.0721 18.5932 16.292C18.0624 16.5118 17.4935 16.625 16.9189 16.625H10.2777L5.2902 21.6213C5.20844 21.7023 5.11147 21.7665 5.00486 21.8101C4.89826 21.8536 4.7841 21.8757 4.66895 21.875ZM4.66895 1.75C3.97275 1.75 3.30507 2.02656 2.81279 2.51884C2.32051 3.01113 2.04395 3.67881 2.04395 4.375V12.25C2.04395 12.9462 2.32051 13.6139 2.81279 14.1062C3.30507 14.5984 3.97275 14.875 4.66895 14.875C4.90101 14.875 5.12357 14.9672 5.28766 15.1313C5.45176 15.2954 5.54395 15.5179 5.54395 15.75V18.8913L9.2977 15.1288C9.37946 15.0477 9.47642 14.9835 9.58303 14.9399C9.68964 14.8964 9.80379 14.8743 9.91895 14.875H16.9189C17.6151 14.875 18.2828 14.5984 18.7751 14.1062C19.2674 13.6139 19.5439 12.9462 19.5439 12.25V4.375C19.5439 3.67881 19.2674 3.01113 18.7751 2.51884C18.2828 2.02656 17.6151 1.75 16.9189 1.75H4.66895Z" fill="#008184"/>
</g>
</svg>
