<svg width="16" height="17" viewBox="0 0 16 17" fill="none" xmlns="http://www.w3.org/2000/svg">
<path d="M8 16.375C6.44248 16.375 4.91992 15.9131 3.62489 15.0478C2.32985 14.1825 1.32049 12.9526 0.724452 11.5136C0.128412 10.0747 -0.0275391 8.49127 0.276319 6.96367C0.580178 5.43607 1.3302 4.03288 2.43154 2.93154C3.53288 1.8302 4.93607 1.08018 6.46367 0.776319C7.99127 0.472461 9.57467 0.628412 11.0136 1.22445C12.4526 1.82049 13.6825 2.82985 14.5478 4.12489C15.4131 5.41992 15.875 6.94248 15.875 8.5C15.875 10.5886 15.0453 12.5916 13.5685 14.0685C12.0916 15.5453 10.0886 16.375 8 16.375ZM8 1.75C6.66498 1.75 5.35994 2.14588 4.2499 2.88758C3.13987 3.62928 2.27471 4.68349 1.76382 5.91689C1.25293 7.15029 1.11925 8.50749 1.3797 9.81686C1.64015 11.1262 2.28303 12.329 3.22703 13.273C4.17104 14.217 5.37377 14.8599 6.68314 15.1203C7.99252 15.3808 9.34972 15.2471 10.5831 14.7362C11.8165 14.2253 12.8707 13.3601 13.6124 12.2501C14.3541 11.1401 14.75 9.83503 14.75 8.5C14.75 6.70979 14.0388 4.9929 12.773 3.72703C11.5071 2.46116 9.79022 1.75 8 1.75Z" fill="#374146"/>
<path d="M8 13C8.46599 13 8.84375 12.6222 8.84375 12.1562C8.84375 11.6903 8.46599 11.3125 8 11.3125C7.53401 11.3125 7.15625 11.6903 7.15625 12.1562C7.15625 12.6222 7.53401 13 8 13Z" fill="#374146"/>
<path d="M8 10.1875C7.85082 10.1875 7.70774 10.1282 7.60225 10.0227C7.49676 9.91726 7.4375 9.77418 7.4375 9.625V4.5625C7.4375 4.41332 7.49676 4.27024 7.60225 4.16475C7.70774 4.05926 7.85082 4 8 4C8.14918 4 8.29226 4.05926 8.39775 4.16475C8.50324 4.27024 8.5625 4.41332 8.5625 4.5625V9.625C8.5625 9.77418 8.50324 9.91726 8.39775 10.0227C8.29226 10.1282 8.14918 10.1875 8 10.1875Z" fill="#374146"/>
</svg>
