<svg width="20" height="18" viewBox="0 0 20 18" fill="none" xmlns="http://www.w3.org/2000/svg">
<path d="M19.75 9.00039C19.75 9.21588 19.6643 9.42255 19.512 9.57492C19.3596 9.72729 19.1529 9.81289 18.9375 9.81289H3.02058L8.95183 15.736C9.02798 15.8116 9.08842 15.9014 9.12967 16.0004C9.17092 16.0994 9.19216 16.2056 9.19216 16.3129C9.19216 16.4202 9.17092 16.5264 9.12967 16.6254C9.08842 16.7244 9.02798 16.8142 8.95183 16.8898C8.87629 16.9659 8.78643 17.0264 8.68742 17.0676C8.58841 17.1089 8.48221 17.1301 8.37495 17.1301C8.26769 17.1301 8.16149 17.1089 8.06248 17.0676C7.96347 17.0264 7.87361 16.9659 7.79808 16.8898L0.485575 9.57727C0.409421 9.50174 0.348976 9.41187 0.307726 9.31286C0.266477 9.21385 0.245239 9.10765 0.245239 9.00039C0.245239 8.89314 0.266477 8.78694 0.307726 8.68793C0.348976 8.58892 0.409421 8.49905 0.485575 8.42352L7.79808 1.11102C7.87383 1.03526 7.96377 0.975171 8.06275 0.934171C8.16173 0.893172 8.26781 0.87207 8.37495 0.87207C8.48209 0.87207 8.58817 0.893172 8.68715 0.934171C8.78613 0.975171 8.87607 1.03526 8.95183 1.11102C9.02758 1.18678 9.08768 1.27671 9.12867 1.37569C9.16967 1.47467 9.19077 1.58076 9.19077 1.68789C9.19077 1.79503 9.16967 1.90112 9.12867 2.0001C9.08768 2.09908 9.02758 2.18901 8.95183 2.26477L3.02058 8.18789H18.9375C19.1529 8.18789 19.3596 8.2735 19.512 8.42587C19.6643 8.57824 19.75 8.78491 19.75 9.00039Z" fill="black"/>
</svg>
