<svg width="27" height="21" viewBox="0 0 27 21" fill="none" xmlns="http://www.w3.org/2000/svg">
<g id="Icon">
<path id="Vector" fill-rule="evenodd" clip-rule="evenodd" d="M11.0736 6.99124C10.575 6.51 10.0061 6.11624 9.39363 5.83623C9.95353 5.21502 10.2949 4.39252 10.2949 3.5C10.2949 1.56623 8.72862 0 6.7949 0C4.86097 0 3.2949 1.56623 3.2949 3.5C3.2949 4.39252 3.6273 5.20626 4.18742 5.82747C2.47224 6.64127 1.16871 8.22502 0.783548 10.185C0.68742 10.6838 0.818583 11.2087 1.1512 11.6025C1.48359 12.0137 1.9824 12.25 2.50727 12.25H7.58231C8.07237 12.25 8.45731 11.8562 8.45731 11.375C8.45731 10.8938 8.07237 10.5 7.58231 10.5L2.49851 10.5175C2.9012 8.47875 4.71229 7 6.7949 7C7.94099 7 9.0262 7.44626 9.8574 8.25124C10.1986 8.58374 10.7499 8.57499 11.0911 8.23372C11.4235 7.88376 11.4235 7.3325 11.0736 6.99124ZM5.0449 3.5C5.0449 2.53752 5.83232 1.75 6.7949 1.75C7.75727 1.75 8.5449 2.53752 8.5449 3.5C8.5449 4.46248 7.75727 5.25 6.7949 5.25C5.83232 5.25 5.0449 4.46248 5.0449 3.5ZM19.8061 18.935C19.4211 16.9837 18.1174 15.3913 16.4024 14.5862C16.9536 13.965 17.2949 13.1425 17.2949 12.25C17.2949 10.3162 15.7287 8.75 13.7949 8.75C11.861 8.75 10.2949 10.3162 10.2949 12.25C10.2949 13.1425 10.6361 13.965 11.1875 14.5862C9.47227 15.3913 8.16875 16.9837 7.78358 18.935C7.68746 19.4338 7.81862 19.9587 8.14225 20.3525C8.48363 20.7637 8.98244 21 9.50731 21H18.0823C18.6074 21 19.1062 20.7637 19.4386 20.3525C19.771 19.9587 19.9024 19.4338 19.8061 18.935ZM12.0449 12.25C12.0449 11.2875 12.8324 10.5 13.7949 10.5C14.7573 10.5 15.5449 11.2875 15.5449 12.25C15.5449 13.2125 14.7573 14 13.7949 14C12.8324 14 12.0449 13.2125 12.0449 12.25ZM9.50731 19.25C9.91874 17.22 11.7211 15.75 13.7949 15.75C15.8773 15.75 17.6799 17.2288 18.0823 19.25H9.50731ZM23.4024 5.82747C25.1174 6.64127 26.4211 8.22502 26.806 10.185C26.9024 10.6838 26.771 11.2087 26.4386 11.6025C26.1062 12.0137 25.6074 12.25 25.0823 12.25H20.0073C19.5172 12.25 19.1323 11.8562 19.1323 11.375C19.1323 10.8938 19.5172 10.5 20.0073 10.5H25.0823C24.6886 8.47875 22.8773 7 20.7949 7C19.6486 7 18.5636 7.44626 17.7324 8.25124C17.391 8.58374 16.8399 8.57498 16.4985 8.23372C16.1661 7.88376 16.1661 7.3325 16.516 6.99124C17.0149 6.51 17.5835 6.11624 18.1962 5.83623C17.6361 5.21502 17.2949 4.39252 17.2949 3.5C17.2949 1.56623 18.861 0 20.7949 0C22.7286 0 24.2949 1.56623 24.2949 3.5C24.2949 4.39252 23.9623 5.20626 23.4024 5.82747ZM20.7949 1.75C19.8323 1.75 19.0449 2.53752 19.0449 3.5C19.0449 4.46248 19.8323 5.25 20.7949 5.25C21.7573 5.25 22.5449 4.46248 22.5449 3.5C22.5449 2.53752 21.7573 1.75 20.7949 1.75Z" fill="#008184"/>
</g>
</svg>
