<svg width="18" height="21" viewBox="0 0 18 21" fill="none" xmlns="http://www.w3.org/2000/svg">
<path fill-rule="evenodd" clip-rule="evenodd" d="M16.5 2.00001H12.3075L11.0325 0.717513C10.9624 0.648001 10.8793 0.593008 10.7879 0.555684C10.6966 0.518361 10.5987 0.499442 10.5 0.500013H7.5C7.4013 0.499442 7.30345 0.518361 7.21207 0.555684C7.12069 0.593008 7.03758 0.648001 6.9675 0.717513L5.6925 2.00001H1.5C1.30109 2.00001 1.11032 2.07903 0.96967 2.21968C0.829018 2.36033 0.75 2.5511 0.75 2.75001V5.75001C0.75 5.94892 0.829018 6.13969 0.96967 6.28034C1.11032 6.42099 1.30109 6.50001 1.5 6.50001H2.25V20C2.25 20.1989 2.32902 20.3897 2.46967 20.5303C2.61032 20.671 2.80109 20.75 3 20.75H15C15.1989 20.75 15.3897 20.671 15.5303 20.5303C15.671 20.3897 15.75 20.1989 15.75 20V6.50001H16.5C16.6989 6.50001 16.8897 6.42099 17.0303 6.28034C17.171 6.13969 17.25 5.94892 17.25 5.75001V2.75001C17.25 2.5511 17.171 2.36033 17.0303 2.21968C16.8897 2.07903 16.6989 2.00001 16.5 2.00001ZM14.25 19.25H3.75V6.50001H14.25V19.25ZM15.75 5.00001H2.25V3.50001H6C6.0987 3.50058 6.19655 3.48166 6.28793 3.44434C6.37931 3.40702 6.46242 3.35202 6.5325 3.28251L7.8075 2.00001H10.1925L11.4675 3.28251C11.5376 3.35202 11.6207 3.40702 11.7121 3.44434C11.8034 3.48166 11.9013 3.50058 12 3.50001H15.75V5.00001ZM11.25 17.75C11.0511 17.75 10.8603 17.671 10.7197 17.5303C10.579 17.3897 10.5 17.1989 10.5 17V8.75C10.5 8.55109 10.579 8.36032 10.7197 8.21967C10.8603 8.07902 11.0511 8 11.25 8C11.4489 8 11.6397 8.07902 11.7803 8.21967C11.921 8.36032 12 8.55109 12 8.75V17C12 17.1989 11.921 17.3897 11.7803 17.5303C11.6397 17.671 11.4489 17.75 11.25 17.75ZM6.21967 17.5303C6.36032 17.671 6.55109 17.75 6.75 17.75C6.94891 17.75 7.13968 17.671 7.28033 17.5303C7.42098 17.3897 7.5 17.1989 7.5 17V8.75C7.5 8.55109 7.42098 8.36032 7.28033 8.21967C7.13968 8.07902 6.94891 8 6.75 8C6.55109 8 6.36032 8.07902 6.21967 8.21967C6.07902 8.36032 6 8.55109 6 8.75V17C6 17.1989 6.07902 17.3897 6.21967 17.5303Z" fill="currentColor"/>
</svg>
