<svg width="56" height="26" viewBox="0 0 56 26" fill="none" xmlns="http://www.w3.org/2000/svg">
<path d="M53.9208 1.73242H4.67568C3.67106 1.73242 2.84653 2.54748 2.84653 3.56157V22.4408C2.84653 23.4549 3.67106 24.2699 4.67568 24.2699H53.9208C54.9255 24.2699 55.75 23.4549 55.75 22.4408V3.56157C55.75 2.54748 54.9255 1.73242 53.9208 1.73242ZM4.89364 23.3222C4.28712 23.3222 3.79428 22.8294 3.79428 22.2228C3.79428 21.6162 4.28712 21.1234 4.89364 21.1234C5.50021 21.1234 5.99306 21.6162 5.99306 22.2228C5.99306 22.8294 5.50021 23.3222 4.89364 23.3222ZM4.89364 4.86948C4.28712 4.86948 3.79428 4.37663 3.79428 3.77954C3.79428 3.17302 4.28712 2.68017 4.89364 2.68017C5.50021 2.68017 5.99306 3.17302 5.99306 3.77954C5.99306 4.37662 5.50021 4.86948 4.89364 4.86948ZM53.7028 23.3222C53.0963 23.3222 52.6035 22.8294 52.6035 22.2228C52.6035 21.6162 53.0963 21.1234 53.7028 21.1234C54.3094 21.1234 54.8022 21.6162 54.8022 22.2228C54.8022 22.8294 54.3094 23.3222 53.7028 23.3222ZM53.7028 4.86948C53.0963 4.86948 52.6035 4.37663 52.6035 3.77954C52.6035 3.17302 53.0963 2.68017 53.7028 2.68017C54.3094 2.68017 54.8022 3.17302 54.8022 3.77954C54.8022 4.37662 54.3094 4.86948 53.7028 4.86948Z" fill="black"/>
<path d="M6.91565 9.55957H0.75V16.4421H6.91565V9.55957Z" fill="#95A5A6"/>
<path d="M51.82 2.67871H21.4735V4.87311H51.82V2.67871Z" fill="#9E846D"/>
<path d="M51.82 21.1289H21.4735V23.3233H51.82V21.1289Z" fill="#9E846D"/>
<path d="M14.3532 0.783203H7.93652V5.76609H14.3532V0.783203Z" fill="#95A5A6"/>
<path d="M20.2519 18.1738H12.9388V25.2173H20.2519V18.1738Z" fill="#95A5A6"/>
<path d="M42.9852 6.66113H30.309V19.3374H42.9852V6.66113Z" fill="#7F8C8D"/>
</svg>
