<svg width="22" height="17" viewBox="0 0 22 17" fill="none" xmlns="http://www.w3.org/2000/svg">
<path fill-rule="evenodd" clip-rule="evenodd" d="M20 4.42688L21.2825 5.70187C21.352 5.77196 21.407 5.85507 21.4443 5.94645C21.4817 6.03782 21.5006 6.13567 21.5 6.23438V14.4844C21.5006 14.5831 21.4817 14.6809 21.4443 14.7723C21.407 14.8637 21.352 14.9468 21.2825 15.0169L19.7825 16.5169C19.7124 16.5864 19.6293 16.6414 19.5379 16.6787C19.4466 16.716 19.3487 16.7349 19.25 16.7344H3.5C3.30109 16.7344 3.11032 16.6554 2.96967 16.5147C2.82902 16.3741 2.75 16.1833 2.75 15.9844V8.48438H1.25C1.05109 8.48438 0.860322 8.40536 0.71967 8.2647C0.579018 8.12405 0.5 7.93329 0.5 7.73438V3.98438C0.5 3.78546 0.579018 3.5947 0.71967 3.45405C0.860322 3.31339 1.05109 3.23438 1.25 3.23438H2.75V0.984375C2.75 0.785463 2.82902 0.594697 2.96967 0.454045C3.11032 0.313393 3.30109 0.234375 3.5 0.234375H19.25C19.4489 0.234375 19.6397 0.313393 19.7803 0.454045C19.921 0.594697 20 0.785463 20 0.984375V4.42688ZM2 4.73438V6.98438H5.75V4.73438H2ZM18.9425 15.2344L20 14.1769V6.54187L18.7175 5.26688C18.648 5.19679 18.593 5.11368 18.5557 5.0223C18.5183 4.93093 18.4994 4.83308 18.5 4.73438V1.73438H4.25V3.23438H6.5C6.69891 3.23438 6.88968 3.31339 7.03033 3.45405C7.17098 3.5947 7.25 3.78546 7.25 3.98438V7.73438C7.25 7.93329 7.17098 8.12405 7.03033 8.2647C6.88968 8.40536 6.69891 8.48438 6.5 8.48438H4.25V15.2344H18.9425ZM17.5303 12.7647C17.671 12.6241 17.75 12.4333 17.75 12.2344C17.75 12.0355 17.671 11.8447 17.5303 11.704C17.3897 11.5634 17.1989 11.4844 17 11.4844H9.5C9.30109 11.4844 9.11032 11.5634 8.96967 11.704C8.82902 11.8447 8.75 12.0355 8.75 12.2344C8.75 12.4333 8.82902 12.6241 8.96967 12.7647C9.11032 12.9054 9.30109 12.9844 9.5 12.9844H17C17.1989 12.9844 17.3897 12.9054 17.5303 12.7647Z" fill="#374146"/>
</svg>
