<svg width="16" height="16" viewBox="0 0 16 16" fill="none" xmlns="http://www.w3.org/2000/svg">
  <g clip-path="url(#clip0_10234_65226)">
    <path
      d="M6.5 1.16553C7.47591 0.960547 8.48405 0.960594 9.45996 1.16553C9.57368 1.18992 9.67595 1.25298 9.74805 1.34424C9.82008 1.43548 9.85805 1.54931 9.85547 1.66553C9.84718 1.9838 9.92635 2.29808 10.084 2.57471C10.2417 2.85131 10.4719 3.0798 10.75 3.23486C11.0233 3.39456 11.3358 3.47648 11.6523 3.47119C11.9686 3.46585 12.2773 3.37408 12.5449 3.20557C12.6445 3.14379 12.7629 3.11888 12.8789 3.13525C12.995 3.1517 13.1022 3.20835 13.1807 3.29541C13.859 4.03463 14.3707 4.91155 14.6807 5.86572C14.7153 5.97649 14.7098 6.09609 14.666 6.20361C14.6222 6.31115 14.5427 6.40051 14.4404 6.45557C14.1616 6.60581 13.928 6.82818 13.7656 7.1001C13.6032 7.37211 13.5176 7.68367 13.5176 8.00049C13.5176 8.31713 13.6033 8.62801 13.7656 8.8999C13.928 9.17191 14.1615 9.39513 14.4404 9.54541C14.5427 9.60052 14.6222 9.68972 14.666 9.79736C14.7098 9.90499 14.7154 10.0244 14.6807 10.1353C14.3706 11.0895 13.8591 11.9663 13.1807 12.7056C13.1022 12.7926 12.995 12.8493 12.8789 12.8657C12.7629 12.8821 12.6444 12.8572 12.5449 12.7954C12.2772 12.6271 11.9685 12.535 11.6523 12.5288C11.3362 12.5227 11.024 12.6024 10.75 12.7603C10.4752 12.9199 10.2487 13.1512 10.0947 13.4292C9.94066 13.7074 9.86449 14.0225 9.875 14.3403C9.87758 14.4566 9.83966 14.5704 9.76758 14.6616C9.69552 14.7527 9.59403 14.8159 9.48047 14.8403C8.99385 14.9438 8.49749 14.9976 8 15.0005C7.49612 15.0005 6.99322 14.9483 6.5 14.8452C6.38647 14.8208 6.28491 14.7576 6.21289 14.6665C6.14079 14.5752 6.10288 14.4615 6.10547 14.3452C6.11668 14.0279 6.04089 13.7135 5.88672 13.436C5.73253 13.1586 5.50576 12.9281 5.23047 12.77C4.95729 12.6104 4.64544 12.5295 4.3291 12.5347C4.01265 12.54 3.70334 12.6316 3.43555 12.8003C3.33596 12.8621 3.21762 12.887 3.10156 12.8706C2.98563 12.8542 2.87926 12.7973 2.80078 12.7104C2.12237 11.9712 1.61081 11.0944 1.30078 10.1401C1.26597 10.0292 1.27067 9.90991 1.31445 9.80225C1.35822 9.69466 1.43781 9.60541 1.54004 9.55029C1.81894 9.40001 2.05242 9.1768 2.21484 8.90478C2.37716 8.63285 2.46287 8.32207 2.46289 8.00537C2.46289 7.6887 2.37713 7.37788 2.21484 7.10596C2.05242 6.83394 1.81894 6.61073 1.54004 6.46045C1.43781 6.40535 1.35824 6.31606 1.31445 6.2085C1.27068 6.10088 1.26602 5.98146 1.30078 5.87061C1.61081 4.91634 2.12237 4.03955 2.80078 3.30029C2.87927 3.21334 2.98558 3.15657 3.10156 3.14014C3.21762 3.12369 3.33595 3.14863 3.43555 3.21045C3.70435 3.37875 4.01396 3.47052 4.33105 3.47607C4.64819 3.48162 4.9608 3.40053 5.23535 3.2417C5.50987 3.08285 5.7364 2.85239 5.88965 2.57471C6.04286 2.29701 6.11744 1.98246 6.10547 1.66553C6.10288 1.54926 6.14081 1.43549 6.21289 1.34424C6.2849 1.25308 6.38645 1.18998 6.5 1.16553ZM8.89551 2.06494C8.30192 1.97996 7.69906 1.97997 7.10547 2.06494C7.05301 2.48576 6.90327 2.88922 6.66894 3.24268C6.4347 3.59592 6.12185 3.88995 5.75488 4.10205C5.3877 4.31422 4.97598 4.43882 4.55273 4.46533C4.12962 4.49179 3.7061 4.42001 3.31543 4.25537C2.93809 4.72487 2.63417 5.24899 2.41504 5.81006C2.75191 6.06717 3.02497 6.39897 3.21289 6.77881C3.40079 7.15863 3.49902 7.57673 3.49902 8.00049C3.49899 8.4242 3.40078 8.84239 3.21289 9.22217C3.02497 9.60189 2.75183 9.93289 2.41504 10.1899C2.63418 10.751 2.93806 11.2761 3.31543 11.7456C3.70507 11.5789 4.1288 11.5058 4.55176 11.5327C4.9744 11.5597 5.38487 11.6853 5.75 11.8999C6.11768 12.1113 6.43191 12.4053 6.66699 12.7583C6.90205 13.1113 7.05218 13.5143 7.10547 13.9351C7.69908 14.02 8.30189 14.02 8.89551 13.9351C8.94954 13.5139 9.10004 13.111 9.33496 12.7573C9.56991 12.4036 9.88271 12.1081 10.25 11.895C10.6166 11.6833 11.0277 11.5597 11.4502 11.5337C11.8727 11.5077 12.2957 11.5804 12.6855 11.7456C13.0629 11.2761 13.3658 10.751 13.585 10.1899C13.2483 9.93287 12.975 9.60185 12.7871 9.22217C12.5992 8.8424 12.502 8.42419 12.502 8.00049C12.502 7.57684 12.5993 7.15855 12.7871 6.77881C12.975 6.39903 13.2482 6.06716 13.585 5.81006C13.3659 5.24914 13.0628 4.72477 12.6855 4.25537C12.2947 4.419 11.8711 4.49037 11.4482 4.46338C11.0254 4.43638 10.614 4.3121 10.2471 4.1001C9.88026 3.8881 9.56753 3.59356 9.33301 3.24072C9.09851 2.88787 8.94892 2.48523 8.89551 2.06494ZM7.84277 5.50635C8.33573 5.47413 8.82697 5.58859 9.25488 5.83545C9.68305 6.08278 10.0285 6.45149 10.2471 6.89502C10.4657 7.33863 10.5482 7.83736 10.4834 8.32764C10.4186 8.81785 10.21 9.27831 9.88379 9.6499C9.55753 10.0215 9.12809 10.2879 8.65039 10.4155C8.43865 10.4735 8.21953 10.5021 8 10.5005C7.45035 10.4992 6.91604 10.3162 6.48047 9.98096C6.04503 9.64564 5.73261 9.17601 5.59082 8.64502C5.46346 8.16774 5.47966 7.66349 5.63867 7.1958C5.79779 6.7281 6.09239 6.31776 6.48437 6.01709C6.87657 5.71639 7.34963 5.53863 7.84277 5.50635ZM8 6.50049C7.86849 6.5 7.73748 6.51662 7.61035 6.55029C7.27546 6.64028 6.9822 6.84359 6.78027 7.12549C6.57842 7.40751 6.48021 7.75111 6.50293 8.09717C6.52576 8.44337 6.66804 8.77173 6.90527 9.0249C7.14242 9.27784 7.45996 9.44055 7.80371 9.48584C8.1477 9.5311 8.49734 9.45614 8.79199 9.27295C9.08654 9.08976 9.30834 8.8094 9.41992 8.48096C9.53138 8.15256 9.52535 7.79582 9.40332 7.47119C9.28124 7.14644 9.05036 6.87432 8.75 6.70068C8.52137 6.57069 8.263 6.50158 8 6.50049Z"
      fill="rgba(37, 194, 199, 1)" />
  </g>
  <defs>
    <clipPath id="clip0_10234_65226">
      <rect width="16" height="16" fill="rgba(37, 194, 199, 1)" />
    </clipPath>
  </defs>
</svg>