<svg width="12" height="12" viewBox="0 0 12 12" fill="none" xmlns="http://www.w3.org/2000/svg">
<g id="Icon">
<path id="Vector" d="M11.5 8C11.7761 8 12 8.22386 12 8.5V11.5C12 11.7761 11.7761 12 11.5 12H0.5C0.223858 12 0 11.7761 0 11.5V8.5C0 8.22386 0.223858 8 0.5 8H11.5ZM11.5 3C11.7761 3 12 3.22386 12 3.5V6.5C12 6.77614 11.7761 7 11.5 7H0.5C0.223858 7 0 6.77614 0 6.5V3.5C0 3.22386 0.223858 3 0.5 3H11.5ZM5 0C5.27614 0 5.5 0.223858 5.5 0.5V1.5C5.5 1.77614 5.27614 2 5 2H1.5C1.22386 2 1 1.77614 1 1.5V0.5C1 0.223858 1.22386 0 1.5 0H5ZM10.5 0C10.7761 0 11 0.223858 11 0.5V1.5C11 1.77614 10.7761 2 10.5 2H7C6.72386 2 6.5 1.77614 6.5 1.5V0.5C6.5 0.223858 6.72386 0 7 0H10.5Z" fill="currentColor"/>
</g>
</svg>
