<svg viewBox="0 0 24 24" fill="none" xmlns="http://www.w3.org/2000/svg">
<path d="M11.9263 17L11.0884 14.6211H7.81305L6.97516 17H5.49273L8.68023 8.39844H10.2388L13.4205 17H11.9263ZM10.7252 13.4141L9.9107 11.0703C9.87945 10.9688 9.83453 10.8262 9.77594 10.6426C9.71734 10.4551 9.65875 10.2656 9.60016 10.0742C9.54156 9.87891 9.49273 9.71484 9.45367 9.58203C9.41461 9.74219 9.36578 9.92188 9.30719 10.1211C9.2525 10.3164 9.19781 10.5 9.14313 10.6719C9.09234 10.8438 9.05328 10.9766 9.02594 11.0703L8.20563 13.4141H10.7252ZM17.0737 10.3906C17.894 10.3906 18.5131 10.5723 18.9311 10.9355C19.353 11.2988 19.5639 11.8652 19.5639 12.6348V17H18.5854L18.3217 16.0801H18.2748C18.0912 16.3145 17.9018 16.5078 17.7065 16.6602C17.5112 16.8125 17.2846 16.9258 17.0268 17C16.7729 17.0781 16.4623 17.1172 16.0952 17.1172C15.7084 17.1172 15.3627 17.0469 15.058 16.9062C14.7534 16.7617 14.5131 16.543 14.3373 16.25C14.1616 15.957 14.0737 15.5859 14.0737 15.1367C14.0737 14.4688 14.3217 13.9668 14.8178 13.6309C15.3178 13.2949 16.0717 13.1094 17.0795 13.0742L18.2045 13.0332V12.6934C18.2045 12.2441 18.0991 11.9238 17.8881 11.7324C17.6811 11.541 17.3881 11.4453 17.0092 11.4453C16.685 11.4453 16.3705 11.4922 16.0659 11.5859C15.7612 11.6797 15.4643 11.7949 15.1752 11.9316L14.7299 10.959C15.0463 10.791 15.4057 10.6543 15.808 10.5488C16.2143 10.4434 16.6362 10.3906 17.0737 10.3906ZM18.1987 13.9004L17.3608 13.9297C16.6733 13.9531 16.1909 14.0703 15.9135 14.2812C15.6362 14.4922 15.4975 14.7812 15.4975 15.1484C15.4975 15.4688 15.5932 15.7031 15.7846 15.8516C15.976 15.9961 16.228 16.0684 16.5405 16.0684C17.017 16.0684 17.4116 15.9336 17.7241 15.6641C18.0405 15.3906 18.1987 14.9902 18.1987 14.4629V13.9004Z" fill="#171E21"/>
</svg>
