<svg width="15" height="15" viewBox="0 0 15 15" fill="none" xmlns="http://www.w3.org/2000/svg">
<path d="M14.5871 0.913091C14.5149 0.840786 14.4244 0.789494 14.3253 0.76472C14.2262 0.739945 14.1223 0.742623 14.0246 0.772466L1.08707 4.70997C0.972427 4.74557 0.872185 4.81692 0.800997 4.91357C0.729808 5.01022 0.691406 5.12711 0.691406 5.24715C0.691406 5.36719 0.729808 5.48409 0.800997 5.58074C0.872185 5.67739 0.972427 5.74874 1.08707 5.78434L7.57269 7.94434L9.73269 14.4243C9.76852 14.5344 9.83745 14.6308 9.93007 14.7002C10.0227 14.7697 10.1345 14.8089 10.2502 14.8125C10.3702 14.8116 10.4868 14.7724 10.583 14.7005C10.6791 14.6287 10.7498 14.528 10.7846 14.4131L14.7221 1.47559C14.7526 1.3784 14.7562 1.27473 14.7324 1.17566C14.7086 1.07659 14.6584 0.985835 14.5871 0.913091ZM10.2502 12.3993L8.66957 7.65184L10.6721 5.64934C10.778 5.54342 10.8375 5.39976 10.8375 5.24997C10.8375 5.10017 10.778 4.95651 10.6721 4.85059C10.5661 4.74467 10.4225 4.68517 10.2727 4.68517C10.1229 4.68517 9.97924 4.74467 9.87332 4.85059L7.87082 6.85309L3.10082 5.24997L13.3439 2.15622L10.2502 12.3993Z" fill="#8D5DF2"/>
</svg>
