<svg width="18" height="18" viewBox="0 0 18 18" fill="none" xmlns="http://www.w3.org/2000/svg">
<rect width="18" height="18" rx="2" fill="#008184"/>
<path d="M7.50009 13.5C7.43429 13.5004 7.36906 13.4878 7.30814 13.4629C7.24722 13.438 7.19181 13.4013 7.14509 13.355L3.64509 9.855C3.55094 9.76085 3.49805 9.63315 3.49805 9.5C3.49805 9.36685 3.55094 9.23915 3.64509 9.145C3.73924 9.05085 3.86694 8.99796 4.00009 8.99796C4.13324 8.99796 4.26094 9.05085 4.35509 9.145L7.50009 12.295L14.1451 5.645C14.2392 5.55085 14.3669 5.49796 14.5001 5.49796C14.6332 5.49796 14.7609 5.55085 14.8551 5.645C14.9492 5.73915 15.0021 5.86685 15.0021 6C15.0021 6.13315 14.9492 6.26085 14.8551 6.355L7.85509 13.355C7.80837 13.4013 7.75296 13.438 7.69205 13.4629C7.63113 13.4878 7.5659 13.5004 7.50009 13.5Z" fill="white"/>
</svg>
