<svg width="6" height="10" viewBox="0 0 6 10" fill="none" xmlns="http://www.w3.org/2000/svg">
<path d="M0.749962 9.37499C0.667708 9.37547 0.586169 9.3597 0.51002 9.3286C0.433872 9.2975 0.364612 9.25167 0.306212 9.19374C0.247632 9.13564 0.201135 9.06651 0.169405 8.99035C0.137674 8.91419 0.121338 8.8325 0.121338 8.74999C0.121338 8.66749 0.137674 8.58579 0.169405 8.50963C0.201135 8.43347 0.247632 8.36435 0.306212 8.30624L3.61871 4.99999L0.306212 1.69374C0.188522 1.57605 0.122405 1.41643 0.122405 1.24999C0.122405 1.08355 0.188522 0.923933 0.306212 0.806244C0.423902 0.688554 0.583523 0.622437 0.749962 0.622437C0.9164 0.622437 1.07602 0.688554 1.19371 0.806244L4.94371 4.55624C5.00229 4.61435 5.04879 4.68347 5.08052 4.75963C5.11225 4.83579 5.12859 4.91749 5.12859 4.99999C5.12859 5.0825 5.11225 5.16419 5.08052 5.24035C5.04879 5.31652 5.00229 5.38564 4.94371 5.44374L1.19371 9.19374C1.13531 9.25167 1.06605 9.2975 0.989903 9.3286C0.913755 9.3597 0.832216 9.37547 0.749962 9.37499Z" fill="currentColor"/>
</svg>
