<svg width="10" height="6" viewBox="0 0 10 6" fill="none" xmlns="http://www.w3.org/2000/svg">
<path d="M8.75012 5.875C8.66786 5.87548 8.58632 5.85971 8.51017 5.82861C8.43403 5.7975 8.36477 5.75168 8.30637 5.69375L5.00012 2.38125L1.69387 5.69375C1.63559 5.75202 1.56641 5.79825 1.49027 5.82979C1.41413 5.86133 1.33253 5.87756 1.25012 5.87756C1.1677 5.87756 1.0861 5.86133 1.00996 5.82979C0.933821 5.79825 0.86464 5.75202 0.806366 5.69375C0.748092 5.63548 0.701866 5.56629 0.670328 5.49016C0.63879 5.41402 0.622559 5.33241 0.622559 5.25C0.622559 5.16759 0.63879 5.08598 0.670328 5.00984C0.701866 4.93371 0.748092 4.86452 0.806366 4.80625L4.55637 1.05625C4.61447 0.99767 4.68359 0.951173 4.75976 0.919443C4.83592 0.887713 4.91761 0.871376 5.00012 0.871376C5.08262 0.871376 5.16431 0.887713 5.24048 0.919443C5.31664 0.951173 5.38576 0.99767 5.44386 1.05625L9.19386 4.80625C9.25245 4.86435 9.29894 4.93348 9.33067 5.00964C9.3624 5.0858 9.37874 5.16749 9.37874 5.25C9.37874 5.33251 9.3624 5.4142 9.33067 5.49036C9.29894 5.56652 9.25245 5.63565 9.19386 5.69375C9.13546 5.75168 9.06621 5.7975 8.99006 5.82861C8.91391 5.85971 8.83237 5.87548 8.75012 5.875Z" fill="currentColor"/>
</svg>
