<svg width="10" height="6" viewBox="0 0 10 6" fill="none" xmlns="http://www.w3.org/2000/svg">
<path d="M5.00012 5.12499C4.91786 5.12547 4.83632 5.1097 4.76017 5.0786C4.68403 5.0475 4.61477 5.00167 4.55637 4.94374L0.806366 1.19374C0.688676 1.07605 0.622559 0.916432 0.622559 0.749994C0.622559 0.583555 0.688676 0.423933 0.806366 0.306244C0.924055 0.188554 1.08368 0.122437 1.25012 0.122437C1.41655 0.122437 1.57618 0.188554 1.69387 0.306244L5.00012 3.61874L8.30637 0.306244C8.42406 0.188554 8.58368 0.122437 8.75011 0.122437C8.91655 0.122437 9.07617 0.188554 9.19386 0.306244C9.31155 0.423933 9.37767 0.583555 9.37767 0.749994C9.37767 0.916432 9.31155 1.07605 9.19386 1.19374L5.44386 4.94374C5.38546 5.00167 5.31621 5.0475 5.24006 5.0786C5.16391 5.1097 5.08237 5.12547 5.00012 5.12499Z" fill="currentColor"/>
</svg>
