<svg width="24" height="22" viewBox="0 0 24 22" fill="none" xmlns="http://www.w3.org/2000/svg">
<path d="M10.3327 15.8125C10.2355 15.813 10.1392 15.7957 10.0493 15.7615C9.9594 15.7273 9.87761 15.6768 9.80865 15.6131C9.73947 15.5492 9.68456 15.4732 9.64709 15.3894C9.60962 15.3056 9.59033 15.2158 9.59033 15.125C9.59033 15.0342 9.60962 14.9444 9.64709 14.8606C9.68456 14.7768 9.73947 14.7008 9.80865 14.6369L13.7203 11L9.80865 7.36312C9.66967 7.23366 9.59159 7.05808 9.59159 6.875C9.59159 6.69192 9.66967 6.51633 9.80865 6.38687C9.94762 6.25741 10.1361 6.18468 10.3327 6.18468C10.5292 6.18468 10.7177 6.25741 10.8567 6.38687L15.285 10.5119C15.3542 10.5758 15.4091 10.6518 15.4465 10.7356C15.484 10.8194 15.5033 10.9092 15.5033 11C15.5033 11.0908 15.484 11.1806 15.4465 11.2644C15.4091 11.3482 15.3542 11.4242 15.285 11.4881L10.8567 15.6131C10.7877 15.6768 10.7059 15.7273 10.616 15.7615C10.5261 15.7957 10.4298 15.813 10.3327 15.8125Z" fill="currentColor"/>
</svg>
