<svg width="25" height="22" viewBox="0 0 25 22" fill="none" xmlns="http://www.w3.org/2000/svg">
<path fill-rule="evenodd" clip-rule="evenodd" d="M10.9289 9.61543C10.8781 9.49357 10.8037 9.38297 10.71 9.29L7.42 6L10.71 2.71C10.8032 2.61676 10.8772 2.50607 10.9277 2.38425C10.9781 2.26243 11.0041 2.13186 11.0041 2C11.0041 1.86814 10.9781 1.73758 10.9277 1.61575C10.8772 1.49393 10.8032 1.38324 10.71 1.29C10.6168 1.19676 10.5061 1.1228 10.3842 1.07234C10.2624 1.02188 10.1319 0.995911 10 0.995911C9.86814 0.995911 9.73757 1.02188 9.61575 1.07234C9.49393 1.1228 9.38324 1.19676 9.29 1.29L6 4.58L2.71 1.29C2.5217 1.1017 2.2663 0.995911 2 0.995911C1.7337 0.995911 1.4783 1.1017 1.29 1.29C1.1017 1.47831 0.995909 1.7337 0.995908 2C0.995908 2.2663 1.1017 2.5217 1.29 2.71L4.58 6L1.29 9.29C1.19627 9.38297 1.12188 9.49357 1.07111 9.61543C1.02034 9.73728 0.994202 9.86799 0.994202 10C0.994202 10.132 1.02034 10.2627 1.07111 10.3846C1.12188 10.5064 1.19627 10.617 1.29 10.71C1.38296 10.8037 1.49356 10.8781 1.61542 10.9289C1.73728 10.9797 1.86799 11.0058 2 11.0058C2.13201 11.0058 2.26272 10.9797 2.38458 10.9289C2.50644 10.8781 2.61704 10.8037 2.71 10.71L6 7.42L9.29 10.71C9.38296 10.8037 9.49356 10.8781 9.61542 10.9289C9.73728 10.9797 9.86799 11.0058 10 11.0058C10.132 11.0058 10.2627 10.9797 10.3846 10.9289C10.5064 10.8781 10.617 10.8037 10.71 10.71C10.8037 10.617 10.8781 10.5064 10.9289 10.3846C10.9797 10.2627 11.0058 10.132 11.0058 10C11.0058 9.86799 10.9797 9.73728 10.9289 9.61543ZM24 4H15C14.7348 4 14.4804 3.89464 14.2929 3.70711C14.1054 3.51957 14 3.26522 14 3C14 2.73478 14.1054 2.48043 14.2929 2.29289C14.4804 2.10536 14.7348 2 15 2H24C24.2652 2 24.5196 2.10536 24.7071 2.29289C24.8946 2.48043 25 2.73478 25 3C25 3.26522 24.8946 3.51957 24.7071 3.70711C24.5196 3.89464 24.2652 4 24 4ZM24 10H15C14.7348 10 14.4804 9.89464 14.2929 9.70711C14.1054 9.51957 14 9.26522 14 9C14 8.73478 14.1054 8.48043 14.2929 8.29289C14.4804 8.10536 14.7348 8 15 8H24C24.2652 8 24.5196 8.10536 24.7071 8.29289C24.8946 8.48043 25 8.73478 25 9C25 9.26522 24.8946 9.51957 24.7071 9.70711C24.5196 9.89464 24.2652 10 24 10ZM2 16H24C24.2652 16 24.5196 15.8946 24.7071 15.7071C24.8946 15.5196 25 15.2652 25 15C25 14.7348 24.8946 14.4804 24.7071 14.2929C24.5196 14.1054 24.2652 14 24 14H2C1.73478 14 1.48043 14.1054 1.29289 14.2929C1.10536 14.4804 1 14.7348 1 15C1 15.2652 1.10536 15.5196 1.29289 15.7071C1.48043 15.8946 1.73478 16 2 16ZM24 22H2C1.73478 22 1.48043 21.8946 1.29289 21.7071C1.10536 21.5196 1 21.2652 1 21C1 20.7348 1.10536 20.4804 1.29289 20.2929C1.48043 20.1054 1.73478 20 2 20H24C24.2652 20 24.5196 20.1054 24.7071 20.2929C24.8946 20.4804 25 20.7348 25 21C25 21.2652 24.8946 21.5196 24.7071 21.7071C24.5196 21.8946 24.2652 22 24 22Z" fill="black"/>
</svg>
