<svg width="32" height="32" viewBox="0 0 32 32" fill="none" xmlns="http://www.w3.org/2000/svg">
<path d="M24.71 23.29C24.8037 23.383 24.8781 23.4936 24.9289 23.6154C24.9797 23.7373 25.0058 23.868 25.0058 24C25.0058 24.132 24.9797 24.2627 24.9289 24.3846C24.8781 24.5064 24.8037 24.617 24.71 24.71C24.617 24.8037 24.5064 24.8781 24.3846 24.9289C24.2627 24.9797 24.132 25.0058 24 25.0058C23.868 25.0058 23.7373 24.9797 23.6154 24.9289C23.4936 24.8781 23.383 24.8037 23.29 24.71L16 17.42L8.71 24.71C8.61704 24.8037 8.50644 24.8781 8.38458 24.9289C8.26272 24.9797 8.13201 25.0058 8 25.0058C7.86799 25.0058 7.73728 24.9797 7.61542 24.9289C7.49356 24.8781 7.38296 24.8037 7.29 24.71C7.19627 24.617 7.12188 24.5064 7.07111 24.3846C7.02034 24.2627 6.9942 24.132 6.9942 24C6.9942 23.868 7.02034 23.7373 7.07111 23.6154C7.12188 23.4936 7.19627 23.383 7.29 23.29L14.58 16L7.29 8.71C7.19676 8.61676 7.1228 8.50607 7.07234 8.38425C7.02188 8.26243 6.99591 8.13186 6.99591 8C6.99591 7.86814 7.02188 7.73758 7.07234 7.61575C7.1228 7.49393 7.19676 7.38324 7.29 7.29C7.38324 7.19676 7.49393 7.1228 7.61575 7.07234C7.73757 7.02188 7.86814 6.99591 8 6.99591C8.13186 6.99591 8.26243 7.02188 8.38425 7.07234C8.50607 7.1228 8.61676 7.19676 8.71 7.29L16 14.58L23.29 7.29C23.4783 7.1017 23.7337 6.99591 24 6.99591C24.2663 6.99591 24.5217 7.1017 24.71 7.29C24.8983 7.47831 25.0041 7.7337 25.0041 8C25.0041 8.2663 24.8983 8.5217 24.71 8.71L17.42 16L24.71 23.29Z" fill="black"/>
</svg>
