<svg width="18" height="18" viewBox="0 0 18 18" fill="none" xmlns="http://www.w3.org/2000/svg">
<g id="Icon">
<path id="Vector" d="M8.90039 0.25C7.16981 0.25 5.47808 0.763179 4.03915 1.72464C2.60022 2.6861 1.47872 4.05267 0.816449 5.65152C0.154182 7.25037 -0.0190973 9.00971 0.318523 10.707C0.656144 12.4044 1.4895 13.9635 2.71321 15.1872C3.93692 16.4109 5.49602 17.2442 7.19335 17.5819C8.89069 17.9195 10.65 17.7462 12.2489 17.0839C13.8477 16.4217 15.2143 15.3002 16.1758 13.8612C17.1372 12.4223 17.6504 10.7306 17.6504 9C17.6504 6.67936 16.7285 4.45376 15.0876 2.81282C13.4466 1.17187 11.221 0.25 8.90039 0.25ZM13.0941 12.3063C13.1527 12.3644 13.1992 12.4335 13.231 12.5096C13.2627 12.5858 13.279 12.6675 13.279 12.75C13.279 12.8325 13.2627 12.9142 13.231 12.9904C13.1992 13.0665 13.1527 13.1356 13.0941 13.1937C13.036 13.2523 12.9669 13.2988 12.8908 13.3306C12.8146 13.3623 12.7329 13.3786 12.6504 13.3786C12.5679 13.3786 12.4862 13.3623 12.41 13.3306C12.3339 13.2988 12.2647 13.2523 12.2066 13.1937L8.90039 9.8875L5.59414 13.1937C5.53604 13.2523 5.46692 13.2988 5.39076 13.3306C5.31459 13.3623 5.2329 13.3786 5.15039 13.3786C5.06789 13.3786 4.9862 13.3623 4.91003 13.3306C4.83387 13.2988 4.76475 13.2523 4.70664 13.1937C4.64806 13.1356 4.60157 13.0665 4.56984 12.9904C4.53811 12.9142 4.52177 12.8325 4.52177 12.75C4.52177 12.6675 4.53811 12.5858 4.56984 12.5096C4.60157 12.4335 4.64806 12.3644 4.70664 12.3063L8.01289 9L4.70664 5.69375C4.58895 5.57606 4.52284 5.41644 4.52284 5.25C4.52284 5.08356 4.58895 4.92394 4.70664 4.80625C4.82433 4.68856 4.98396 4.62244 5.15039 4.62244C5.31683 4.62244 5.47646 4.68856 5.59414 4.80625L8.90039 8.1125L12.2066 4.80625C12.3243 4.68856 12.484 4.62244 12.6504 4.62244C12.8168 4.62244 12.9765 4.68856 13.0941 4.80625C13.2118 4.92394 13.278 5.08356 13.278 5.25C13.278 5.41644 13.2118 5.57606 13.0941 5.69375L9.7879 9L13.0941 12.3063Z" fill="#95A5A6"/>
</g>
</svg>
