<svg width="23" height="24" viewBox="0 0 23 24" fill="none" xmlns="http://www.w3.org/2000/svg">
<path d="M16.8906 17.75H6.10938C5.21071 17.7498 4.33892 17.4435 3.63764 16.8815C2.93637 16.3196 2.44745 15.5355 2.25145 14.6584C2.05544 13.7814 2.16405 12.8638 2.55936 12.0567C2.95468 11.2497 3.61313 10.6013 4.42621 10.2186C4.66992 9.09523 5.29059 8.08903 6.18513 7.36711C7.07967 6.6452 8.19425 6.25102 9.34375 6.25003C10.4579 6.2459 11.541 6.61675 12.4188 7.30289C12.946 7.07159 13.5172 6.95786 14.0928 6.96961C14.6684 6.98135 15.2345 7.11829 15.7518 7.37091C16.2692 7.62353 16.7253 7.98576 17.0885 8.43243C17.4517 8.87911 17.7133 9.39952 17.855 9.95749C18.7903 10.1934 19.6072 10.7629 20.1521 11.5588C20.6969 12.3548 20.9323 13.3223 20.8138 14.2796C20.6953 15.2369 20.2312 16.1179 19.5087 16.757C18.7863 17.3961 17.8552 17.7492 16.8906 17.75ZM9.34375 7.68753C8.46994 7.68774 7.62613 8.00633 6.97023 8.58369C6.31432 9.16105 5.89125 9.95762 5.78019 10.8243C5.76337 10.9585 5.70908 11.0851 5.62353 11.1898C5.53799 11.2945 5.42467 11.3729 5.29658 11.416C4.73276 11.6086 4.25557 11.9949 3.94996 12.5063C3.64434 13.0178 3.53015 13.621 3.62771 14.2088C3.72528 14.7965 4.02826 15.3305 4.48271 15.7158C4.93717 16.1011 5.5136 16.3125 6.10938 16.3125H16.8906C17.5347 16.3119 18.154 16.0645 18.6213 15.6213C19.0885 15.178 19.3682 14.5726 19.4027 13.9294C19.4372 13.2863 19.224 12.6544 18.8069 12.1636C18.3897 11.6729 17.8004 11.3607 17.1602 11.2911C16.9967 11.2738 16.8441 11.2009 16.7279 11.0847C16.6116 10.9684 16.5388 10.8158 16.5214 10.6524C16.4557 10.0343 16.1631 9.46253 15.7003 9.04765C15.2374 8.63278 14.6372 8.40426 14.0156 8.40628C13.5519 8.40325 13.0968 8.53175 12.7031 8.77689C12.5664 8.8626 12.405 8.90006 12.2445 8.88326C12.0841 8.86647 11.9339 8.7964 11.818 8.68424C11.1557 8.04068 10.2672 7.68279 9.34375 7.68753Z" fill="#374146"/>
</svg>
