<svg role="img" aria-labelledby="svg1Title" width="234" height="25" viewBox="0 0 234 25" fill="none" xmlns="http://www.w3.org/2000/svg">
<title id="svg1Title">Cloud Editor Logo</title>
<g clip-path="url(#clip0_25_4089)">
<g clip-path="url(#clip1_25_4089)">
<g clip-path="url(#clip2_25_4089)">
<path fill-rule="evenodd" clip-rule="evenodd" d="M51.25 12.5C51.25 5.60219 45.5773 0 38.6242 0C37.984 0 37.3261 0.0364964 36.6859 0.145985C31.2799 0.930657 27.6522 4.92701 25.625 7.9927C23.5978 4.92701 19.9701 0.930657 14.5641 0.145985C13.9239 0.0547445 13.266 0 12.6258 0C5.65493 0 0 5.60219 0 12.5C0 19.3978 5.67271 25 12.6258 25C13.266 25 13.9239 24.9635 14.5819 24.854C19.9879 24.0511 23.6155 20.0547 25.6428 16.9891C27.67 20.0547 31.2977 24.0511 36.7037 24.854C37.3439 24.9453 38.0018 25 38.6598 25C45.5773 25 51.25 19.3978 51.25 12.5ZM13.9416 20.4744C13.4971 20.5474 13.0525 20.5657 12.6079 20.5657C8.01996 20.5657 4.30336 16.9343 4.30336 12.5C4.30336 8.04744 8.03774 4.4343 12.6257 4.4343C13.0703 4.4343 13.5148 4.4708 13.9594 4.52554C19.0631 5.27372 22.1751 10.4379 23.242 12.5C22.1573 14.5803 19.0275 19.7263 13.9416 20.4744ZM37.2905 4.52554C32.1868 5.27372 29.057 10.4379 28.0079 12.5C29.057 14.562 32.1868 19.7263 37.2905 20.4744C37.735 20.5292 38.1796 20.5657 38.6242 20.5657C43.1944 20.5657 46.9287 16.9525 46.9287 12.5C46.9287 8.06569 43.2121 4.4343 38.6242 4.4343C38.1796 4.4343 37.735 4.4708 37.2905 4.52554ZM9.06449 11.161H16.7004V13.5642H9.06449V11.161ZM42.1479 13.5817H39.5728V16.1077H37.1049V13.5817H34.5298V11.161H37.1049V8.63499H39.5728V11.161H42.1479V13.5817Z" fill="#00979D"/>
</g>
<rect width="80" height="25" transform="translate(59.25)" fill="#00979D"/>
<path d="M77.073 15.694C76.104 16.359 75.192 16.72 74.033 16.72C72.19 16.72 71.449 15.314 71.449 12.749C71.449 10.127 72.342 8.968 73.957 8.968C74.945 8.968 75.667 9.234 76.693 10.032L77.7 7.505C76.56 6.802 75.42 6.479 74.128 6.479C70.499 6.479 68.2 8.778 68.2 12.806C68.2 16.891 70.043 19.19 73.71 19.19C75.154 19.19 76.332 18.867 77.776 18.088L77.073 15.694ZM82.0456 6.65V19H90.7856V16.473H85.1046V6.65H82.0456ZM99.1782 6.479C95.4352 6.479 94.0102 9.234 94.0102 12.958C94.0102 17.043 95.6442 19.19 99.1972 19.19C103.168 19.19 104.479 16.397 104.479 12.825C104.479 8.113 102.693 6.479 99.1782 6.479ZM99.1972 16.701C97.4302 16.701 97.2592 15.447 97.2592 12.958C97.2592 9.937 97.5442 8.968 99.1782 8.968C100.983 8.968 101.23 9.804 101.23 12.825C101.23 15.675 100.983 16.701 99.1972 16.701ZM114.316 14.193C114.316 16.074 113.803 16.701 112.416 16.701C111.257 16.701 110.535 16.226 110.535 14.174V6.65H107.476V14.744C107.476 18.487 110.174 19.19 112.283 19.19C114.468 19.19 117.261 18.411 117.261 14.763V6.65H114.316V14.193ZM120.561 19H124.627C129.871 19 130.764 15.637 130.764 12.711C130.764 8.835 129.225 6.65 124.608 6.65H120.561V19ZM124.513 9.139C127.249 9.139 127.496 10.431 127.496 12.844C127.496 14.934 127.306 16.473 124.779 16.473H123.62V9.139H124.513Z" fill="white"/>
<path d="M148.637 6.65V19H157.358V16.948H151.088V13.699H156.788V11.685H151.088V8.683H157.377V6.65H148.637ZM161.324 19H165.371C170.387 19 171.318 15.808 171.318 12.73C171.318 9.101 169.912 6.65 165.39 6.65H161.324V19ZM165.333 8.683C168.259 8.683 168.715 10.393 168.715 12.844C168.715 15.162 168.411 16.948 165.523 16.948H163.775V8.683H165.333ZM174.713 19H183.795V16.948H180.451V8.702H183.795V6.65H174.713V8.702H178V16.948H174.713V19ZM197.489 6.65H187.248V8.683H191.143V19H193.594V8.683H197.489V6.65ZM205.501 6.479C201.834 6.479 200.314 9.158 200.314 12.92C200.314 16.929 201.891 19.19 205.463 19.19C209.244 19.19 210.726 16.435 210.726 12.825C210.726 8.341 209.054 6.479 205.501 6.479ZM205.463 17.157C203.297 17.157 202.917 15.675 202.917 12.92C202.917 9.766 203.43 8.512 205.501 8.512C207.667 8.512 208.123 9.728 208.123 12.825C208.123 15.751 207.61 17.157 205.463 17.157ZM214.141 19H216.592V14.725H218.682L220.848 19H223.755L221.152 14.25C222.539 13.585 223.28 12.331 223.28 10.64C223.28 8.227 222.026 6.65 218.72 6.65H214.141V19ZM218.549 12.73H216.592V8.683H218.492C220.107 8.683 220.677 9.291 220.677 10.678C220.677 12.217 219.784 12.73 218.549 12.73Z" fill="#00979D"/>
<rect x="139.75" y="0.5" width="93" height="24" stroke="#00979D"/>
</g>
</g>
<defs>
<clipPath id="clip0_25_4089">
<rect width="234" height="25" fill="white"/>
</clipPath>
<clipPath id="clip1_25_4089">
<rect width="233.25" height="25" fill="white"/>
</clipPath>
<clipPath id="clip2_25_4089">
<rect width="51.25" height="25" fill="white"/>
</clipPath>
</defs>
</svg>
