<svg width="24" height="23" viewBox="0 0 24 23" fill="none" xmlns="http://www.w3.org/2000/svg">
<path fill-rule="evenodd" clip-rule="evenodd" d="M19.1966 4.31067C19.3877 4.31067 19.5712 4.38627 19.7068 4.52098C19.8415 4.65667 19.9171 4.8401 19.9171 5.03127C19.917 5.22245 19.8415 5.40587 19.7068 5.54154L4.61303 20.6353C4.47679 20.7689 4.29358 20.8438 4.10275 20.8438C3.91192 20.8438 3.72871 20.7689 3.59247 20.6353C3.4578 20.4996 3.38222 20.3162 3.38222 20.125C3.38222 19.9338 3.4578 19.7504 3.59247 19.6147L6.00747 17.1997C5.17147 17.069 4.39947 16.6736 3.80502 16.0714C3.21056 15.4693 2.82503 14.6923 2.70514 13.8547C2.58524 13.0171 2.73731 12.1631 3.13897 11.4184C3.54064 10.6736 4.17069 10.0775 4.93646 9.71754C5.11604 8.88726 5.50293 8.11597 6.06105 7.47558C6.61918 6.83519 7.33037 6.34655 8.12832 6.05521C8.92628 5.76387 9.78501 5.67933 10.6245 5.80946C11.4639 5.93959 12.2567 6.28016 12.929 6.79941C13.4658 6.56653 14.0471 6.45419 14.632 6.47032C15.2169 6.48644 15.7912 6.63063 16.3143 6.89274L18.6863 4.52098C18.8219 4.38627 19.0054 4.31067 19.1966 4.31067ZM6.6184 15.8125H7.39471L15.2075 7.99964C14.9849 7.93903 14.7553 7.90765 14.5247 7.90629C14.0597 7.90395 13.6036 8.03355 13.2093 8.28005C13.0724 8.36452 12.9113 8.40118 12.7513 8.38429C12.5913 8.3674 12.4415 8.2979 12.3252 8.1867C11.6648 7.5411 10.7763 7.18207 9.85278 7.18754C8.97948 7.18833 8.13627 7.50667 7.48035 8.08323C6.82443 8.65979 6.40056 9.4552 6.28778 10.3212C6.272 10.4559 6.21841 10.5835 6.13319 10.6891C6.04797 10.7946 5.93461 10.8739 5.80622 10.9178C5.24233 11.11 4.76499 11.4961 4.45924 12.0074C4.15349 12.5187 4.03918 13.1219 4.1367 13.7096C4.23422 14.2973 4.53722 14.8313 4.99171 15.2164C5.44621 15.6015 6.02268 15.8128 6.6184 15.8125ZM18.2693 9.13538C18.3053 9.24312 18.3341 9.35104 18.3628 9.45879C19.2983 9.69426 20.1154 10.2634 20.6605 11.0592C21.2057 11.855 21.4412 12.8226 21.3229 13.7799C21.2045 14.7372 20.7404 15.6183 20.0179 16.2574C19.2954 16.8965 18.3643 17.2495 17.3997 17.2501H10.1546L11.5921 15.8126H17.3997C18.0435 15.8116 18.6626 15.5641 19.1298 15.121C19.5969 14.6778 19.8767 14.0727 19.9117 13.4297C19.9466 12.7868 19.7341 12.1548 19.3177 11.6637C18.9014 11.1725 18.3128 10.8594 17.6728 10.7885C17.5404 10.775 17.4144 10.7248 17.309 10.6436C17.2036 10.5623 17.123 10.4532 17.0763 10.3286L18.2693 9.13538Z" fill="#374146"/>
</svg>
