<svg width="32" height="32" viewBox="0 0 32 32" fill="none" xmlns="http://www.w3.org/2000/svg">
<path fill-rule="evenodd" clip-rule="evenodd" d="M18.98 7.22011L14.98 25.2201C14.9277 25.4412 14.8027 25.6382 14.625 25.7797C14.4473 25.9212 14.2271 25.9988 14 26.0001C13.9263 25.998 13.8529 25.9913 13.78 25.9801C13.5204 25.9213 13.2946 25.762 13.1521 25.5371C13.0097 25.3122 12.9622 25.04 13.02 24.7801L17.02 6.78011C17.0793 6.5212 17.2388 6.29632 17.4635 6.15469C17.6882 6.01306 17.9599 5.96621 18.219 6.02439C18.4782 6.08258 18.7038 6.24105 18.8464 6.46514C18.989 6.68923 19.037 6.96069 18.98 7.22011ZM9.77 10.64L5.3 16L9.77 21.36C9.93771 21.5651 10.0181 21.8279 9.99375 22.0917C9.96942 22.3554 9.84237 22.5991 9.64 22.77C9.45902 22.9172 9.23328 22.9984 9 23C8.85298 23.001 8.70759 22.9691 8.5744 22.9069C8.44121 22.8446 8.32356 22.7534 8.23 22.64L3.23 16.64C3.07976 16.4606 2.99744 16.234 2.99744 16C2.99744 15.766 3.07976 15.5395 3.23 15.36L8.23 9.36003C8.31405 9.25891 8.41719 9.17534 8.53353 9.11408C8.64988 9.05282 8.77715 9.01508 8.90808 9.00301C9.03901 8.99094 9.17103 9.00477 9.29662 9.04372C9.4222 9.08268 9.53888 9.14598 9.64 9.23003C9.74112 9.31407 9.82469 9.41721 9.88595 9.53356C9.94721 9.6499 9.98495 9.77717 9.99702 9.9081C10.0091 10.039 9.99526 10.1711 9.95631 10.2966C9.91735 10.4222 9.85405 10.5389 9.77 10.64ZM23.77 22.64L28.77 16.64C28.9202 16.4606 29.0026 16.234 29.0026 16C29.0026 15.766 28.9202 15.5395 28.77 15.36L23.77 9.36003C23.686 9.25891 23.5828 9.17534 23.4665 9.11408C23.3501 9.05282 23.2229 9.01508 23.0919 9.00301C22.961 8.99094 22.829 9.00477 22.7034 9.04372C22.5778 9.08268 22.4611 9.14598 22.36 9.23003C22.2589 9.31407 22.1753 9.41721 22.114 9.53356C22.0528 9.6499 22.015 9.77717 22.003 9.9081C21.9909 10.039 22.0047 10.1711 22.0437 10.2966C22.0826 10.4222 22.146 10.5389 22.23 10.64L26.7 16L22.23 21.36C22.0623 21.5651 21.9819 21.8279 22.0063 22.0917C22.0306 22.3554 22.1576 22.5991 22.36 22.77C22.541 22.9172 22.7667 22.9984 23 23C23.147 23.001 23.2924 22.9691 23.4256 22.9069C23.5588 22.8446 23.6764 22.7534 23.77 22.64Z" fill="black"/>
</svg>
