<svg width="24" height="24" viewBox="0 0 24 24" fill="currentColor" xmlns="http://www.w3.org/2000/svg">
<path fill-rule="evenodd" clip-rule="evenodd" d="M15.24 0H16.08L24 7.92V8.76V10.68V17.4C24 18.48 23.16 19.44 22.08 19.44H17.52V21.96C17.52 23.04 16.68 24 15.6 24H1.92C0.96 23.88 0 23.04 0 21.96V7.2C0.12 6.24 0.96 5.52 1.92 5.52H4.56V1.8C4.56 0.72 5.4 0 6.48 0H13.32H15.24ZM1.92188 22.0814H15.6019V19.5614H6.36188C5.40188 19.4414 4.44188 18.6014 4.44188 17.5214V7.44141H1.92188V22.0814ZM22.0805 17.5189H6.48047V1.91895H13.3205V10.6789H22.0805V17.5189ZM15.2402 1.91895V8.75894H22.0802L15.2402 1.91895Z" fill="white"/>
</svg>
