<svg width="16" height="14" viewBox="0 0 16 14" fill="none" xmlns="http://www.w3.org/2000/svg">
<path fill-rule="evenodd" clip-rule="evenodd" d="M14.75 3.95688L15.7119 4.91313C15.764 4.96568 15.8053 5.02802 15.8332 5.09655C15.8612 5.16509 15.8754 5.23847 15.875 5.3125V11.5C15.8754 11.574 15.8612 11.6474 15.8332 11.7159C15.8053 11.7845 15.764 11.8468 15.7119 11.8994L14.5869 13.0244C14.5343 13.0765 14.472 13.1178 14.4034 13.1457C14.3349 13.1737 14.2615 13.1879 14.1875 13.1875H2.375C2.22582 13.1875 2.08274 13.1282 1.97725 13.0227C1.87176 12.9173 1.8125 12.7742 1.8125 12.625V7H0.6875C0.538316 7 0.395242 6.94074 0.289752 6.83525C0.184263 6.72976 0.125 6.58668 0.125 6.4375V3.625C0.125 3.47582 0.184263 3.33274 0.289752 3.22725C0.395242 3.12176 0.538316 3.0625 0.6875 3.0625H1.8125V1.375C1.8125 1.22582 1.87176 1.08274 1.97725 0.977253C2.08274 0.871763 2.22582 0.8125 2.375 0.8125H14.1875C14.3367 0.8125 14.4798 0.871763 14.5852 0.977253C14.6907 1.08274 14.75 1.22582 14.75 1.375V3.95688ZM1.25 4.1875V5.875H4.0625V4.1875H1.25ZM13.9569 12.0625L14.75 11.2694V5.54313L13.7881 4.58687C13.736 4.53431 13.6947 4.47198 13.6668 4.40345C13.6388 4.33491 13.6246 4.26153 13.625 4.1875V1.9375H2.9375V3.0625H4.625C4.77418 3.0625 4.91726 3.12176 5.02275 3.22725C5.12824 3.33274 5.1875 3.47582 5.1875 3.625V6.4375C5.1875 6.58668 5.12824 6.72976 5.02275 6.83525C4.91726 6.94074 4.77418 7 4.625 7H2.9375V12.0625H13.9569ZM12.8977 10.2102C13.0032 10.1048 13.0625 9.96168 13.0625 9.8125C13.0625 9.66332 13.0032 9.52024 12.8977 9.41475C12.7923 9.30926 12.6492 9.25 12.5 9.25H6.875C6.72582 9.25 6.58274 9.30926 6.47725 9.41475C6.37176 9.52024 6.3125 9.66332 6.3125 9.8125C6.3125 9.96168 6.37176 10.1048 6.47725 10.2102C6.58274 10.3157 6.72582 10.375 6.875 10.375H12.5C12.6492 10.375 12.7923 10.3157 12.8977 10.2102Z" fill="#95A5A6"/>
</svg>
