<svg width="236" height="146" viewBox="0 0 236 146" fill="none" xmlns="http://www.w3.org/2000/svg">
<g clip-path="url(#clip0_1662_203886)">
<path d="M0.216745 146.76C0.216745 146.76 -1.52399 127.309 11.0134 117.236C23.5508 107.163 34.3475 118.972 43.0512 108.899C51.7549 98.8256 56.9364 91.9208 69.1284 93.6572" stroke="#374146" stroke-width="1.31908" stroke-miterlimit="10" stroke-linecap="round"/>
<path d="M218.518 27.1644L224.251 35.8984L229.162 32.6916L223.428 23.9576L218.518 27.1644Z" stroke="#374146" stroke-width="0.986639" stroke-miterlimit="10" stroke-linecap="round"/>
<path d="M88.4934 116.351V146.415H161.395V118.087L88.4934 116.351Z" fill="#BF7E3D"/>
<path d="M103.212 25.5489C103.212 25.5489 83.9824 28.0014 77.988 36.8992C77.988 36.8992 71.9868 44.108 69.9887 53.4652C67.9906 62.8224 62.301 65.8897 67.53 78.9291C67.53 78.9291 64.4549 97.6503 75.2177 101.481C75.2177 101.481 72.6032 109.46 81.3679 114.52C81.3679 114.52 88.0193 116.669 88.175 121.121L160.887 120.81C161.888 118.907 163.199 117.183 164.768 115.709L169.035 108.23C169.035 108.23 187.187 97.7989 182.419 80.1587C177.65 62.5184 170.904 65.7411 168.114 52.5464C165.323 39.3517 152.393 31.3727 142.7 28.6162C136.692 26.9638 130.394 26.6478 124.25 27.6906C124.25 27.6906 105.921 24.1639 103.212 25.5489Z" fill="#EDC9B4"/>
<path d="M103.638 25.7178C103.638 25.7178 111.766 37.2032 123.322 26.9474L127.169 53.026L125.814 57.7553L123.234 56.4919L103.638 25.7178Z" fill="white"/>
<path d="M127.636 116.655V89.7653V86.1846" stroke="white" stroke-width="1.31908" stroke-miterlimit="10" stroke-linecap="round"/>
<path d="M101.18 97.0954C101.18 97.0954 141.325 99.629 134.633 64.666" stroke="#374146" stroke-width="1.31908" stroke-miterlimit="10" stroke-linecap="round"/>
<path d="M123.633 29.2169L123.173 24.0011C123.173 24.0011 128.246 22.7715 126.864 18.63C126.864 18.63 129.783 17.8598 127.629 15.5627C127.629 15.5627 130.705 8.8066 125.631 7.12432C120.558 5.44205 114.252 6.35413 113.019 9.73219C111.787 13.1103 111.326 19.3935 111.326 19.3935L103.638 25.7172C103.638 25.7172 113.941 37.8039 123.633 29.2169Z" fill="#CEA089"/>
<path d="M76.4166 100.547C76.4166 100.547 90.1055 106.074 98.0912 99.3246C106.077 92.5752 119.705 99.3246 126.776 87.6635C133.848 76.0024 129.546 72.0163 129.546 72.0163L132.005 67.564C132.005 67.564 124.358 62.7874 120.572 59.0107C120.572 59.0107 119.624 59.4364 117.47 61.8889C117.47 61.8889 105.474 62.8077 100.245 69.253C95.0161 75.6984 85.3438 69.253 75.7935 79.2251" stroke="white" stroke-width="1.31908" stroke-miterlimit="10" stroke-linecap="round"/>
<path d="M86.7188 114.047H123.478" stroke="white" stroke-width="1.31908" stroke-miterlimit="10" stroke-linecap="round"/>
<path d="M160.541 114.047H131.937" stroke="#231F20" stroke-width="1.31908" stroke-miterlimit="10"/>
<path d="M121.635 59.3558C121.635 59.3558 122.245 58.6801 122.312 55.7547C122.394 52.478 120.694 52.6875 122.387 47.9311C122.387 47.9311 123.349 47.3163 123.694 49.154C124.04 50.9917 123.654 50.8092 123.538 48.6203C123.423 46.4313 123.85 45.7827 123.85 45.7827C123.85 45.7827 124.927 42.7897 128.734 44.4315C128.734 44.4315 132.425 42.9316 134.152 45.4652L135.188 46.9583C135.491 46.9431 135.793 46.9932 136.074 47.1053C136.354 47.2173 136.608 47.3886 136.816 47.6074C137.025 47.8262 137.183 48.0873 137.281 48.3729C137.379 48.6585 137.414 48.9618 137.383 49.2621C137.383 49.2621 138.995 49.7215 139.341 52.8293C139.686 55.9371 140.844 57.2005 140.018 59.1531C139.192 61.1056 137.342 63.2067 132.039 66.9834C132.073 66.9294 125.672 63.3081 121.635 59.3558Z" fill="#CEA089"/>
<path d="M116.636 20.6973C116.636 20.6973 118.865 24.4199 123.173 24.001" stroke="#374146" stroke-width="0.655111" stroke-miterlimit="10" stroke-linecap="round"/>
<path d="M112.247 19.745C110.93 17.4273 109.813 15.0021 108.908 12.4957C107.404 8.35417 108.556 6.2868 111.211 5.13826C113.866 3.98972 114.212 -0.158547 119.054 0.760286C123.897 1.67912 125.056 1.10485 129.093 0.415724C133.129 -0.273401 134.511 3.17898 133.014 5.14501C132.039 6.45037 130.768 7.50641 129.304 8.22636C127.841 8.94632 126.227 9.30965 124.595 9.28652C120.531 9.17167 121.594 11.239 120.531 12.3876C119.468 13.5361 118.336 12.7389 117.3 11.8133C116.264 10.8877 114.415 11.0093 114.184 12.9686C113.954 14.9279 114.3 16.8736 115.607 18.0222C115.634 18.0154 114.096 21.4746 112.247 19.745Z" fill="#374146"/>
<path d="M125.564 129.491H95.6324C95.6324 129.491 60.1131 126.221 49.6687 147.057" stroke="#374146" stroke-width="1.31908" stroke-miterlimit="10" stroke-linecap="round"/>
<path d="M132.669 123.56H127.135C125.923 123.56 124.941 124.54 124.941 125.749V133.565C124.941 134.774 125.923 135.754 127.135 135.754H132.669C133.881 135.754 134.864 134.774 134.864 133.565V125.749C134.864 124.54 133.881 123.56 132.669 123.56Z" fill="#F45914"/>
<path d="M201.757 112.513H132.554C131.215 112.513 130.129 113.596 130.129 114.931V144.037C130.129 145.373 131.215 146.455 132.554 146.455H201.757C203.096 146.455 204.182 145.373 204.182 144.037V114.931C204.182 113.596 203.096 112.513 201.757 112.513Z" fill="#23A6A6"/>
<path d="M117.903 17.0156C117.903 17.0156 117.226 19.5492 115.018 17.6912" stroke="#374146" stroke-width="0.655111" stroke-miterlimit="10" stroke-linecap="round"/>
<path d="M152.657 97.2107C152.102 97.035 139.388 105.5 139.043 109.061C138.697 112.621 139.72 114.702 139.72 116.54C139.72 118.378 140.065 122.181 143.784 120.337C143.784 120.337 147.123 123.445 148.627 120.803C148.627 120.803 151.282 123.1 152.434 120.222C152.434 120.222 155.434 123.1 157.507 120.107C157.507 120.107 156.701 116.776 157.276 114.587C157.852 112.398 163.278 112.513 165.235 106.994C165.194 106.994 162.309 100.319 152.657 97.2107Z" fill="#CEA089"/>
<path d="M157.466 93.4141C157.466 93.4141 163.698 93.6438 168.54 101.704" stroke="white" stroke-width="1.31908" stroke-miterlimit="10" stroke-linecap="round"/>
<path d="M118.939 63.7344C121.552 66.0726 124.327 68.2241 127.244 70.173" stroke="white" stroke-width="1.31908" stroke-miterlimit="10" stroke-linecap="round"/>
<path d="M89.4077 72.0166V61.4298L76.2607 41.1816" stroke="white" stroke-width="1.31908" stroke-miterlimit="10" stroke-linecap="round"/>
<path d="M155.163 39.7969L145.47 57.0588C145.05 58.6988 145.07 60.4205 145.529 62.0502C145.988 63.68 146.869 65.1603 148.085 66.3417C155.258 73.4897 149.778 74.1653 152.826 82.1375C155.874 90.1098 155.136 90.7313 155.136 90.7313C155.136 90.7313 152.596 96.447 152.596 97.2105C152.596 97.2105 165.973 102.615 165.167 106.993" stroke="white" stroke-width="1.31908" stroke-miterlimit="10" stroke-linecap="round"/>
<path d="M123.322 17.5557C123.322 17.5557 123.173 19.623 125.557 19.4744L123.322 17.5557Z" fill="#374146"/>
<path d="M126.397 14.8668C126.565 14.8668 126.702 14.7307 126.702 14.5628C126.702 14.3949 126.565 14.2588 126.397 14.2588C126.229 14.2588 126.092 14.3949 126.092 14.5628C126.092 14.7307 126.229 14.8668 126.397 14.8668Z" fill="#374146"/>
<path d="M125.015 12.4147C125.326 12.0389 125.765 11.7915 126.248 11.7203C126.731 11.6492 127.223 11.7594 127.63 12.0296" stroke="#374146" stroke-width="0.655111" stroke-miterlimit="10" stroke-linecap="round"/>
<path d="M123.532 48.6207C123.532 48.6207 118.689 30.1359 139.449 29.7035C139.449 29.7035 153.524 28.3523 157.446 43.0469C161.367 57.7414 168.283 59.8493 174.521 58.2346C180.759 56.6199 180.746 47.8775 189.517 49.4922C198.289 51.1069 200.822 47.8775 203.816 42.5874" stroke="#374146" stroke-width="1.31908" stroke-miterlimit="10" stroke-linecap="round"/>
<path d="M209.354 43.4032L205.743 37.9038C205.23 37.1228 205.05 36.1706 205.241 35.2568C205.432 34.3429 205.979 33.5421 206.762 33.0307L218.344 25.465L225.699 36.6673L213.924 44.3588C213.191 44.8378 212.297 45.0067 211.438 44.8281C210.58 44.6496 209.828 44.1384 209.348 43.4069L209.354 43.4032Z" fill="#F45914"/>
<path d="M202.521 44.2461L202.023 43.4887C201.885 43.2728 201.79 43.0317 201.745 42.7793C201.7 42.5268 201.705 42.268 201.76 42.0175C201.815 41.7671 201.919 41.5299 202.066 41.3195C202.213 41.1092 202.4 40.9297 202.617 40.7915L209.586 36.2388L212.162 40.1613L205.09 44.7806C204.887 44.9165 204.659 45.0105 204.419 45.0572C204.179 45.1039 203.932 45.1023 203.693 45.0525C203.453 45.0027 203.226 44.9057 203.025 44.7673C202.824 44.6288 202.652 44.4516 202.521 44.2461Z" fill="#F45914"/>
<path d="M130.894 89.637C131.253 89.637 131.544 89.3466 131.544 88.9884C131.544 88.6302 131.253 88.3398 130.894 88.3398C130.535 88.3398 130.244 88.6302 130.244 88.9884C130.244 89.3466 130.535 89.637 130.894 89.637Z" fill="white"/>
<path d="M130.894 103.048C131.253 103.048 131.544 102.758 131.544 102.4C131.544 102.041 131.253 101.751 130.894 101.751C130.535 101.751 130.244 102.041 130.244 102.4C130.244 102.758 130.535 103.048 130.894 103.048Z" fill="white"/>
<path d="M128.747 44.4053C128.747 44.4053 132.073 46.6348 131.158 51.837" stroke="#374146" stroke-width="0.655111" stroke-miterlimit="10" stroke-linecap="round"/>
<path d="M135.202 46.9316C135.202 46.9316 136.252 50.5462 135.595 53.1473" stroke="#374146" stroke-width="0.655111" stroke-miterlimit="10" stroke-linecap="round"/>
<path d="M138.074 49.6338C138.074 49.6338 139.124 53.2821 138.209 55.8832" stroke="#374146" stroke-width="0.655111" stroke-miterlimit="10" stroke-linecap="round"/>
<path d="M143.743 120.337C143.743 120.337 141.996 112.419 143.168 110.331C144.339 108.243 144.217 108.77 144.217 108.77" stroke="#374146" stroke-width="0.655111" stroke-miterlimit="10" stroke-linecap="round"/>
<path d="M148.593 120.803C148.593 120.803 145.918 111.898 149.447 109.811" stroke="#374146" stroke-width="0.655111" stroke-miterlimit="10" stroke-linecap="round"/>
<path d="M152.393 120.222C152.393 120.222 150.361 112.939 153.483 110.723" stroke="#374146" stroke-width="0.655111" stroke-miterlimit="10" stroke-linecap="round"/>
<path d="M218.548 18.3528L215.283 10.6035" stroke="#374146" stroke-width="1.48728" stroke-miterlimit="10" stroke-linecap="round"/>
<path d="M228.687 20.3802L236.036 16.2725" stroke="#374146" stroke-width="1.48728" stroke-miterlimit="10" stroke-linecap="round"/>
<path d="M224.021 18.1367L225.511 9.86719" stroke="#374146" stroke-width="1.48728" stroke-miterlimit="10" stroke-linecap="round"/>
<path d="M201.066 116.54C201.69 116.54 202.197 116.035 202.197 115.411C202.197 114.788 201.69 114.283 201.066 114.283C200.441 114.283 199.935 114.788 199.935 115.411C199.935 116.035 200.441 116.54 201.066 116.54Z" fill="#FBFCFC"/>
<path d="M132.899 116.54C133.524 116.54 134.03 116.035 134.03 115.411C134.03 114.788 133.524 114.283 132.899 114.283C132.274 114.283 131.768 114.788 131.768 115.411C131.768 116.035 132.274 116.54 132.899 116.54Z" fill="#FBFCFC"/>
<path d="M132.899 144.767C133.524 144.767 134.03 144.262 134.03 143.639C134.03 143.016 133.524 142.511 132.899 142.511C132.274 142.511 131.768 143.016 131.768 143.639C131.768 144.262 132.274 144.767 132.899 144.767Z" fill="#FBFCFC"/>
<path d="M201.066 144.767C201.69 144.767 202.197 144.262 202.197 143.639C202.197 143.016 201.69 142.511 201.066 142.511C200.441 142.511 199.935 143.016 199.935 143.639C199.935 144.262 200.441 144.767 201.066 144.767Z" fill="#FBFCFC"/>
<path d="M139.53 124.863H132.473C131.537 124.863 130.779 125.619 130.779 126.552V133.592C130.779 134.525 131.537 135.281 132.473 135.281H139.53C140.466 135.281 141.224 134.525 141.224 133.592V126.552C141.224 125.619 140.466 124.863 139.53 124.863Z" stroke="white" stroke-width="0.86758" stroke-miterlimit="10"/>
<path d="M193.805 126.613H186.124C185.361 126.613 184.742 127.23 184.742 127.992V132.18C184.742 132.942 185.361 133.559 186.124 133.559H193.805C194.568 133.559 195.187 132.942 195.187 132.18V127.992C195.187 127.23 194.568 126.613 193.805 126.613Z" stroke="white" stroke-width="0.74364" stroke-miterlimit="10"/>
<path d="M177.468 139.119H171.852C171.179 139.119 170.633 139.664 170.633 140.335V144.848C170.633 145.52 171.179 146.064 171.852 146.064H177.468C178.141 146.064 178.687 145.52 178.687 144.848V140.335C178.687 139.664 178.141 139.119 177.468 139.119Z" stroke="white" stroke-width="0.74364" stroke-miterlimit="10"/>
</g>
<defs>
<clipPath id="clip0_1662_203886">
<rect width="236" height="145" fill="white" transform="translate(0 0.5)"/>
</clipPath>
</defs>
</svg>
