<svg width="14" height="14" viewBox="0 0 14 14" fill="none" xmlns="http://www.w3.org/2000/svg">
<g id="Icon">
<path id="Vector" fill-rule="evenodd" clip-rule="evenodd" d="M7 2C7 1.83424 7.06585 1.67527 7.18306 1.55806C7.30027 1.44085 7.45924 1.375 7.625 1.375L13.25 1.375C13.4158 1.375 13.5747 1.44085 13.6919 1.55806C13.8092 1.67527 13.875 1.83424 13.875 2C13.875 2.16576 13.8092 2.32473 13.6919 2.44194C13.5747 2.55915 13.4158 2.625 13.25 2.625L7.625 2.625C7.45924 2.625 7.30027 2.55915 7.18306 2.44194C7.06585 2.32473 7 2.16576 7 2ZM0.125 12C0.125 11.8342 0.190848 11.6753 0.308057 11.5581C0.425268 11.4408 0.584239 11.375 0.75 11.375L6.375 11.375C6.54076 11.375 6.69973 11.4408 6.81694 11.5581C6.93415 11.6753 7 11.8342 7 12C7 12.1658 6.93415 12.3247 6.81694 12.4419C6.69973 12.5592 6.54076 12.625 6.375 12.625L0.749999 12.625C0.584239 12.625 0.425268 12.5592 0.308057 12.4419C0.190848 12.3247 0.125 12.1658 0.125 12ZM0.308058 1.55806C0.190847 1.67527 0.125 1.83424 0.125 2C0.125 2.16576 0.190847 2.32473 0.308058 2.44194C0.425268 2.55915 0.58424 2.625 0.75 2.625L1.375 2.625C1.54076 2.625 1.69973 2.55915 1.81694 2.44194C1.93415 2.32473 2 2.16576 2 2C2 1.83424 1.93415 1.67527 1.81694 1.55806C1.69973 1.44085 1.54076 1.375 1.375 1.375L0.75 1.375C0.58424 1.375 0.425268 1.44085 0.308058 1.55806ZM12 12C12 11.8342 12.0658 11.6753 12.1831 11.5581C12.3003 11.4408 12.4592 11.375 12.625 11.375L13.25 11.375C13.4158 11.375 13.5747 11.4408 13.6919 11.5581C13.8092 11.6753 13.875 11.8342 13.875 12C13.875 12.1658 13.8092 12.3247 13.6919 12.4419C13.5747 12.5592 13.4158 12.625 13.25 12.625L12.625 12.625C12.4592 12.625 12.3003 12.5592 12.1831 12.4419C12.0658 12.3247 12 12.1658 12 12ZM0.308058 6.55806C0.190847 6.67527 0.125 6.83424 0.125 7C0.125 7.16576 0.190847 7.32473 0.308057 7.44194C0.425268 7.55915 0.58424 7.625 0.75 7.625L3.875 7.625C4.04076 7.625 4.19973 7.55915 4.31694 7.44194C4.43415 7.32473 4.5 7.16576 4.5 7C4.5 6.83424 4.43415 6.67527 4.31694 6.55806C4.19973 6.44085 4.04076 6.375 3.875 6.375L0.75 6.375C0.58424 6.375 0.425268 6.44085 0.308058 6.55806ZM9.5 7C9.5 6.83424 9.56585 6.67527 9.68306 6.55806C9.80027 6.44085 9.95924 6.375 10.125 6.375L13.25 6.375C13.4158 6.375 13.5747 6.44085 13.6919 6.55806C13.8092 6.67527 13.875 6.83424 13.875 7C13.875 7.16576 13.8092 7.32473 13.6919 7.44194C13.5747 7.55915 13.4158 7.625 13.25 7.625L10.125 7.625C9.95924 7.625 9.80027 7.55915 9.68306 7.44194C9.56585 7.32473 9.5 7.16576 9.5 7ZM4.5 3.25C3.80964 3.25 3.25 2.69036 3.25 2C3.25 1.30964 3.80964 0.75 4.5 0.75C5.19036 0.75 5.75 1.30964 5.75 2C5.75 2.69036 5.19036 3.25 4.5 3.25ZM5.75 7C5.75 7.69036 6.30964 8.25 7 8.25C7.69036 8.25 8.25 7.69036 8.25 7C8.25 6.30964 7.69036 5.75 7 5.75C6.30964 5.75 5.75 6.30964 5.75 7ZM9.5 13.25C8.80964 13.25 8.25 12.6904 8.25 12C8.25 11.3096 8.80964 10.75 9.5 10.75C10.1904 10.75 10.75 11.3096 10.75 12C10.75 12.6904 10.1904 13.25 9.5 13.25Z" fill="#374146"/>
</g>
</svg>
