<svg width="12" height="12" viewBox="0 0 12 12" fill="none" xmlns="http://www.w3.org/2000/svg">
  <path fill-rule="evenodd" clip-rule="evenodd"
    d="M1 9.5H9C9.27637 9.5 9.5 9.27612 9.5 9V1C9.5 0.723875 9.27637 0.5 9 0.5H1C0.723635 0.5 0.5 0.723875 0.5 1V9C0.5 9.27612 0.723635 9.5 1 9.5ZM8.5 8.5H1.5V1.5H8.5V8.5ZM3 11.5H11C11.2764 11.5 11.5 11.2761 11.5 11V3C11.5 2.72388 11.2764 2.5 11 2.5C10.7236 2.5 10.5 2.72388 10.5 3V10.5H3C2.72363 10.5 2.5 10.7239 2.5 11C2.5 11.2761 2.72363 11.5 3 11.5Z"
    fill="white" />
</svg>