<svg width="13" height="12" viewBox="0 0 13 12" fill="none" xmlns="http://www.w3.org/2000/svg">
<g id="Icon">
<path id="Vector" d="M10.5446 7.46484L6.65401 11.3555C6.56404 11.4453 6.43422 11.4999 6.3044 11.5H2.76925C2.63424 11.5 2.50875 11.4455 2.41378 11.3555L0.644249 9.58496C0.449347 9.38998 0.449278 9.07485 0.644249 8.87988L6.3044 3.21973L10.5446 7.46484ZM11.3122 10.5C11.5885 10.5 11.8121 10.724 11.8122 11C11.8122 11.2761 11.5886 11.5 11.3122 11.5H8.81222C8.53607 11.4997 8.31222 11.276 8.31222 11C8.31232 10.7241 8.53613 10.5003 8.81222 10.5H11.3122ZM8.77901 0.955078C8.90902 0.955078 9.03964 1.00559 9.1296 1.10059L12.6638 4.63477C12.8587 4.82974 12.8587 5.14972 12.6638 5.34473L11.2546 6.75488L7.00948 2.51562L8.42452 1.10059C8.5195 1.00564 8.64409 0.955134 8.77901 0.955078Z" fill="#FF8878"/>
</g>
</svg>
