<svg width="32" height="32" viewBox="0 0 32 32" fill="none" xmlns="http://www.w3.org/2000/svg">
<path fill-rule="evenodd" clip-rule="evenodd" d="M21.26 6.20001L28.3301 13.27C28.72 13.66 28.72 14.3 28.3301 14.69L16.3101 26.71C16.13 26.89 15.87 27 15.61 27H8.54007C8.27005 27 8.02005 26.89 7.83011 26.71L4.29007 23.17C3.90006 22.78 3.90006 22.15 4.29007 21.76L19.85 6.20001C20.0401 6.01001 20.2901 5.90997 20.5601 5.90997C20.8201 5.90997 21.0801 6.01001 21.26 6.20001ZM8.94998 25H15.19L22.68 17.52L17.02 11.86L6.40994 22.46L8.94998 25ZM20.5601 8.32001L18.43 10.44L24.0901 16.1L26.21 13.98L20.5601 8.32001ZM20.627 27H25.627C26.1797 27 26.627 26.5522 26.627 26C26.627 25.4478 26.1797 25 25.627 25H20.627C20.0742 25 19.627 25.4478 19.627 26C19.627 26.5522 20.0742 27 20.627 27Z" fill="black"/>
</svg>
