<svg width="14" height="15" viewBox="0 0 14 15" fill="none" xmlns="http://www.w3.org/2000/svg">
<path d="M7 0.0283203C5.61553 0.0283203 4.26216 0.438863 3.11101 1.20803C1.95987 1.9772 1.06266 3.07045 0.532846 4.34954C0.00303298 5.62862 -0.13559 7.03609 0.134506 8.39395C0.404603 9.75182 1.07129 10.9991 2.05026 11.9781C3.02922 12.957 4.2765 13.6237 5.63437 13.8938C6.99224 14.1639 8.3997 14.0253 9.67879 13.4955C10.9579 12.9657 12.0511 12.0685 12.8203 10.9173C13.5895 9.76617 14 8.41279 14 7.02832C14 5.1718 13.2625 3.39133 11.9497 2.07857C10.637 0.765818 8.85652 0.0283203 7 0.0283203ZM6.5 2.52832C6.5 2.39571 6.55268 2.26854 6.64645 2.17477C6.74022 2.081 6.86739 2.02832 7 2.02832C7.13261 2.02832 7.25979 2.081 7.35356 2.17477C7.44733 2.26854 7.5 2.39571 7.5 2.52832V8.52832C7.5 8.66093 7.44733 8.78811 7.35356 8.88187C7.25979 8.97564 7.13261 9.02832 7 9.02832C6.86739 9.02832 6.74022 8.97564 6.64645 8.88187C6.55268 8.78811 6.5 8.66093 6.5 8.52832V2.52832ZM7 12.0283C6.85167 12.0283 6.70666 11.9843 6.58333 11.9019C6.45999 11.8195 6.36386 11.7024 6.30709 11.5653C6.25033 11.4283 6.23548 11.2775 6.26441 11.132C6.29335 10.9865 6.36478 10.8529 6.46967 10.748C6.57456 10.6431 6.7082 10.5717 6.85369 10.5427C6.99917 10.5138 7.14997 10.5286 7.28702 10.5854C7.42406 10.6422 7.54119 10.7383 7.62361 10.8616C7.70602 10.985 7.75 11.13 7.75 11.2783C7.75 11.4772 7.67099 11.668 7.53033 11.8087C7.38968 11.9493 7.19892 12.0283 7 12.0283Z" fill="#FF8878"/>
</svg>
