<svg width="14" height="14" viewBox="0 0 14 14" fill="none" xmlns="http://www.w3.org/2000/svg">
<path d="M10 0.5H1C0.725005 0.5 0.5 0.725005 0.5 1V7.5C0.5 7.77499 0.725005 8 1 8H3.79001L5.04999 9.255L6.01502 13.12C6.07001 13.345 6.26999 13.5 6.5 13.5C7.88001 13.5 9 12.38 9 11V9.5H12C12.825 9.5 13.5 8.82501 13.5 8V4C13.5 2.07001 11.93 0.5 10 0.5V0.5ZM1.5 1.5H3.5V7H1.5V1.5ZM12.5 8C12.5 8.27499 12.275 8.5 12 8.5H8.5C8.22501 8.5 8 8.72501 8 9V11C8 11.695 7.52499 12.285 6.88 12.45L5.98498 8.88C5.96499 8.79001 5.92002 8.70999 5.85501 8.64499L4.5 7.29001V1.5H10C11.38 1.5 12.5 2.61999 12.5 4V8Z" fill="#95A5A6"/>
</svg>
