<svg width="14" height="14" viewBox="0 0 14 14" fill="none" xmlns="http://www.w3.org/2000/svg">
<path d="M12 4.49997H9V2.99997C9 1.61997 7.88001 0.499971 6.5 0.499971C6.26999 0.499971 6.07001 0.654971 6.01502 0.879976L5.04999 4.74497L3.79001 5.99997H1C0.725005 5.99997 0.5 6.22498 0.5 6.49997V13C0.5 13.275 0.725005 13.5 1 13.5H10C11.93 13.5 13.5 11.93 13.5 9.99997V5.99997C13.5 5.17496 12.825 4.49997 12 4.49997ZM1.5 6.99997H3.5V12.5H1.5V6.99997ZM12.5 9.99997C12.5 11.38 11.38 12.5 10 12.5H4.5V6.70996L5.85501 5.35498C5.92001 5.28998 5.96499 5.20996 5.98498 5.11997L6.88 1.54996C7.52499 1.71497 8 2.30497 8 2.99997V4.99997C8 5.27497 8.22501 5.49997 8.5 5.49997H12C12.275 5.49997 12.5 5.72498 12.5 5.99997V9.99997Z" fill="#95A5A6"/>
</svg>
