<svg width="20" height="20" viewBox="0 0 20 20" fill="none" xmlns="http://www.w3.org/2000/svg">
<rect x="2" y="2" width="16" height="16" rx="4" fill="#25C2C7" fill-opacity="0.2"/>
<path d="M7.8125 6.33154C8.11242 6.16284 8.49388 6.2622 8.66895 6.56201C8.83768 6.86198 8.73742 7.24343 8.4375 7.41846C7.47501 7.96845 6.87502 9.00617 6.875 10.1187C6.875 11.2312 7.475 12.2688 8.4375 12.8188C8.73745 12.9939 8.83768 13.3753 8.66895 13.6753C8.55018 13.8752 8.34369 13.9878 8.125 13.9878C8.01875 13.9878 7.9125 13.962 7.8125 13.9058C6.46261 13.1245 5.625 11.6748 5.625 10.1187C5.62502 8.56248 6.4626 7.11281 7.8125 6.33154ZM11.3311 6.56201C11.5061 6.26221 11.8876 6.16284 12.1875 6.33154C13.5374 7.11281 14.375 8.56248 14.375 10.1187C14.375 11.6748 13.5374 13.1245 12.1875 13.9058C12.0875 13.962 11.9812 13.9878 11.875 13.9878C11.6563 13.9878 11.4498 13.8752 11.3311 13.6753C11.1561 13.3753 11.2625 12.9939 11.5625 12.8188C12.525 12.2688 13.125 11.2312 13.125 10.1187C13.125 9.00617 12.525 7.96845 11.5625 7.41846C11.2626 7.24343 11.1623 6.86198 11.3311 6.56201Z" fill="#25C2C7"/>
</svg>
