<svg width="16" height="16" viewBox="0 0 16 16" fill="none" xmlns="http://www.w3.org/2000/svg">
<path d="M11.5 10C11.6326 10 11.7597 10.0527 11.8535 10.1465C11.9473 10.2403 12 10.3674 12 10.5V12H13.5C13.6325 12.0004 13.7598 12.0528 13.8535 12.1465C13.9472 12.2402 13.9996 12.3675 14 12.5C13.9996 12.6325 13.9472 12.7598 13.8535 12.8535C13.7598 12.9472 13.6325 12.9996 13.5 13H12V14.5C12 14.6326 11.9473 14.7597 11.8535 14.8535C11.7597 14.9473 11.6326 15 11.5 15C11.3674 15 11.2403 14.9473 11.1465 14.8535C11.0527 14.7597 11 14.6326 11 14.5V13H9.5C9.36739 13 9.24025 12.9473 9.14648 12.8535C9.05272 12.7597 9 12.6326 9 12.5C9 12.3674 9.05272 12.2403 9.14648 12.1465C9.24025 12.0527 9.36739 12 9.5 12H11V10.5C11 10.3674 11.0527 10.2403 11.1465 10.1465C11.2403 10.0527 11.3674 10 11.5 10ZM7.5 3C7.63256 3.00095 7.76015 3.0524 7.85547 3.14453L11.8555 7.14453C11.9476 7.23986 11.999 7.36744 12 7.5V8.5C12 8.63261 11.9473 8.75975 11.8535 8.85352C11.7597 8.94728 11.6326 9 11.5 9C11.3674 9 11.2403 8.94728 11.1465 8.85352C11.0527 8.75975 11 8.63261 11 8.5V7.98535L7.5 8C7.36718 8.00037 7.23911 7.94873 7.14453 7.85547C7.05242 7.76014 7.00097 7.63256 7 7.5V4H5V12H7.5C7.63261 12 7.75975 12.0527 7.85352 12.1465C7.94728 12.2403 8 12.3674 8 12.5C8 12.6326 7.94728 12.7597 7.85352 12.8535C7.75975 12.9473 7.63261 13 7.5 13H4.5C4.36751 12.9996 4.24017 12.9472 4.14648 12.8535C4.0528 12.7598 4.00038 12.6325 4 12.5V3.5C4.00038 3.36751 4.0528 3.24017 4.14648 3.14648C4.24017 3.0528 4.36751 3.00038 4.5 3H7.5ZM8 7L10.2803 6.98535L8 4.70508V7Z" fill="currentColor"/>
</svg>
