<svg width="11" height="12" viewBox="0 0 11 12" fill="none" xmlns="http://www.w3.org/2000/svg">
<path d="M10.2129 0.75H0.587891C0.471858 0.75 0.360579 0.796094 0.278531 0.878141C0.196484 0.960188 0.150391 1.07147 0.150391 1.1875V10.8125C0.150391 10.9285 0.196484 11.0398 0.278531 11.1219C0.360579 11.2039 0.471858 11.25 0.587891 11.25H10.2129C10.3289 11.25 10.4402 11.2039 10.5223 11.1219C10.6043 11.0398 10.6504 10.9285 10.6504 10.8125V1.1875C10.6504 1.07147 10.6043 0.960188 10.5223 0.878141C10.4402 0.796094 10.3289 0.75 10.2129 0.75ZM9.77539 10.375H8.02539V9.5C8.02539 9.38397 7.9793 9.27269 7.89725 9.19064C7.8152 9.10859 7.70392 9.0625 7.58789 9.0625C7.47186 9.0625 7.36058 9.10859 7.27853 9.19064C7.19648 9.27269 7.15039 9.38397 7.15039 9.5V10.375H1.02539V6.18375L2.33789 4.87125L5.08977 7.6275C5.17304 7.70779 5.28473 7.75184 5.40039 7.75C5.45797 7.75033 5.51505 7.7393 5.56835 7.71753C5.62165 7.69575 5.67014 7.66367 5.71102 7.62312C5.75202 7.58245 5.78457 7.53407 5.80678 7.48075C5.82899 7.42744 5.84043 7.37025 5.84043 7.3125C5.84043 7.25475 5.82899 7.19756 5.80678 7.14425C5.78457 7.09093 5.75202 7.04255 5.71102 7.00188L2.64852 3.93937C2.60784 3.89837 2.55946 3.86582 2.50614 3.84361C2.45283 3.8214 2.39565 3.80996 2.33789 3.80996C2.28014 3.80996 2.22295 3.8214 2.16964 3.84361C2.11632 3.86582 2.06794 3.89837 2.02727 3.93937L1.02539 4.94125V1.625H9.77539V10.375Z" fill="black"/>
<path d="M5.40039 4.25C5.88364 4.25 6.27539 3.85825 6.27539 3.375C6.27539 2.89175 5.88364 2.5 5.40039 2.5C4.91714 2.5 4.52539 2.89175 4.52539 3.375C4.52539 3.85825 4.91714 4.25 5.40039 4.25Z" fill="black"/>
<path d="M8.46273 6.4376C8.40515 6.43793 8.34807 6.42689 8.29477 6.40512C8.24146 6.38335 8.19298 6.35127 8.1521 6.31072L7.58773 5.74197L7.02335 6.31072C6.94097 6.3931 6.82923 6.43939 6.71273 6.43939C6.59622 6.43939 6.48449 6.3931 6.4021 6.31072C6.31972 6.22834 6.27344 6.1166 6.27344 6.0001C6.27344 5.88359 6.31972 5.77185 6.4021 5.68947L7.2771 4.81447C7.31777 4.77346 7.36616 4.74092 7.41948 4.71871C7.47279 4.69649 7.52997 4.68506 7.58773 4.68506C7.64548 4.68506 7.70267 4.69649 7.75598 4.71871C7.80929 4.74092 7.85768 4.77346 7.89835 4.81447L8.77335 5.68947C8.81436 5.73014 8.84691 5.77853 8.86912 5.83184C8.89133 5.88516 8.90276 5.94234 8.90276 6.0001C8.90276 6.05785 8.89133 6.11503 8.86912 6.16835C8.84691 6.22166 8.81436 6.27005 8.77335 6.31072C8.73247 6.35127 8.68399 6.38335 8.63069 6.40512C8.57738 6.42689 8.52031 6.43793 8.46273 6.4376Z" fill="black"/>
<path d="M8.90023 9.0626C8.84265 9.06293 8.78557 9.05189 8.73227 9.03012C8.67896 9.00835 8.63048 8.97627 8.5896 8.93572L7.58773 7.92947L6.58585 8.93572C6.54506 8.97651 6.49663 9.00887 6.44334 9.03095C6.39004 9.05302 6.33292 9.06439 6.27523 9.06439C6.21754 9.06439 6.16042 9.05302 6.10712 9.03095C6.05382 9.00887 6.00539 8.97651 5.9646 8.93572C5.92381 8.89493 5.89145 8.8465 5.86938 8.7932C5.8473 8.73991 5.83594 8.68278 5.83594 8.6251C5.83594 8.56741 5.8473 8.51028 5.86938 8.45699C5.89145 8.40369 5.92381 8.35526 5.9646 8.31447L7.2771 7.00197C7.31777 6.96096 7.36616 6.92842 7.41948 6.90621C7.47279 6.88399 7.52997 6.87256 7.58773 6.87256C7.64548 6.87256 7.70267 6.88399 7.75598 6.90621C7.80929 6.92842 7.85768 6.96096 7.89835 7.00197L9.21085 8.31447C9.25186 8.35514 9.28441 8.40353 9.30662 8.45684C9.32883 8.51016 9.34026 8.56734 9.34026 8.6251C9.34026 8.68285 9.32883 8.74003 9.30662 8.79335C9.28441 8.84666 9.25186 8.89505 9.21085 8.93572C9.16997 8.97627 9.12149 9.00835 9.06819 9.03012C9.01488 9.05189 8.95781 9.06293 8.90023 9.0626Z" fill="black"/>
</svg>
