<svg width="16" height="16" viewBox="0 0 16 16" fill="none" xmlns="http://www.w3.org/2000/svg">
<rect width="16" height="16" rx="4" fill="#BC38EB" fill-opacity="0.2"/>
<path d="M11.4875 10.25L9.49999 6.77375V4.25H9.87499C9.97444 4.25 10.0698 4.21049 10.1402 4.14017C10.2105 4.06984 10.25 3.97446 10.25 3.875C10.25 3.77554 10.2105 3.68016 10.1402 3.60984C10.0698 3.53951 9.97444 3.5 9.87499 3.5H6.12499C6.02553 3.5 5.93015 3.53951 5.85982 3.60984C5.7895 3.68016 5.74999 3.77554 5.74999 3.875C5.74999 3.97446 5.7895 4.06984 5.85982 4.14017C5.93015 4.21049 6.02553 4.25 6.12499 4.25H6.49999V6.77375L4.51249 10.25C4.38074 10.4782 4.31143 10.7371 4.31152 11.0006C4.31162 11.264 4.38112 11.5229 4.51304 11.751C4.64495 11.9791 4.83462 12.1684 5.06296 12.2999C5.2913 12.4314 5.55024 12.5004 5.81374 12.5H10.1862C10.4497 12.5004 10.7087 12.4314 10.937 12.2999C11.1653 12.1684 11.355 11.9791 11.4869 11.751C11.6188 11.5229 11.6884 11.264 11.6884 11.0006C11.6885 10.7371 11.6192 10.4782 11.4875 10.25ZM7.20124 7.0625C7.23175 7.0046 7.24843 6.94043 7.24999 6.875V4.25H8.74999V6.875C8.75154 6.94043 8.76823 7.0046 8.79874 7.0625L9.76249 8.75H6.23749L7.20124 7.0625ZM10.835 11.375C10.7692 11.4889 10.6747 11.5835 10.5608 11.6493C10.4469 11.7151 10.3178 11.7499 10.1862 11.75H5.81374C5.68221 11.7499 5.55304 11.7151 5.43917 11.6493C5.3253 11.5835 5.23075 11.4889 5.16499 11.375C5.09916 11.261 5.06451 11.1317 5.06451 11C5.06451 10.8683 5.09916 10.739 5.16499 10.625L5.80999 9.5H10.1975L10.8425 10.625C10.9072 10.7397 10.9405 10.8694 10.9392 11.001C10.9379 11.1327 10.902 11.2616 10.835 11.375Z" fill="#BC38EB" stroke="#BC38EB" stroke-width="0.3"/>
</svg>
