<svg width="18" height="18" viewBox="0 0 18 18" fill="none" xmlns="http://www.w3.org/2000/svg">
<rect x="1" y="1" width="16" height="16" rx="4" fill="#AEB8B8" fill-opacity="0.15"/>
<path d="M12.2119 8.60063L8.83687 5.22562C8.72966 5.12195 8.58664 5.06354 8.4375 5.0625H6.1875C6.03845 5.06293 5.89562 5.12233 5.79022 5.22772C5.68483 5.33312 5.62543 5.47595 5.625 5.625V12.375C5.62543 12.5241 5.68483 12.6669 5.79022 12.7723C5.89562 12.8777 6.03845 12.9371 6.1875 12.9375H11.8125C11.9616 12.9371 12.1044 12.8777 12.2098 12.7723C12.3152 12.6669 12.3746 12.5241 12.375 12.375V9C12.3739 8.85087 12.3155 8.70786 12.2119 8.60063ZM9 6.98057L10.4569 8.4375H9V6.98057ZM11.25 11.8125H6.75V6.1875H7.875V9C7.87543 9.14905 7.93483 9.29188 8.04022 9.39728C8.14562 9.50267 8.28845 9.56207 8.4375 9.5625H11.25V11.8125Z" fill="white"/>
</svg>
