<svg width="16" height="16" viewBox="0 0 16 16" fill="none" xmlns="http://www.w3.org/2000/svg">
<rect width="16" height="16" rx="4" fill="#15ADDF" fill-opacity="0.2"/>
<path d="M11.2129 5.79443C11.8377 5.79443 12.1319 6.2621 12.2861 6.8833C12.5064 7.59391 12.5064 8.35432 12.2861 9.06494C12.0691 9.71825 11.8369 10.1538 11.2129 10.1538H7.99512V10.4263H10.1396V11.2446C10.1397 11.8642 9.60598 12.1799 9.06543 12.3364C8.36737 12.5546 7.61894 12.5547 6.9209 12.3364C6.35342 12.1695 5.84766 11.8264 5.84766 11.2446V9.20068C5.8487 8.91465 5.9615 8.63992 6.16211 8.43604C6.36263 8.23228 6.63508 8.11563 6.9209 8.10986H9.06543C9.42153 8.10063 9.76064 7.95334 10.0107 7.69971C10.2608 7.44594 10.4032 7.10475 10.4072 6.74854V5.79443H11.2129ZM9.20117 10.9722C9.14792 10.9725 9.09497 10.9837 9.0459 11.0044C8.99702 11.025 8.95235 11.0546 8.91504 11.0923C8.87762 11.1302 8.84819 11.1758 8.82812 11.2251C8.80811 11.2744 8.7975 11.3272 8.79785 11.3804C8.79764 11.4616 8.82213 11.5413 8.86719 11.6089C8.91227 11.6763 8.97679 11.7284 9.05176 11.7593C9.12681 11.7902 9.20952 11.7989 9.28906 11.7827C9.36838 11.7666 9.44108 11.7269 9.49805 11.6694C9.55515 11.6116 9.5942 11.5373 9.60938 11.4575C9.62443 11.378 9.61567 11.2957 9.58398 11.2212C9.55208 11.1465 9.49783 11.0828 9.42969 11.0386C9.36163 10.9944 9.28228 10.971 9.20117 10.9722ZM7.94727 3.49951C8.32178 3.49737 8.69581 3.52702 9.06543 3.5874C9.34734 3.61639 9.61012 3.74456 9.80664 3.94873C10.0032 4.15307 10.1216 4.42066 10.1396 4.70361V6.74854C10.1408 6.8904 10.1137 7.03105 10.0605 7.1626C10.0073 7.29431 9.92872 7.41482 9.8291 7.51611C9.72942 7.61742 9.61037 7.69799 9.47949 7.75342C9.34858 7.80884 9.20758 7.83829 9.06543 7.83936H6.9209C6.56841 7.84534 6.23143 7.98725 5.98145 8.23584C5.7315 8.48449 5.58795 8.82086 5.58008 9.17334V10.1538H4.8418C4.2178 10.1538 3.85282 9.7006 3.7002 9.06494C3.49881 8.35172 3.49875 7.59651 3.7002 6.8833C3.75957 6.57285 3.92742 6.29342 4.17285 6.09424C4.41826 5.89513 4.72602 5.78864 5.04199 5.79443H7.99512V5.52197H5.84766V4.70361C5.84766 4.08409 6.0126 3.74793 6.9209 3.5874C7.25984 3.52949 7.60341 3.49988 7.94727 3.49951ZM6.78613 4.15771C6.67843 4.1589 6.5755 4.20297 6.5 4.27979C6.42448 4.35671 6.38201 4.46105 6.38281 4.56885C6.38314 4.64986 6.40781 4.72923 6.45312 4.79639C6.49841 4.86342 6.56282 4.9152 6.6377 4.9458C6.71273 4.97634 6.79565 4.9846 6.875 4.96826C6.95433 4.95185 7.02718 4.91175 7.08398 4.854C7.14074 4.79619 7.17931 4.72267 7.19434 4.64307C7.20931 4.56331 7.20092 4.48034 7.16895 4.40576C7.13697 4.33118 7.08274 4.26826 7.01465 4.22412C6.9466 4.18004 6.86721 4.15647 6.78613 4.15771Z" fill="#15ADDF"/>
</svg>
