<svg width="17" height="16" viewBox="0 0 17 16" fill="none" xmlns="http://www.w3.org/2000/svg">
<path d="M5.74516 3L7.45516 4.705L7.74516 5H14.1602V13H2.16016V3H5.74516ZM5.74516 2H2.16016C1.89494 2 1.64059 2.10536 1.45305 2.29289C1.26551 2.48043 1.16016 2.73478 1.16016 3V13C1.16016 13.2652 1.26551 13.5196 1.45305 13.7071C1.64059 13.8946 1.89494 14 2.16016 14H14.1602C14.4254 14 14.6797 13.8946 14.8673 13.7071C15.0548 13.5196 15.1602 13.2652 15.1602 13V5C15.1602 4.73478 15.0548 4.48043 14.8673 4.29289C14.6797 4.10536 14.4254 4 14.1602 4H8.16016L6.45516 2.295C6.36213 2.20142 6.2515 2.12717 6.12964 2.07654C6.00778 2.02591 5.87711 1.9999 5.74516 2Z" fill="currentColor"/>
</svg>
