<svg width="14" height="10" viewBox="0 0 14 10" fill="none" xmlns="http://www.w3.org/2000/svg">
<path fill-rule="evenodd" clip-rule="evenodd" d="M10.8571 1.8712C11.9814 2.58193 12.881 3.59697 13.4516 4.79847C13.4815 4.86144 13.4971 4.9303 13.4971 5.00004C13.4971 5.06978 13.4815 5.13864 13.4516 5.2016C12.881 6.40311 11.9814 7.41815 10.8571 8.12888C9.73287 8.8396 8.43007 9.21687 7.09999 9.21687C5.76991 9.21687 4.46711 8.8396 3.34284 8.12888C2.21857 7.41815 1.31895 6.40311 0.74843 5.2016C0.718442 5.13864 0.702881 5.06978 0.702881 5.00004C0.702881 4.9303 0.718442 4.86144 0.74843 4.79847C1.31895 3.59697 2.21857 2.58193 3.34284 1.8712C4.46711 1.16047 5.76991 0.783203 7.09999 0.783203C8.43007 0.783203 9.73287 1.16047 10.8571 1.8712ZM5.79787 6.94879C6.1833 7.20633 6.63644 7.34379 7.09999 7.34379C7.72159 7.34379 8.31774 7.09686 8.75727 6.65732C9.19681 6.21778 9.44374 5.62164 9.44374 5.00004C9.44374 4.53649 9.30628 4.08335 9.04875 3.69792C8.79121 3.31249 8.42517 3.01209 7.99691 2.83469C7.56864 2.6573 7.09739 2.61089 6.64275 2.70132C6.18811 2.79175 5.77049 3.01498 5.44271 3.34275C5.11493 3.67053 4.89171 4.08815 4.80128 4.54279C4.71084 4.99744 4.75726 5.46869 4.93465 5.89695C5.11204 6.32522 5.41245 6.69126 5.79787 6.94879ZM8.50624 5.00006C8.50624 5.77672 7.87664 6.40631 7.09999 6.40631C6.32334 6.40631 5.69374 5.77672 5.69374 5.00006C5.69374 4.22341 6.32334 3.59381 7.09999 3.59381C7.87664 3.59381 8.50624 4.22341 8.50624 5.00006Z" fill="#374146"/>
</svg>
