<svg width="9" height="10" viewBox="0 0 9 10" fill="none" xmlns="http://www.w3.org/2000/svg">
<path d="M8.15039 1.25V8.75C8.15039 8.94891 8.07137 9.13968 7.93072 9.28033C7.79007 9.42098 7.5993 9.5 7.40039 9.5C7.20148 9.5 7.01071 9.42098 6.87006 9.28033C6.72941 9.13968 6.65039 8.94891 6.65039 8.75V5.75H2.15039V8.75C2.15039 8.94891 2.07137 9.13968 1.93072 9.28033C1.79007 9.42098 1.5993 9.5 1.40039 9.5C1.20148 9.5 1.01071 9.42098 0.870061 9.28033C0.729408 9.13968 0.650391 8.94891 0.650391 8.75V1.25C0.650391 1.05109 0.729408 0.860322 0.870061 0.71967C1.01071 0.579018 1.20148 0.5 1.40039 0.5C1.5993 0.5 1.79007 0.579018 1.93072 0.71967C2.07137 0.860322 2.15039 1.05109 2.15039 1.25V4.25H6.65039V1.25C6.65039 1.05109 6.72941 0.860322 6.87006 0.71967C7.01071 0.579018 7.20148 0.5 7.40039 0.5C7.5993 0.5 7.79007 0.579018 7.93072 0.71967C8.07137 0.860322 8.15039 1.05109 8.15039 1.25Z" fill="#E67E22"/>
</svg>
