<svg width="12" height="10" viewBox="0 0 12 10" fill="none" xmlns="http://www.w3.org/2000/svg">
<path d="M3.75 9.78461C3.6225 9.78461 3.495 9.75461 3.375 9.68711C1.755 8.74961 0.75 7.00961 0.75 5.14211C0.75 3.27461 1.755 1.53461 3.375 0.597107C3.735 0.394607 4.1925 0.514607 4.4025 0.874607C4.605 1.23461 4.485 1.69211 4.125 1.90211C2.97 2.56211 2.25 3.80711 2.25 5.14211C2.25 6.47711 2.97 7.72211 4.125 8.38211C4.485 8.59211 4.605 9.04961 4.4025 9.40961C4.26 9.64961 4.0125 9.78461 3.75 9.78461Z" fill="#008184"/>
<path d="M8.25001 9.78461C7.98751 9.78461 7.74001 9.64961 7.59751 9.40961C7.38751 9.04961 7.51501 8.59211 7.87501 8.38211C9.03001 7.72211 9.75001 6.47711 9.75001 5.14211C9.75001 3.80711 9.03001 2.56211 7.87501 1.90211C7.51501 1.69211 7.39501 1.23461 7.59751 0.874607C7.80751 0.514607 8.26501 0.394607 8.62501 0.597107C10.245 1.53461 11.25 3.27461 11.25 5.14211C11.25 7.00961 10.245 8.74961 8.62501 9.68711C8.50501 9.75461 8.37751 9.78461 8.25001 9.78461Z" fill="#008184"/>
</svg>
