<svg width="22" height="22" viewBox="0 0 18 22" fill="none" xmlns="http://www.w3.org/2000/svg">
<path fill-rule="evenodd" clip-rule="evenodd" d="M0.756282 17.9937C0.920376 18.1578 1.14294 18.25 1.375 18.25C1.60706 18.25 1.82962 18.1578 1.99372 17.9937C2.15781 17.8296 2.25 17.6071 2.25 17.375V2.5H7.5C7.73206 2.5 7.95462 2.40781 8.11872 2.24372C8.28281 2.07962 8.375 1.85706 8.375 1.625C8.375 1.39294 8.28281 1.17038 8.11872 1.00628C7.95462 0.842187 7.73206 0.75 7.5 0.75H1.375C1.14294 0.75 0.920376 0.842187 0.756282 1.00628C0.592187 1.17038 0.5 1.39294 0.5 1.625V17.375C0.5 17.6071 0.592187 17.8296 0.756282 17.9937ZM10.7463 4.50375L17.7463 11.5037C17.9074 11.6706 17.9983 11.893 18 12.125V20.875C17.9993 21.1069 17.9069 21.329 17.743 21.493C17.579 21.6569 17.3569 21.7493 17.125 21.75H4.875C4.64314 21.7493 4.42097 21.6569 4.25702 21.493C4.09307 21.329 4.00067 21.1069 4 20.875V5.125C4.00067 4.89314 4.09307 4.67097 4.25702 4.50702C4.42097 4.34307 4.64314 4.25067 4.875 4.25H10.125C10.357 4.25166 10.5794 4.34253 10.7463 4.50375ZM14.99 11.2238L11 7.23375V11.25L14.99 11.2238ZM5.75 20H16.25V12.9738L10.125 13C9.89256 13.0007 9.66927 12.9095 9.50375 12.7463C9.34256 12.5794 9.2517 12.357 9.25 12.125V6H5.75V20Z" fill="currentColor"/>
</svg>
