<svg width="16" height="16" viewBox="0 0 16 16" fill="none" xmlns="http://www.w3.org/2000/svg">
  <path fill-rule="evenodd" clip-rule="evenodd"
    d="M8.205 5.00001H13.5C13.6326 5.00001 13.7598 5.05269 13.8536 5.14646C13.9473 5.24022 14 5.3674 14 5.50001V8.50001C14 8.63262 13.9473 8.75979 13.8536 8.85356C13.7598 8.94733 13.6326 9.00001 13.5 9.00001C13.3674 9.00001 13.2402 8.94733 13.1464 8.85356C13.0527 8.75979 13 8.63262 13 8.50001V6.00001H3V12H9.5C9.63261 12 9.75979 12.0527 9.85355 12.1465C9.94732 12.2402 10 12.3674 10 12.5C10 12.6326 9.94732 12.7598 9.85355 12.8536C9.75979 12.9473 9.63261 13 9.5 13H2.5C2.36739 13 2.24021 12.9473 2.14645 12.8536C2.05268 12.7598 2 12.6326 2 12.5V3.50001C2 3.3674 2.05268 3.24022 2.14645 3.14646C2.24021 3.05269 2.36739 3.00001 2.5 3.00001H6C6.0658 2.99963 6.13103 3.01224 6.19195 3.03712C6.25287 3.06201 6.30828 3.09867 6.355 3.14501L8.205 5.00001ZM3 4.00001V5.00001H6.795L5.795 4.00001H3ZM15.8536 12.8536C15.9473 12.7598 16 12.6326 16 12.5C16 12.3674 15.9473 12.2402 15.8536 12.1464C15.7598 12.0527 15.6326 12 15.5 12H14V10.5C14 10.3674 13.9473 10.2402 13.8536 10.1464C13.7598 10.0527 13.6326 10 13.5 10C13.3674 10 13.2402 10.0527 13.1464 10.1464C13.0527 10.2402 13 10.3674 13 10.5V12H11.5C11.3674 12 11.2402 12.0527 11.1464 12.1464C11.0527 12.2402 11 12.3674 11 12.5C11 12.6326 11.0527 12.7598 11.1464 12.8536C11.2402 12.9473 11.3674 13 11.5 13H13V14.5C13 14.6326 13.0527 14.7598 13.1464 14.8536C13.2402 14.9473 13.3674 15 13.5 15C13.6326 15 13.7598 14.9473 13.8536 14.8536C13.9473 14.7598 14 14.6326 14 14.5V13H15.5C15.6326 13 15.7598 12.9473 15.8536 12.8536Z"
    fill="white" />
</svg>