<svg width="12" height="12" viewBox="0 0 12 12" fill="none" xmlns="http://www.w3.org/2000/svg">
<path d="M10.125 4.50001C10.3321 4.50001 10.5 4.6679 10.5 4.87501V9.37501C10.5 9.58211 10.3321 9.75001 10.125 9.75001H1.875C1.66789 9.75001 1.5 9.58211 1.5 9.37501V4.87501C1.50001 4.6679 1.6679 4.50001 1.875 4.50001H10.125ZM4.5 2.25001C4.54928 2.24972 4.59792 2.25972 4.64355 2.27833C4.68924 2.29699 4.73156 2.32365 4.7666 2.3584L5.5166 3.1084C5.56852 3.16102 5.60311 3.22823 5.61719 3.30079C5.6312 3.37353 5.62344 3.44929 5.59473 3.51758C5.56665 3.58585 5.51916 3.64422 5.45801 3.68555C5.39661 3.72693 5.32403 3.74964 5.25 3.75001H1.875C1.77554 3.75001 1.6797 3.71096 1.60938 3.64063C1.53905 3.57031 1.5 3.47446 1.5 3.37501V2.62501C1.5 2.52556 1.53905 2.4297 1.60938 2.35938C1.6797 2.28906 1.77555 2.25001 1.875 2.25001H4.5Z" fill="currentColor"/>
</svg>
