<svg width="18" height="18" viewBox="0 0 18 18" fill="none" xmlns="http://www.w3.org/2000/svg">
<path d="M7.2825 10.7175C7.3528 10.7872 7.40859 10.8701 7.44667 10.9615C7.48475 11.0529 7.50435 11.1509 7.50435 11.25C7.50435 11.349 7.48475 11.447 7.44667 11.5384C7.40859 11.6298 7.3528 11.7127 7.2825 11.7825L2.565 16.5H6C6.19891 16.5 6.38968 16.579 6.53033 16.7196C6.67098 16.8603 6.75 17.051 6.75 17.25C6.75 17.4489 6.67098 17.6396 6.53033 17.7803C6.38968 17.9209 6.19891 18 6 18H0.75C0.551088 18 0.360322 17.9209 0.21967 17.7803C0.0790178 17.6396 0 17.4489 0 17.25V12C0 11.801 0.0790178 11.6103 0.21967 11.4696C0.360322 11.329 0.551088 11.25 0.75 11.25C0.948912 11.25 1.13968 11.329 1.28033 11.4696C1.42098 11.6103 1.5 11.801 1.5 12V15.435L6.2175 10.7175C6.28722 10.6472 6.37017 10.5914 6.46157 10.5533C6.55296 10.5152 6.65099 10.4956 6.75 10.4956C6.84901 10.4956 6.94704 10.5152 7.03843 10.5533C7.12983 10.5914 7.21278 10.6472 7.2825 10.7175Z" fill="#374146"/>
<path d="M18.0001 12.0001V17.2501C18.0001 17.4491 17.9211 17.6398 17.7805 17.7805C17.6398 17.9211 17.4491 18.0001 17.2501 18.0001H12.0001C11.8012 18.0001 11.6105 17.9211 11.4698 17.7805C11.3292 17.6398 11.2501 17.4491 11.2501 17.2501C11.2501 17.0512 11.3292 16.8605 11.4698 16.7198C11.6105 16.5792 11.8012 16.5001 12.0001 16.5001H15.4351L10.7176 11.7826C10.6477 11.7127 10.5922 11.6297 10.5544 11.5383C10.5165 11.447 10.4971 11.349 10.4971 11.2501C10.4971 11.1512 10.5165 11.0533 10.5544 10.962C10.5922 10.8706 10.6477 10.7876 10.7176 10.7176C10.7876 10.6477 10.8706 10.5922 10.962 10.5544C11.0533 10.5165 11.1512 10.4971 11.2501 10.4971C11.349 10.4971 11.447 10.5165 11.5383 10.5544C11.6297 10.5922 11.7127 10.6477 11.7826 10.7176L16.5001 15.4351V12.0001C16.5001 11.8012 16.5792 11.6105 16.7198 11.4698C16.8605 11.3292 17.0512 11.2501 17.2501 11.2501C17.4491 11.2501 17.6398 11.3292 17.7805 11.4698C17.9211 11.6105 18.0001 11.8012 18.0001 12.0001Z" fill="#374146"/>
<path d="M7.2825 6.2175C7.3528 6.28722 7.40859 6.37017 7.44667 6.46157C7.48475 6.55296 7.50435 6.65099 7.50435 6.75C7.50435 6.84901 7.48475 6.94704 7.44667 7.03843C7.40859 7.12983 7.3528 7.21278 7.2825 7.2825C7.21278 7.3528 7.12983 7.40859 7.03843 7.44667C6.94704 7.48475 6.84901 7.50435 6.75 7.50435C6.65099 7.50435 6.55296 7.48475 6.46157 7.44667C6.37017 7.40859 6.28722 7.3528 6.2175 7.2825L1.5 2.565V6C1.5 6.19891 1.42098 6.38968 1.28033 6.53033C1.13968 6.67098 0.948912 6.75 0.75 6.75C0.551088 6.75 0.360322 6.67098 0.21967 6.53033C0.0790178 6.38968 0 6.19891 0 6V0.75C0 0.551088 0.0790178 0.360322 0.21967 0.21967C0.360322 0.0790178 0.551088 0 0.75 0H6C6.19891 0 6.38968 0.0790178 6.53033 0.21967C6.67098 0.360322 6.75 0.551088 6.75 0.75C6.75 0.948912 6.67098 1.13968 6.53033 1.28033C6.38968 1.42098 6.19891 1.5 6 1.5H2.565L7.2825 6.2175Z" fill="#374146"/>
<path d="M18.0004 0.75V6C18.0004 6.19891 17.9214 6.38968 17.7808 6.53033C17.6401 6.67098 17.4494 6.75 17.2504 6.75C17.0515 6.75 16.8608 6.67098 16.7201 6.53033C16.5795 6.38968 16.5004 6.19891 16.5004 6V2.565L11.7829 7.2825C11.7132 7.3528 11.6303 7.40859 11.5389 7.44667C11.4475 7.48475 11.3495 7.50435 11.2504 7.50435C11.1514 7.50435 11.0534 7.48475 10.962 7.44667C10.8706 7.40859 10.7877 7.3528 10.7179 7.2825C10.6476 7.21278 10.5918 7.12983 10.5538 7.03843C10.5157 6.94704 10.4961 6.84901 10.4961 6.75C10.4961 6.65099 10.5157 6.55296 10.5538 6.46157C10.5918 6.37017 10.6476 6.28722 10.7179 6.2175L15.4354 1.5H12.0004C11.8015 1.5 11.6108 1.42098 11.4701 1.28033C11.3295 1.13968 11.2504 0.948912 11.2504 0.75C11.2504 0.551088 11.3295 0.360322 11.4701 0.21967C11.6108 0.0790178 11.8015 0 12.0004 0H17.2504C17.4494 0 17.6401 0.0790178 17.7808 0.21967C17.9214 0.360322 18.0004 0.551088 18.0004 0.75Z" fill="#374146"/>
</svg>
