<svg width="32" height="32" viewBox="0 0 32 32" fill="none" xmlns="http://www.w3.org/2000/svg">
<path fill-rule="evenodd" clip-rule="evenodd" d="M20.2929 23.7071C20.4804 23.8946 20.7348 24 21 24C21.2652 24 21.5196 23.8946 21.7071 23.7071C21.8946 23.5196 22 23.2652 22 23V9C22 8.73478 21.8946 8.48043 21.7071 8.29289C21.5196 8.10536 21.2652 8 21 8C20.7348 8 20.4804 8.10536 20.2929 8.29289C20.1054 8.48043 20 8.73478 20 9V23C20 23.2652 20.1054 23.5196 20.2929 23.7071ZM9.61609 22.9258C9.73793 22.9755 9.86839 23.0008 10 23C10.1316 23.0008 10.2621 22.9755 10.3839 22.9258C10.5057 22.876 10.6166 22.8027 10.71 22.71L16.71 16.71C16.8037 16.617 16.8781 16.5064 16.9289 16.3846C16.9797 16.2627 17.0058 16.132 17.0058 16C17.0058 15.868 16.9797 15.7373 16.9289 15.6154C16.8781 15.4936 16.8037 15.383 16.71 15.29L10.71 9.29C10.5217 9.1017 10.2663 8.99591 10 8.99591C9.7337 8.99591 9.4783 9.1017 9.29 9.29C9.1017 9.47831 8.99591 9.7337 8.99591 10C8.99591 10.2663 9.1017 10.5217 9.29 10.71L14.59 16L9.29 21.29C9.19627 21.383 9.12188 21.4936 9.07111 21.6154C9.02034 21.7373 8.9942 21.868 8.9942 22C8.9942 22.132 9.02034 22.2627 9.07111 22.3846C9.12188 22.5064 9.19627 22.617 9.29 22.71C9.38344 22.8027 9.49426 22.876 9.61609 22.9258Z" fill="black"/>
</svg>
