<?xml version="1.0" encoding="UTF-8"?>
<svg xmlns="http://www.w3.org/2000/svg" xmlns:xlink="http://www.w3.org/1999/xlink" width="35px" height="35px" viewBox="0 0 35 35" version="1.1">
<defs>
<filter id="alpha" filterUnits="objectBoundingBox" x="0%" y="0%" width="100%" height="100%">
  <feColorMatrix type="matrix" in="SourceGraphic" values="0 0 0 0 1 0 0 0 0 1 0 0 0 0 1 0 0 0 1 0"/>
</filter>
<mask id="mask0">
  <g filter="url(#alpha)">
<rect x="0" y="0" width="35" height="35" style="fill:rgb(0%,0%,0%);fill-opacity:0.2;stroke:none;"/>
  </g>
</mask>
<clipPath id="clip1">
  <rect x="0" y="0" width="35" height="35"/>
</clipPath>
<g id="surface5" clip-path="url(#clip1)">
<path style=" stroke:none;fill-rule:nonzero;fill:rgb(100%,100%,100%);fill-opacity:1;" d="M 32.613281 2.386719 L 2.386719 2.386719 C 1.066406 2.386719 0 3.453125 0 4.773438 L 0 4.972656 C 0 3.652344 1.066406 2.585938 2.386719 2.585938 L 32.613281 2.585938 C 33.933594 2.585938 35 3.652344 35 4.972656 L 35 4.773438 C 35 3.453125 33.933594 2.386719 32.613281 2.386719 Z M 32.613281 2.386719 "/>
</g>
<mask id="mask1">
  <g filter="url(#alpha)">
<rect x="0" y="0" width="35" height="35" style="fill:rgb(0%,0%,0%);fill-opacity:0.2;stroke:none;"/>
  </g>
</mask>
<clipPath id="clip2">
  <rect x="0" y="0" width="35" height="35"/>
</clipPath>
<g id="surface8" clip-path="url(#clip2)">
<path style=" stroke:none;fill-rule:nonzero;fill:rgb(74.901961%,21.176471%,4.705882%);fill-opacity:1;" d="M 32.613281 32.414062 L 2.386719 32.414062 C 1.066406 32.414062 0 31.347656 0 30.027344 L 0 30.226562 C 0 31.546875 1.066406 32.613281 2.386719 32.613281 L 32.613281 32.613281 C 33.933594 32.613281 35 31.546875 35 30.226562 L 35 30.027344 C 35 31.347656 33.933594 32.414062 32.613281 32.414062 Z M 32.613281 32.414062 "/>
</g>
<linearGradient id="linear0" gradientUnits="userSpaceOnUse" x1="0.50003" y1="0.01385" x2="0.50003" y2="1.01042" gradientTransform="matrix(10.335938,0,0,3.179687,20.667969,29.433594)">
<stop offset="0" style="stop-color:rgb(74.901961%,21.176471%,4.705882%);stop-opacity:0.2;"/>
<stop offset="1" style="stop-color:rgb(74.901961%,21.176471%,4.705882%);stop-opacity:0.0196078;"/>
</linearGradient>
<mask id="mask2">
  <g filter="url(#alpha)">
<rect x="0" y="0" width="35" height="35" style="fill:rgb(0%,0%,0%);fill-opacity:0.2;stroke:none;"/>
  </g>
</mask>
<clipPath id="clip3">
  <rect x="0" y="0" width="35" height="35"/>
</clipPath>
<g id="surface11" clip-path="url(#clip3)">
<path style=" stroke:none;fill-rule:nonzero;fill:rgb(14.901961%,19.607843%,21.960784%);fill-opacity:1;" d="M 3.183594 5.371094 L 31.816406 5.371094 L 31.816406 5.566406 L 3.183594 5.566406 Z M 3.183594 5.371094 "/>
</g>
<mask id="mask3">
  <g filter="url(#alpha)">
<rect x="0" y="0" width="35" height="35" style="fill:rgb(0%,0%,0%);fill-opacity:0.2;stroke:none;"/>
  </g>
</mask>
<clipPath id="clip4">
  <rect x="0" y="0" width="35" height="35"/>
</clipPath>
<g id="surface14" clip-path="url(#clip4)">
<path style=" stroke:none;fill-rule:nonzero;fill:rgb(100%,100%,100%);fill-opacity:1;" d="M 3.183594 29.433594 L 31.816406 29.433594 L 31.816406 29.628906 L 3.183594 29.628906 Z M 3.183594 29.433594 "/>
</g>
<radialGradient id="radial0" gradientUnits="userSpaceOnUse" cx="0.03407" cy="0.02344" fx="0.03407" fy="0.02344" r="4.77746" gradientTransform="matrix(30.2274,0,0,30.226562,0.175,2.386719)">
<stop offset="0" style="stop-color:rgb(100%,100%,100%);stop-opacity:0.101961;"/>
<stop offset="1" style="stop-color:rgb(100%,100%,100%);stop-opacity:0;"/>
</radialGradient>
</defs>
<g id="surface1">
<path style=" stroke:none;fill-rule:nonzero;fill:rgb(5.882353%,61.568627%,34.509804%);fill-opacity:1;" d="M 3.183594 5.566406 L 31.816406 5.566406 L 31.816406 29.433594 L 3.183594 29.433594 Z M 3.183594 5.566406 "/>
<path style=" stroke:none;fill-rule:nonzero;fill:rgb(34.117647%,73.333333%,54.117647%);fill-opacity:1;" d="M 23.863281 18.296875 C 24.851562 18.296875 25.652344 17.492188 25.652344 16.503906 C 25.652344 15.519531 24.851562 14.714844 23.863281 14.714844 C 22.875 14.714844 22.074219 15.519531 22.074219 16.503906 C 22.074219 17.492188 22.875 18.296875 23.863281 18.296875 Z M 23.863281 19.488281 C 21.949219 19.488281 19.886719 20.503906 19.886719 21.761719 L 19.886719 23.066406 L 27.839844 23.066406 L 27.839844 21.761719 C 27.839844 20.503906 25.78125 19.488281 23.863281 19.488281 Z M 11.136719 18.296875 C 12.125 18.296875 12.925781 17.492188 12.925781 16.503906 C 12.925781 15.519531 12.125 14.714844 11.136719 14.714844 C 10.148438 14.714844 9.347656 15.519531 9.347656 16.503906 C 9.347656 17.492188 10.148438 18.296875 11.136719 18.296875 Z M 11.136719 19.488281 C 9.21875 19.488281 7.160156 20.503906 7.160156 21.761719 L 7.160156 23.066406 L 15.113281 23.066406 L 15.113281 21.761719 C 15.113281 20.503906 13.050781 19.488281 11.136719 19.488281 Z M 11.136719 19.488281 "/>
<path style=" stroke:none;fill-rule:nonzero;fill:rgb(96.862745%,96.862745%,96.862745%);fill-opacity:1;" d="M 17.5 16.703125 C 18.820312 16.703125 19.886719 15.636719 19.886719 14.316406 C 19.886719 13 18.820312 11.933594 17.5 11.933594 C 16.179688 11.933594 15.113281 13 15.113281 14.316406 C 15.113281 15.636719 16.179688 16.703125 17.5 16.703125 Z M 17.5 18.296875 C 14.816406 18.296875 11.933594 19.71875 11.933594 21.476562 L 11.933594 23.066406 L 23.066406 23.066406 L 23.066406 21.476562 C 23.066406 19.71875 20.183594 18.296875 17.5 18.296875 Z M 17.5 18.296875 "/>
<path style=" stroke:none;fill-rule:nonzero;fill:rgb(94.509804%,94.509804%,94.509804%);fill-opacity:1;" d="M 20.683594 27.839844 L 27.839844 27.839844 L 27.839844 29.433594 L 20.683594 29.433594 Z M 20.683594 27.839844 "/>
<path style=" stroke:none;fill-rule:nonzero;fill:rgb(95.686275%,70.588235%,0%);fill-opacity:1;" d="M 32.613281 2.386719 L 2.386719 2.386719 C 1.066406 2.386719 0 3.453125 0 4.773438 L 0 30.226562 C 0 31.546875 1.066406 32.613281 2.386719 32.613281 L 32.613281 32.613281 C 33.933594 32.613281 35 31.546875 35 30.226562 L 35 4.773438 C 35 3.453125 33.933594 2.386719 32.613281 2.386719 Z M 31.816406 29.433594 L 3.183594 29.433594 L 3.183594 5.566406 L 31.816406 5.566406 Z M 31.816406 29.433594 "/>
<use xlink:href="#surface5" mask="url(#mask0)"/>
<use xlink:href="#surface8" mask="url(#mask1)"/>
<path style=" stroke:none;fill-rule:nonzero;fill:url(#linear0);" d="M 27.828125 29.433594 L 20.667969 29.433594 L 23.851562 32.613281 L 31.003906 32.613281 Z M 27.828125 29.433594 "/>
<use xlink:href="#surface11" mask="url(#mask2)"/>
<use xlink:href="#surface14" mask="url(#mask3)"/>
<path style=" stroke:none;fill-rule:nonzero;fill:url(#radial0);" d="M 32.613281 2.386719 L 2.386719 2.386719 C 1.066406 2.386719 0 3.453125 0 4.773438 L 0 30.226562 C 0 31.546875 1.066406 32.613281 2.386719 32.613281 L 32.613281 32.613281 C 33.933594 32.613281 35 31.546875 35 30.226562 L 35 4.773438 C 35 3.453125 33.933594 2.386719 32.613281 2.386719 Z M 32.613281 2.386719 "/>
</g>
</svg>
