<svg width="25" height="22" viewBox="0 0 25 22" fill="none" xmlns="http://www.w3.org/2000/svg">
<path d="M24 0C24.2652 0 24.5195 0.105433 24.707 0.292969C24.8946 0.480505 25 0.734784 25 1V21C25 21.2652 24.8946 21.5195 24.707 21.707C24.5195 21.8946 24.2652 22 24 22H4C3.73478 22 3.48051 21.8946 3.29297 21.707C3.10543 21.5195 3 21.2652 3 21V15H1C0.734784 15 0.480505 14.8946 0.292969 14.707C0.105433 14.5195 0 14.2652 0 14V8C0 7.73478 0.105432 7.4805 0.292969 7.29297C0.480505 7.10543 0.734784 7 1 7H3V1C3 0.734784 3.10543 0.480505 3.29297 0.292969C3.48051 0.105432 3.73478 0 4 0H24ZM5 2V7H6C6.26522 7 6.5195 7.10543 6.70703 7.29297C6.89457 7.4805 7 7.73478 7 8V14C7 14.2652 6.89457 14.5195 6.70703 14.707C6.5195 14.8946 6.26522 15 6 15H5V20H7V19C7 18.7348 7.10543 18.4805 7.29297 18.293C7.4805 18.1054 7.73478 18 8 18C8.26522 18 8.5195 18.1054 8.70703 18.293C8.89457 18.4805 9 18.7348 9 19V20H11V19C11 18.7348 11.1054 18.4805 11.293 18.293C11.4805 18.1054 11.7348 18 12 18C12.2652 18 12.5195 18.1054 12.707 18.293C12.8946 18.4805 13 18.7348 13 19V20H15V19C15 18.7348 15.1054 18.4805 15.293 18.293C15.4805 18.1054 15.7348 18 16 18C16.2652 18 16.5195 18.1054 16.707 18.293C16.8946 18.4805 17 18.7348 17 19V20H19V19C19 18.7348 19.1054 18.4805 19.293 18.293C19.4805 18.1054 19.7348 18 20 18C20.2652 18 20.5195 18.1054 20.707 18.293C20.8946 18.4805 21 18.7348 21 19V20H23V2H21V3C21 3.26522 20.8946 3.51949 20.707 3.70703C20.5195 3.89457 20.2652 4 20 4C19.7348 4 19.4805 3.89457 19.293 3.70703C19.1054 3.51949 19 3.26522 19 3V2H17V3C17 3.26522 16.8946 3.51949 16.707 3.70703C16.5195 3.89457 16.2652 4 16 4C15.7348 4 15.4805 3.89457 15.293 3.70703C15.1054 3.51949 15 3.26522 15 3V2H13V3C13 3.26522 12.8946 3.51949 12.707 3.70703C12.5195 3.89457 12.2652 4 12 4C11.7348 4 11.4805 3.89457 11.293 3.70703C11.1054 3.51949 11 3.26522 11 3V2H9V3C9 3.26522 8.89457 3.51949 8.70703 3.70703C8.5195 3.89457 8.26522 4 8 4C7.73478 4 7.4805 3.89457 7.29297 3.70703C7.10543 3.51949 7 3.26522 7 3V2H5ZM20 7C20.2652 7 20.5195 7.10543 20.707 7.29297C20.8946 7.4805 21 7.73478 21 8V14C21 14.2652 20.8946 14.5195 20.707 14.707C20.5195 14.8946 20.2652 15 20 15H14C13.7348 15 13.4805 14.8946 13.293 14.707C13.1054 14.5195 13 14.2652 13 14V8C13 7.73478 13.1054 7.4805 13.293 7.29297C13.4805 7.10543 13.7348 7 14 7H20ZM2 9V13H5V9H2ZM15 9V13H19V9H15Z" fill="white"/>
</svg>
