<svg width="40" height="40" viewBox="0 0 40 40" fill="none" xmlns="http://www.w3.org/2000/svg">
<rect width="40" height="40" rx="20" fill="#005C5F" fill-opacity="0.1"/>
<path d="M27.5 20C27.4994 20.1987 27.4202 20.3892 27.2797 20.5297C27.1392 20.6702 26.9487 20.7494 26.75 20.75H20.75V26.75C20.75 26.9489 20.671 27.1397 20.5303 27.2803C20.3897 27.421 20.1989 27.5 20 27.5C19.8011 27.5 19.6103 27.421 19.4697 27.2803C19.329 27.1397 19.25 26.9489 19.25 26.75V20.75H13.25C13.0511 20.75 12.8603 20.671 12.7197 20.5303C12.579 20.3897 12.5 20.1989 12.5 20C12.5 19.8011 12.579 19.6103 12.7197 19.4697C12.8603 19.329 13.0511 19.25 13.25 19.25H19.25V13.25C19.25 13.0511 19.329 12.8603 19.4697 12.7197C19.6103 12.579 19.8011 12.5 20 12.5C20.1989 12.5 20.3897 12.579 20.5303 12.7197C20.671 12.8603 20.75 13.0511 20.75 13.25V19.25H26.75C26.9487 19.2506 27.1392 19.3298 27.2797 19.4703C27.4202 19.6108 27.4994 19.8013 27.5 20Z" fill="#00979D"/>
</svg>
