<svg width="19" height="16" viewBox="0 0 19 16" fill="none" xmlns="http://www.w3.org/2000/svg">
<path d="M18.25 6.5H8.5C8.30109 6.5 8.11032 6.42098 7.96967 6.28033C7.82902 6.13968 7.75 5.94891 7.75 5.75C7.75 5.55109 7.82902 5.36032 7.96967 5.21967C8.11032 5.07902 8.30109 5 8.5 5H18.25C18.4489 5 18.6397 5.07902 18.7803 5.21967C18.921 5.36032 19 5.55109 19 5.75C19 5.94891 18.921 6.13968 18.7803 6.28033C18.6397 6.42098 18.4489 6.5 18.25 6.5Z" fill="#374146"/>
<path d="M18.25 2H1.75C1.55109 2 1.36032 1.92098 1.21967 1.78033C1.07902 1.63968 1 1.44891 1 1.25C1 1.05109 1.07902 0.860322 1.21967 0.71967C1.36032 0.579018 1.55109 0.5 1.75 0.5H18.25C18.4489 0.5 18.6397 0.579018 18.7803 0.71967C18.921 0.860322 19 1.05109 19 1.25C19 1.44891 18.921 1.63968 18.7803 1.78033C18.6397 1.92098 18.4489 2 18.25 2Z" fill="#374146"/>
<path d="M18.25 11H8.5C8.30109 11 8.11032 10.921 7.96967 10.7803C7.82902 10.6397 7.75 10.4489 7.75 10.25C7.75 10.0511 7.82902 9.86032 7.96967 9.71967C8.11032 9.57902 8.30109 9.5 8.5 9.5H18.25C18.4489 9.5 18.6397 9.57902 18.7803 9.71967C18.921 9.86032 19 10.0511 19 10.25C19 10.4489 18.921 10.6397 18.7803 10.7803C18.6397 10.921 18.4489 11 18.25 11Z" fill="#374146"/>
<path d="M18.25 15.5H1.75C1.55109 15.5 1.36032 15.421 1.21967 15.2803C1.07902 15.1397 1 14.9489 1 14.75C1 14.5511 1.07902 14.3603 1.21967 14.2197C1.36032 14.079 1.55109 14 1.75 14H18.25C18.4489 14 18.6397 14.079 18.7803 14.2197C18.921 14.3603 19 14.5511 19 14.75C19 14.9489 18.921 15.1397 18.7803 15.2803C18.6397 15.421 18.4489 15.5 18.25 15.5Z" fill="#374146"/>
<path d="M1.75044 11.7501C1.65174 11.7507 1.55389 11.7318 1.46251 11.6945C1.37113 11.6571 1.28802 11.6022 1.21794 11.5326C1.14765 11.4629 1.09185 11.38 1.05377 11.2886C1.0157 11.1972 0.996094 11.0991 0.996094 11.0001C0.996094 10.9011 1.0157 10.8031 1.05377 10.7117C1.09185 10.6203 1.14765 10.5374 1.21794 10.4676L3.69294 8.00014L1.21794 5.53264C1.07671 5.39141 0.997374 5.19987 0.997374 5.00014C0.997374 4.80041 1.07671 4.60887 1.21794 4.46764C1.35917 4.32641 1.55072 4.24707 1.75044 4.24707C1.95017 4.24707 2.14171 4.32641 2.28294 4.46764L5.28294 7.46764C5.35324 7.53736 5.40903 7.62031 5.44711 7.71171C5.48519 7.8031 5.50479 7.90113 5.50479 8.00014C5.50479 8.09915 5.48519 8.19718 5.44711 8.28857C5.40903 8.37997 5.35324 8.46292 5.28294 8.53264L2.28294 11.5326C2.21286 11.6022 2.12975 11.6571 2.03837 11.6945C1.94699 11.7318 1.84915 11.7507 1.75044 11.7501Z" fill="#374146"/>
</svg>
