<svg width="4" height="9" viewBox="0 0 4 9" fill="none" xmlns="http://www.w3.org/2000/svg">
<path d="M2.75 2C3.16421 2 3.5 1.66421 3.5 1.25C3.5 0.835786 3.16421 0.5 2.75 0.5C2.33579 0.5 2 0.835786 2 1.25C2 1.66421 2.33579 2 2.75 2Z" fill="#374146"/>
<path d="M0.999924 8.50015C0.887737 8.50092 0.778551 8.46394 0.689924 8.39515C0.615957 8.33715 0.559836 8.25948 0.527999 8.17104C0.496161 8.0826 0.489897 7.98698 0.509924 7.89515L1.23992 4.61015L0.774924 4.92015C0.66514 4.97904 0.537326 4.99482 0.416514 4.96441C0.295702 4.93399 0.190596 4.85958 0.12178 4.75573C0.0529636 4.65188 0.025395 4.52608 0.0444735 4.40297C0.063552 4.27985 0.127903 4.1683 0.224923 4.09015L1.72492 3.09015C1.80761 3.03426 1.90512 3.00439 2.00492 3.00439C2.10472 3.00439 2.20224 3.03426 2.28492 3.09015C2.36881 3.14524 2.43417 3.22429 2.47252 3.31703C2.51086 3.40977 2.52041 3.51191 2.49992 3.61015L1.72492 7.11015L2.78492 6.58015C2.84384 6.5447 2.90943 6.52178 2.9776 6.51283C3.04577 6.50387 3.11506 6.50908 3.18113 6.52811C3.2472 6.54714 3.30863 6.5796 3.36159 6.62345C3.41455 6.6673 3.4579 6.7216 3.48892 6.78296C3.51994 6.84432 3.53798 6.91142 3.5419 6.98006C3.54582 7.04871 3.53554 7.11742 3.5117 7.18192C3.48787 7.24641 3.45098 7.30529 3.40336 7.35489C3.35574 7.40448 3.2984 7.44372 3.23492 7.47015L1.23492 8.47015C1.16012 8.49883 1.07953 8.50912 0.999924 8.50015Z" fill="#374146"/>
</svg>
