<svg width="14" height="12" viewBox="0 0 14 12" fill="none" xmlns="http://www.w3.org/2000/svg">
<g id="Icon">
<path id="Vector" d="M2.97559 6.64941C3.06332 6.64327 3.15146 6.66058 3.23047 6.69922L7.00098 8.44922L10.79 6.69922C10.869 6.66058 10.9572 6.64333 11.0449 6.64941C11.1326 6.65555 11.2172 6.68521 11.29 6.73438C11.3567 6.7818 11.4116 6.8448 11.4482 6.91797C11.4848 6.99113 11.503 7.07253 11.501 7.1543V9.1543C11.5012 9.24993 11.4733 9.34416 11.4219 9.4248C11.3706 9.50517 11.2974 9.56925 11.2109 9.60938L7.21094 11.4541C7.14526 11.4845 7.07334 11.5009 7.00098 11.501C6.92845 11.501 6.85586 11.4846 6.79004 11.4541L2.79004 9.60938C2.70356 9.56925 2.63041 9.50516 2.5791 9.4248C2.5277 9.34416 2.50074 9.24993 2.50098 9.1543V7.1543C2.50116 7.07074 2.5214 6.98833 2.56152 6.91504C2.60171 6.84166 2.66006 6.77955 2.73047 6.73438C2.8033 6.68511 2.88788 6.65559 2.97559 6.64941ZM7.00098 0.498047C7.07334 0.498114 7.14526 0.514527 7.21094 0.544922L13.7109 3.54492C13.7886 3.58141 13.8555 3.63719 13.9053 3.70703C13.9552 3.77704 13.986 3.85887 13.9951 3.94434C13.9995 3.96232 14.0021 3.98152 14.001 4V8.5C14.0009 8.63244 13.9481 8.75986 13.8545 8.85352C13.7608 8.94717 13.6334 8.99988 13.501 9C13.3684 9 13.2403 8.94728 13.1465 8.85352C13.0528 8.75986 13.0011 8.63243 13.001 8.5V4.78418L7.21094 7.4541C7.14526 7.4845 7.07334 7.50091 7.00098 7.50098C6.92845 7.50098 6.85586 7.48456 6.79004 7.4541L0.290039 4.4541C0.203077 4.41435 0.128928 4.3509 0.0771484 4.27051C0.0253322 4.18996 -0.00186617 4.09577 -0.00195312 4C-0.00195313 3.90423 0.0254131 3.81008 0.0771484 3.72949C0.128941 3.64898 0.202976 3.58471 0.290039 3.54492L6.79004 0.544922C6.85586 0.514461 6.92845 0.498047 7.00098 0.498047Z" fill="#5D6A6B"/>
</g>
</svg>
