<svg width="21" height="21" viewBox="0 0 21 21" fill="none" xmlns="http://www.w3.org/2000/svg">
<rect x="0.5" y="0.5" width="20" height="20" rx="3" fill="#DAE3E3"/>
<path d="M16.2969 15.0675L14.3719 7.735C14.3393 7.62557 14.2653 7.53321 14.1655 7.47762C14.0658 7.42204 13.9483 7.40764 13.8381 7.4375L12.25 7.83562V5.25C12.25 5.13397 12.2039 5.02269 12.1219 4.94064C12.0398 4.85859 11.9285 4.8125 11.8125 4.8125H10.0625C9.94647 4.8125 9.83519 4.85859 9.75314 4.94064C9.67109 5.02269 9.625 5.13397 9.625 5.25V6.5625H7.875V5.6875C7.875 5.57147 7.82891 5.46019 7.74686 5.37814C7.66481 5.29609 7.55353 5.25 7.4375 5.25H5.25C5.13397 5.25 5.02269 5.29609 4.94064 5.37814C4.85859 5.46019 4.8125 5.57147 4.8125 5.6875V15.75C4.8125 15.866 4.85859 15.9773 4.94064 16.0594C5.02269 16.1414 5.13397 16.1875 5.25 16.1875H11.8125C11.9285 16.1875 12.0398 16.1414 12.1219 16.0594C12.2039 15.9773 12.25 15.866 12.25 15.75V10.6444L13.5975 15.7762C13.6223 15.8725 13.6791 15.9575 13.7587 16.0171C13.8382 16.0767 13.9356 16.1075 14.035 16.1044C14.0728 16.1086 14.111 16.1086 14.1488 16.1044L15.9994 15.6188C16.1115 15.5896 16.2074 15.5173 16.2663 15.4175C16.2953 15.3644 16.313 15.306 16.3182 15.2457C16.3235 15.1855 16.3162 15.1248 16.2969 15.0675ZM7 15.3125H5.6875V6.125H7V15.3125ZM9.625 15.3125H7.875V7.4375H9.625V15.3125ZM11.375 15.3125H10.5V5.6875H11.375V15.3125ZM14.3325 15.1287L12.6306 8.645L13.6369 8.37812L15.3387 14.875L14.3325 15.1287Z" fill="#374146"/>
</svg>
