<svg width="16" height="16" viewBox="0 0 16 16" fill="none" xmlns="http://www.w3.org/2000/svg">
<path d="M3.875 10.2495C3.87493 10.3245 3.89741 10.3983 3.93945 10.4604C3.98158 10.5226 4.04155 10.5713 4.11133 10.5991L7.625 12.0054V12.1245H3.125C3.02554 12.1245 2.9297 12.0855 2.85938 12.0151C2.7892 11.9448 2.75 11.8489 2.75 11.7495V4.99951C2.75013 4.90035 2.78932 4.80505 2.85938 4.73486C2.9297 4.66454 3.02554 4.62451 3.125 4.62451H3.875V10.2495ZM12.875 4.62451C12.9745 4.62451 13.0703 4.66454 13.1406 4.73486C13.2107 4.80505 13.2499 4.90035 13.25 4.99951V11.7495C13.25 11.8489 13.2108 11.9448 13.1406 12.0151C13.0703 12.0855 12.9745 12.1245 12.875 12.1245H8.375V12.0054L11.8887 10.5991C11.9584 10.5713 12.0184 10.5226 12.0605 10.4604C12.1026 10.3983 12.1251 10.3245 12.125 10.2495V4.62451H12.875ZM5.12012 3.51904L7.37012 4.26904C7.44447 4.2942 7.50897 4.34195 7.55469 4.40576C7.60035 4.46956 7.6251 4.54607 7.625 4.62451V10.6245C7.625 10.7239 7.5858 10.8198 7.51562 10.8901C7.4453 10.9605 7.34946 10.9995 7.25 10.9995C7.20934 10.9988 7.16884 10.9926 7.12988 10.981L4.87988 10.231C4.80553 10.2058 4.74103 10.1581 4.69531 10.0942C4.64955 10.0303 4.6248 9.95313 4.625 9.87451V3.87451C4.62492 3.81554 4.63842 3.75721 4.66504 3.70459C4.69175 3.65182 4.73058 3.6057 4.77832 3.5708C4.82683 3.53535 4.88397 3.51255 4.94336 3.50342C5.00263 3.49436 5.06331 3.49985 5.12012 3.51904ZM11.0547 3.48584C11.1134 3.49497 11.1697 3.5174 11.2178 3.55225C11.2689 3.58854 11.3094 3.63754 11.3369 3.69385C11.3644 3.75004 11.3777 3.81204 11.375 3.87451V9.87451C11.3752 9.95313 11.3504 10.0303 11.3047 10.0942C11.259 10.158 11.1945 10.2058 11.1201 10.231L8.87012 10.981C8.83116 10.9926 8.79067 10.9988 8.75 10.9995C8.6708 10.9983 8.59332 10.9745 8.52832 10.9292C8.48058 10.8943 8.44175 10.8482 8.41504 10.7954C8.38834 10.7426 8.37485 10.6837 8.375 10.6245V4.62451C8.37085 4.54301 8.39362 4.46254 8.43945 4.39502C8.4855 4.32731 8.55227 4.2756 8.62988 4.24951L10.8799 3.49951C10.9362 3.48096 10.9961 3.47679 11.0547 3.48584Z" fill="currentColor"/>
</svg>
