<svg width="32" height="32" viewBox="0 0 32 32" fill="none" xmlns="http://www.w3.org/2000/svg">
<path fill-rule="evenodd" clip-rule="evenodd" d="M21.5306 3.89799C23.3129 5.28539 24.5084 7.2921 24.88 9.51993C25.0769 10.6936 25.0386 11.8947 24.7674 13.0535C24.4962 14.2123 23.9974 15.3056 23.3 16.2699C21.8557 18.1605 21.0503 20.4614 21 22.8399V24.9999C21 26.326 20.4732 27.5978 19.5355 28.5355C18.5978 29.4731 17.3261 29.9999 16 29.9999C14.6739 29.9999 13.4021 29.4731 12.4645 28.5355C11.5268 27.5978 11 26.326 11 24.9999V22.8399C10.9681 20.4847 10.1792 18.2022 8.74999 16.3299C7.60945 14.7873 6.99585 12.9184 6.99999 10.9999C7.00022 8.74133 7.84954 6.56535 9.37941 4.90379C10.9093 3.24223 13.0079 2.21652 15.2588 2.03021C17.5097 1.84389 19.7484 2.51058 21.5306 3.89799ZM18.1213 27.1212C18.6839 26.5586 19 25.7956 19 24.9999V23.9999H13V24.9999C13 25.7956 13.3161 26.5586 13.8787 27.1212C14.4413 27.6839 15.2043 27.9999 16 27.9999C16.7956 27.9999 17.5587 27.6839 18.1213 27.1212ZM19.03 21.9999C19.2517 19.4946 20.1696 17.1011 21.68 15.0899C22.6927 13.6889 23.1511 11.9627 22.967 10.2439C22.7829 8.52501 21.9693 6.93507 20.6829 5.78028C19.3965 4.6255 17.7283 3.98756 15.9996 3.98934C14.2709 3.99112 12.604 4.6325 11.32 5.78993C10.5916 6.44872 10.0089 7.25252 9.60936 8.14973C9.20983 9.04695 9.00227 10.0178 8.99999 10.9999C8.99528 12.4935 9.4722 13.9488 10.36 15.1498C11.8665 17.137 12.7722 19.5141 12.97 21.9999H19.03ZM11.6173 11.9239C11.7386 11.9742 11.8687 12 12 12C12.1313 12 12.2614 11.9742 12.3827 11.9239C12.504 11.8737 12.6143 11.8 12.7072 11.7072C12.8 11.6143 12.8737 11.5041 12.9239 11.3827C12.9742 11.2614 13 11.1313 13 11C13.0009 10.2046 13.3172 9.44206 13.8796 8.87964C14.442 8.31722 15.2046 8.00087 16 8C16.2652 8 16.5196 7.89464 16.7071 7.70711C16.8946 7.51957 17 7.26522 17 7C17 6.73478 16.8946 6.48043 16.7071 6.29289C16.5196 6.10536 16.2652 6 16 6C14.6744 6.00156 13.4035 6.52884 12.4662 7.46619C11.5288 8.40353 11.0015 9.6744 11 11C11 11.1313 11.0258 11.2614 11.076 11.3827C11.1263 11.5041 11.1999 11.6143 11.2928 11.7072C11.3857 11.8 11.4959 11.8737 11.6173 11.9239Z" fill="black"/>
</svg>
