<svg width="18" height="18" viewBox="0 0 18 18" fill="none" xmlns="http://www.w3.org/2000/svg">
<path d="M7.94265 11.8721C7.84395 11.8727 7.7461 11.8538 7.65472 11.8164C7.56334 11.7791 7.48023 11.7241 7.41015 11.6546L6.87765 11.1221C6.45926 10.7042 6.12734 10.2079 5.90088 9.66159C5.67442 9.1153 5.55786 8.52973 5.55786 7.93836C5.55786 7.34699 5.67442 6.76142 5.90088 6.21513C6.12734 5.66884 6.45926 5.17254 6.87765 4.75461L10.0577 1.57461C10.4757 1.15652 10.9721 0.824864 11.5184 0.598592C12.0646 0.37232 12.6501 0.255859 13.2414 0.255859C13.8327 0.255859 14.4182 0.37232 14.9644 0.598592C15.5107 0.824864 16.0071 1.15652 16.4251 1.57461C16.8432 1.99271 17.1749 2.48906 17.4012 3.03533C17.6274 3.5816 17.7439 4.16708 17.7439 4.75836C17.7439 5.34964 17.6274 5.93513 17.4012 6.4814C17.1749 7.02766 16.8432 7.52402 16.4251 7.94211L15.3677 8.99961C15.2979 9.06991 15.215 9.1257 15.1236 9.16378C15.0322 9.20186 14.9342 9.22146 14.8352 9.22146C14.7361 9.22146 14.6381 9.20186 14.5467 9.16378C14.4553 9.1257 14.3724 9.06991 14.3027 8.99961C14.163 8.85909 14.0846 8.669 14.0846 8.47086C14.0846 8.27272 14.163 8.08263 14.3027 7.94211L15.3677 6.87711C15.9306 6.31419 16.2468 5.5507 16.2468 4.75461C16.2468 3.95852 15.9306 3.19503 15.3677 2.63211C14.8047 2.06919 14.0412 1.75294 13.2452 1.75294C12.4491 1.75294 11.6856 2.06919 11.1227 2.63211L7.94265 5.81961C7.38161 6.38201 7.06654 7.14397 7.06654 7.93836C7.06654 8.73275 7.38161 9.49471 7.94265 10.0571L8.46765 10.5896C8.57297 10.6941 8.64495 10.8274 8.67448 10.9728C8.70402 11.1181 8.6898 11.269 8.6336 11.4063C8.57741 11.5435 8.48177 11.6611 8.35878 11.744C8.23579 11.8269 8.09098 11.8715 7.94265 11.8721Z" fill="#374146"/>
<path d="M4.75508 17.7375C3.86564 17.7368 2.99638 17.4724 2.25708 16.9779C1.51779 16.4834 0.941624 15.7809 0.601355 14.9591C0.261087 14.1373 0.171979 13.2331 0.345285 12.3607C0.518592 11.4883 0.946539 10.6869 1.57508 10.0575L2.63258 9.00005C2.7023 8.92975 2.78525 8.87396 2.87664 8.83588C2.96804 8.7978 3.06607 8.7782 3.16508 8.7782C3.26409 8.7782 3.36212 8.7978 3.45351 8.83588C3.5449 8.87396 3.62786 8.92975 3.69758 9.00005C3.83727 9.14057 3.91567 9.33066 3.91567 9.5288C3.91567 9.72694 3.83727 9.91703 3.69758 10.0575L2.63258 11.1225C2.06966 11.6855 1.75341 12.449 1.75341 13.245C1.75341 13.6392 1.83105 14.0296 1.9819 14.3937C2.13275 14.7579 2.35385 15.0888 2.63258 15.3675C2.91131 15.6463 3.24221 15.8674 3.60639 16.0182C3.97057 16.1691 4.36089 16.2467 4.75508 16.2467C5.55117 16.2467 6.31466 15.9305 6.87758 15.3675L10.0576 12.18C10.6186 11.6176 10.9337 10.8557 10.9337 10.0613C10.9337 9.26691 10.6186 8.50495 10.0576 7.94255L9.53258 7.41005C9.46228 7.34033 9.40648 7.25737 9.36841 7.16598C9.33033 7.07459 9.31073 6.97656 9.31073 6.87755C9.31073 6.77854 9.33033 6.68051 9.36841 6.58911C9.40648 6.49772 9.46228 6.41477 9.53258 6.34505C9.6731 6.20536 9.86319 6.12695 10.0613 6.12695C10.2595 6.12695 10.4496 6.20536 10.5901 6.34505L11.1226 6.87755C11.541 7.29548 11.8729 7.79177 12.0993 8.33807C12.3258 8.88436 12.4424 9.46993 12.4424 10.0613C12.4424 10.6527 12.3258 11.2382 12.0993 11.7845C11.8729 12.3308 11.541 12.8271 11.1226 13.245L7.94258 16.425C7.5236 16.8426 7.02643 17.1734 6.47949 17.3986C5.93255 17.6238 5.34657 17.739 4.75508 17.7375Z" fill="#374146"/>
</svg>
