<svg width="18" height="18" viewBox="0 0 18 18" fill="none" xmlns="http://www.w3.org/2000/svg">
<path d="M5.4 13.5H2.7C1.17 13.5 0 12.33 0 10.8V8.10002C0 6.57002 1.17 5.40002 2.7 5.40002H9C10.53 5.40002 11.7 6.57002 11.7 8.10002V10.8H9.9V8.10002C9.9 7.56002 9.54 7.20002 9 7.20002H2.7C2.16 7.20002 1.8 7.56002 1.8 8.10002V10.8C1.8 11.34 2.16 11.7 2.7 11.7H5.4V13.5Z" fill="#374146"/>
<path d="M15.3 13.5H9.00005C7.47005 13.5 6.30005 12.33 6.30005 10.8V8.10002H8.10005V10.8C8.10005 11.34 8.46005 11.7 9.00005 11.7H15.3C15.84 11.7 16.2 11.34 16.2 10.8V8.10002C16.2 7.56002 15.84 7.20002 15.3 7.20002H12.6V5.40002H15.3C16.83 5.40002 18 6.57002 18 8.10002V10.8C18 12.33 16.83 13.5 15.3 13.5Z" fill="#374146"/>
</svg>
