<svg width="14" height="14" viewBox="0 0 14 14" fill="none" xmlns="http://www.w3.org/2000/svg">
<path d="M13.071 12.945C12.9298 13.119 12.7514 13.2592 12.5489 13.3552C12.3465 13.4513 12.125 13.5007 11.901 13.5H2.10096C1.87686 13.5007 1.65545 13.4513 1.45298 13.3552C1.25051 13.2592 1.07213 13.119 0.930956 12.945C0.793248 12.7787 0.694403 12.5838 0.641636 12.3745C0.588869 12.1651 0.583512 11.9466 0.625956 11.735C0.849142 10.6081 1.36697 9.56058 2.1267 8.69897C2.88643 7.83735 3.86093 7.19247 4.95096 6.82998C4.35126 6.39661 3.90433 5.78435 3.67434 5.08111C3.44435 4.37787 3.44314 3.61983 3.67088 2.91586C3.89862 2.21189 4.34359 1.5982 4.9419 1.16292C5.54021 0.72764 6.26106 0.493164 7.00096 0.493164C7.74085 0.493164 8.46171 0.72764 9.06001 1.16292C9.65832 1.5982 10.1033 2.21189 10.331 2.91586C10.5588 3.61983 10.5576 4.37787 10.3276 5.08111C10.0976 5.78435 9.65065 6.39661 9.05096 6.82998C10.141 7.19247 11.1155 7.83735 11.8752 8.69897C12.6349 9.56058 13.1528 10.6081 13.376 11.735C13.4184 11.9466 13.413 12.1651 13.3603 12.3745C13.3075 12.5838 13.2087 12.7787 13.071 12.945Z" fill="#C9D2D2"/>
</svg>
