<svg width="20" height="21" viewBox="0 0 20 21" fill="none" xmlns="http://www.w3.org/2000/svg">
<path d="M15.625 13.625C15.625 13.7908 15.5592 13.9497 15.4419 14.0669C15.3247 14.1842 15.1658 14.25 15 14.25H8.75C8.58424 14.25 8.42527 14.1842 8.30806 14.0669C8.19085 13.9497 8.125 13.7908 8.125 13.625C8.125 13.4592 8.19085 13.3003 8.30806 13.1831C8.42527 13.0658 8.58424 13 8.75 13H15C15.1658 13 15.3247 13.0658 15.4419 13.1831C15.5592 13.3003 15.625 13.4592 15.625 13.625Z" fill="#374146"/>
<path d="M18.5687 8.18125L17.5 7.11875V4.25C17.5 4.08424 17.4342 3.92527 17.3169 3.80806C17.1997 3.69085 17.0408 3.625 16.875 3.625H3.75C3.58424 3.625 3.42527 3.69085 3.30806 3.80806C3.19085 3.92527 3.125 4.08424 3.125 4.25V6.125H1.875C1.70924 6.125 1.55027 6.19085 1.43306 6.30806C1.31585 6.42527 1.25 6.58424 1.25 6.75V9.875C1.25 10.0408 1.31585 10.1997 1.43306 10.3169C1.55027 10.4342 1.70924 10.5 1.875 10.5H3.125V16.75C3.125 16.9158 3.19085 17.0747 3.30806 17.1919C3.42527 17.3092 3.58424 17.375 3.75 17.375H16.875C16.9573 17.3755 17.0388 17.3597 17.1149 17.3286C17.1911 17.2975 17.2603 17.2517 17.3187 17.1938L18.5687 15.9438C18.6267 15.8854 18.6725 15.8161 18.7036 15.7399C18.7347 15.6638 18.7505 15.5823 18.75 15.5V8.625C18.7505 8.54275 18.7347 8.46121 18.7036 8.38506C18.6725 8.30891 18.6267 8.23965 18.5687 8.18125ZM2.5 9.25V7.375H5.625V9.25H2.5ZM17.5 15.2438L16.6188 16.125H4.375V10.5H6.25C6.41576 10.5 6.57473 10.4342 6.69194 10.3169C6.80915 10.1997 6.875 10.0408 6.875 9.875V6.75C6.875 6.58424 6.80915 6.42527 6.69194 6.30806C6.57473 6.19085 6.41576 6.125 6.25 6.125H4.375V4.875H16.25V7.375C16.2495 7.45725 16.2653 7.53879 16.2964 7.61494C16.3275 7.69109 16.3733 7.76035 16.4313 7.81875L17.5 8.88125V15.2438Z" fill="#374146"/>
</svg>
