<svg width="28" height="28" viewBox="0 0 28 28" fill="none" xmlns="http://www.w3.org/2000/svg">
<title id="LibrariesTitle">Libraries</title>
<path d="M25.5938 23.135L21.7438 8.47C21.6786 8.25115 21.5305 8.06642 21.3311 7.95525C21.1316 7.84408 20.8966 7.81528 20.6762 7.875L17.5 8.67125V3.5C17.5 3.26794 17.4078 3.04538 17.2437 2.88128C17.0796 2.71719 16.8571 2.625 16.625 2.625H13.125C12.8929 2.625 12.6704 2.71719 12.5063 2.88128C12.3422 3.04538 12.25 3.26794 12.25 3.5V6.125H8.75V4.375C8.75 4.14294 8.65781 3.92038 8.49372 3.75628C8.32962 3.59219 8.10706 3.5 7.875 3.5H3.5C3.26794 3.5 3.04538 3.59219 2.88128 3.75628C2.71719 3.92038 2.625 4.14294 2.625 4.375V24.5C2.625 24.7321 2.71719 24.9546 2.88128 25.1187C3.04538 25.2828 3.26794 25.375 3.5 25.375H16.625C16.8571 25.375 17.0796 25.2828 17.2437 25.1187C17.4078 24.9546 17.5 24.7321 17.5 24.5V14.2887L20.195 24.5525C20.2446 24.745 20.3583 24.9149 20.5173 25.0342C20.6764 25.1535 20.8713 25.215 21.07 25.2087C21.1456 25.2172 21.2219 25.2172 21.2975 25.2087L24.9987 24.2375C25.2229 24.1793 25.4149 24.0345 25.5325 23.835C25.5905 23.7289 25.6259 23.6119 25.6365 23.4914C25.647 23.3709 25.6325 23.2496 25.5938 23.135V23.135ZM7 23.625H4.375V5.25H7V23.625ZM12.25 23.625H8.75V7.875H12.25V23.625ZM15.75 23.625H14V4.375H15.75V23.625ZM21.665 23.2575L18.2613 10.29L20.2738 9.75625L23.6775 22.75L21.665 23.2575Z" fill="currentColor"/>
</svg>
