<svg width="32" height="32" viewBox="0 0 32 32" fill="none" xmlns="http://www.w3.org/2000/svg">
<path fill-rule="evenodd" clip-rule="evenodd" d="M3 3H29C29.5501 3 30 3.44995 30 4V22C30 22.5501 29.5501 23 29 23H21V27H22C22.5501 27 23 27.4499 23 28C23 28.5501 22.5501 29 22 29H10C9.44995 29 9 28.5501 9 28C9 27.4499 9.44995 27 10 27H11V23H3C2.44995 23 2 22.5501 2 22V4C2 3.44995 2.44995 3 3 3ZM19 27V23H13V27H19ZM4 5V21H28V5H4ZM12 13C12 14.1046 11.1046 15 10 15C8.89543 15 8 14.1046 8 13C8 11.8954 8.89543 11 10 11C11.1046 11 12 11.8954 12 13ZM16 15C17.1046 15 18 14.1046 18 13C18 11.8954 17.1046 11 16 11C14.8954 11 14 11.8954 14 13C14 14.1046 14.8954 15 16 15ZM24 13C24 14.1046 23.1046 15 22 15C20.8954 15 20 14.1046 20 13C20 11.8954 20.8954 11 22 11C23.1046 11 24 11.8954 24 13Z" fill="black"/>
</svg>
