<svg width="21" height="21" viewBox="0 0 21 21" fill="none" xmlns="http://www.w3.org/2000/svg">
<path fill-rule="evenodd" clip-rule="evenodd" d="M14.793 10.207C14.9883 10.4023 15.2441 10.5 15.5 10.5C15.7559 10.5 16.0117 10.4023 16.207 10.207L20.207 6.20703C20.5976 5.8164 20.5976 5.18358 20.207 4.79296L16.207 0.792965C15.8164 0.402345 15.1836 0.402345 14.793 0.792965L10.793 4.79296C10.4023 5.18358 10.4023 5.8164 10.793 6.20703L14.793 10.207ZM15.5 8.08594L12.9141 5.49999L15.5 2.91405L18.0859 5.49999L15.5 8.08594ZM1 10H8C8.55273 10 9 9.55225 9 9V2C9 1.44775 8.55273 1 8 1H1C0.44727 1 0 1.44775 0 2V9C0 9.55225 0.44727 10 1 10ZM7 8H2V3H7V8ZM1 21H8C8.55273 21 9 20.5522 9 20V13C9 12.4478 8.55273 12 8 12H1C0.44727 12 0 12.4478 0 13V20C0 20.5522 0.44727 21 1 21ZM7 19H2V14H7V19ZM19 21H12C11.4473 21 11 20.5522 11 20V13C11 12.4478 11.4473 12 12 12H19C19.5527 12 20 12.4478 20 13V20C20 20.5522 19.5527 21 19 21ZM13 19H18V14H13V19Z" fill="white"/>
</svg>
