<svg width="20" height="20" viewBox="0 0 32 32" fill="none" xmlns="http://www.w3.org/2000/svg">
<path fill-rule="evenodd" clip-rule="evenodd" d="M22.207 5.79296L26.207 9.79296C26.5976 10.1836 26.5976 10.8164 26.207 11.207L22.207 15.207C22.0117 15.4023 21.7559 15.5 21.5 15.5C21.2441 15.5 20.9883 15.4023 20.793 15.207L16.793 11.207C16.4023 10.8164 16.4023 10.1836 16.793 9.79296L20.793 5.79296C21.1836 5.40235 21.8164 5.40235 22.207 5.79296ZM7 6H14C14.5523 6 15 6.44772 15 7V14C15 14.5523 14.5523 15 14 15H7C6.44772 15 6 14.5523 6 14V7C6 6.44772 6.44772 6 7 6ZM7 17H14C14.5523 17 15 17.4477 15 18V25C15 25.5523 14.5523 26 14 26H7C6.44772 26 6 25.5523 6 25V18C6 17.4477 6.44772 17 7 17ZM25 17H18C17.4477 17 17 17.4477 17 18V25C17 25.5523 17.4477 26 18 26H25C25.5523 26 26 25.5523 26 25V18C26 17.4477 25.5523 17 25 17Z" fill="white"/>
</svg>
