<svg width="48" height="20" viewBox="0 0 48 20" fill="none" xmlns="http://www.w3.org/2000/svg">
<path d="M46.4036 0.165039H3.42612C2.54937 0.165039 1.82977 0.876393 1.82977 1.76146V18.2386C1.82977 19.1237 2.54937 19.835 3.42612 19.835H46.4036C47.2804 19.835 48 19.1237 48 18.2386V1.76146C48 0.876393 47.2804 0.165039 46.4036 0.165039ZM3.61634 19.0079C3.08702 19.0079 2.6569 18.5778 2.6569 18.0484C2.6569 17.519 3.08702 17.0888 3.61634 17.0888C4.14571 17.0888 4.57583 17.519 4.57583 18.0484C4.57583 18.5778 4.14571 19.0079 3.61634 19.0079ZM3.61634 2.90296C3.08702 2.90296 2.6569 2.47282 2.6569 1.95169C2.6569 1.42235 3.08702 0.992204 3.61634 0.992204C4.14571 0.992204 4.57583 1.42235 4.57583 1.95169C4.57583 2.47281 4.14571 2.90296 3.61634 2.90296ZM46.2134 19.0079C45.684 19.0079 45.2539 18.5778 45.2539 18.0484C45.2539 17.519 45.684 17.0888 46.2134 17.0888C46.7427 17.0888 47.1729 17.519 47.1729 18.0484C47.1729 18.5778 46.7427 19.0079 46.2134 19.0079ZM46.2134 2.90296C45.684 2.90296 45.2539 2.47282 45.2539 1.95169C45.2539 1.42235 45.684 0.992204 46.2134 0.992204C46.7427 0.992204 47.1729 1.42235 47.1729 1.95169C47.1729 2.47281 46.7427 2.90296 46.2134 2.90296Z" fill="#7F8C8D"/>
<path d="M5.38092 6.99707H0V13.0039H5.38092V6.99707Z" fill="#BDC7C7"/>
<path d="M44.5709 0.992188H18.0868V2.90739H44.5709V0.992188Z" fill="#BDC7C7"/>
<path d="M44.5709 17.0938H18.0868V19.009H44.5709V17.0938Z" fill="#BDC7C7"/>
<path d="M43.2701 13.9023H46.5317V6.096H43.2701V13.9023Z" fill="#7F8C8D"/>
</svg>
