<svg width="14" height="14" viewBox="0 0 14 14" fill="none" xmlns="http://www.w3.org/2000/svg">
<path d="M6.50006 5.49805C6.63316 5.49806 6.76042 5.55141 6.85455 5.64551C6.94866 5.73962 7.00197 5.86692 7.00201 6C7.00201 6.13315 6.94871 6.26132 6.85455 6.35547L5.46002 7.75L6.25006 8.54004L7.64459 7.14551C7.69103 7.09869 7.74682 7.06152 7.80768 7.03613C7.86861 7.01075 7.93406 6.99707 8.00006 6.99707C8.06605 6.99708 8.13153 7.01076 8.19244 7.03613C8.25324 7.0615 8.30815 7.09874 8.35455 7.14551C8.4014 7.19197 8.43952 7.24672 8.4649 7.30762C8.49026 7.36849 8.50297 7.43406 8.50299 7.5C8.50299 7.56592 8.49022 7.63152 8.4649 7.69238C8.43952 7.75331 8.40142 7.80899 8.35455 7.85547L6.96002 9.25L7.35455 9.64551L7.85455 10.1455C7.9014 10.192 7.93952 10.2467 7.9649 10.3076C7.99027 10.3685 8.00297 10.4341 8.00299 10.5C8.00299 10.5659 7.99022 10.6315 7.9649 10.6924C7.93952 10.7533 7.90142 10.809 7.85455 10.8555C7.80816 10.9021 7.75319 10.9395 7.69244 10.9648C7.63153 10.9902 7.56605 11.0029 7.50006 11.0029C7.43407 11.0029 7.36859 10.9902 7.30768 10.9648C7.24675 10.9395 7.19107 10.9023 7.14459 10.8555L7.00006 10.71L5.85455 11.8555C5.42304 12.2834 4.85691 12.5491 4.25201 12.6074C3.64697 12.6657 3.04058 12.5126 2.53522 12.1748L0.854553 13.8555C0.808162 13.9021 0.753192 13.9395 0.692444 13.9648C0.631533 13.9902 0.566046 14.0029 0.500061 14.0029C0.434072 14.0029 0.368595 13.9902 0.307678 13.9648C0.246749 13.9395 0.191074 13.9023 0.144592 13.8555C0.097758 13.809 0.0605901 13.7533 0.0352173 13.6924C0.00988686 13.6315 -0.00286865 13.5659 -0.00286865 13.5C-0.00284419 13.4341 0.00985673 13.3685 0.0352173 13.3076C0.0605343 13.2469 0.0979309 13.1919 0.144592 13.1455L1.82526 11.4648C1.4866 10.9598 1.33334 10.3533 1.39166 9.74805C1.44999 9.1429 1.71585 8.57653 2.14459 8.14551L3.2901 7L3.14459 6.85547C3.05048 6.76132 2.99811 6.63312 2.99811 6.5C2.99816 6.36709 3.05071 6.23958 3.14459 6.14551C3.23874 6.05136 3.36691 5.99805 3.50006 5.99805C3.63316 5.99806 3.76042 6.05141 3.85455 6.14551L4.75006 7.04004L6.14459 5.64551C6.23874 5.55136 6.36691 5.49805 6.50006 5.49805ZM13.5001 -0.00195312C13.6332 -0.00193722 13.7604 0.0514092 13.8546 0.145508C13.9487 0.239616 14.002 0.366916 14.002 0.5C14.002 0.633151 13.9487 0.761317 13.8546 0.855469L12.1749 2.53516C12.5135 3.0401 12.6667 3.64677 12.6085 4.25195C12.5501 4.85727 12.2835 5.4244 11.8546 5.85547L11.21 6.5L11.3546 6.64551C11.4014 6.69197 11.4395 6.74672 11.4649 6.80762C11.4903 6.86849 11.503 6.93406 11.503 7C11.503 7.06592 11.4902 7.13152 11.4649 7.19238C11.4395 7.25331 11.4014 7.30899 11.3546 7.35547C11.3082 7.40215 11.2532 7.43953 11.1924 7.46484C11.1315 7.49022 11.066 7.50292 11.0001 7.50293C10.9341 7.50293 10.8686 7.49022 10.8077 7.46484C10.7467 7.43946 10.6911 7.40233 10.6446 7.35547L6.64459 3.35547C6.55048 3.26132 6.49811 3.13312 6.49811 3C6.49813 2.93413 6.51099 2.86847 6.53619 2.80762C6.56135 2.74702 6.59824 2.69195 6.64459 2.64551C6.69119 2.59891 6.7468 2.56136 6.80768 2.53613C6.86859 2.5109 6.93413 2.49805 7.00006 2.49805C7.13316 2.49806 7.26042 2.55141 7.35455 2.64551L7.50006 2.79004L8.14459 2.14551C8.57566 1.71656 9.14279 1.44995 9.74811 1.3916C10.3533 1.33334 10.9599 1.48656 11.4649 1.8252L13.1446 0.145508C13.2387 0.051356 13.3669 -0.00195312 13.5001 -0.00195312Z" fill="white"/>
</svg>
