<svg width="273" height="280" viewBox="0 0 273 280" fill="none" xmlns="http://www.w3.org/2000/svg">
<path d="M20.9681 247.001C19.2366 247.001 17.5569 246.461 16.1341 245.429L8.85772 240.154C5.16045 237.475 4.33282 232.285 7.01251 228.588L9.49054 225.169C12.1722 221.47 17.3612 220.644 21.0584 223.324L28.3348 228.599C32.0325 231.279 32.8597 236.469 30.1795 240.166L27.7015 243.585C26.4071 245.37 24.4881 246.546 22.2987 246.895C21.8543 246.966 21.4095 247.001 20.9681 247.001ZM16.2025 225.773C14.8831 225.773 13.5814 226.383 12.7493 227.531L10.2713 230.949C8.89337 232.851 9.31915 235.518 11.22 236.896L18.4964 242.171C19.4114 242.834 20.5374 243.098 21.6649 242.921C22.7928 242.74 23.7791 242.138 24.4427 241.223L26.9207 237.804C28.2991 235.903 27.8734 233.235 25.9725 231.856L18.6961 226.582C17.9427 226.036 17.0692 225.773 16.2025 225.773Z" fill="#808C8D"/>
<path d="M164.72 248.769C142.089 225.012 146.262 183.331 165.08 170.024C172.932 164.472 186.323 161.747 195.517 166.981C204.931 172.34 201.889 181.458 211.75 188.287C223.036 196.102 232.119 187.686 245.23 195.388C252.828 199.852 259.153 208.186 260.642 217.216C264.194 238.751 238.819 255.586 237.734 256.285C217.259 269.477 184.29 269.314 164.72 248.769Z" fill="#F4F4F4"/>
<path d="M53.0904 136.101C42.0342 136.102 31.5113 132.83 22.7461 126.556C10.8209 118.019 3.19146 104.795 1.26422 89.3196C-0.556091 74.7033 3.01568 59.6399 11.0635 47.9934C20.4986 34.3391 36.5235 25.0149 53.9307 23.051C69.9776 21.2346 85.4503 25.9358 96.3712 35.9338C106.971 45.6379 112.875 59.5725 112.997 75.1701C113.113 90.1623 107.677 104.984 98.0821 115.835C89.1807 125.904 76.2935 132.992 62.7257 135.284C59.4898 135.831 56.2676 136.101 53.0904 136.101ZM60.6778 26.6936C58.5972 26.6936 56.4966 26.8117 54.3819 27.05C38.1138 28.886 23.1578 37.5705 14.375 50.2805C6.88091 61.1252 3.55816 75.1731 5.25786 88.8225C7.04497 103.169 14.0874 115.407 25.0889 123.282C35.4952 130.733 48.6221 133.587 62.0552 131.316C74.732 129.174 86.7642 122.56 95.0669 113.169C114.063 91.6867 113.401 56.9826 93.6534 38.9026C85.0191 30.9973 73.253 26.6936 60.6778 26.6936Z" fill="#F4F4F4"/>
<path d="M47.8373 115.169C52.3621 115.169 56.0301 111.501 56.0301 106.976C56.0301 102.451 52.3621 98.7832 47.8373 98.7832C43.3126 98.7832 39.6445 102.451 39.6445 106.976C39.6445 111.501 43.3126 115.169 47.8373 115.169Z" fill="white"/>
<path d="M47.8379 117.181C42.2109 117.181 37.6328 112.603 37.6328 106.976C37.6328 101.348 42.2109 96.7695 47.8379 96.7695C53.4649 96.7695 58.043 101.348 58.043 106.976C58.043 112.603 53.4649 117.181 47.8379 117.181ZM47.8379 100.795C44.4297 100.795 41.6572 103.567 41.6572 106.976C41.6572 110.383 44.4297 113.155 47.8379 113.155C51.2461 113.155 54.0186 110.383 54.0186 106.976C54.0186 103.567 51.2461 100.795 47.8379 100.795Z" fill="#00979D"/>
<path d="M208.68 206.25L208.165 205.952C204.298 203.72 199.354 205.044 197.122 208.911L185.83 228.469C183.598 232.335 184.923 237.279 188.789 239.512L189.305 239.809C193.171 242.042 198.115 240.717 200.348 236.85L211.639 217.292C213.872 213.426 212.547 208.482 208.68 206.25Z" fill="white"/>
<path d="M193.33 242.902C191.618 242.902 189.885 242.468 188.299 241.553C188.299 241.553 188.299 241.552 188.299 241.552L187.783 241.254C185.456 239.911 183.788 237.732 183.089 235.121C182.389 232.511 182.744 229.79 184.088 227.463L195.38 207.905C198.162 203.084 204.349 201.428 209.171 204.209L209.687 204.508C214.508 207.29 216.166 213.477 213.382 218.299L202.09 237.856C200.223 241.092 196.822 242.902 193.33 242.902ZM190.312 238.066C193.213 239.743 196.932 238.744 198.605 235.845L209.897 216.287C210.703 214.889 210.915 213.255 210.494 211.681C210.072 210.109 209.071 208.799 207.675 207.993L207.159 207.694C204.26 206.024 200.539 207.018 198.865 209.917L187.573 229.474C186.767 230.872 186.555 232.507 186.976 234.08C187.398 235.652 188.399 236.963 189.796 237.768L190.312 238.066Z" fill="#7FCBCD"/>
<path d="M56.8996 160.171L46.0432 164.997C44.6618 161.889 41.0383 160.495 37.9305 161.877C34.8225 163.258 33.4291 166.882 34.8105 169.99L23.954 174.815C19.9089 165.715 24.0043 155.065 33.1048 151.02C42.2052 146.975 52.8544 151.071 56.8996 160.171Z" fill="white"/>
<path d="M23.954 176.828C23.183 176.828 22.4477 176.382 22.1142 175.632C19.9394 170.74 19.7997 165.294 21.7206 160.299C23.6415 155.304 27.394 151.356 32.2865 149.181C42.3832 144.695 54.2494 149.257 58.7377 159.354C58.9545 159.841 58.9687 160.396 58.7773 160.894C58.5854 161.392 58.204 161.793 57.7162 162.01L46.8598 166.835C45.8451 167.288 44.6552 166.83 44.2035 165.814C43.2777 163.732 40.8315 162.79 38.7465 163.715C36.6645 164.641 35.7226 167.089 36.6484 169.172C37.0995 170.188 36.6425 171.377 35.6269 171.829L24.7704 176.654C24.5048 176.772 24.2274 176.828 23.954 176.828ZM40.4022 151.479C38.2323 151.479 36.0287 151.922 33.9213 152.859C30.0111 154.597 27.0121 157.752 25.4769 161.744C24.1854 165.103 24.06 168.717 25.0883 172.108L32.3827 168.866C31.7709 165.277 33.6356 161.583 37.1122 160.038C40.5893 158.496 44.5805 159.583 46.8344 162.443L54.1273 159.201C51.181 154.325 45.8998 151.479 40.4022 151.479Z" fill="#A5F2EE"/>
<path d="M117.196 227.045C117.079 227.045 116.961 227.034 116.844 227.014C115.676 226.806 109.8 225.572 108.824 221.669C107.848 217.766 112.452 213.912 113.385 213.18C113.835 212.824 114.416 212.682 114.98 212.78C116.148 212.989 122.024 214.221 123 218.125C123.976 222.029 119.372 225.882 118.439 226.614C118.082 226.896 117.643 227.045 117.196 227.045ZM115.174 216.945C113.786 218.231 112.541 219.942 112.729 220.693C112.917 221.444 114.82 222.367 116.651 222.85C118.038 221.564 119.283 219.853 119.095 219.102C118.907 218.35 117.005 217.426 115.174 216.945Z" fill="#808C8D"/>
<path d="M150.16 254.942L132.52 258.107L135.685 275.748L153.325 272.582L150.16 254.942Z" fill="white"/>
<path d="M135.683 277.76C134.728 277.76 133.88 277.077 133.705 276.103L130.54 258.464C130.343 257.37 131.071 256.324 132.165 256.128L149.805 252.962C150.331 252.867 150.871 252.985 151.309 253.29C151.747 253.595 152.046 254.061 152.141 254.587L155.307 272.227C155.401 272.753 155.283 273.294 154.978 273.732C154.673 274.17 154.207 274.469 153.682 274.563L136.041 277.728C135.921 277.75 135.802 277.76 135.683 277.76ZM134.856 259.733L137.311 273.412L150.99 270.958L148.535 257.278L134.856 259.733Z" fill="#A5F2EE"/>
<path d="M268.223 183.43H262.223C261.112 183.43 260.211 182.528 260.211 181.417C260.211 180.306 261.112 179.404 262.223 179.404H266.211V175.417C266.211 174.306 267.112 173.404 268.223 173.404C269.334 173.404 270.235 174.306 270.235 175.417V181.417C270.235 182.528 269.334 183.43 268.223 183.43Z" fill="#808C8D"/>
<path d="M250.02 183.43H237.816C236.705 183.43 235.804 182.528 235.804 181.417C235.804 180.306 236.705 179.404 237.816 179.404H250.02C251.131 179.404 252.032 180.306 252.032 181.417C252.032 182.528 251.131 183.43 250.02 183.43ZM225.614 183.43H213.411C212.299 183.43 211.398 182.528 211.398 181.417C211.398 180.306 212.299 179.404 213.411 179.404H225.614C226.725 179.404 227.626 180.306 227.626 181.417C227.626 182.528 226.725 183.43 225.614 183.43ZM201.208 183.43H189.005C187.894 183.43 186.993 182.528 186.993 181.417C186.993 180.306 187.894 179.404 189.005 179.404H201.208C202.319 179.404 203.22 180.306 203.22 181.417C203.22 182.528 202.319 183.43 201.208 183.43ZM176.802 183.43H164.599C163.488 183.43 162.587 182.528 162.587 181.417C162.587 180.306 163.488 179.404 164.599 179.404H176.802C177.913 179.404 178.814 180.306 178.814 181.417C178.814 182.528 177.913 183.43 176.802 183.43ZM152.396 183.43H140.193C139.082 183.43 138.181 182.528 138.181 181.417C138.181 180.306 139.082 179.404 140.193 179.404H152.396C153.507 179.404 154.408 180.306 154.408 181.417C154.408 182.528 153.507 183.43 152.396 183.43ZM127.99 183.43H115.788C114.676 183.43 113.775 182.528 113.775 181.417C113.775 180.306 114.676 179.404 115.788 179.404H127.99C129.102 179.404 130.002 180.306 130.002 181.417C130.002 182.528 129.102 183.43 127.99 183.43Z" fill="#808C8D"/>
<path d="M103.584 183.43H97.5845C96.4731 183.43 95.5723 182.528 95.5723 181.417V175.417C95.5723 174.306 96.4731 173.404 97.5845 173.404C98.6958 173.404 99.5967 174.306 99.5967 175.417V179.404H103.584C104.696 179.404 105.597 180.306 105.597 181.417C105.597 182.528 104.696 183.43 103.584 183.43Z" fill="#808C8D"/>
<path d="M97.5845 165.227C96.4731 165.227 95.5723 164.325 95.5723 163.214V151.011C95.5723 149.899 96.4731 148.998 97.5845 148.998C98.6958 148.998 99.5967 149.899 99.5967 151.011V163.214C99.5967 164.325 98.6958 165.227 97.5845 165.227ZM97.5845 140.82C96.4731 140.82 95.5723 139.919 95.5723 138.808V126.605C95.5723 125.494 96.4731 124.593 97.5845 124.593C98.6958 124.593 99.5967 125.494 99.5967 126.605V138.808C99.5967 139.919 98.6958 140.82 97.5845 140.82ZM97.5845 116.415C96.4731 116.415 95.5723 115.514 95.5723 114.402V102.199C95.5723 101.088 96.4731 100.187 97.5845 100.187C98.6958 100.187 99.5967 101.088 99.5967 102.199V114.402C99.5967 115.514 98.6958 116.415 97.5845 116.415ZM97.5845 92.0088C96.4731 92.0088 95.5723 91.1074 95.5723 89.9961V77.793C95.5723 76.6816 96.4731 75.7803 97.5845 75.7803C98.6958 75.7803 99.5967 76.6816 99.5967 77.793V89.9961C99.5967 91.1074 98.6958 92.0088 97.5845 92.0088ZM97.5845 67.6035C96.4731 67.6035 95.5723 66.7021 95.5723 65.5908V53.3877C95.5723 52.2764 96.4731 51.375 97.5845 51.375C98.6958 51.375 99.5967 52.2764 99.5967 53.3877V65.5908C99.5967 66.7021 98.6958 67.6035 97.5845 67.6035ZM97.5845 43.1973C96.4731 43.1973 95.5723 42.2959 95.5723 41.1846V28.9814C95.5723 27.8701 96.4731 26.9688 97.5845 26.9688C98.6958 26.9688 99.5967 27.8701 99.5967 28.9814V41.1846C99.5967 42.2959 98.6958 43.1973 97.5845 43.1973Z" fill="#808C8D"/>
<path d="M97.5845 18.791C96.4731 18.791 95.5723 17.8897 95.5723 16.7783V10.7783C95.5723 9.66699 96.4731 8.76562 97.5845 8.76562H103.584C104.696 8.76562 105.597 9.66699 105.597 10.7783C105.597 11.8897 104.696 12.791 103.584 12.791H99.5967V16.7783C99.5967 17.8897 98.6958 18.791 97.5845 18.791Z" fill="#808C8D"/>
<path d="M250.02 12.791H237.817C236.706 12.791 235.805 11.8897 235.805 10.7783C235.805 9.66699 236.706 8.76562 237.817 8.76562H250.02C251.131 8.76562 252.032 9.66699 252.032 10.7783C252.032 11.8897 251.131 12.791 250.02 12.791ZM225.614 12.791H213.411C212.3 12.791 211.399 11.8897 211.399 10.7783C211.399 9.66699 212.3 8.76562 213.411 8.76562H225.614C226.725 8.76562 227.626 9.66699 227.626 10.7783C227.626 11.8897 226.725 12.791 225.614 12.791ZM201.208 12.791H189.005C187.894 12.791 186.993 11.8897 186.993 10.7783C186.993 9.66699 187.894 8.76562 189.005 8.76562H201.208C202.319 8.76562 203.22 9.66699 203.22 10.7783C203.22 11.8897 202.319 12.791 201.208 12.791ZM176.802 12.791H164.599C163.488 12.791 162.587 11.8897 162.587 10.7783C162.587 9.66699 163.488 8.76562 164.599 8.76562H176.802C177.914 8.76562 178.814 9.66699 178.814 10.7783C178.814 11.8897 177.914 12.791 176.802 12.791ZM152.396 12.791H140.193C139.082 12.791 138.181 11.8897 138.181 10.7783C138.181 9.66699 139.082 8.76562 140.193 8.76562H152.396C153.508 8.76562 154.409 9.66699 154.409 10.7783C154.409 11.8897 153.508 12.791 152.396 12.791ZM127.991 12.791H115.788C114.676 12.791 113.775 11.8897 113.775 10.7783C113.775 9.66699 114.676 8.76562 115.788 8.76562H127.991C129.102 8.76562 130.003 9.66699 130.003 10.7783C130.003 11.8897 129.102 12.791 127.991 12.791Z" fill="#808C8D"/>
<path d="M268.223 18.791C267.112 18.791 266.211 17.8897 266.211 16.7783V12.791H262.223C261.112 12.791 260.211 11.8897 260.211 10.7783C260.211 9.66699 261.112 8.76562 262.223 8.76562H268.223C269.334 8.76562 270.235 9.66699 270.235 10.7783V16.7783C270.235 17.8897 269.334 18.791 268.223 18.791Z" fill="#808C8D"/>
<path d="M268.223 165.227C267.112 165.227 266.211 164.325 266.211 163.214V151.011C266.211 149.899 267.112 148.998 268.223 148.998C269.334 148.998 270.235 149.899 270.235 151.011V163.214C270.235 164.325 269.334 165.227 268.223 165.227ZM268.223 140.82C267.112 140.82 266.211 139.919 266.211 138.808V126.604C266.211 125.493 267.112 124.592 268.223 124.592C269.334 124.592 270.235 125.493 270.235 126.604V138.808C270.235 139.919 269.334 140.82 268.223 140.82ZM268.223 116.415C267.112 116.415 266.211 115.514 266.211 114.402V102.199C266.211 101.088 267.112 100.187 268.223 100.187C269.334 100.187 270.235 101.088 270.235 102.199V114.402C270.235 115.514 269.334 116.415 268.223 116.415ZM268.223 92.0088C267.112 92.0088 266.211 91.1074 266.211 89.9961V77.793C266.211 76.6816 267.112 75.7803 268.223 75.7803C269.334 75.7803 270.235 76.6816 270.235 77.793V89.9961C270.235 91.1074 269.334 92.0088 268.223 92.0088ZM268.223 67.6025C267.112 67.6025 266.211 66.7012 266.211 65.5898V53.3877C266.211 52.2764 267.112 51.375 268.223 51.375C269.334 51.375 270.235 52.2764 270.235 53.3877V65.5898C270.235 66.7012 269.334 67.6025 268.223 67.6025ZM268.223 43.1973C267.112 43.1973 266.211 42.2959 266.211 41.1846V28.9814C266.211 27.8701 267.112 26.9688 268.223 26.9688C269.334 26.9688 270.235 27.8701 270.235 28.9814V41.1846C270.235 42.2959 269.334 43.1973 268.223 43.1973Z" fill="#808C8D"/>
<path d="M139.866 128.098L65.0366 202.927C62.3289 205.635 62.3289 210.025 65.0366 212.733C67.7442 215.44 72.1342 215.44 74.8419 212.733L140.892 146.683C143.701 143.874 143.58 139.284 140.627 136.627L135.738 132.226" fill="#F4F4F4"/>
<path d="M69.9395 216.775C67.5503 216.775 65.3037 215.845 63.6143 214.155C61.9248 212.466 60.9941 210.22 60.9941 207.83C60.9941 205.44 61.9248 203.194 63.6143 201.505L134.306 130.813L134.327 130.792L138.444 126.675C139.23 125.89 140.504 125.89 141.29 126.675C142.076 127.461 142.076 128.734 141.29 129.521L138.661 132.149L141.974 135.131C143.816 136.789 144.867 139.067 144.932 141.545C144.998 144.023 144.068 146.353 142.315 148.105L76.2651 214.155C74.5757 215.845 72.3291 216.775 69.9395 216.775ZM135.811 134.999L66.46 204.351C65.5308 205.28 65.0191 206.516 65.0191 207.83C65.0191 209.145 65.5308 210.38 66.46 211.31C67.3897 212.239 68.6255 212.751 69.9395 212.751C71.2539 212.751 72.4898 212.239 73.4194 211.31L139.47 145.26C140.434 144.296 140.945 143.014 140.909 141.651C140.873 140.288 140.295 139.035 139.282 138.123L135.811 134.999Z" fill="#00979D"/>
<path d="M169.282 65.2363C144.032 65.2363 123.572 85.7065 123.572 110.946C123.572 120.437 126.462 129.256 131.402 136.557C134.022 140.406 137.202 143.836 140.842 146.736C148.642 152.937 158.532 156.656 169.282 156.656C175.782 156.656 181.962 155.296 187.562 152.846C201.132 146.926 211.262 134.606 214.152 119.696C214.702 116.867 214.992 113.937 214.992 110.946C214.992 85.7065 194.522 65.2363 169.282 65.2363ZM169.282 142.506C151.852 142.506 137.722 128.376 137.722 110.946C137.722 93.5161 151.852 79.3862 169.282 79.3862C186.712 79.3862 200.842 93.5166 200.842 110.946C200.842 128.376 186.712 142.506 169.282 142.506Z" fill="#F4F4F4"/>
<path d="M169.283 158.668C158.536 158.668 147.991 154.989 139.59 148.311C135.79 145.283 132.476 141.71 129.739 137.687C124.388 129.78 121.561 120.535 121.561 110.946C121.561 84.6318 142.969 63.2227 169.283 63.2227C195.597 63.2227 217.005 84.6318 217.005 110.946C217.005 114.013 216.71 117.085 216.128 120.08C213.145 135.47 202.767 148.408 188.367 154.69C182.335 157.329 175.914 158.668 169.283 158.668ZM169.283 67.248C145.188 67.248 125.585 86.8506 125.585 110.946C125.585 119.728 128.173 128.193 133.069 135.428C135.576 139.111 138.614 142.388 142.097 145.161C149.898 151.364 159.299 154.643 169.283 154.643C175.355 154.643 181.234 153.418 186.756 151.002C199.943 145.249 209.446 133.403 212.177 119.313C212.71 116.57 212.98 113.755 212.98 110.946C212.98 86.8506 193.377 67.248 169.283 67.248ZM169.283 144.519C150.771 144.519 135.71 129.458 135.71 110.946C135.71 92.4346 150.771 77.373 169.283 77.373C187.794 77.373 202.855 92.4346 202.855 110.946C202.855 129.458 187.794 144.519 169.283 144.519ZM169.283 81.3984C152.99 81.3984 139.735 94.6533 139.735 110.946C139.735 127.238 152.99 140.493 169.283 140.493C185.575 140.493 198.831 127.238 198.831 110.946C198.831 94.6533 185.575 81.3984 169.283 81.3984Z" fill="#00979D"/>
</svg>
