<svg width="154" height="160" viewBox="0 0 154 160" fill="none" xmlns="http://www.w3.org/2000/svg">
<g clip-path="url(#clip0_226_79127)">
<path d="M9.98238 141.143C8.99298 141.143 8.03317 140.834 7.22011 140.245L3.06218 137.231C0.949459 135.699 0.476527 132.734 2.00778 130.621L3.4238 128.668C4.95616 126.554 7.92129 126.082 10.034 127.613L14.1919 130.627C16.3049 132.159 16.7776 135.125 15.2461 137.237L13.83 139.191C13.0904 140.211 11.9938 140.883 10.7427 141.082C10.4888 141.123 10.2346 141.143 9.98238 141.143ZM7.25917 129.013C6.50526 129.013 5.76141 129.361 5.28596 130.017L3.86994 131.971C3.08256 133.057 3.32586 134.581 4.41208 135.369L8.57 138.383C9.09288 138.762 9.7363 138.913 10.3805 138.812C11.0251 138.708 11.5887 138.364 11.9679 137.841L13.3839 135.887C14.1716 134.801 13.9283 133.277 12.842 132.489L8.68412 129.475C8.25359 129.163 7.75443 129.013 7.25917 129.013Z" fill="#808C8D"/>
<path d="M92.126 142.154C79.1945 128.579 81.5788 104.761 92.3319 97.1572C96.819 93.9842 104.471 92.4273 109.724 95.4181C115.104 98.4806 113.365 103.691 119 107.593C125.45 112.059 130.64 107.25 138.132 111.651C142.474 114.202 146.088 118.964 146.939 124.124C148.968 136.43 134.468 146.05 133.849 146.449C122.148 153.988 103.309 153.894 92.126 142.154Z" fill="#F4F4F4"/>
<path d="M28.3374 77.7729C22.0196 77.7734 16.0065 75.904 10.9979 72.3186C4.18342 67.4403 -0.176239 59.8839 -1.27752 51.0407C-2.3177 42.6886 -0.276686 34.0809 4.32209 27.4258C9.71356 19.6233 18.8706 14.2952 28.8176 13.173C37.9873 12.135 46.8288 14.8214 53.0693 20.5346C59.1262 26.0798 62.5001 34.0424 62.5696 42.9553C62.6363 51.5223 59.53 59.9916 54.047 66.1925C48.9605 71.9459 41.5964 75.9967 33.8433 77.3064C31.9943 77.6189 30.153 77.7729 28.3374 77.7729ZM32.6731 15.2544C31.4842 15.2544 30.2839 15.322 29.0754 15.4581C19.7794 16.5072 11.2331 21.4699 6.21439 28.7327C1.93202 34.9297 0.0333035 42.957 1.00456 50.7567C2.02577 58.9548 6.05004 65.9481 12.3366 70.4481C18.283 74.7054 25.7841 76.3365 33.4602 75.0385C40.7041 73.8147 47.5796 70.0351 52.324 64.6691C63.1787 52.3934 62.8009 32.5625 51.5163 22.231C46.5824 17.7137 39.8589 15.2544 32.6731 15.2544Z" fill="#F4F4F4"/>
<path d="M25.3359 65.8104C27.9215 65.8104 30.0175 63.7144 30.0175 61.1289C30.0175 58.5433 27.9215 56.4473 25.3359 56.4473C22.7503 56.4473 20.6543 58.5433 20.6543 61.1289C20.6543 63.7144 22.7503 65.8104 25.3359 65.8104Z" fill="white"/>
<path d="M25.3359 66.9604C22.1205 66.9604 19.5044 64.3443 19.5044 61.1289C19.5044 57.9129 22.1205 55.2969 25.3359 55.2969C28.5513 55.2969 31.1673 57.9129 31.1673 61.1289C31.1673 64.3443 28.5513 66.9604 25.3359 66.9604ZM25.3359 57.5971C23.3883 57.5971 21.8041 59.1814 21.8041 61.1289C21.8041 63.0759 23.3883 64.6602 25.3359 64.6602C27.2834 64.6602 28.8677 63.0759 28.8677 61.1289C28.8677 59.1814 27.2834 57.5971 25.3359 57.5971Z" fill="#00979D"/>
<path d="M117.246 117.858L116.952 117.688C114.742 116.412 111.917 117.169 110.642 119.378L104.189 130.554C102.913 132.764 103.67 135.589 105.88 136.864L106.174 137.035C108.384 138.31 111.209 137.553 112.485 135.344L118.937 124.168C120.213 121.958 119.456 119.133 117.246 117.858Z" fill="white"/>
<path d="M108.475 138.802C107.497 138.802 106.506 138.553 105.6 138.03C105.6 138.03 105.6 138.03 105.6 138.03L105.305 137.86C103.975 137.092 103.022 135.847 102.623 134.355C102.223 132.863 102.426 131.309 103.194 129.979L109.646 118.803C111.236 116.048 114.771 115.102 117.527 116.691L117.822 116.862C120.576 118.452 121.524 121.987 119.933 124.742L113.481 135.918C112.414 137.767 110.47 138.802 108.475 138.802ZM106.75 136.038C108.408 136.996 110.533 136.425 111.489 134.769L117.942 123.593C118.402 122.794 118.523 121.86 118.283 120.961C118.042 120.063 117.47 119.314 116.672 118.853L116.377 118.683C114.721 117.728 112.594 118.297 111.638 119.953L105.185 131.129C104.724 131.927 104.603 132.861 104.844 133.76C105.085 134.659 105.657 135.408 106.455 135.868L106.75 136.038Z" fill="#7FCBCD"/>
<path d="M30.5131 91.5274L24.3094 94.2849C23.5201 92.509 21.4495 91.7127 19.6736 92.5021C17.8976 93.2915 17.1014 95.3621 17.8908 97.138L11.687 99.8955C9.37552 94.6952 11.7158 88.6098 16.9161 86.2983C22.1163 83.9869 28.2016 86.3271 30.5131 91.5274Z" fill="white"/>
<path d="M11.6877 101.045C11.2472 101.045 10.827 100.791 10.6364 100.362C9.39365 97.5662 9.31385 94.4546 10.4115 91.6003C11.5092 88.7459 13.6534 86.4898 16.4492 85.2471C22.2187 82.6834 28.9994 85.2906 31.5641 91.0601C31.688 91.3386 31.6961 91.6555 31.5867 91.9401C31.4771 92.2247 31.2592 92.4541 30.9804 92.578L24.7767 95.3352C24.1969 95.5936 23.517 95.3319 23.2589 94.7515C22.7299 93.5618 21.332 93.0233 20.1406 93.5523C18.9508 94.0813 18.4126 95.4803 18.9416 96.6706C19.1994 97.251 18.9383 97.9306 18.3579 98.1885L12.1542 100.946C12.0025 101.013 11.844 101.045 11.6877 101.045ZM21.0867 86.5601C19.8468 86.5601 18.5876 86.8135 17.3833 87.3486C15.1489 88.3419 13.4352 90.1449 12.558 92.4256C11.82 94.3453 11.7483 96.4106 12.3359 98.3481L16.5041 96.4954C16.1545 94.4446 17.2201 92.3341 19.2067 91.4507C21.1936 90.5696 23.4743 91.1913 24.7622 92.8252L28.9296 90.9725C27.246 88.1862 24.2282 86.5601 21.0867 86.5601Z" fill="#A5F2EE"/>
<path d="M64.9688 129.741C64.9019 129.741 64.8343 129.735 64.7674 129.723C64.1 129.604 60.7425 128.899 60.1851 126.669C59.6273 124.438 62.2582 122.236 62.7911 121.818C63.0484 121.615 63.3801 121.533 63.7026 121.59C64.3701 121.709 67.7275 122.413 68.2852 124.644C68.843 126.874 66.2121 129.076 65.6792 129.495C65.4752 129.656 65.2244 129.741 64.9688 129.741ZM63.8131 123.969C63.0202 124.704 62.309 125.682 62.4161 126.111C62.5235 126.54 63.6108 127.068 64.6572 127.344C65.4499 126.609 66.1614 125.631 66.0542 125.202C65.9468 124.772 64.8595 124.244 63.8131 123.969Z" fill="#808C8D"/>
<path d="M83.8061 145.681L73.7261 147.49L75.535 157.57L85.6151 155.761L83.8061 145.681Z" fill="white"/>
<path d="M75.5337 158.72C74.9877 158.72 74.503 158.33 74.4034 157.773L72.5945 147.693C72.4821 147.068 72.8981 146.471 73.5231 146.359L83.6029 144.549C83.904 144.495 84.2123 144.563 84.4628 144.737C84.7131 144.912 84.8839 145.178 84.9377 145.478L86.7469 155.558C86.801 155.859 86.7332 156.168 86.5591 156.418C86.385 156.668 86.1185 156.84 85.8183 156.893L75.7382 158.702C75.6696 158.714 75.6012 158.72 75.5337 158.72ZM75.061 148.419L76.464 156.235L84.2801 154.833L82.8774 147.016L75.061 148.419Z" fill="#A5F2EE"/>
<path d="M151.27 104.816H147.842C147.207 104.816 146.692 104.301 146.692 103.666C146.692 103.031 147.207 102.515 147.842 102.515H150.12V100.237C150.12 99.602 150.635 99.0869 151.27 99.0869C151.905 99.0869 152.42 99.602 152.42 100.237V103.666C152.42 104.301 151.905 104.816 151.27 104.816Z" fill="#808C8D"/>
<path d="M140.869 104.816H133.896C133.261 104.816 132.746 104.301 132.746 103.666C132.746 103.031 133.261 102.516 133.896 102.516H140.869C141.504 102.516 142.019 103.031 142.019 103.666C142.019 104.301 141.504 104.816 140.869 104.816ZM126.923 104.816H119.95C119.315 104.816 118.8 104.301 118.8 103.666C118.8 103.031 119.315 102.516 119.95 102.516H126.923C127.558 102.516 128.073 103.031 128.073 103.666C128.073 104.301 127.558 104.816 126.923 104.816ZM112.977 104.816H106.003C105.368 104.816 104.854 104.301 104.854 103.666C104.854 103.031 105.368 102.516 106.003 102.516H112.977C113.612 102.516 114.126 103.031 114.126 103.666C114.126 104.301 113.612 104.816 112.977 104.816ZM99.0302 104.816H92.0573C91.4222 104.816 90.9074 104.301 90.9074 103.666C90.9074 103.031 91.4222 102.516 92.0573 102.516H99.0302C99.6653 102.516 100.18 103.031 100.18 103.666C100.18 104.301 99.6653 104.816 99.0302 104.816ZM85.0841 104.816H78.1111C77.4761 104.816 76.9613 104.301 76.9613 103.666C76.9613 103.031 77.4761 102.516 78.1111 102.516H85.0841C85.7191 102.516 86.2339 103.031 86.2339 103.666C86.2339 104.301 85.7191 104.816 85.0841 104.816ZM71.1379 104.816H64.165C63.5299 104.816 63.0151 104.301 63.0151 103.666C63.0151 103.031 63.5299 102.516 64.165 102.516H71.1379C71.773 102.516 72.2877 103.031 72.2877 103.666C72.2877 104.301 71.773 104.816 71.1379 104.816Z" fill="#808C8D"/>
<path d="M57.1917 104.816H53.7631C53.1281 104.816 52.6133 104.301 52.6133 103.666V100.237C52.6133 99.602 53.1281 99.0869 53.7631 99.0869C54.3982 99.0869 54.9129 99.602 54.9129 100.237V102.515H57.1917C57.8267 102.515 58.3415 103.031 58.3415 103.666C58.3415 104.301 57.8267 104.816 57.1917 104.816Z" fill="#808C8D"/>
<path d="M53.7631 94.4137C53.1281 94.4137 52.6133 93.8986 52.6133 93.2635V86.2903C52.6133 85.6553 53.1281 85.1402 53.7631 85.1402C54.3982 85.1402 54.9129 85.6553 54.9129 86.2903V93.2635C54.9129 93.8986 54.3982 94.4137 53.7631 94.4137ZM53.7631 80.4672C53.1281 80.4672 52.6133 79.9522 52.6133 79.3171V72.3444C52.6133 71.7094 53.1281 71.1943 53.7631 71.1943C54.3982 71.1943 54.9129 71.7094 54.9129 72.3444V79.3171C54.9129 79.9522 54.3982 80.4672 53.7631 80.4672ZM53.7631 66.5214C53.1281 66.5214 52.6133 66.0063 52.6133 65.3712V58.398C52.6133 57.763 53.1281 57.2479 53.7631 57.2479C54.3982 57.2479 54.9129 57.763 54.9129 58.398V65.3712C54.9129 66.0063 54.3982 66.5214 53.7631 66.5214ZM53.7631 52.5749C53.1281 52.5749 52.6133 52.0599 52.6133 51.4248V44.4516C52.6133 43.8165 53.1281 43.3015 53.7631 43.3015C54.3982 43.3015 54.9129 43.8165 54.9129 44.4516V51.4248C54.9129 52.0599 54.3982 52.5749 53.7631 52.5749ZM53.7631 38.629C53.1281 38.629 52.6133 38.114 52.6133 37.4789V30.5057C52.6133 29.8707 53.1281 29.3556 53.7631 29.3556C54.3982 29.3556 54.9129 29.8707 54.9129 30.5057V37.4789C54.9129 38.114 54.3982 38.629 53.7631 38.629ZM53.7631 24.6826C53.1281 24.6826 52.6133 24.1676 52.6133 23.5325V16.5593C52.6133 15.9242 53.1281 15.4092 53.7631 15.4092C54.3982 15.4092 54.9129 15.9242 54.9129 16.5593V23.5325C54.9129 24.1676 54.3982 24.6826 53.7631 24.6826Z" fill="#808C8D"/>
<path d="M53.7631 10.7366C53.1281 10.7366 52.6133 10.2215 52.6133 9.5865V6.15793C52.6133 5.52288 53.1281 5.00781 53.7631 5.00781H57.1917C57.8267 5.00781 58.3415 5.52288 58.3415 6.15793C58.3415 6.79297 57.8267 7.30804 57.1917 7.30804H54.9129V9.5865C54.9129 10.2215 54.3982 10.7366 53.7631 10.7366Z" fill="#808C8D"/>
<path d="M140.868 7.30804H133.896C133.26 7.30804 132.746 6.79297 132.746 6.15793C132.746 5.52288 133.26 5.00781 133.896 5.00781H140.868C141.503 5.00781 142.018 5.52288 142.018 6.15793C142.018 6.79297 141.503 7.30804 140.868 7.30804ZM126.922 7.30804H119.949C119.314 7.30804 118.8 6.79297 118.8 6.15793C118.8 5.52288 119.314 5.00781 119.949 5.00781H126.922C127.557 5.00781 128.072 5.52288 128.072 6.15793C128.072 6.79297 127.557 7.30804 126.922 7.30804ZM112.976 7.30804H106.003C105.368 7.30804 104.853 6.79297 104.853 6.15793C104.853 5.52288 105.368 5.00781 106.003 5.00781H112.976C113.611 5.00781 114.126 5.52288 114.126 6.15793C114.126 6.79297 113.611 7.30804 112.976 7.30804ZM99.03 7.30804H92.0568C91.4217 7.30804 90.907 6.79297 90.907 6.15793C90.907 5.52288 91.4217 5.00781 92.0568 5.00781H99.03C99.665 5.00781 100.18 5.52288 100.18 6.15793C100.18 6.79297 99.665 7.30804 99.03 7.30804ZM85.0838 7.30804H78.1106C77.4756 7.30804 76.9608 6.79297 76.9608 6.15793C76.9608 5.52288 77.4756 5.00781 78.1106 5.00781H85.0838C85.7189 5.00781 86.2337 5.52288 86.2337 6.15793C86.2337 6.79297 85.7189 7.30804 85.0838 7.30804ZM71.1377 7.30804H64.1645C63.5294 7.30804 63.0146 6.79297 63.0146 6.15793C63.0146 5.52288 63.5294 5.00781 64.1645 5.00781H71.1377C71.7727 5.00781 72.2875 5.52288 72.2875 6.15793C72.2875 6.79297 71.7727 7.30804 71.1377 7.30804Z" fill="#808C8D"/>
<path d="M151.27 10.7366C150.635 10.7366 150.12 10.2215 150.12 9.5865V7.30804H147.842C147.207 7.30804 146.692 6.79297 146.692 6.15793C146.692 5.52288 147.207 5.00781 147.842 5.00781H151.27C151.905 5.00781 152.42 5.52288 152.42 6.15793V9.5865C152.42 10.2215 151.905 10.7366 151.27 10.7366Z" fill="#808C8D"/>
<path d="M151.27 94.4137C150.635 94.4137 150.121 93.8986 150.121 93.2635V86.2903C150.121 85.6553 150.635 85.1402 151.27 85.1402C151.905 85.1402 152.42 85.6553 152.42 86.2903V93.2635C152.42 93.8986 151.905 94.4137 151.27 94.4137ZM151.27 80.4672C150.635 80.4672 150.121 79.9522 150.121 79.3171V72.3439C150.121 71.7089 150.635 71.1938 151.27 71.1938C151.905 71.1938 152.42 71.7089 152.42 72.3439V79.3171C152.42 79.9522 151.905 80.4672 151.27 80.4672ZM151.27 66.5214C150.635 66.5214 150.121 66.0063 150.121 65.3712V58.398C150.121 57.763 150.635 57.2479 151.27 57.2479C151.905 57.2479 152.42 57.763 152.42 58.398V65.3712C152.42 66.0063 151.905 66.5214 151.27 66.5214ZM151.27 52.5749C150.635 52.5749 150.121 52.0599 150.121 51.4248V44.4516C150.121 43.8165 150.635 43.3015 151.27 43.3015C151.905 43.3015 152.42 43.8165 152.42 44.4516V51.4248C152.42 52.0599 151.905 52.5749 151.27 52.5749ZM151.27 38.6285C150.635 38.6285 150.121 38.1134 150.121 37.4784V30.5057C150.121 29.8707 150.635 29.3556 151.27 29.3556C151.905 29.3556 152.42 29.8707 152.42 30.5057V37.4784C152.42 38.1134 151.905 38.6285 151.27 38.6285ZM151.27 24.6826C150.635 24.6826 150.121 24.1676 150.121 23.5325V16.5593C150.121 15.9242 150.635 15.4092 151.27 15.4092C151.905 15.4092 152.42 15.9242 152.42 16.5593V23.5325C152.42 24.1676 151.905 24.6826 151.27 24.6826Z" fill="#808C8D"/>
<path d="M77.9242 73.1973L35.1643 115.957C33.6171 117.504 33.6171 120.013 35.1643 121.56C36.7116 123.107 39.2201 123.107 40.7673 121.56L78.5101 83.8174C80.1152 82.2123 80.0462 79.5895 78.359 78.071L75.5651 75.5564" fill="#F4F4F4"/>
<path d="M37.9656 123.87C36.6004 123.87 35.3166 123.339 34.3512 122.373C33.3858 121.408 32.854 120.124 32.854 118.759C32.854 117.393 33.3858 116.11 34.3512 115.144L74.7466 74.7488L74.7583 74.737L77.1113 72.3843C77.5605 71.9357 78.2882 71.9357 78.7374 72.3843C79.1866 72.8336 79.1866 73.5612 78.7374 74.0105L77.2351 75.5127L79.1283 77.2164C80.181 78.1639 80.7815 79.4658 80.8186 80.8816C80.856 82.2979 80.325 83.6288 79.3233 84.6305L41.5803 122.373C40.6149 123.339 39.3311 123.87 37.9656 123.87ZM75.6065 77.1411L35.9773 116.771C35.4464 117.302 35.154 118.008 35.154 118.759C35.154 119.51 35.4464 120.216 35.9773 120.747C36.5086 121.278 37.2148 121.571 37.9656 121.571C38.7167 121.571 39.4229 121.278 39.9542 120.747L77.6972 83.0043C78.248 82.4536 78.5401 81.7209 78.5197 80.9424C78.4991 80.1634 78.169 79.4474 77.5898 78.9262L75.6065 77.1411Z" fill="#00979D"/>
<path d="M94.7338 37.2764C80.3052 37.2764 68.6138 48.9736 68.6138 63.3963C68.6138 68.8193 70.2651 73.8592 73.088 78.0308C74.5852 80.2306 76.4023 82.1907 78.4824 83.8478C82.9395 87.3908 88.5909 89.5163 94.7338 89.5163C98.448 89.5163 101.979 88.7393 105.179 87.3391C112.934 83.9563 118.722 76.9164 120.374 68.3963C120.688 66.7794 120.854 65.105 120.854 63.3963C120.854 48.9736 109.157 37.2764 94.7338 37.2764ZM94.7338 81.4307C84.7738 81.4307 76.6994 73.3564 76.6994 63.3963C76.6994 53.4362 84.7738 45.362 94.7338 45.362C104.694 45.362 112.768 53.4365 112.768 63.3963C112.768 73.3562 104.694 81.4307 94.7338 81.4307Z" fill="#F4F4F4"/>
<path d="M94.7337 90.6662C88.5928 90.6662 82.5671 88.564 77.7666 84.7476C75.595 83.0177 73.7013 80.9759 72.1374 78.6773C69.0794 74.1589 67.4639 68.876 67.4639 63.3966C67.4639 48.3598 79.6971 36.126 94.7337 36.126C109.77 36.126 122.003 48.3598 122.003 63.3966C122.003 65.1489 121.835 66.9044 121.503 68.6159C119.798 77.41 113.868 84.8034 105.639 88.3933C102.192 89.9011 98.523 90.6662 94.7337 90.6662ZM94.7337 38.4262C80.9653 38.4262 69.7635 49.6277 69.7635 63.3966C69.7635 68.4145 71.2426 73.2521 74.0403 77.386C75.4728 79.4909 77.2088 81.3632 79.1988 82.948C83.6567 86.4926 89.0289 88.3659 94.7337 88.3659C98.2038 88.3659 101.563 87.6662 104.718 86.2856C112.254 82.9982 117.684 76.2292 119.245 68.1779C119.549 66.6104 119.704 65.0015 119.704 63.3966C119.704 49.6277 108.502 38.4262 94.7337 38.4262ZM94.7337 82.5808C84.1556 82.5808 75.5495 73.9748 75.5495 63.3966C75.5495 52.8185 84.1556 44.2119 94.7337 44.2119C105.312 44.2119 113.918 52.8185 113.918 63.3966C113.918 73.9748 105.312 82.5808 94.7337 82.5808ZM94.7337 46.5121C85.4237 46.5121 77.8492 54.0864 77.8492 63.3966C77.8492 72.7063 85.4237 80.2806 94.7337 80.2806C104.044 80.2806 111.618 72.7063 111.618 63.3966C111.618 54.0864 104.044 46.5121 94.7337 46.5121Z" fill="#00979D"/>
</g>
<defs>
<clipPath id="clip0_226_79127">
<rect width="153.143" height="160" fill="white" transform="translate(0.428711)"/>
</clipPath>
</defs>
</svg>
