<svg width="18" height="19" viewBox="0 0 18 19" fill="none" xmlns="http://www.w3.org/2000/svg">
<path d="M9 18.25C7.26942 18.25 5.57769 17.7368 4.13876 16.7754C2.69983 15.8139 1.57832 14.4473 0.916058 12.8485C0.253791 11.2496 0.080512 9.4903 0.418133 7.79296C0.755753 6.09563 1.58911 4.53653 2.81282 3.31282C4.03653 2.08911 5.59563 1.25575 7.29296 0.918133C8.9903 0.580512 10.7496 0.753791 12.3485 1.41606C13.9473 2.07832 15.3139 3.19983 16.2754 4.63876C17.2368 6.07769 17.75 7.76942 17.75 9.5C17.75 11.8206 16.8281 14.0462 15.1872 15.6872C13.5462 17.3281 11.3206 18.25 9 18.25ZM9 2C7.51664 2 6.0666 2.43987 4.83323 3.26398C3.59986 4.08809 2.63856 5.25943 2.07091 6.62988C1.50325 8.00032 1.35473 9.50832 1.64411 10.9632C1.9335 12.418 2.64781 13.7544 3.6967 14.8033C4.7456 15.8522 6.08197 16.5665 7.53683 16.8559C8.99168 17.1453 10.4997 16.9968 11.8701 16.4291C13.2406 15.8614 14.4119 14.9001 15.236 13.6668C16.0601 12.4334 16.5 10.9834 16.5 9.5C16.5 7.51088 15.7098 5.60323 14.3033 4.1967C12.8968 2.79018 10.9891 2 9 2Z" fill="#374146"/>
<path d="M12.5687 12.1814C12.6273 12.2395 12.6738 12.3086 12.7055 12.3848C12.7372 12.4609 12.7536 12.5426 12.7536 12.6251C12.7536 12.7076 12.7372 12.7893 12.7055 12.8655C12.6738 12.9416 12.6273 13.0108 12.5687 13.0689C12.5106 13.1274 12.4415 13.1739 12.3653 13.2057C12.2892 13.2374 12.2075 13.2537 12.125 13.2537C12.0425 13.2537 11.9608 13.2374 11.8846 13.2057C11.8084 13.1739 11.7393 13.1274 11.6812 13.0689L8.99996 10.3876L6.31871 13.0689C6.26061 13.1274 6.19148 13.1739 6.11532 13.2057C6.03916 13.2374 5.95747 13.2537 5.87496 13.2537C5.79245 13.2537 5.71076 13.2374 5.6346 13.2057C5.55844 13.1739 5.48931 13.1274 5.43121 13.0689C5.37263 13.0108 5.32614 12.9416 5.2944 12.8655C5.26267 12.7893 5.24634 12.7076 5.24634 12.6251C5.24634 12.5426 5.26267 12.4609 5.2944 12.3848C5.32614 12.3086 5.37263 12.2395 5.43121 12.1814L8.11246 9.50012L5.43121 6.81887C5.31352 6.70118 5.2474 6.54155 5.2474 6.37512C5.2474 6.20868 5.31352 6.04906 5.43121 5.93137C5.5489 5.81368 5.70852 5.74756 5.87496 5.74756C6.0414 5.74756 6.20102 5.81368 6.31871 5.93137L8.99996 8.61262L11.6812 5.93137C11.7989 5.81368 11.9585 5.74756 12.125 5.74756C12.2914 5.74756 12.451 5.81368 12.5687 5.93137C12.6864 6.04906 12.7525 6.20868 12.7525 6.37512C12.7525 6.54155 12.6864 6.70118 12.5687 6.81887L9.88746 9.50012L12.5687 12.1814Z" fill="#374146"/>
</svg>
