<svg width="23" height="16" viewBox="0 0 23 16" fill="none" xmlns="http://www.w3.org/2000/svg">
<path d="M8.18743 15.4375C8.06405 15.4382 7.94174 15.4146 7.82752 15.3679C7.71329 15.3212 7.6094 15.2525 7.5218 15.1656L0.959305 8.60311C0.78277 8.42658 0.683594 8.18715 0.683594 7.93749C0.683594 7.68783 0.78277 7.4484 0.959305 7.27187C1.13584 7.09533 1.37527 6.99615 1.62493 6.99615C1.87459 6.99615 2.11402 7.09533 2.29055 7.27187L8.18743 13.1781L20.6468 0.709365C20.8233 0.532831 21.0628 0.433655 21.3124 0.433655C21.5621 0.433655 21.8015 0.532831 21.9781 0.709365C22.1546 0.8859 22.2538 1.12533 22.2538 1.37499C22.2538 1.62465 22.1546 1.86408 21.9781 2.04062L8.85306 15.1656C8.76546 15.2525 8.66156 15.3212 8.54734 15.3679C8.43312 15.4146 8.31081 15.4382 8.18743 15.4375Z" fill="white"/>
</svg>
