<svg width="22" height="22" viewBox="0 0 22 22" fill="none" xmlns="http://www.w3.org/2000/svg">
<title id="ExamplesTitle">Examples</title>
<path d="M16.25 11.875H9.25C9.01794 11.875 8.79538 11.7828 8.63128 11.6187C8.46719 11.4546 8.375 11.2321 8.375 11C8.375 10.7679 8.46719 10.5454 8.63128 10.3813C8.79538 10.2172 9.01794 10.125 9.25 10.125H16.25C16.4821 10.125 16.7046 10.2172 16.8687 10.3813C17.0328 10.5454 17.125 10.7679 17.125 11C17.125 11.2321 17.0328 11.4546 16.8687 11.6187C16.7046 11.7828 16.4821 11.875 16.25 11.875Z" fill="white"/>
<path d="M16.25 6.625H9.25C9.01794 6.625 8.79538 6.53281 8.63128 6.36872C8.46719 6.20462 8.375 5.98206 8.375 5.75C8.375 5.51794 8.46719 5.29538 8.63128 5.13128C8.79538 4.96719 9.01794 4.875 9.25 4.875H16.25C16.4821 4.875 16.7046 4.96719 16.8687 5.13128C17.0328 5.29538 17.125 5.51794 17.125 5.75C17.125 5.98206 17.0328 6.20462 16.8687 6.36872C16.7046 6.53281 16.4821 6.625 16.25 6.625Z" fill="white"/>
<path d="M16.25 17.125H9.25C9.01794 17.125 8.79538 17.0328 8.63128 16.8687C8.46719 16.7046 8.375 16.4821 8.375 16.25C8.375 16.0179 8.46719 15.7954 8.63128 15.6313C8.79538 15.4672 9.01794 15.375 9.25 15.375H16.25C16.4821 15.375 16.7046 15.4672 16.8687 15.6313C17.0328 15.7954 17.125 16.0179 17.125 16.25C17.125 16.4821 17.0328 16.7046 16.8687 16.8687C16.7046 17.0328 16.4821 17.125 16.25 17.125Z" fill="white"/>
<path d="M20.625 21.5H1.375C1.14294 21.5 0.920376 21.4078 0.756282 21.2437C0.592187 21.0796 0.5 20.8571 0.5 20.625V1.375C0.5 1.14294 0.592187 0.920376 0.756282 0.756282C0.920376 0.592187 1.14294 0.5 1.375 0.5H20.625C20.8571 0.5 21.0796 0.592187 21.2437 0.756282C21.4078 0.920376 21.5 1.14294 21.5 1.375V20.625C21.5 20.8571 21.4078 21.0796 21.2437 21.2437C21.0796 21.4078 20.8571 21.5 20.625 21.5ZM2.25 19.75H19.75V2.25H2.25V19.75Z" fill="white"/>
<path d="M5.75 6.625C6.23325 6.625 6.625 6.23325 6.625 5.75C6.625 5.26675 6.23325 4.875 5.75 4.875C5.26675 4.875 4.875 5.26675 4.875 5.75C4.875 6.23325 5.26675 6.625 5.75 6.625Z" fill="white"/>
<path d="M5.75 11.875C6.23325 11.875 6.625 11.4832 6.625 11C6.625 10.5168 6.23325 10.125 5.75 10.125C5.26675 10.125 4.875 10.5168 4.875 11C4.875 11.4832 5.26675 11.875 5.75 11.875Z" fill="white"/>
<path d="M5.75 17.125C6.23325 17.125 6.625 16.7332 6.625 16.25C6.625 15.7668 6.23325 15.375 5.75 15.375C5.26675 15.375 4.875 15.7668 4.875 16.25C4.875 16.7332 5.26675 17.125 5.75 17.125Z" fill="white"/>
</svg>
