<svg width="12" height="12" viewBox="0 0 12 12" fill="none" xmlns="http://www.w3.org/2000/svg">
<path d="M6 0.75C4.60761 0.75 3.27226 1.30312 2.28769 2.28769C1.30312 3.27226 0.75 4.60761 0.75 6V7.5C0.75 7.89782 0.908035 8.27936 1.18934 8.56066C1.47064 8.84196 1.85218 9 2.25 9C2.64782 9 3.02936 8.84196 3.31066 8.56066C3.59196 8.27936 3.75 7.89782 3.75 7.5C3.75 7.30109 3.82902 7.11032 3.96967 6.96967C4.11032 6.82902 4.30109 6.75 4.5 6.75C4.69891 6.75 4.88968 6.82902 5.03033 6.96967C5.17098 7.11032 5.25 7.30109 5.25 7.5V9.75C5.25 10.1478 5.40804 10.5294 5.68934 10.8107C5.97064 11.092 6.35218 11.25 6.75 11.25C9.2325 11.25 11.25 8.895 11.25 6C11.25 4.60761 10.6969 3.27226 9.71231 2.28769C8.72774 1.30312 7.39239 0.75 6 0.75ZM4.27875 4.27875C4.17383 4.38356 4.04019 4.4549 3.89473 4.48377C3.74926 4.51265 3.59851 4.49775 3.46151 4.44095C3.32451 4.38416 3.20743 4.28803 3.12505 4.16472C3.04268 4.0414 2.99871 3.89643 2.99871 3.74813C2.99871 3.59982 3.04268 3.45485 3.12505 3.33153C3.20743 3.20822 3.32451 3.11209 3.46151 3.0553C3.59851 2.99851 3.74926 2.9836 3.89473 3.01248C4.04019 3.04135 4.17383 3.11269 4.27875 3.2175C4.34848 3.28715 4.4038 3.36987 4.44154 3.46092C4.47929 3.55197 4.49871 3.64956 4.49871 3.74813C4.49871 3.84669 4.47929 3.94428 4.44154 4.03533C4.4038 4.12638 4.34848 4.2091 4.27875 4.27875ZM6.52875 3.52875C6.42383 3.63356 6.29019 3.7049 6.14473 3.73377C5.99926 3.76265 5.84851 3.74775 5.71151 3.69095C5.57451 3.63416 5.45743 3.53803 5.37505 3.41472C5.29268 3.2914 5.24871 3.14643 5.24871 2.99813C5.24871 2.84982 5.29268 2.70485 5.37505 2.58153C5.45743 2.45822 5.57451 2.36209 5.71151 2.3053C5.84851 2.2485 5.99926 2.2336 6.14473 2.26248C6.29019 2.29135 6.42383 2.36269 6.52875 2.4675C6.59848 2.53715 6.6538 2.61987 6.69155 2.71092C6.72929 2.80197 6.74871 2.89956 6.74871 2.99813C6.74871 3.09669 6.72929 3.19428 6.69155 3.28533C6.6538 3.37638 6.59848 3.4591 6.52875 3.52875ZM7.7175 3.2175C7.82242 3.11269 7.95606 3.04135 8.10152 3.01248C8.24699 2.9836 8.39774 2.99851 8.53474 3.0553C8.67174 3.11209 8.78882 3.20822 8.87119 3.33153C8.95357 3.45485 8.99754 3.59982 8.99754 3.74813C8.99754 3.89643 8.95357 4.0414 8.87119 4.16472C8.78882 4.28803 8.67174 4.38416 8.53474 4.44095C8.39774 4.49775 8.24699 4.51265 8.10152 4.48377C7.95606 4.4549 7.82242 4.38356 7.7175 4.27875C7.64777 4.2091 7.59245 4.12638 7.5547 4.03533C7.51696 3.94428 7.49754 3.84669 7.49754 3.74813C7.49754 3.64956 7.51696 3.55197 7.5547 3.46092C7.59245 3.36987 7.64777 3.28715 7.7175 3.2175ZM8.77875 8.77875C8.67383 8.88356 8.54019 8.9549 8.39473 8.98378C8.24926 9.01265 8.09851 8.99775 7.96151 8.94096C7.82451 8.88416 7.70743 8.78803 7.62505 8.66472C7.54268 8.5414 7.49871 8.39643 7.49871 8.24813C7.49871 8.09982 7.54268 7.95485 7.62505 7.83153C7.70743 7.70822 7.82451 7.61209 7.96151 7.55529C8.09851 7.4985 8.24926 7.4836 8.39473 7.51248C8.54019 7.54135 8.67383 7.61269 8.77875 7.7175C8.84848 7.78715 8.9038 7.86987 8.94155 7.96092C8.97929 8.05197 8.99871 8.14956 8.99871 8.24813C8.99871 8.34669 8.97929 8.44428 8.94155 8.53533C8.9038 8.62638 8.84848 8.7091 8.77875 8.77875ZM9.52875 6.52875C9.42383 6.63356 9.29019 6.7049 9.14473 6.73378C8.99926 6.76265 8.84851 6.74775 8.71151 6.69096C8.57451 6.63416 8.45743 6.53803 8.37505 6.41472C8.29268 6.2914 8.24871 6.14643 8.24871 5.99813C8.24871 5.84982 8.29268 5.70485 8.37505 5.58153C8.45743 5.45822 8.57451 5.36209 8.71151 5.3053C8.84851 5.24851 8.99926 5.2336 9.14473 5.26248C9.29019 5.29135 9.42383 5.36269 9.52875 5.4675C9.59848 5.53715 9.6538 5.61987 9.69155 5.71092C9.72929 5.80197 9.74871 5.89956 9.74871 5.99813C9.74871 6.09669 9.72929 6.19428 9.69155 6.28533C9.6538 6.37638 9.59848 6.4591 9.52875 6.52875Z" fill="#BC38EB"/>
</svg>
