<svg width="18" height="18" viewBox="0 0 18 18" fill="none" xmlns="http://www.w3.org/2000/svg">
<path fill-rule="evenodd" clip-rule="evenodd" d="M1 18H6C6.13134 18.0001 6.26141 17.9743 6.38277 17.924C6.50413 17.8738 6.6144 17.8001 6.70727 17.7073C6.80015 17.6144 6.8738 17.5041 6.92403 17.3828C6.97426 17.2614 7.00008 17.1313 7 17V1C7.00008 0.868657 6.97426 0.738588 6.92403 0.617228C6.8738 0.495869 6.80015 0.3856 6.70727 0.292726C6.6144 0.199853 6.50413 0.126196 6.38277 0.0759681C6.26141 0.02574 6.13134 -7.4605e-05 6 1.61946e-07H1C0.868657 -7.4605e-05 0.738588 0.02574 0.617228 0.0759681C0.495869 0.126196 0.3856 0.199853 0.292726 0.292726C0.199853 0.3856 0.126196 0.495869 0.0759681 0.617228C0.02574 0.738588 -7.4605e-05 0.868657 1.61946e-07 1V17C-7.4605e-05 17.1313 0.02574 17.2614 0.0759681 17.3828C0.126196 17.5041 0.199853 17.6144 0.292726 17.7073C0.3856 17.8001 0.495869 17.8738 0.617228 17.924C0.738588 17.9743 0.868657 18.0001 1 18ZM5 16H2V2H5V16ZM12 18H17C17.1313 18.0001 17.2614 17.9743 17.3828 17.924C17.5041 17.8738 17.6144 17.8001 17.7073 17.7073C17.8001 17.6144 17.8738 17.5041 17.924 17.3828C17.9743 17.2614 18.0001 17.1313 18 17V1C18.0001 0.868657 17.9743 0.738588 17.924 0.617228C17.8738 0.495869 17.8001 0.3856 17.7073 0.292726C17.6144 0.199853 17.5041 0.126196 17.3828 0.0759681C17.2614 0.02574 17.1313 -7.4605e-05 17 1.61946e-07H12C11.8687 -7.4605e-05 11.7386 0.02574 11.6172 0.0759681C11.4959 0.126196 11.3856 0.199853 11.2927 0.292726C11.1999 0.3856 11.1262 0.495869 11.076 0.617228C11.0257 0.738588 10.9999 0.868657 11 1V17C10.9999 17.1313 11.0257 17.2614 11.076 17.3828C11.1262 17.5041 11.1999 17.6144 11.2927 17.7073C11.3856 17.8001 11.4959 17.8738 11.6172 17.924C11.7386 17.9743 11.8687 18.0001 12 18ZM16 16H13V2H16V16Z" fill="black"/>
</svg>
