<svg width="12" height="12" viewBox="0 0 12 12" fill="none" xmlns="http://www.w3.org/2000/svg">
  <path
    d="M11.5032 1.79614L10.2039 0.496824C9.54028 -0.167236 8.45972 -0.167236 7.79614 0.496824L1.14648 7.14648C1.08227 7.21045 1.03686 7.29077 1.01489 7.37866L0.0148905 11.3787C-0.0275895 11.5491 0.0222156 11.7292 0.146481 11.8535C0.241451 11.9485 0.369135 12 0.499995 12C0.540281 12 0.581051 11.9951 0.621336 11.9851L4.62134 10.9851C4.70923 10.9631 4.78955 10.9177 4.85352 10.8535L11.5032 4.20386C12.167 3.54004 12.167 2.45996 11.5032 1.79614ZM4.24438 10.0486L2.25329 10.5463L1.45373 9.7467L1.95141 7.75561L7.25 2.45702L8.04296 3.24999L5.14648 6.14648C4.95117 6.34179 4.95117 6.6582 5.14648 6.85351C5.24414 6.95116 5.37207 6.99999 5.5 6.99999C5.62793 6.99999 5.75586 6.95116 5.85351 6.85351L8.75 3.95702L9.54296 4.74999L4.24438 10.0486ZM10.7961 3.49682L10.25 4.04296L7.95703 1.74999L8.50317 1.20385C8.7688 0.938224 9.2312 0.938224 9.49682 1.20385L10.7961 2.50316C10.9289 2.63597 11.0019 2.81249 11.0019 2.99999C11.0019 3.18749 10.929 3.36401 10.7961 3.49682Z"
    fill="white" />
</svg>