<svg width="16" height="16" viewBox="0 0 16 16" fill="none" xmlns="http://www.w3.org/2000/svg">
<path d="M13 8.0004C13.0005 8.08726 12.9781 8.17273 12.9351 8.2482C12.8921 8.32367 12.83 8.38648 12.755 8.43033L5.255 12.9303C5.17782 12.9761 5.08975 13.0003 5 13.0004C4.91396 13.0014 4.82926 12.9789 4.755 12.9355C4.67751 12.8923 4.61298 12.8292 4.56814 12.7527C4.52329 12.6762 4.49976 12.5891 4.5 12.5004V3.5004C4.5002 3.41222 4.52369 3.32566 4.56809 3.24948C4.6125 3.17329 4.67624 3.11019 4.75286 3.06656C4.82949 3.02292 4.91628 3.0003 5.00446 3.00099C5.09263 3.00168 5.17907 3.02565 5.255 3.07047L12.755 7.57047C12.83 7.61432 12.8921 7.67714 12.9351 7.75261C12.9781 7.82808 13.0005 7.91354 13 8.0004Z" fill="#171E21"/>
</svg>
