<svg width="10" height="12" viewBox="0 0 10 12" fill="none" xmlns="http://www.w3.org/2000/svg">
  <path
    d="M0.5 11.5C0.367402 11.5 0.240246 11.4473 0.146485 11.3535C0.0527241 11.2598 3.4462e-05 11.1326 0 11V1.00001C2.63583e-05 0.911915 0.0233207 0.825389 0.0675259 0.749187C0.111731 0.672985 0.175279 0.60981 0.25174 0.566055C0.328201 0.522299 0.414863 0.499515 0.502957 0.500008C0.591052 0.500501 0.677453 0.524253 0.75342 0.56886L9.25342 5.56886C9.32851 5.61303 9.39075 5.67605 9.434 5.75167C9.47725 5.82729 9.5 5.9129 9.5 6.00001C9.5 6.08713 9.47725 6.17273 9.434 6.24835C9.39075 6.32397 9.32851 6.38699 9.25342 6.43116L0.75342 11.4312C0.676602 11.4763 0.589103 11.5001 0.5 11.5ZM1 1.87404V10.126L8.01367 6.00001L1 1.87404Z"
    fill="white" />
</svg>