<svg width="24" height="24" viewBox="0 0 24 24" fill="none" xmlns="http://www.w3.org/2000/svg">
<path fill-rule="evenodd" clip-rule="evenodd" d="M22.8748 0.682604C22.9738 0.723854 23.0637 0.784299 23.1392 0.860453C23.2154 0.935986 23.2758 1.02585 23.3171 1.12486C23.3583 1.22387 23.3795 1.33007 23.3795 1.43733C23.3795 1.54459 23.3583 1.65079 23.3171 1.7498C23.2758 1.84881 23.2154 1.93867 23.1392 2.0142L20.4092 4.7442C20.9596 5.56493 21.2086 6.55103 21.1138 7.53468C21.019 8.51832 20.5862 9.43872 19.8892 10.1392L18.8411 11.1873L19.0767 11.423C19.1529 11.4985 19.2133 11.5883 19.2546 11.6874C19.2958 11.7864 19.317 11.8926 19.317 11.9998C19.317 12.1071 19.2958 12.2133 19.2546 12.3123C19.2133 12.4113 19.1529 12.5012 19.0767 12.5767C19.0012 12.6529 18.9113 12.7133 18.8123 12.7546C18.7133 12.7958 18.6071 12.817 18.4998 12.817C18.3926 12.817 18.2864 12.7958 18.1874 12.7546C18.0884 12.7133 17.9985 12.6529 17.923 12.5767L11.423 6.0767C11.27 5.92371 11.184 5.7162 11.184 5.49983C11.184 5.39269 11.2051 5.28661 11.2461 5.18763C11.2871 5.08865 11.3472 4.99871 11.423 4.92295C11.576 4.76996 11.7835 4.684 11.9998 4.684C12.107 4.684 12.2131 4.70511 12.312 4.74611C12.411 4.7871 12.5009 4.8472 12.5767 4.92295L12.8123 5.15858L13.8605 4.11045C14.5609 3.41341 15.4813 2.98065 16.465 2.88584C17.4486 2.79103 18.4347 3.04003 19.2555 3.59045L21.9855 0.860453C22.061 0.784299 22.1509 0.723854 22.2499 0.682604C22.3489 0.641355 22.4551 0.620117 22.5623 0.620117C22.6696 0.620117 22.7758 0.641355 22.8748 0.682604ZM17.6873 10.0336L18.7355 8.98545H18.7273C19.1967 8.48714 19.4535 7.8256 19.4432 7.14114C19.433 6.45667 19.1565 5.80312 18.6725 5.31907C18.1884 4.83503 17.5349 4.55857 16.8504 4.54833C16.1659 4.53808 15.5044 4.79486 15.0061 5.2642L13.958 6.31233L17.6873 10.0336ZM13.9373 12.0576C14.0363 12.0989 14.1262 12.1593 14.2017 12.2355C14.2779 12.311 14.3383 12.4009 14.3796 12.4999C14.4208 12.5989 14.442 12.7051 14.442 12.8123C14.442 12.9196 14.4208 13.0258 14.3796 13.1248C14.3383 13.2238 14.2779 13.3137 14.2017 13.3892L11.9348 15.6561L12.5767 16.298L13.3892 17.1105C13.4654 17.186 13.5258 17.2759 13.5671 17.3749C13.6083 17.4739 13.6295 17.5801 13.6295 17.6873C13.6295 17.7946 13.6083 17.9008 13.5671 17.9998C13.5258 18.0988 13.4654 18.1887 13.3892 18.2642C13.3137 18.3404 13.2238 18.4008 13.1248 18.4421C13.0258 18.4833 12.9196 18.5045 12.8123 18.5045C12.7051 18.5045 12.5989 18.4833 12.4999 18.4421C12.4008 18.4008 12.311 18.3404 12.2355 18.2642L11.9998 18.0286L10.1392 19.8892C9.43793 20.5849 8.51769 21.0167 7.53445 21.1115C6.55121 21.2062 5.56544 20.9581 4.7442 20.4092L2.0142 23.1392C1.93867 23.2154 1.84881 23.2758 1.7498 23.3171C1.65079 23.3583 1.54459 23.3795 1.43733 23.3795C1.33007 23.3795 1.22387 23.3583 1.12486 23.3171C1.02585 23.2758 0.935986 23.2154 0.860453 23.1392C0.784299 23.0637 0.723854 22.9738 0.682604 22.8748C0.641355 22.7758 0.620117 22.6696 0.620117 22.5623C0.620117 22.4551 0.641355 22.3489 0.682604 22.2499C0.723854 22.1509 0.784299 22.061 0.860453 21.9855L3.59045 19.2555C3.04003 18.4347 2.79103 17.4486 2.88584 16.465C2.98065 15.4813 3.41341 14.5609 4.11045 13.8605L5.97108 11.9998L5.73545 11.7642C5.58246 11.6112 5.4965 11.4037 5.4965 11.1873C5.4965 10.971 5.58246 10.7635 5.73545 10.6105C5.88845 10.4575 6.09596 10.3715 6.31233 10.3715C6.5287 10.3715 6.73621 10.4575 6.8892 10.6105L8.34358 12.0648L10.6105 9.79795C10.7634 9.64496 10.971 9.55901 11.1873 9.55901C11.4037 9.55901 11.6112 9.64496 11.7642 9.79795C11.9172 9.95095 12.0032 10.1585 12.0032 10.3748C12.0032 10.5912 11.9172 10.7987 11.7642 10.9517L9.49733 13.2186L10.7811 14.5023L13.048 12.2355C13.1235 12.1593 13.2133 12.0989 13.3124 12.0576C13.4114 12.0164 13.5176 11.9951 13.6248 11.9951C13.7321 11.9951 13.8383 12.0164 13.9373 12.0576ZM7.14114 19.4513C7.8256 19.4616 8.48714 19.2048 8.98545 18.7355L10.8461 16.8748L7.12483 13.1536L5.2642 15.0142C4.79486 15.5125 4.53808 16.1741 4.54833 16.8585C4.55857 17.543 4.83503 18.1965 5.31907 18.6806C5.80312 19.1646 6.45667 19.4411 7.14114 19.4513Z" fill="#374146"/>
</svg>
