<svg width="12" height="12" viewBox="0 0 12 12" fill="none" xmlns="http://www.w3.org/2000/svg">
<path d="M11.625 6C11.6246 6.14905 11.5652 6.29188 11.4598 6.39727C11.3544 6.50267 11.2116 6.56207 11.0625 6.5625H6.5625V11.0625C6.5625 11.2117 6.50324 11.3548 6.39775 11.4602C6.29226 11.5657 6.14918 11.625 6 11.625C5.85082 11.625 5.70774 11.5657 5.60225 11.4602C5.49676 11.3548 5.4375 11.2117 5.4375 11.0625V6.5625H0.9375C0.788316 6.5625 0.645242 6.50324 0.539753 6.39775C0.434263 6.29226 0.375 6.14918 0.375 6C0.375 5.85082 0.434263 5.70774 0.539753 5.60225C0.645242 5.49676 0.788316 5.4375 0.9375 5.4375H5.4375V0.9375C5.4375 0.788316 5.49676 0.645242 5.60225 0.539753C5.70774 0.434263 5.85082 0.375 6 0.375C6.14918 0.375 6.29226 0.434263 6.39775 0.539753C6.50324 0.645242 6.5625 0.788316 6.5625 0.9375V5.4375H11.0625C11.2116 5.43793 11.3544 5.49733 11.4598 5.60273C11.5652 5.70812 11.6246 5.85095 11.625 6Z" fill="currentColor"/>
</svg>
