<svg width="16" height="16" viewBox="0 0 16 16" fill="none" xmlns="http://www.w3.org/2000/svg">
  <path
    d="M12.2349 3.73047C12.3036 3.73316 12.3712 3.7503 12.4331 3.78027C12.4951 3.81028 12.5504 3.85297 12.5952 3.90527C13.5036 4.81422 14.1219 5.97204 14.3726 7.23242C14.6232 8.49298 14.4952 9.79988 14.0034 10.9873C13.5117 12.1747 12.6783 13.1891 11.6099 13.9033C10.5415 14.6175 9.28556 14.9994 8.00049 15C6.71526 14.9995 5.45862 14.6176 4.39014 13.9033C3.32184 13.1891 2.48932 12.1745 1.99756 10.9873C1.50579 9.79988 1.37683 8.49298 1.62744 7.23242C1.87805 5.97205 2.49641 4.81422 3.40479 3.90527C3.50042 3.82337 3.62369 3.78031 3.74951 3.78516C3.87535 3.79002 3.99445 3.84259 4.0835 3.93164C4.17251 4.02068 4.22512 4.13981 4.22998 4.26562C4.2348 4.39141 4.19174 4.51474 4.10986 4.61035C3.34118 5.3795 2.81799 6.35924 2.60596 7.42578C2.39395 8.49261 2.50308 9.59867 2.91943 10.6035C3.3358 11.6083 4.04046 12.4671 4.94482 13.0713C5.84923 13.6755 6.91282 13.998 8.00049 13.998C9.08798 13.998 10.1509 13.6754 11.0552 13.0713C11.9596 12.4671 12.6652 11.6084 13.0815 10.6035C13.4978 9.59871 13.607 8.49255 13.395 7.42578C13.183 6.35915 12.6589 5.37955 11.8901 4.61035C11.8379 4.56558 11.7951 4.51019 11.7651 4.44824C11.7352 4.38635 11.718 4.3187 11.7153 4.25C11.7127 4.18117 11.7244 4.11199 11.7495 4.04785C11.7746 3.98373 11.8131 3.92566 11.8618 3.87695C11.9105 3.82826 11.9686 3.78979 12.0327 3.76465C12.0969 3.73951 12.166 3.72781 12.2349 3.73047ZM8.00049 1C8.13293 1.00012 8.26034 1.05282 8.354 1.14648C8.44763 1.24023 8.50049 1.3675 8.50049 1.5V8.5C8.50049 8.6325 8.44763 8.75977 8.354 8.85352C8.26034 8.94718 8.13293 8.99988 8.00049 9C7.86788 9 7.73976 8.94728 7.646 8.85352C7.55239 8.75977 7.50049 8.63248 7.50049 8.5V1.5C7.50049 1.36751 7.55239 1.24023 7.646 1.14648C7.73976 1.05272 7.86788 1 8.00049 1Z"
    fill="white" />
</svg>