<svg width="22" height="25" viewBox="0 0 22 25" fill="none" xmlns="http://www.w3.org/2000/svg">
<g id="Icon">
<path id="Vector" fill-rule="evenodd" clip-rule="evenodd" d="M10.374 24.6451C10.503 24.7147 10.6474 24.7508 10.794 24.7501C10.9406 24.7508 11.085 24.7147 11.214 24.6451C14.2647 22.9805 16.8107 20.525 18.5844 17.5364C20.3582 14.5478 21.2941 11.1366 21.294 7.66135V3.7501C21.3007 3.55256 21.2404 3.35854 21.1228 3.19966C21.0053 3.04077 20.8374 2.92638 20.6465 2.8751L11.0215 0.250101C10.873 0.206347 10.715 0.206347 10.5665 0.250101L0.94147 2.8751C0.750578 2.92638 0.582671 3.04077 0.465096 3.19966C0.34752 3.35854 0.287204 3.55256 0.29397 3.7501V7.66135C0.293792 11.1366 1.22975 14.5478 3.00349 17.5364C4.77723 20.525 7.32325 22.9805 10.374 24.6451ZM2.04397 7.66135V4.4151L10.794 2.0001L19.544 4.4151V7.66135C19.5451 10.7405 18.7375 13.7659 17.2019 16.4348C15.6663 19.1037 13.4566 21.3224 10.794 22.8689C8.13136 21.3224 5.92166 19.1037 4.38605 16.4348C2.85045 13.7659 2.0428 10.7405 2.04397 7.66135ZM10.2427 19.3076C10.399 19.433 10.5936 19.5009 10.794 19.5001C10.9734 19.4986 11.1481 19.4421 11.2943 19.338C11.4405 19.234 11.5512 19.0876 11.6113 18.9185C11.6715 18.7495 11.6782 18.566 11.6306 18.393C11.583 18.22 11.4834 18.0658 11.3452 17.9513C9.80271 16.7174 8.55859 15.1512 7.70563 13.3696C6.85266 11.5879 6.41285 9.63665 6.41899 7.66133V7.25008C6.41899 7.01801 6.3268 6.79545 6.1627 6.63136C5.99861 6.46726 5.77605 6.37508 5.54399 6.37508C5.31192 6.37508 5.08936 6.46726 4.92527 6.63136C4.76117 6.79545 4.66899 7.01801 4.66899 7.25008V7.66133C4.66329 9.89661 5.16143 12.1044 6.1264 14.1207C7.09136 16.137 8.49833 17.9099 10.2427 19.3076Z" fill="#008184"/>
</g>
</svg>
