<svg width="22" height="22" viewBox="0 0 22 22" fill="none" xmlns="http://www.w3.org/2000/svg">
<path d="M15.5 16H12.5C12.4343 16 12.3693 15.9871 12.3086 15.962C12.248 15.9369 12.1928 15.9 12.1464 15.8536C12.1 15.8072 12.0631 15.752 12.038 15.6914C12.0129 15.6307 12 15.5657 12 15.5V15C12 14.7348 11.8946 14.4804 11.7071 14.2929C11.5196 14.1054 11.2652 14 11 14C10.7348 14 10.4804 14.1054 10.2929 14.2929C10.1054 14.4804 10 14.7348 10 15V15.5C10 15.5657 9.9871 15.6307 9.96197 15.6914C9.93685 15.752 9.90002 15.8072 9.85359 15.8536C9.80716 15.9 9.75203 15.9369 9.69136 15.962C9.63069 15.9871 9.56567 16 9.5 16H6.5C6.43433 16 6.36931 15.9871 6.30864 15.962C6.24797 15.9369 6.19284 15.9 6.14641 15.8536C6.09998 15.8072 6.06315 15.752 6.03803 15.6914C6.0129 15.6307 5.99998 15.5657 6 15.5V13C5.46957 13 4.96086 12.7893 4.58579 12.4142C4.21071 12.0391 4 11.5304 4 11C4 10.4696 4.21071 9.96086 4.58579 9.58579C4.96086 9.21071 5.46957 9 6 9V6.5C5.99998 6.43433 6.0129 6.36931 6.03803 6.30864C6.06315 6.24797 6.09998 6.19284 6.14641 6.14641C6.19284 6.09998 6.24797 6.06315 6.30864 6.03803C6.36931 6.0129 6.43433 5.99998 6.5 6H9.5C9.56567 5.99998 9.63069 6.0129 9.69136 6.03803C9.75203 6.06315 9.80716 6.09998 9.85359 6.14641C9.90002 6.19284 9.93685 6.24797 9.96197 6.30864C9.9871 6.36931 10 6.43433 10 6.5V7C10 7.26522 10.1054 7.51957 10.2929 7.70711C10.4804 7.89464 10.7348 8 11 8C11.2652 8 11.5196 7.89464 11.7071 7.70711C11.8946 7.51957 12 7.26522 12 7V6.5C12 6.43433 12.0129 6.36931 12.038 6.30864C12.0631 6.24797 12.1 6.19284 12.1464 6.14641C12.1928 6.09998 12.248 6.06315 12.3086 6.03803C12.3693 6.0129 12.4343 5.99998 12.5 6H15.5C15.5657 5.99998 15.6307 6.0129 15.6914 6.03803C15.752 6.06315 15.8072 6.09998 15.8536 6.14641C15.9 6.19284 15.9369 6.24797 15.962 6.30864C15.9871 6.36931 16 6.43433 16 6.5V9C16.5304 9 17.0391 9.21071 17.4142 9.58579C17.7893 9.96086 18 10.4696 18 11C18 11.5304 17.7893 12.0391 17.4142 12.4142C17.0391 12.7893 16.5304 13 16 13V15.5C16 15.5657 15.9871 15.6307 15.962 15.6914C15.9369 15.752 15.9 15.8072 15.8536 15.8536C15.8072 15.9 15.752 15.9369 15.6914 15.962C15.6307 15.9871 15.5657 16 15.5 16ZM13 15H15V12.5C15 12.4343 15.0129 12.3693 15.038 12.3086C15.0631 12.248 15.1 12.1928 15.1464 12.1464C15.1928 12.1 15.248 12.0631 15.3086 12.038C15.3693 12.0129 15.4343 12 15.5 12H16C16.2652 12 16.5196 11.8946 16.7071 11.7071C16.8946 11.5196 17 11.2652 17 11C17 10.7348 16.8946 10.4804 16.7071 10.2929C16.5196 10.1054 16.2652 10 16 10H15.5C15.4343 10 15.3693 9.9871 15.3086 9.96197C15.248 9.93685 15.1928 9.90002 15.1464 9.85359C15.1 9.80716 15.0631 9.75203 15.038 9.69136C15.0129 9.63069 15 9.56567 15 9.5V7H13C13 7.53043 12.7893 8.03914 12.4142 8.41421C12.0391 8.78929 11.5304 9 11 9C10.4696 9 9.96086 8.78929 9.58579 8.41421C9.21071 8.03914 9 7.53043 9 7H7V9.5C7.00002 9.56567 6.9871 9.63069 6.96197 9.69136C6.93685 9.75203 6.90002 9.80716 6.85359 9.85359C6.80716 9.90002 6.75203 9.93685 6.69136 9.96197C6.63069 9.9871 6.56567 10 6.5 10H6C5.73478 10 5.48043 10.1054 5.29289 10.2929C5.10536 10.4804 5 10.7348 5 11C5 11.2652 5.10536 11.5196 5.29289 11.7071C5.48043 11.8946 5.73478 12 6 12H6.5C6.56567 12 6.63069 12.0129 6.69136 12.038C6.75203 12.0631 6.80716 12.1 6.85359 12.1464C6.90002 12.1928 6.93685 12.248 6.96197 12.3086C6.9871 12.3693 7.00002 12.4343 7 12.5V15H9C9 14.4696 9.21071 13.9609 9.58579 13.5858C9.96086 13.2107 10.4696 13 11 13C11.5304 13 12.0391 13.2107 12.4142 13.5858C12.7893 13.9609 13 14.4696 13 15Z" fill="#7F8C8D"/>
</svg>
