<svg width="12" height="12" viewBox="0 0 12 12" fill="none" xmlns="http://www.w3.org/2000/svg">
<path fill-rule="evenodd" clip-rule="evenodd" d="M4.74114 0.852311C5.13657 0.784741 5.53698 0.75056 5.93814 0.750128C6.37524 0.747623 6.81179 0.781804 7.24318 0.852311C7.57222 0.886148 7.87862 1.03554 8.10794 1.27393C8.33725 1.51233 8.47463 1.8243 8.49567 2.15442V4.5397C8.4971 4.70555 8.46584 4.87005 8.40365 5.0238C8.34147 5.17756 8.24959 5.31754 8.13327 5.43577C8.01694 5.55399 7.87846 5.64812 7.72573 5.71278C7.57301 5.77745 7.40903 5.81137 7.24318 5.81262H4.74112C4.32974 5.8195 3.937 5.98538 3.64526 6.27549C3.35352 6.56561 3.18543 6.95741 3.17625 7.36874V8.5132H2.31497C1.58697 8.5132 1.16172 7.9848 0.983662 7.2432C0.748529 6.41087 0.748529 5.52968 0.983662 4.69735C1.05293 4.33516 1.24795 4.00908 1.53428 3.77671C1.82061 3.54433 2.17984 3.4206 2.54854 3.42735H5.99363V3.10912H3.48866V2.15443C3.48866 1.43156 3.68112 1.03956 4.74114 0.852311ZM4.85052 1.59473C4.77109 1.54323 4.67813 1.51651 4.58347 1.51797C4.45771 1.51935 4.33763 1.57052 4.24953 1.66026C4.16143 1.75001 4.11248 1.87101 4.11342 1.99677C4.11371 2.09144 4.14214 2.18389 4.1951 2.26236C4.24806 2.34084 4.32315 2.40179 4.41084 2.43748C4.49853 2.47318 4.59485 2.48199 4.68755 2.46281C4.78026 2.44362 4.86517 2.39731 4.93149 2.32975C4.99782 2.26219 5.04255 2.17644 5.06002 2.0834C5.07749 1.99035 5.0669 1.89421 5.0296 1.8072C4.99229 1.72019 4.92996 1.64623 4.85052 1.59473ZM8.80805 4.53969V3.42734H9.74813C10.4771 3.42734 10.8207 3.9726 11.0006 4.69734C11.2577 5.52649 11.2577 6.41403 11.0006 7.24319C10.7474 8.00538 10.4761 8.51319 9.74813 8.51319H5.9936V8.83142H8.49566V9.78611C8.49566 10.509 7.87381 10.8764 7.24318 11.059C6.42861 11.3138 5.55568 11.3138 4.74111 11.059C4.07895 10.8643 3.48863 10.465 3.48863 9.78611V7.40084C3.48985 7.06713 3.62156 6.74715 3.85561 6.50928C4.08966 6.27141 4.40747 6.13454 4.74111 6.12791H7.24318C7.65884 6.11713 8.05413 5.94562 8.34596 5.64944C8.63779 5.35325 8.80343 4.95546 8.80805 4.53969ZM7.6682 9.54486C7.58869 9.49323 7.49562 9.46644 7.40083 9.4679L7.40085 9.46788C7.33873 9.46823 7.27728 9.48082 7.22003 9.50494C7.16278 9.52905 7.11084 9.56421 7.06718 9.60841C7.02353 9.65261 6.98901 9.70498 6.96561 9.76252C6.9422 9.82007 6.93037 9.88166 6.93078 9.94379C6.93049 10.0386 6.95843 10.1313 7.01104 10.2102C7.06364 10.289 7.13854 10.3505 7.22618 10.3866C7.31381 10.4227 7.41023 10.432 7.50313 10.4131C7.59603 10.3943 7.68122 10.3482 7.74784 10.2807C7.81445 10.2133 7.85948 10.1275 7.87719 10.0344C7.89489 9.94128 7.88447 9.84499 7.84725 9.75781C7.81003 9.67062 7.7477 9.59649 7.6682 9.54486Z" fill="rgba(21, 173, 223)"/>
</svg>
