<svg width="17" height="20" viewBox="0 0 17 20" fill="none" xmlns="http://www.w3.org/2000/svg">
<path d="M16.5 18.72C16.5 18.911 16.421 19.0941 16.2803 19.2291C16.1397 19.3641 15.9489 19.44 15.75 19.44H9C6.81196 19.44 4.71354 18.6056 3.16637 17.1203C1.61919 15.635 0.75 13.6205 0.75 11.52C0.75 9.41948 1.61919 7.405 3.16637 5.91971C4.71354 4.43442 6.81196 3.59999 9 3.59999H13.9425L11.4675 1.23119C11.3263 1.09561 11.2469 0.911731 11.2469 0.719993C11.2469 0.528256 11.3263 0.344372 11.4675 0.208793C11.6087 0.0732147 11.8003 -0.00295258 12 -0.00295258C12.1997 -0.00295258 12.3913 0.0732147 12.5325 0.208793L16.2825 3.80879C16.3528 3.87573 16.4086 3.95536 16.4467 4.0431C16.4847 4.13084 16.5043 4.22495 16.5043 4.31999C16.5043 4.41504 16.4847 4.50915 16.4467 4.59689C16.4086 4.68463 16.3528 4.76426 16.2825 4.83119L12.5325 8.43119C12.4628 8.49868 12.3798 8.55224 12.2884 8.5888C12.197 8.62535 12.099 8.64417 12 8.64417C11.901 8.64417 11.803 8.62535 11.7116 8.5888C11.6202 8.55224 11.5372 8.49868 11.4675 8.43119C11.3972 8.36426 11.3414 8.28463 11.3033 8.19689C11.2653 8.10915 11.2457 8.01504 11.2457 7.91999C11.2457 7.82495 11.2653 7.73084 11.3033 7.6431C11.3414 7.55536 11.3972 7.47573 11.4675 7.40879L13.9425 5.03999H9C7.20979 5.03999 5.4929 5.72271 4.22703 6.93794C2.96116 8.15318 2.25 9.80139 2.25 11.52C2.25 13.2386 2.96116 14.8868 4.22703 16.102C5.4929 17.3173 7.20979 18 9 18H15.75C15.9489 18 16.1397 18.0759 16.2803 18.2109C16.421 18.3459 16.5 18.529 16.5 18.72Z" fill="#374146"/>
</svg>
