<svg viewBox="0 0 24 24" fill="none" xmlns="http://www.w3.org/2000/svg">
<path d="M8.79156 16.2734C8.79156 15.9531 8.87359 15.7285 9.03766 15.5996C9.20563 15.4668 9.40875 15.4004 9.64703 15.4004C9.88531 15.4004 10.0884 15.4668 10.2564 15.5996C10.4283 15.7285 10.5142 15.9531 10.5142 16.2734C10.5142 16.5859 10.4283 16.8125 10.2564 16.9531C10.0884 17.0898 9.88531 17.1582 9.64703 17.1582C9.40875 17.1582 9.20563 17.0898 9.03766 16.9531C8.87359 16.8125 8.79156 16.5859 8.79156 16.2734ZM15.3452 7.88281L15.1108 10.1211L17.3608 9.48242L17.5366 10.7305L15.433 10.918L16.7983 12.7402L15.6616 13.3555L14.6713 11.3926L13.7866 13.3496L12.603 12.7402L13.9565 10.918L11.8647 10.7246L12.0639 9.48242L14.2729 10.1211L14.0385 7.88281H15.3452Z" fill="#171E21"/>
</svg>
