<svg width="18" height="20" viewBox="0 0 18 20" fill="none" xmlns="http://www.w3.org/2000/svg">
<path d="M0.875 9.375C1.04076 9.375 1.20017 9.44041 1.31738 9.55762C1.43459 9.67483 1.5 9.83424 1.5 10C1.49971 11.4436 1.91622 12.8565 2.69922 14.0693C3.48229 15.2822 4.59918 16.244 5.91504 16.8379C7.23071 17.4316 8.68986 17.633 10.1172 17.418C11.5448 17.2029 12.8804 16.5802 13.9629 15.625H10.875C10.7092 15.625 10.5498 15.5596 10.4326 15.4424C10.3154 15.3252 10.25 15.1658 10.25 15C10.25 14.8342 10.3154 14.6748 10.4326 14.5576C10.5498 14.4404 10.7092 14.375 10.875 14.375H15.25C15.4158 14.375 15.5752 14.4404 15.6924 14.5576C15.8096 14.6748 15.875 14.8342 15.875 15V19.375C15.875 19.5408 15.8096 19.7002 15.6924 19.8174C15.5752 19.9346 15.4158 20 15.25 20C15.0842 20 14.9248 19.9346 14.8076 19.8174C14.6904 19.7002 14.625 19.5408 14.625 19.375V16.7002C13.3493 17.7708 11.7946 18.4552 10.1436 18.6729C8.49245 18.8905 6.81321 18.6322 5.30371 17.9287C3.79415 17.2251 2.51627 16.1046 1.62109 14.7002C0.726111 13.2959 0.250453 11.6653 0.25 10C0.25 9.83424 0.315407 9.67483 0.432617 9.55762C0.549827 9.44041 0.70924 9.375 0.875 9.375ZM2.75 0C2.91576 0 3.07517 0.065407 3.19238 0.182617C3.30959 0.299827 3.375 0.45924 3.375 0.625V3.2998C4.94647 1.96923 6.9409 1.24254 9 1.25C11.3206 1.25 13.5466 2.17156 15.1875 3.8125C16.8284 5.45344 17.75 7.67936 17.75 10C17.75 10.1658 17.6846 10.3252 17.5674 10.4424C17.4502 10.5596 17.2908 10.625 17.125 10.625C16.9592 10.625 16.7998 10.5596 16.6826 10.4424C16.5654 10.3252 16.5 10.1658 16.5 10C16.5003 8.55639 16.0838 7.14348 15.3008 5.93066C14.5177 4.71781 13.4008 3.75603 12.085 3.16211C10.7693 2.5684 9.31014 2.36702 7.88281 2.58203C6.45524 2.7971 5.11958 3.41977 4.03711 4.375H7.125C7.29076 4.375 7.45017 4.44041 7.56738 4.55762C7.68459 4.67483 7.75 4.83424 7.75 5C7.75 5.16576 7.68459 5.32517 7.56738 5.44238C7.45017 5.55959 7.29076 5.625 7.125 5.625H2.75C2.58424 5.625 2.42483 5.55959 2.30762 5.44238C2.19041 5.32517 2.125 5.16576 2.125 5V0.625C2.125 0.45924 2.19041 0.299827 2.30762 0.182617C2.42483 0.065407 2.58424 0 2.75 0Z" fill="#C9D2D2"/>
</svg>
