<svg width="18" height="19" viewBox="0 0 18 19" fill="none" xmlns="http://www.w3.org/2000/svg">
<path d="M16.875 9.01915C16.875 11.1077 16.0453 13.1108 14.5685 14.5876C13.0916 16.0645 11.0886 16.8942 9 16.8942C8.85082 16.8942 8.70774 16.8349 8.60225 16.7294C8.49676 16.6239 8.4375 16.4808 8.4375 16.3317C8.4375 16.1825 8.49676 16.0394 8.60225 15.9339C8.70774 15.8284 8.85082 15.7692 9 15.7692C10.5435 15.7688 12.0403 15.2395 13.2409 14.2694C14.4415 13.2994 15.2734 11.9471 15.5978 10.4381C15.9223 8.92901 15.7198 7.35435 15.024 5.97653C14.3282 4.5987 13.1813 3.50095 11.7743 2.86624C10.3673 2.23153 8.78527 2.09821 7.29189 2.48849C5.79852 2.87877 4.48402 3.76909 3.56748 5.01104C2.65094 6.25299 2.18773 7.77154 2.25506 9.3136C2.32239 10.8557 2.9162 12.3281 3.9375 13.4854V10.7067C3.9375 10.5575 3.99676 10.4144 4.10225 10.3089C4.20774 10.2034 4.35082 10.1442 4.5 10.1442C4.64918 10.1442 4.79226 10.2034 4.89775 10.3089C5.00324 10.4144 5.0625 10.5575 5.0625 10.7067V14.6442C5.0625 14.7933 5.00324 14.9364 4.89775 15.0419C4.79226 15.1474 4.64918 15.2067 4.5 15.2067H0.5625C0.413316 15.2067 0.270242 15.1474 0.164752 15.0419C0.0592632 14.9364 0 14.7933 0 14.6442C0 14.495 0.0592632 14.3519 0.164752 14.2464C0.270242 14.1409 0.413316 14.0817 0.5625 14.0817H2.97C2.15556 13.1121 1.58694 11.9604 1.31237 10.7242C1.03779 9.48807 1.06535 8.20394 1.39271 6.98072C1.72008 5.75749 2.33759 4.63125 3.19288 3.69749C4.04817 2.76373 5.11603 2.04998 6.30589 1.61678C7.49575 1.18358 8.77254 1.04369 10.028 1.20898C11.2834 1.37428 12.4805 1.83988 13.5177 2.5663C14.5548 3.29272 15.4016 4.25854 15.986 5.38186C16.5705 6.50519 16.8754 7.75288 16.875 9.01915Z" fill="currentColor"/>
</svg>
