<svg width="20" height="20" viewBox="0 0 20 20" fill="none" xmlns="http://www.w3.org/2000/svg">
<rect width="20" height="20" rx="3" fill="#008184"/>
<path fill-rule="evenodd" clip-rule="evenodd" d="M11.3039 6.1588L9.5539 14.0338C9.53103 14.1305 9.47633 14.2167 9.39858 14.2786C9.32082 14.3405 9.22452 14.3745 9.12515 14.375C9.09291 14.3741 9.06077 14.3712 9.0289 14.3663C8.9153 14.3406 8.81653 14.2709 8.75421 14.1725C8.69189 14.0741 8.6711 13.955 8.6964 13.8413L10.4464 5.9663C10.4723 5.85302 10.5421 5.75464 10.6404 5.69268C10.7387 5.63072 10.8576 5.61022 10.971 5.63567C11.0844 5.66113 11.1831 5.73046 11.2454 5.8285C11.3078 5.92654 11.3289 6.0453 11.3039 6.1588ZM7.27452 7.65501L5.3189 10L7.27452 12.345C7.34789 12.4347 7.38305 12.5497 7.37241 12.6651C7.36177 12.7805 7.30618 12.8871 7.21765 12.9619C7.13847 13.0263 7.0397 13.0618 6.93765 13.0625C6.87332 13.0629 6.80972 13.049 6.75144 13.0218C6.69317 12.9945 6.6417 12.9546 6.60077 12.905L4.41327 10.28C4.34754 10.2015 4.31152 10.1024 4.31152 10C4.31152 9.89763 4.34754 9.79851 4.41327 9.72001L6.60077 7.09501C6.63754 7.05077 6.68266 7.01421 6.73356 6.98741C6.78447 6.96061 6.84015 6.9441 6.89743 6.93882C6.95471 6.93353 7.01247 6.93959 7.06741 6.95663C7.12236 6.97367 7.17341 7.00137 7.21765 7.03814C7.26188 7.07491 7.29845 7.12003 7.32525 7.17093C7.35205 7.22183 7.36856 7.27751 7.37384 7.3348C7.37912 7.39208 7.37307 7.44984 7.35603 7.50478C7.33899 7.55973 7.31129 7.61077 7.27452 7.65501ZM13.3995 12.905L15.587 10.28C15.6527 10.2015 15.6888 10.1024 15.6888 10C15.6888 9.89763 15.6527 9.79851 15.587 9.72001L13.3995 7.09501C13.3627 7.05077 13.3176 7.01421 13.2667 6.98741C13.2158 6.96061 13.1601 6.9441 13.1029 6.93882C13.0456 6.93353 12.9878 6.93959 12.9329 6.95663C12.8779 6.97367 12.8269 7.00137 12.7826 7.03814C12.7384 7.07491 12.7018 7.12003 12.675 7.17093C12.6482 7.22183 12.6317 7.27751 12.6264 7.3348C12.6212 7.39208 12.6272 7.44984 12.6443 7.50478C12.6613 7.55973 12.689 7.61077 12.7258 7.65501L14.6814 10L12.7258 12.345C12.6524 12.4347 12.6172 12.5497 12.6279 12.6651C12.6385 12.7805 12.6941 12.8871 12.7826 12.9619C12.8618 13.0263 12.9606 13.0618 13.0626 13.0625C13.127 13.0629 13.1906 13.049 13.2488 13.0218C13.3071 12.9945 13.3586 12.9546 13.3995 12.905Z" fill="white"/>
</svg>
