<svg width="9" height="9" viewBox="0 0 9 9" fill="none" xmlns="http://www.w3.org/2000/svg">
<path d="M4.0379 8.0729C3.9721 8.07328 3.90686 8.06067 3.84595 8.03578C3.78503 8.0109 3.72962 7.97424 3.6829 7.9279L0.147899 4.3929C0.101035 4.34642 0.0638377 4.29112 0.0384533 4.23019C0.013069 4.16926 0 4.1039 0 4.0379C0 3.97189 0.013069 3.90654 0.0384533 3.84561C0.0638377 3.78468 0.101035 3.72938 0.147899 3.6829L3.6829 0.147899C3.72938 0.101035 3.78468 0.0638377 3.84561 0.0384533C3.90654 0.013069 3.97189 0 4.0379 0C4.1039 0 4.16926 0.013069 4.23019 0.0384533C4.29112 0.0638377 4.34642 0.101035 4.3929 0.147899L7.9279 3.6829C7.97476 3.72938 8.01196 3.78468 8.03734 3.84561C8.06273 3.90654 8.0758 3.97189 8.0758 4.0379C8.0758 4.1039 8.06273 4.16926 8.03734 4.23019C8.01196 4.29112 7.97476 4.34642 7.9279 4.3929L4.3929 7.9279C4.34618 7.97424 4.29077 8.0109 4.22985 8.03578C4.16893 8.06067 4.1037 8.07328 4.0379 8.0729ZM1.2079 4.0379L4.0379 6.8679L6.8679 4.0379L4.0379 1.2079L1.2079 4.0379Z" fill="currentColor"/>
</svg>
