<svg width="10" height="10" viewBox="0 0 10 10" fill="none" xmlns="http://www.w3.org/2000/svg">
<path d="M8.54785 5.5332C8.60509 5.55483 8.65554 5.593 8.69141 5.64258C8.72724 5.69214 8.74737 5.7514 8.75 5.8125C8.74231 6.73094 8.38332 7.61202 7.74707 8.27441C7.11085 8.93663 6.24537 9.33035 5.32812 9.375H5.3125C5.23204 9.37468 5.15461 9.34295 5.09668 9.28711C5.06635 9.25812 5.04198 9.2231 5.02539 9.18457C5.00883 9.14599 5.00016 9.10448 5 9.0625V8.125C5.00013 8.06509 5.01731 8.00638 5.0498 7.95605C5.08251 7.90562 5.12974 7.86547 5.18457 7.84082L5.40039 7.74414C6.48903 7.25768 7.45144 6.52697 8.21289 5.60938C8.25527 5.56537 8.30955 5.53493 8.36914 5.52148C8.42864 5.50807 8.49077 5.51174 8.54785 5.5332ZM4.00293 7.3877C3.9608 7.67916 3.81539 7.94588 3.59277 8.13867C3.37018 8.33143 3.08546 8.43742 2.79102 8.4375H1.875C1.79212 8.4375 1.7129 8.4043 1.6543 8.3457C1.5957 8.2871 1.5625 8.20787 1.5625 8.125V7.20898C1.56257 6.91454 1.66857 6.62982 1.86133 6.40723C2.05412 6.1846 2.32084 6.03919 2.6123 5.99707L4.00293 7.3877ZM9.0625 0.625C9.10483 0.624948 9.14662 0.63376 9.18555 0.650391C9.22442 0.667024 9.25987 0.691088 9.28906 0.72168C9.31829 0.752374 9.34072 0.789365 9.35547 0.829102C9.37017 0.868779 9.37712 0.910863 9.375 0.953125C9.3149 2.30252 8.8914 3.61058 8.14941 4.73926C7.4074 5.86796 6.37418 6.77505 5.15918 7.36523C5.10079 7.39297 5.03536 7.40268 4.97168 7.3916C4.90785 7.3804 4.84831 7.3488 4.80273 7.30273L2.69727 5.19727C2.6512 5.15169 2.6196 5.09215 2.6084 5.02832C2.59732 4.96464 2.60703 4.89921 2.63477 4.84082C3.2262 3.62356 4.13589 2.58885 5.26758 1.84668C6.39922 1.10459 7.71045 0.682336 9.0625 0.625ZM4.1875 1.25C4.25225 1.24938 4.31596 1.26872 4.36914 1.30566C4.4222 1.34257 4.46237 1.39529 4.48438 1.45605C4.50634 1.51649 4.50897 1.58245 4.49219 1.64453C4.47543 1.70651 4.43993 1.76161 4.39062 1.80273C3.47304 2.56419 2.74232 3.5266 2.25586 4.61523L2.15918 4.83105C2.13231 4.88296 2.09128 4.92622 2.04102 4.95605C1.99077 4.98584 1.9334 5.00128 1.875 5H0.9375C0.895511 4.99984 0.854011 4.99117 0.81543 4.97461C0.776888 4.95801 0.741881 4.93365 0.712891 4.90332C0.657053 4.84539 0.62532 4.76796 0.625 4.6875C0.665776 3.76748 1.05805 2.89831 1.7207 2.25879C2.38351 1.61924 3.26648 1.2579 4.1875 1.25ZM6.00586 2.52441C5.76352 2.57269 5.54095 2.69148 5.36621 2.86621C5.19148 3.04094 5.07269 3.26352 5.02441 3.50586C4.97618 3.74833 5.00012 4.00011 5.09473 4.22852C5.18933 4.45691 5.35012 4.65171 5.55566 4.78906C5.76123 4.92641 6.00277 5 6.25 5C6.58152 5 6.89937 4.86821 7.13379 4.63379C7.36821 4.39937 7.5 4.08152 7.5 3.75C7.5 3.50277 7.42641 3.26123 7.28906 3.05566C7.15171 2.85012 6.95691 2.68933 6.72852 2.59473C6.50011 2.50012 6.24833 2.47618 6.00586 2.52441ZM6.25 3.125C6.59518 3.125 6.875 3.40482 6.875 3.75C6.875 4.09518 6.59518 4.375 6.25 4.375C5.90482 4.375 5.625 4.09518 5.625 3.75C5.625 3.40482 5.90482 3.125 6.25 3.125Z" fill="#C1AB15"/>
</svg>
