<svg width="116" height="116" viewBox="0 0 116 116" fill="none" xmlns="http://www.w3.org/2000/svg">
<g clip-path="url(#clip0_538_204195)">
<path d="M58.0001 116C89.7565 116 115.5 90.0398 115.5 58.0168C115.5 25.9939 89.7565 0.0341797 58.0001 0.0341797C26.2438 0.0341797 0.500244 25.9939 0.500244 58.0168C0.500244 90.0398 26.2438 116 58.0001 116Z" fill="url(#paint0_linear_538_204195)"/>
<path d="M57.9997 111.134C87.091 111.134 110.674 87.3527 110.674 58.0171C110.674 28.6816 87.091 4.90039 57.9997 4.90039C28.9084 4.90039 5.3252 28.6816 5.3252 58.0171C5.3252 87.3527 28.9084 111.134 57.9997 111.134Z" fill="url(#paint1_linear_538_204195)"/>
<path d="M57.9999 0.510411C73.2185 0.510411 87.526 6.49923 98.2903 17.354C109.055 28.2087 114.994 42.6363 114.994 57.9827C114.994 73.329 109.055 87.7566 98.2903 98.6114C87.526 109.466 73.2185 115.455 57.9999 115.455C42.7813 115.455 28.4738 109.466 17.7095 98.6114C6.94512 87.7566 1.00616 73.329 1.00616 57.9827C1.00616 42.6363 6.94512 28.2087 17.7095 17.354C28.4401 6.49923 42.7476 0.510411 57.9999 0.510411ZM57.9999 0C26.2467 0 0.5 25.9629 0.5 57.9827C0.5 90.0024 26.2467 115.965 57.9999 115.965C89.7531 115.965 115.5 90.0024 115.5 57.9827C115.5 25.9629 89.7531 0 57.9999 0Z" fill="url(#paint2_linear_538_204195)"/>
<g clip-path="url(#clip1_538_204195)">
<path fill-rule="evenodd" clip-rule="evenodd" d="M100.636 57.8574C100.636 46.3904 91.2841 37.0771 79.8214 37.0771C78.766 37.0771 77.6813 37.1378 76.6259 37.3198C67.7138 38.6243 61.7332 45.2679 58.3911 50.3644C55.0491 45.2679 49.0685 38.6243 40.1564 37.3198C39.101 37.1682 38.0163 37.0771 36.9609 37.0771C25.4688 37.0771 16.1462 46.3904 16.1462 57.8574C16.1462 69.3245 25.4982 78.6377 36.9609 78.6377C38.0163 78.6377 39.101 78.577 40.1857 78.395C49.0979 77.0602 55.0784 70.4166 58.4205 65.3201C61.7625 70.4166 67.7431 77.0602 76.6552 78.395C77.7106 78.5467 78.7953 78.6377 79.88 78.6377C91.2841 78.6377 100.636 69.3245 100.636 57.8574ZM39.1301 71.1143C38.3972 71.2357 37.6643 71.266 36.9314 71.266C29.3678 71.266 23.2407 65.2291 23.2407 57.8574C23.2407 50.4554 29.3971 44.4488 36.9607 44.4488C37.6936 44.4488 38.4266 44.5095 39.1595 44.6005C47.5733 45.8443 52.7036 54.4294 54.4626 57.8574C52.6743 61.3157 47.5146 69.8705 39.1301 71.1143ZM77.6226 44.6005C69.2088 45.8443 64.0491 54.4294 62.3195 57.8574C64.0491 61.2854 69.2088 69.8705 77.6226 71.1143C78.3555 71.2053 79.0884 71.266 79.8213 71.266C87.3557 71.266 93.5121 65.2594 93.5121 57.8574C93.5121 50.4857 87.385 44.4488 79.8213 44.4488C79.0884 44.4488 78.3555 44.5095 77.6226 44.6005ZM31.0898 55.6314H43.6782V59.6266H31.0898V55.6314ZM85.6304 59.6557H81.3852V63.855H77.3168V59.6557H73.0715V55.6314H77.3168V51.4322H81.3852V55.6314H85.6304V59.6557Z" fill="white"/>
</g>
</g>
<defs>
<linearGradient id="paint0_linear_538_204195" x1="57.9879" y1="0.0148862" x2="57.9879" y2="115.989" gradientUnits="userSpaceOnUse">
<stop stop-color="#BDC7C7"/>
<stop offset="0.8424" stop-color="#9CABAC"/>
<stop offset="1" stop-color="#95A5A6"/>
</linearGradient>
<linearGradient id="paint1_linear_538_204195" x1="57.9875" y1="4.88613" x2="57.9875" y2="111.119" gradientUnits="userSpaceOnUse">
<stop stop-color="#BDC7C7" stop-opacity="0"/>
<stop offset="0.1413" stop-color="#BDC7C7" stop-opacity="0.1413"/>
<stop offset="1" stop-color="#BDC7C7"/>
</linearGradient>
<linearGradient id="paint2_linear_538_204195" x1="57.9877" y1="0.0147339" x2="57.9877" y2="115.989" gradientUnits="userSpaceOnUse">
<stop stop-color="white"/>
<stop offset="0.1413" stop-color="white" stop-opacity="0.8587"/>
<stop offset="1" stop-color="white" stop-opacity="0"/>
</linearGradient>
<clipPath id="clip0_538_204195">
<rect width="115" height="116" fill="white" transform="translate(0.5)"/>
</clipPath>
<clipPath id="clip1_538_204195">
<rect width="84.4898" height="41.5606" fill="white" transform="translate(16.1462 37.0771)"/>
</clipPath>
</defs>
</svg>
