<svg width="19" height="22" viewBox="0 0 19 22" fill="none" xmlns="http://www.w3.org/2000/svg">
<path d="M1 22C0.734805 22 0.480491 21.8946 0.29297 21.7071C0.105448 21.5195 6.89239e-05 21.2652 0 21V1.00002C5.27166e-05 0.823829 0.0466413 0.650778 0.135052 0.498373C0.223462 0.345969 0.350558 0.21962 0.50348 0.132109C0.656402 0.0445981 0.829726 -0.000969744 1.00591 1.56488e-05C1.1821 0.00100104 1.35491 0.048505 1.50684 0.137721L18.5068 10.1377C18.657 10.2261 18.7815 10.3521 18.868 10.5033C18.9545 10.6546 19 10.8258 19 11C19 11.1743 18.9545 11.3455 18.868 11.4967C18.7815 11.6479 18.657 11.774 18.5068 11.8623L1.50684 21.8623C1.3532 21.9526 1.17821 22.0002 1 22ZM2 2.74807V19.252L16.0273 11L2 2.74807Z" fill="black"/>
</svg>
