<svg width="18" height="19" viewBox="0 0 18 19" fill="none" xmlns="http://www.w3.org/2000/svg">
<path d="M9 0.757965C7.26942 0.757965 5.57769 1.27114 4.13876 2.23261C2.69983 3.19407 1.57832 4.56063 0.916058 6.15949C0.253791 7.75834 0.080512 9.51767 0.418133 11.215C0.755753 12.9123 1.58911 14.4714 2.81282 15.6951C4.03653 16.9189 5.59563 17.7522 7.29296 18.0898C8.9903 18.4275 10.7496 18.2542 12.3485 17.5919C13.9473 16.9296 15.3139 15.8081 16.2754 14.3692C17.2368 12.9303 17.75 11.2386 17.75 9.50797C17.75 7.18732 16.8281 4.96172 15.1872 3.32078C13.5462 1.67984 11.3206 0.757965 9 0.757965ZM13.1938 12.8142C13.2523 12.8723 13.2988 12.9414 13.3306 13.0176C13.3623 13.0938 13.3786 13.1755 13.3786 13.258C13.3786 13.3405 13.3623 13.4222 13.3306 13.4983C13.2988 13.5745 13.2523 13.6436 13.1938 13.7017C13.1357 13.7603 13.0665 13.8068 12.9904 13.8385C12.9142 13.8703 12.8325 13.8866 12.75 13.8866C12.6675 13.8866 12.5858 13.8703 12.5096 13.8385C12.4335 13.8068 12.3644 13.7603 12.3063 13.7017L9 10.3955L5.69375 13.7017C5.63565 13.7603 5.56653 13.8068 5.49036 13.8385C5.4142 13.8703 5.33251 13.8866 5.25 13.8866C5.1675 13.8866 5.08581 13.8703 5.00964 13.8385C4.93348 13.8068 4.86436 13.7603 4.80625 13.7017C4.74767 13.6436 4.70118 13.5745 4.66945 13.4983C4.63772 13.4222 4.62138 13.3405 4.62138 13.258C4.62138 13.1755 4.63772 13.0938 4.66945 13.0176C4.70118 12.9414 4.74767 12.8723 4.80625 12.8142L8.1125 9.50797L4.80625 6.20171C4.68856 6.08403 4.62245 5.9244 4.62245 5.75797C4.62245 5.59153 4.68856 5.4319 4.80625 5.31422C4.92394 5.19653 5.08357 5.13041 5.25 5.13041C5.41644 5.13041 5.57606 5.19653 5.69375 5.31422L9 8.62047L12.3063 5.31422C12.4239 5.19653 12.5836 5.13041 12.75 5.13041C12.9164 5.13041 13.0761 5.19653 13.1938 5.31422C13.3114 5.4319 13.3776 5.59153 13.3776 5.75797C13.3776 5.9244 13.3114 6.08403 13.1938 6.20171L9.8875 9.50797L13.1938 12.8142Z" fill="#BDC7C7"/>
</svg>
