<svg width="17" height="17" viewBox="0 0 17 17" fill="none" xmlns="http://www.w3.org/2000/svg">
<path d="M15.9424 15.0564L11.5674 10.6814C12.5815 9.43962 13.0796 7.85567 12.9588 6.25701C12.838 4.65836 12.1074 3.16727 10.9182 2.09204C9.72904 1.01682 8.17213 0.439697 6.56943 0.480005C4.96672 0.520313 3.44079 1.17497 2.30715 2.30861C1.1735 3.44225 0.518848 4.96819 0.47854 6.57089C0.438232 8.1736 1.01536 9.73051 2.09058 10.9197C3.1658 12.1089 4.6569 12.8394 6.25555 12.9603C7.8542 13.0811 9.43816 12.5829 10.6799 11.5689L15.0549 15.9439C15.113 16.0024 15.1821 16.0489 15.2583 16.0807C15.3344 16.1124 15.4161 16.1287 15.4986 16.1287C15.5812 16.1287 15.6628 16.1124 15.739 16.0807C15.8152 16.0489 15.8843 16.0024 15.9424 15.9439C16.001 15.8858 16.0475 15.8166 16.0792 15.7405C16.1109 15.6643 16.1273 15.5826 16.1273 15.5001C16.1273 15.4176 16.1109 15.3359 16.0792 15.2598C16.0475 15.1836 16.001 15.1145 15.9424 15.0564ZM6.74865 11.7501C5.75974 11.7501 4.79304 11.4569 3.9708 10.9075C3.14855 10.3581 2.50769 9.57716 2.12925 8.66353C1.75081 7.7499 1.65179 6.74457 1.84472 5.77466C2.03765 4.80476 2.51385 3.91384 3.21311 3.21458C3.91238 2.51532 4.80329 2.03911 5.7732 1.84619C6.7431 1.65326 7.74843 1.75228 8.66206 2.13071C9.5757 2.50915 10.3566 3.15002 10.906 3.97226C11.4554 4.79451 11.7486 5.76121 11.7486 6.75011C11.7486 8.07619 11.2219 9.34796 10.2842 10.2856C9.3465 11.2233 8.07473 11.7501 6.74865 11.7501Z" fill="#374146"/>
</svg>
