<svg width="16" height="17" viewBox="0 0 16 17" fill="none" xmlns="http://www.w3.org/2000/svg">
<path d="M15.811 15.4037L11.3384 10.9311C12.3751 9.6616 12.8843 8.04229 12.7608 6.40796C12.6373 4.77363 11.8904 3.24926 10.6747 2.15004C9.45898 1.05082 7.86732 0.460814 6.22884 0.502022C4.59037 0.543229 3.03038 1.2125 1.87144 2.37144C0.712496 3.53038 0.0432295 5.09037 0.00202189 6.72884C-0.0391857 8.36732 0.550817 9.95898 1.65004 11.1747C2.74926 12.3904 4.27363 13.1373 5.90796 13.2608C7.54229 13.3843 9.1616 12.8751 10.4311 11.8384L14.9037 16.311C14.9631 16.3709 15.0338 16.4184 15.1116 16.4509C15.1895 16.4833 15.273 16.5 15.3573 16.5C15.4417 16.5 15.5252 16.4833 15.6031 16.4509C15.6809 16.4184 15.7516 16.3709 15.811 16.311C15.8709 16.2516 15.9184 16.1809 15.9509 16.1031C15.9833 16.0252 16 15.9417 16 15.8573C16 15.773 15.9833 15.6895 15.9509 15.6116C15.9184 15.5338 15.8709 15.4631 15.811 15.4037ZM6.41206 12.0237C5.40109 12.0237 4.41281 11.7239 3.57222 11.1622C2.73162 10.6005 2.07646 9.80221 1.68957 8.86819C1.30269 7.93417 1.20146 6.90639 1.39869 5.91484C1.59592 4.92329 2.08276 4.01249 2.79762 3.29762C3.51249 2.58276 4.42329 2.09592 5.41484 1.89869C6.40639 1.70146 7.43417 1.80269 8.36819 2.18957C9.30221 2.57646 10.1005 3.23162 10.6622 4.07222C11.2239 4.91281 11.5237 5.90109 11.5237 6.91206C11.5237 8.26774 10.9851 9.56789 10.0265 10.5265C9.06789 11.4851 7.76774 12.0237 6.41206 12.0237Z" fill="#7F8C8D"/>
</svg>
