<svg width="24" height="24" viewBox="0 0 24 24" fill="none" xmlns="http://www.w3.org/2000/svg">
<path d="M15.5325 11.7825L12.5325 14.7825C12.4628 14.8528 12.3798 14.9086 12.2884 14.9467C12.1971 14.9847 12.099 15.0043 12 15.0043C11.901 15.0043 11.803 14.9847 11.7116 14.9467C11.6202 14.9086 11.5372 14.8528 11.4675 14.7825L8.46751 11.7825C8.36344 11.677 8.29295 11.5431 8.26492 11.3976C8.23689 11.2521 8.25258 11.1016 8.31001 10.965C8.36628 10.828 8.46183 10.7108 8.58462 10.628C8.70741 10.5453 8.85194 10.5007 9.00001 10.5H15C15.1481 10.5007 15.2926 10.5453 15.4154 10.628C15.5382 10.7108 15.6337 10.828 15.69 10.965C15.7474 11.1016 15.7631 11.2521 15.7351 11.3976C15.7071 11.5431 15.6366 11.677 15.5325 11.7825Z" fill="#4E5B61"/>
</svg>
