<svg width="18" height="20" viewBox="0 0 18 20" fill="none" xmlns="http://www.w3.org/2000/svg">
<title id="SettingsTitle">Settings</title>
<path d="M16 19.625C15.7679 19.625 15.5454 19.5328 15.3813 19.3687C15.2172 19.2046 15.125 18.9821 15.125 18.75V10.875C15.125 10.6429 15.2172 10.4204 15.3813 10.2563C15.5454 10.0922 15.7679 10 16 10C16.2321 10 16.4546 10.0922 16.6187 10.2563C16.7828 10.4204 16.875 10.6429 16.875 10.875V18.75C16.875 18.9821 16.7828 19.2046 16.6187 19.3687C16.4546 19.5328 16.2321 19.625 16 19.625Z" fill="white"/>
<path d="M2 10C1.76794 10 1.54538 9.90781 1.38128 9.74372C1.21719 9.57962 1.125 9.35706 1.125 9.125V1.25C1.125 1.01794 1.21719 0.795376 1.38128 0.631282C1.54538 0.467187 1.76794 0.375 2 0.375C2.23206 0.375 2.45462 0.467187 2.61872 0.631282C2.78281 0.795376 2.875 1.01794 2.875 1.25V9.125C2.875 9.35706 2.78281 9.57962 2.61872 9.74372C2.45462 9.90781 2.23206 10 2 10V10Z" fill="white"/>
<path d="M2 19.625C1.76794 19.625 1.54538 19.5328 1.38128 19.3687C1.21719 19.2046 1.125 18.9821 1.125 18.75V17.875C1.125 17.6429 1.21719 17.4204 1.38128 17.2563C1.54538 17.0922 1.76794 17 2 17C2.23206 17 2.45462 17.0922 2.61872 17.2563C2.78281 17.4204 2.875 17.6429 2.875 17.875V18.75C2.875 18.9821 2.78281 19.2046 2.61872 19.3687C2.45462 19.5328 2.23206 19.625 2 19.625V19.625Z" fill="white"/>
<path d="M16 3C15.7679 3 15.5454 2.90781 15.3813 2.74372C15.2172 2.57962 15.125 2.35706 15.125 2.125V1.25C15.125 1.01794 15.2172 0.795376 15.3813 0.631282C15.5454 0.467187 15.7679 0.375 16 0.375C16.2321 0.375 16.4546 0.467187 16.6187 0.631282C16.7828 0.795376 16.875 1.01794 16.875 1.25V2.125C16.875 2.35706 16.7828 2.57962 16.6187 2.74372C16.4546 2.90781 16.2321 3 16 3Z" fill="white"/>
<path d="M9 19.625C8.76794 19.625 8.54538 19.5328 8.38128 19.3687C8.21719 19.2046 8.125 18.9821 8.125 18.75V14.375C8.125 14.1429 8.21719 13.9204 8.38128 13.7563C8.54538 13.5922 8.76794 13.5 9 13.5C9.23206 13.5 9.45462 13.5922 9.61872 13.7563C9.78281 13.9204 9.875 14.1429 9.875 14.375V18.75C9.875 18.9821 9.78281 19.2046 9.61872 19.3687C9.45462 19.5328 9.23206 19.625 9 19.625Z" fill="white"/>
<path d="M9 6.5C8.76794 6.5 8.54538 6.40781 8.38128 6.24372C8.21719 6.07962 8.125 5.85706 8.125 5.625V1.25C8.125 1.01794 8.21719 0.795376 8.38128 0.631282C8.54538 0.467187 8.76794 0.375 9 0.375C9.23206 0.375 9.45462 0.467187 9.61872 0.631282C9.78281 0.795376 9.875 1.01794 9.875 1.25V5.625C9.875 5.85706 9.78281 6.07962 9.61872 6.24372C9.45462 6.40781 9.23206 6.5 9 6.5Z" fill="white"/>
<path d="M2 15.25C2.9665 15.25 3.75 14.4665 3.75 13.5C3.75 12.5335 2.9665 11.75 2 11.75C1.0335 11.75 0.25 12.5335 0.25 13.5C0.25 14.4665 1.0335 15.25 2 15.25Z" fill="white"/>
<path d="M9 11.75C9.9665 11.75 10.75 10.9665 10.75 10C10.75 9.0335 9.9665 8.25 9 8.25C8.0335 8.25 7.25 9.0335 7.25 10C7.25 10.9665 8.0335 11.75 9 11.75Z" fill="white"/>
<path d="M16 8.25C16.9665 8.25 17.75 7.4665 17.75 6.5C17.75 5.5335 16.9665 4.75 16 4.75C15.0335 4.75 14.25 5.5335 14.25 6.5C14.25 7.4665 15.0335 8.25 16 8.25Z" fill="white"/>
</svg>
