<svg width="18" height="22" viewBox="0 0 18 22" fill="none" xmlns="http://www.w3.org/2000/svg">
<path d="M18 18.5001C18 19.2958 17.684 20.0589 17.1213 20.6215C16.5587 21.1841 15.7957 21.5001 15 21.5001C14.2044 21.5001 13.4413 21.1841 12.8787 20.6215C12.3161 20.0589 12 19.2958 12 18.5001C11.9973 18.1943 12.0455 17.8902 12.1425 17.6001L5.06252 13.1751C4.6371 13.5793 4.10249 13.8498 3.52487 13.9532C2.94726 14.0566 2.352 13.9883 1.81279 13.7568C1.27359 13.5253 0.814109 13.1408 0.491237 12.6508C0.168365 12.1608 -0.00372314 11.5869 -0.00372314 11.0001C-0.00372314 10.4133 0.168365 9.83943 0.491237 9.34945C0.814109 8.85947 1.27359 8.47493 1.81279 8.24345C2.352 8.01196 2.94726 7.94369 3.52487 8.04708C4.10249 8.15047 4.6371 8.42099 5.06252 8.82514L12.1425 4.40014C12.0455 4.11011 11.9973 3.80596 12 3.50014C11.9992 2.80945 12.2367 2.13962 12.6725 1.60376C13.1083 1.0679 13.7157 0.698821 14.392 0.558842C15.0684 0.418862 15.7723 0.516555 16.385 0.835427C16.9977 1.1543 17.4816 1.67482 17.755 2.3091C18.0284 2.94338 18.0746 3.65257 17.8857 4.31695C17.6968 4.98132 17.2845 5.56016 16.7183 5.95576C16.1521 6.35136 15.4668 6.53948 14.778 6.48836C14.0892 6.43723 13.4391 6.14999 12.9375 5.67514L5.85752 10.1001C6.04775 10.6851 6.04775 11.3152 5.85752 11.9001L12.9375 16.3251C13.3631 15.9222 13.8974 15.6528 14.4744 15.5501C15.0514 15.4474 15.6458 15.516 16.1842 15.7473C16.7227 15.9787 17.1816 16.3626 17.5043 16.8519C17.827 17.3411 17.9993 17.9141 18 18.5001Z" fill="#374146"/>
</svg>
