<svg width="12" height="12" viewBox="0 0 12 12" fill="none" xmlns="http://www.w3.org/2000/svg">
<path d="M11.0625 11.625H0.9375C0.86362 11.625 0.790456 11.6105 0.722191 11.5823C0.653926 11.554 0.5919 11.5126 0.539658 11.4603C0.487417 11.4081 0.445985 11.3461 0.417732 11.2778C0.389479 11.2095 0.374958 11.1364 0.375 11.0625V0.9375C0.374958 0.86362 0.389479 0.790456 0.417732 0.722191C0.445985 0.653926 0.487417 0.5919 0.539658 0.539658C0.5919 0.487417 0.653926 0.445985 0.722191 0.417732C0.790456 0.389479 0.86362 0.374958 0.9375 0.375H4.3125C4.38637 0.374994 4.45951 0.389546 4.52775 0.417826C4.59598 0.446106 4.65798 0.487558 4.71019 0.539813L6.23291 2.0625H11.0625C11.1364 2.06246 11.2095 2.07698 11.2778 2.10523C11.3461 2.13349 11.4081 2.17492 11.4603 2.22716C11.5126 2.2794 11.554 2.34143 11.5823 2.40969C11.6105 2.47796 11.625 2.55112 11.625 2.625V11.0625C11.625 11.1364 11.6105 11.2095 11.5823 11.2778C11.554 11.3461 11.5126 11.4081 11.4603 11.4603C11.4081 11.5126 11.3461 11.554 11.2778 11.5823C11.2095 11.6105 11.1364 11.625 11.0625 11.625ZM1.5 10.5H10.5V3.1875H6C5.92613 3.18751 5.85299 3.17295 5.78475 3.14467C5.71652 3.11639 5.65452 3.07494 5.60231 3.02269L4.07959 1.5H1.5V10.5Z" fill="#95A5A6"/>
</svg>
