<svg width="20" height="20" viewBox="0 0 20 20" fill="none" xmlns="http://www.w3.org/2000/svg">
<rect width="20" height="20" rx="3" fill="#008184"/>
<path d="M7.27452 7.655L5.3189 10L7.27452 12.345C7.34789 12.4347 7.38305 12.5497 7.37241 12.6651C7.36177 12.7805 7.30618 12.8871 7.21765 12.9619C7.13847 13.0263 7.0397 13.0618 6.93765 13.0625C6.87332 13.0629 6.80972 13.049 6.75144 13.0217C6.69317 12.9945 6.6417 12.9546 6.60077 12.905L4.41327 10.28C4.34754 10.2015 4.31152 10.1024 4.31152 10C4.31152 9.89761 4.34754 9.7985 4.41327 9.72L6.60077 7.095C6.63754 7.05076 6.68266 7.01419 6.73356 6.98739C6.78447 6.96059 6.84015 6.94408 6.89743 6.9388C6.95471 6.93352 7.01247 6.93957 7.06741 6.95661C7.12236 6.97366 7.17341 7.00135 7.21765 7.03812C7.26188 7.07489 7.29845 7.12002 7.32525 7.17092C7.35205 7.22182 7.36856 7.2775 7.37384 7.33478C7.37912 7.39206 7.37307 7.44982 7.35603 7.50477C7.33899 7.55971 7.31129 7.61076 7.27452 7.655Z" fill="#A5F2EE"/>
<path d="M11.3036 6.15874L9.55356 14.0337C9.53069 14.1304 9.47599 14.2167 9.39824 14.2786C9.32048 14.3404 9.22418 14.3744 9.12481 14.375C9.09257 14.3741 9.06043 14.3711 9.02856 14.3662C8.91496 14.3405 8.81619 14.2708 8.75387 14.1724C8.69155 14.074 8.67076 13.9549 8.69606 13.8412L10.4461 5.96624C10.472 5.85296 10.5418 5.75458 10.6401 5.69262C10.7384 5.63065 10.8572 5.61016 10.9706 5.63561C11.084 5.66107 11.1827 5.7304 11.2451 5.82844C11.3075 5.92648 11.3285 6.04524 11.3036 6.15874Z" fill="#A5F2EE"/>
<path d="M15.5874 10.28L13.3999 12.905C13.359 12.9546 13.3075 12.9945 13.2492 13.0217C13.191 13.049 13.1274 13.0629 13.063 13.0625C12.961 13.0618 12.8622 13.0263 12.783 12.9619C12.6945 12.8871 12.6389 12.7805 12.6283 12.6651C12.6176 12.5497 12.6528 12.4347 12.7262 12.345L14.6818 10L12.7262 7.655C12.6894 7.61076 12.6617 7.55971 12.6447 7.50477C12.6276 7.44982 12.6216 7.39206 12.6269 7.33478C12.6321 7.2775 12.6486 7.22182 12.6754 7.17092C12.7022 7.12002 12.7388 7.07489 12.783 7.03812C12.8273 7.00135 12.8783 6.97366 12.9333 6.95661C12.9882 6.93957 13.046 6.93352 13.1033 6.9388C13.1605 6.94408 13.2162 6.96059 13.2671 6.98739C13.318 7.01419 13.3632 7.05076 13.3999 7.095L15.5874 9.72C15.6532 9.7985 15.6892 9.89761 15.6892 10C15.6892 10.1024 15.6532 10.2015 15.5874 10.28Z" fill="#A5F2EE"/>
</svg>
