<svg width="12" height="10" viewBox="0 0 12 10" fill="none" xmlns="http://www.w3.org/2000/svg">
<path fill-rule="evenodd" clip-rule="evenodd" d="M7.30377 1.1588L5.55377 9.0338C5.53091 9.13051 5.47621 9.21673 5.39845 9.27862C5.3207 9.34051 5.2244 9.37447 5.12502 9.37505C5.09279 9.37411 5.06065 9.37119 5.02877 9.3663C4.91518 9.34057 4.8164 9.27088 4.75408 9.17248C4.69176 9.07408 4.67098 8.95499 4.69627 8.8413L6.44627 0.966298C6.47223 0.853024 6.54199 0.754641 6.6403 0.692678C6.73861 0.630715 6.85747 0.610218 6.97085 0.635672C7.08424 0.661127 7.18293 0.73046 7.24532 0.828499C7.30771 0.926538 7.32873 1.0453 7.30377 1.1588ZM3.2744 2.65501L1.31877 5.00001L3.2744 7.34501C3.34777 7.43473 3.38293 7.54969 3.37229 7.6651C3.36165 7.7805 3.30606 7.8871 3.21752 7.96189C3.13835 8.02629 3.03958 8.06178 2.93752 8.06251C2.8732 8.06292 2.80959 8.049 2.75132 8.02176C2.69305 7.99451 2.64158 7.95463 2.60065 7.90501L0.413148 5.28001C0.34742 5.20151 0.311401 5.1024 0.311401 5.00001C0.311401 4.89763 0.34742 4.79851 0.413148 4.72001L2.60065 2.09501C2.63742 2.05077 2.68254 2.01421 2.73344 1.98741C2.78434 1.96061 2.84002 1.9441 2.89731 1.93882C2.95459 1.93353 3.01235 1.93959 3.06729 1.95663C3.12224 1.97367 3.17328 2.00137 3.21752 2.03814C3.26176 2.07491 3.29833 2.12003 3.32513 2.17093C3.35193 2.22183 3.36844 2.27751 3.37372 2.3348C3.379 2.39208 3.37295 2.44984 3.35591 2.50478C3.33886 2.55973 3.31117 2.61077 3.2744 2.65501ZM9.3994 7.90501L11.5869 5.28001C11.6526 5.20151 11.6886 5.1024 11.6886 5.00001C11.6886 4.89763 11.6526 4.79851 11.5869 4.72001L9.3994 2.09501C9.36263 2.05077 9.3175 2.01421 9.2666 1.98741C9.2157 1.96061 9.16002 1.9441 9.10274 1.93882C9.04546 1.93353 8.98769 1.93959 8.93275 1.95663C8.87781 1.97367 8.82676 2.00137 8.78252 2.03814C8.73828 2.07491 8.70172 2.12003 8.67492 2.17093C8.64812 2.22183 8.63161 2.27751 8.62632 2.3348C8.62104 2.39208 8.6271 2.44984 8.64414 2.50478C8.66118 2.55973 8.68888 2.61077 8.72565 2.65501L10.6813 5.00001L8.72565 7.34501C8.65228 7.43473 8.61712 7.54969 8.62776 7.6651C8.6384 7.7805 8.69398 7.8871 8.78252 7.96189C8.8617 8.02629 8.96046 8.06178 9.06252 8.06251C9.12684 8.06292 9.19045 8.049 9.24872 8.02176C9.30699 7.99451 9.35846 7.95463 9.3994 7.90501Z" fill="#C9D2D2"/>
</svg>
