<svg width="12" height="10" viewBox="0 0 12 10" fill="none" xmlns="http://www.w3.org/2000/svg">
<path d="M3.375 0.597319C3.73497 0.394962 4.19238 0.5157 4.40234 0.875639C4.60466 1.2356 4.48492 1.69303 4.125 1.90298C2.97006 2.563 2.25 3.80826 2.25 5.14322C2.25017 6.47799 2.9702 7.72254 4.125 8.38248C4.48491 8.59243 4.60464 9.04986 4.40234 9.40982C4.25984 9.64982 4.0125 9.78482 3.75 9.78482C3.62256 9.78482 3.49495 9.75557 3.375 9.68814C1.75514 8.75072 0.750169 7.01054 0.75 5.14322C0.75 3.27572 1.755 1.53482 3.375 0.597319ZM7.59766 0.875639C7.80762 0.515695 8.26503 0.39495 8.625 0.597319C10.245 1.53482 11.25 3.27572 11.25 5.14322C11.2498 7.01054 10.2449 8.75072 8.625 9.68814C8.50505 9.75558 8.37744 9.78482 8.25 9.78482C7.9875 9.78482 7.74016 9.64982 7.59766 9.40982C7.38785 9.04986 7.51508 8.59243 7.875 8.38248C9.02979 7.72253 9.74983 6.47799 9.75 5.14322C9.75 3.80826 9.02993 2.563 7.875 1.90298C7.51507 1.69303 7.39533 1.23561 7.59766 0.875639Z" fill="#0CA1A6"/>
</svg>
