<svg width="14" height="13" viewBox="0 0 14 13" fill="none" xmlns="http://www.w3.org/2000/svg">
<g id="Icon">
<path id="Vector" d="M13.5 2.5H12V0.999999C11.9999 0.916339 11.9787 0.834052 11.9385 0.760674C11.8984 0.687297 11.8404 0.625175 11.77 0.579999C11.7004 0.534319 11.6205 0.506735 11.5376 0.49975C11.4546 0.492765 11.3712 0.5066 11.295 0.539999L7 2.45L2.705 0.539999C2.62494 0.504417 2.53725 0.489436 2.44991 0.496423C2.36258 0.50341 2.27839 0.532141 2.205 0.579999C2.1392 0.628013 2.08614 0.691375 2.05041 0.764573C2.01468 0.837771 1.99738 0.918589 2 0.999999V2.5H0.5C0.367392 2.5 0.240215 2.55268 0.146447 2.64645C0.0526784 2.74021 0 2.86739 0 3V12C0 12.1326 0.0526784 12.2598 0.146447 12.3536C0.240215 12.4473 0.367392 12.5 0.5 12.5H13.5C13.6326 12.5 13.7598 12.4473 13.8536 12.3536C13.9473 12.2598 14 12.1326 14 12V3C14 2.86739 13.9473 2.74021 13.8536 2.64645C13.7598 2.55268 13.6326 2.5 13.5 2.5ZM7.5 3.325L9.355 2.5L11 1.77V9.675L7.5 11.23V3.325ZM3 1.77L4.645 2.5L6.5 3.325V11.23L3 9.675V1.77ZM1 11.5V3.5H2V10C2.0002 10.0962 2.02814 10.1903 2.08046 10.271C2.13279 10.3517 2.20728 10.4156 2.295 10.455L4.645 11.5H1ZM13 11.5H9.355L11.705 10.455C11.7927 10.4156 11.8672 10.3517 11.9195 10.271C11.9719 10.1903 11.9998 10.0962 12 10V3.5H13V11.5Z" fill="#5D6A6B"/>
</g>
</svg>
