<svg width="63" height="64" viewBox="0 0 63 64" fill="none" xmlns="http://www.w3.org/2000/svg">
<path d="M32.4997 56.9991C31.3952 56.9991 30.4997 56.1037 30.4997 54.9992C30.4997 42.8685 20.6305 32.9995 8.49953 32.9995C7.39502 32.9995 6.49951 32.1041 6.49951 30.9996C6.49951 29.8951 7.39502 28.9996 8.49953 28.9996C20.6305 28.9996 30.4997 19.1306 30.4997 6.99997C30.4997 5.89549 31.3952 5 32.4997 5C33.6042 5 34.4997 5.89549 34.4997 6.99997C34.4997 19.1306 44.3689 28.9996 56.4999 28.9996C57.6044 28.9996 58.4999 29.8951 58.4999 30.9996C58.4999 32.1041 57.6044 32.9995 56.4999 32.9995C44.3689 32.9995 34.4997 42.8685 34.4997 54.9992C34.4997 56.1037 33.6042 56.9991 32.4997 56.9991ZM18.4996 30.9996C24.8063 33.6372 29.862 38.6928 32.4997 44.9993C35.1374 38.6928 40.1931 33.6372 46.4998 30.9996C40.1931 28.3619 35.1374 23.3063 32.4997 16.9998C29.862 23.3063 24.8063 28.3619 18.4996 30.9996Z" fill="white"/>
<path fill-rule="evenodd" clip-rule="evenodd" d="M50.5001 15.0008C50.5001 16.1053 51.3956 17.0008 52.5002 17.0008C53.6047 17.0008 54.5002 16.1053 54.5002 15.0008V13.001H56.5001C57.6046 13.001 58.5001 12.1055 58.5001 11.001C58.5001 9.89651 57.6046 9.00102 56.5001 9.00102H54.5002V7.00094C54.5002 5.89646 53.6047 5.00098 52.5002 5.00098C51.3956 5.00098 50.5001 5.89646 50.5001 7.00094V9.00102H48.5C47.3955 9.00102 46.5 9.89651 46.5 11.001C46.5 12.1055 47.3955 13.001 48.5 13.001H50.5001V15.0008Z" fill="white"/>
<path fill-rule="evenodd" clip-rule="evenodd" d="M10.5001 57.0003C10.5001 58.1047 11.3956 59.0002 12.5001 59.0002C13.6046 59.0002 14.5001 58.1047 14.5001 57.0003V53.0004H18.5001C19.6046 53.0004 20.5001 52.1049 20.5001 51.0004C20.5001 49.8959 19.6046 49.0004 18.5001 49.0004H14.5001V45.0005C14.5001 43.896 13.6046 43.0005 12.5001 43.0005C11.3956 43.0005 10.5001 43.896 10.5001 45.0005V49.0004H6.50001C5.39551 49.0004 4.5 49.8959 4.5 51.0004C4.5 52.1049 5.39551 53.0004 6.50001 53.0004H10.5001V57.0003Z" fill="white"/>
</svg>
