<svg width="12" height="12" viewBox="0 0 12 12" fill="none" xmlns="http://www.w3.org/2000/svg">
<path d="M8.88965 0.862305C8.98848 0.862377 9.08315 0.90111 9.15332 0.970703C10.4883 2.30668 11.2382 4.1182 11.2383 6.00684C11.2383 7.89558 10.4884 9.70693 9.15332 11.043C9.08474 11.1091 8.99368 11.1471 8.89844 11.1484C8.82183 11.152 8.74557 11.1317 8.68066 11.0908C8.61594 11.05 8.56496 10.9904 8.53516 10.9199C8.5053 10.8492 8.49764 10.7704 8.51367 10.6953C8.5297 10.6203 8.56897 10.5524 8.625 10.5C9.81569 9.30519 10.4843 7.6868 10.4844 6C10.4844 4.31316 9.81566 2.69489 8.625 1.5C8.55518 1.42976 8.51565 1.33438 8.51562 1.23535C8.51562 1.13628 8.55516 1.04096 8.625 0.970703C8.69525 0.900912 8.79062 0.862305 8.88965 0.862305ZM7.30078 2.42285C7.35243 2.42485 7.40367 2.43745 7.4502 2.45996C7.49652 2.48246 7.53779 2.51459 7.57129 2.55371C8.48485 3.46786 8.99805 4.70761 8.99805 6C8.99794 7.29234 8.48488 8.53222 7.57129 9.44629C7.50207 9.51681 7.40741 9.55719 7.30859 9.55859C7.25903 9.55837 7.20972 9.54761 7.16406 9.52832C7.11872 9.5091 7.0775 9.4814 7.04297 9.44629C6.97317 9.37607 6.93364 9.28064 6.93359 9.18164C6.93359 9.08257 6.97312 8.98725 7.04297 8.91699C7.42608 8.53398 7.73013 8.0786 7.9375 7.57812C8.14473 7.07781 8.25092 6.54154 8.25098 6C8.25098 5.45828 8.14481 4.92138 7.9375 4.4209C7.73012 3.9204 7.42612 3.46505 7.04297 3.08203C7.00384 3.04852 6.97172 3.00728 6.94922 2.96094C6.92671 2.91441 6.9141 2.86317 6.91211 2.81152C6.91014 2.75994 6.91867 2.70822 6.9375 2.66016C6.95635 2.61217 6.98503 2.56869 7.02148 2.53223C7.05796 2.49576 7.1014 2.46709 7.14941 2.44824C7.19751 2.4294 7.24917 2.42087 7.30078 2.42285ZM4.08203 2.63086C4.1479 2.62427 4.21514 2.63471 4.27539 2.66211C4.34118 2.69088 4.39767 2.73811 4.4375 2.79785C4.47731 2.85765 4.49881 2.92817 4.5 3V9C4.49973 9.06898 4.48052 9.13659 4.44434 9.19531C4.40799 9.25412 4.35565 9.30184 4.29395 9.33301C4.23401 9.36094 4.16742 9.37311 4.10156 9.36719C4.03583 9.36125 3.97285 9.33788 3.91895 9.2998L2.50098 8.25H1.125C1.02554 8.25 0.929701 8.20997 0.859375 8.13965C0.789328 8.06943 0.75009 7.97418 0.75 7.875V4.125C0.75 4.02562 0.789156 3.92968 0.859375 3.85938C0.929701 3.78905 1.02554 3.75 1.125 3.75H2.50098L3.90039 2.69922C3.9538 2.66072 4.01652 2.63749 4.08203 2.63086ZM5.7168 4.03418C5.81587 4.03418 5.91118 4.07371 5.98145 4.14355C6.22914 4.38632 6.42635 4.67572 6.56152 4.99512C6.69671 5.31461 6.76679 5.65797 6.76855 6.00488C6.7703 6.35184 6.70327 6.69572 6.57129 7.0166C6.43929 7.3375 6.24538 7.62967 6 7.875C5.96133 7.90858 5.91602 7.93375 5.86719 7.94922C5.81816 7.9647 5.76598 7.97018 5.71484 7.96484C5.61652 7.96439 5.52196 7.92471 5.45215 7.85547C5.38261 7.78532 5.34383 7.69058 5.34375 7.5918C5.34375 7.49282 5.38243 7.39739 5.45215 7.32715C5.62676 7.15298 5.76583 6.94557 5.86035 6.71777C5.9547 6.49023 6.00288 6.24633 6.00293 6C6.00293 5.75348 5.9548 5.50896 5.86035 5.28125C5.76583 5.05346 5.62676 4.84605 5.45215 4.67188C5.3826 4.60175 5.34387 4.50697 5.34375 4.4082C5.34375 4.30926 5.38248 4.21379 5.45215 4.14355C5.52239 4.07373 5.61776 4.0342 5.7168 4.03418Z" fill="#2AC62B"/>
</svg>
