<svg aria-labelledby="status-error" width="22" height="22" viewBox="0 0 22 22" fill="none" xmlns="http://www.w3.org/2000/svg">
<title id="status-error">Status: error</title>
<path d="M11 1.375C9.09636 1.375 7.23546 1.9395 5.65264 2.99711C4.06982 4.05471 2.83616 5.55793 2.10766 7.31667C1.37917 9.07541 1.18856 11.0107 1.55995 12.8777C1.93133 14.7448 2.84802 16.4598 4.1941 17.8059C5.54018 19.152 7.25519 20.0687 9.12226 20.4401C10.9893 20.8114 12.9246 20.6208 14.6833 19.8923C16.4421 19.1638 17.9453 17.9302 19.0029 16.3474C20.0605 14.7645 20.625 12.9036 20.625 11C20.625 8.44729 19.6109 5.99913 17.8059 4.1941C16.0009 2.38906 13.5527 1.375 11 1.375ZM10.3125 4.8125C10.3125 4.63016 10.3849 4.4553 10.5139 4.32636C10.6428 4.19743 10.8177 4.125 11 4.125C11.1823 4.125 11.3572 4.19743 11.4861 4.32636C11.6151 4.4553 11.6875 4.63016 11.6875 4.8125V13.0625C11.6875 13.2448 11.6151 13.4197 11.4861 13.5486C11.3572 13.6776 11.1823 13.75 11 13.75C10.8177 13.75 10.6428 13.6776 10.5139 13.5486C10.3849 13.4197 10.3125 13.2448 10.3125 13.0625V4.8125ZM11 17.875C10.796 17.875 10.5967 17.8145 10.4271 17.7012C10.2575 17.5879 10.1253 17.4268 10.0473 17.2384C9.9692 17.05 9.94878 16.8426 9.98857 16.6426C10.0284 16.4425 10.1266 16.2588 10.2708 16.1145C10.415 15.9703 10.5988 15.8721 10.7988 15.8323C10.9989 15.7925 11.2062 15.8129 11.3946 15.891C11.5831 15.9691 11.7441 16.1012 11.8575 16.2708C11.9708 16.4404 12.0313 16.6398 12.0313 16.8438C12.0313 17.1173 11.9226 17.3796 11.7292 17.573C11.5358 17.7663 11.2735 17.875 11 17.875Z" fill="#C11F09"/>
</svg>
