<svg width="20" height="20" viewBox="0 0 20 20" fill="none" xmlns="http://www.w3.org/2000/svg">
<path d="M10 0.375C8.09636 0.375 6.23546 0.939497 4.65264 1.99711C3.06982 3.05471 1.83616 4.55793 1.10766 6.31667C0.37917 8.07541 0.188563 10.0107 0.559946 11.8777C0.931329 13.7448 1.84802 15.4598 3.1941 16.8059C4.54018 18.152 6.25519 19.0687 8.12226 19.4401C9.98933 19.8114 11.9246 19.6208 13.6833 18.8923C15.4421 18.1638 16.9453 16.9302 18.0029 15.3474C19.0605 13.7645 19.625 11.9036 19.625 10C19.625 7.44729 18.6109 4.99913 16.8059 3.1941C15.0009 1.38906 12.5527 0.375 10 0.375ZM15.3006 7.73812L9.11313 13.9256C9.04922 13.9901 8.97318 14.0412 8.8894 14.0761C8.80562 14.111 8.71576 14.129 8.625 14.129C8.53425 14.129 8.44439 14.111 8.36061 14.0761C8.27683 14.0412 8.20079 13.9901 8.13688 13.9256L4.69938 10.4881C4.56992 10.3587 4.49719 10.1831 4.49719 10C4.49719 9.81692 4.56992 9.64133 4.69938 9.51188C4.82884 9.38242 5.00442 9.30969 5.1875 9.30969C5.37059 9.30969 5.54617 9.38242 5.67563 9.51188L8.625 12.4681L14.3244 6.76188C14.4538 6.63242 14.6294 6.55969 14.8125 6.55969C14.9956 6.55969 15.1712 6.63242 15.3006 6.76188C15.4301 6.89133 15.5028 7.06692 15.5028 7.25C15.5028 7.43308 15.4301 7.60867 15.3006 7.73812Z" fill="#008184"/>
</svg>
