<svg width="18" height="21" viewBox="0 0 18 21" fill="none" xmlns="http://www.w3.org/2000/svg">
<path fill-rule="evenodd" clip-rule="evenodd" d="M16.4249 5.64L15.8699 6.195C17.2501 7.81369 18.0057 9.87278 17.9999 12C17.9939 13.7467 17.4796 15.4539 16.52 16.9134C15.5603 18.3729 14.1966 19.5216 12.5953 20.2194C10.994 20.9172 9.22426 21.1339 7.50189 20.8431C5.77952 20.5524 4.17899 19.7667 2.89548 18.5819C1.61197 17.3971 0.700968 15.8645 0.273572 14.1708C-0.153824 12.4772 -0.0791397 10.6958 0.488516 9.04386C1.05617 7.39194 2.09227 5.9409 3.47044 4.86771C4.84861 3.79452 6.50929 3.14557 8.24995 3V2.25H6.74995C6.55103 2.25 6.36027 2.17098 6.21962 2.03033C6.07896 1.88968 5.99995 1.69891 5.99995 1.5C5.99995 1.30109 6.07896 1.11032 6.21962 0.96967C6.36027 0.829018 6.55103 0.75 6.74995 0.75H11.2499C11.4489 0.75 11.6396 0.829018 11.7803 0.96967C11.9209 1.11032 11.9999 1.30109 11.9999 1.5C11.9999 1.69891 11.9209 1.88968 11.7803 2.03033C11.6396 2.17098 11.4489 2.25 11.2499 2.25H9.74995V3C11.6168 3.16174 13.3853 3.90695 14.8049 5.13L15.3599 4.575L15.1424 4.3575C15.0725 4.28757 15.017 4.20455 14.9792 4.11319C14.9414 4.02182 14.9219 3.92389 14.9219 3.825C14.9219 3.72611 14.9414 3.62818 14.9792 3.53681C15.017 3.44545 15.0725 3.36243 15.1424 3.2925C15.2124 3.22257 15.2954 3.1671 15.3868 3.12926C15.4781 3.09141 15.5761 3.07193 15.6749 3.07193C15.7738 3.07193 15.8718 3.09141 15.9631 3.12926C16.0545 3.1671 16.1375 3.22257 16.2074 3.2925L17.7074 4.7925C17.7777 4.86222 17.8335 4.94517 17.8716 5.03657C17.9097 5.12796 17.9293 5.22599 17.9293 5.325C17.9293 5.42401 17.9097 5.52204 17.8716 5.61343C17.8335 5.70483 17.7777 5.78778 17.7074 5.8575C17.6377 5.9278 17.5548 5.98359 17.4634 6.02167C17.372 6.05975 17.274 6.07935 17.1749 6.07935C17.0759 6.07935 16.9779 6.05975 16.8865 6.02167C16.7951 5.98359 16.7122 5.9278 16.6424 5.8575L16.4249 5.64ZM4.83317 18.236C6.06654 19.0601 7.51659 19.5 8.99995 19.5C10.9891 19.5 12.8967 18.7098 14.3032 17.3033C15.7098 15.8968 16.4999 13.9891 16.4999 12C16.4999 10.5166 16.0601 9.06659 15.236 7.83322C14.4119 6.59985 13.2405 5.63856 11.8701 5.0709C10.4996 4.50325 8.99163 4.35472 7.53677 4.64411C6.08191 4.9335 4.74554 5.64781 3.69665 6.6967C2.64775 7.74559 1.93345 9.08197 1.64406 10.5368C1.35467 11.9917 1.50319 13.4997 2.07085 14.8701C2.63851 16.2406 3.5998 17.4119 4.83317 18.236ZM11.8845 15.8668C11.9759 15.9041 12.0737 15.9231 12.1724 15.9225C12.2711 15.9231 12.369 15.9041 12.4604 15.8668C12.5518 15.8295 12.6349 15.7745 12.7049 15.705C12.7752 15.6353 12.831 15.5523 12.8691 15.4609C12.9072 15.3695 12.9268 15.2715 12.9268 15.1725C12.9268 15.0735 12.9072 14.9754 12.8691 14.8841C12.831 14.7927 12.7752 14.7097 12.7049 14.64L9.74994 11.6925V6.92249C9.74994 6.72357 9.67093 6.53281 9.53027 6.39216C9.38962 6.2515 9.19886 6.17249 8.99994 6.17249C8.80103 6.17249 8.61027 6.2515 8.46961 6.39216C8.32896 6.53281 8.24994 6.72357 8.24994 6.92249V12C8.24937 12.0987 8.26829 12.1965 8.30562 12.2879C8.34294 12.3793 8.39793 12.4624 8.46744 12.5325L11.6399 15.705C11.71 15.7745 11.7931 15.8295 11.8845 15.8668Z" fill="#374146"/>
</svg>
