<svg width="20" height="22" viewBox="0 0 20 22" fill="none" xmlns="http://www.w3.org/2000/svg">
<path fill-rule="evenodd" clip-rule="evenodd" d="M15.7746 5.10422L17.909 2.96978C18.2019 2.67689 18.6768 2.67689 18.9697 2.96978C19.2626 3.26268 19.2626 3.73755 18.9697 4.03044L2.03033 20.9698C1.73744 21.2627 1.26256 21.2627 0.96967 20.9698C0.676777 20.6769 0.676777 20.202 0.96967 19.9091L3.11429 17.7645C2.23951 16.7253 1.60803 15.4974 1.27326 14.1708C0.845868 12.4772 0.920552 10.6958 1.48821 9.04386C2.05586 7.39194 3.09196 5.9409 4.47013 4.86771C5.8483 3.79452 7.50898 3.14557 9.24964 3V2.25H7.74964C7.55072 2.25 7.35996 2.17098 7.21931 2.03033C7.07866 1.88968 6.99964 1.69891 6.99964 1.5C6.99964 1.30109 7.07866 1.11032 7.21931 0.96967C7.35996 0.829018 7.55072 0.75 7.74964 0.75H12.2496C12.4485 0.75 12.6393 0.829018 12.78 0.96967C12.9206 1.11032 12.9996 1.30109 12.9996 1.5C12.9996 1.69891 12.9206 1.88968 12.78 2.03033C12.6393 2.17098 12.4485 2.25 12.2496 2.25H10.7496V3C12.6033 3.1606 14.3601 3.89648 15.7746 5.10422ZM14.7128 6.16597C14.1571 5.71699 13.537 5.34729 12.8698 5.0709C11.4993 4.50325 9.99132 4.35472 8.53646 4.64411C7.0816 4.9335 5.74523 5.64781 4.69634 6.6967C3.64744 7.74559 2.93314 9.08197 2.64375 10.5368C2.35436 11.9917 2.50288 13.4997 3.07054 14.8701C3.34693 15.5374 3.71663 16.1574 4.16561 16.7132L9.24963 11.6292V6.92249C9.24963 6.72357 9.32865 6.53281 9.46931 6.39216C9.60996 6.2515 9.80072 6.17249 9.99963 6.17249C10.1985 6.17249 10.3893 6.2515 10.53 6.39216C10.6706 6.53281 10.7496 6.72357 10.7496 6.92249V10.1292L14.7128 6.16597ZM17.6839 7.31596L16.5865 8.4134C17.184 9.51071 17.4996 10.7434 17.4996 12C17.4996 13.9891 16.7095 15.8968 15.3029 17.3033C13.8964 18.7098 11.9888 19.5 9.99964 19.5C8.74304 19.5 7.51035 19.1843 6.41303 18.5868L5.33461 19.6653C6.30186 20.2515 7.37569 20.6531 8.50158 20.8431C10.2239 21.1339 11.9937 20.9172 13.595 20.2194C15.1963 19.5216 16.56 18.3729 17.5196 16.9134C18.4793 15.4539 18.9936 13.7467 18.9996 12C19.0041 10.3379 18.5438 8.71732 17.6839 7.31596ZM10.9673 14.0326L12.6396 15.705C12.7097 15.7745 12.7928 15.8295 12.8842 15.8668C12.9756 15.9041 13.0734 15.9231 13.1721 15.9225C13.2708 15.9231 13.3687 15.9041 13.4601 15.8668C13.5514 15.8295 13.6346 15.7745 13.7046 15.705C13.7749 15.6353 13.8307 15.5523 13.8688 15.4609C13.9069 15.3695 13.9265 15.2715 13.9265 15.1725C13.9265 15.0735 13.9069 14.9754 13.8688 14.8841C13.8307 14.7927 13.7749 14.7097 13.7046 14.64L12.0301 12.9697L10.9673 14.0326Z" fill="#374146"/>
</svg>
