<svg width="14" height="15" viewBox="0 0 14 15" fill="none" xmlns="http://www.w3.org/2000/svg">
<path d="M7 0.0283203C5.61553 0.0283203 4.26216 0.438863 3.11101 1.20803C1.95987 1.9772 1.06266 3.07045 0.532846 4.34954C0.00303298 5.62862 -0.13559 7.03609 0.134506 8.39395C0.404603 9.75182 1.07129 10.9991 2.05026 11.9781C3.02922 12.957 4.2765 13.6237 5.63437 13.8938C6.99224 14.1639 8.3997 14.0253 9.67879 13.4955C10.9579 12.9657 12.0511 12.0685 12.8203 10.9173C13.5895 9.76617 14 8.41279 14 7.02832C14 5.1718 13.2625 3.39133 11.9497 2.07857C10.637 0.765818 8.85652 0.0283203 7 0.0283203ZM10.855 5.38332L6.355 9.88332C6.30852 9.93018 6.25322 9.96738 6.19229 9.99277C6.13136 10.0182 6.06601 10.0312 6 10.0312C5.934 10.0312 5.86864 10.0182 5.80771 9.99277C5.74679 9.96738 5.69148 9.93018 5.645 9.88332L3.145 7.38332C3.05085 7.28917 2.99796 7.16147 2.99796 7.02832C2.99796 6.89517 3.05085 6.76747 3.145 6.67332C3.23915 6.57917 3.36685 6.52627 3.5 6.52627C3.63315 6.52627 3.76085 6.57917 3.855 6.67332L6 8.82332L10.145 4.67332C10.2392 4.57917 10.3669 4.52627 10.5 4.52627C10.6332 4.52627 10.7609 4.57917 10.855 4.67332C10.9492 4.76747 11.002 4.89517 11.002 5.02832C11.002 5.16147 10.9492 5.28917 10.855 5.38332Z" fill="currentColor"/>
</svg>
