<svg width="16" height="8" viewBox="0 0 16 8" fill="none" xmlns="http://www.w3.org/2000/svg">
<g id="Icon">
<path id="Vector" fill-rule="evenodd" clip-rule="evenodd" d="M8 5.04272C8.91162 6.62866 10.3306 7.5 12.0103 7.5C13.9346 7.5 15.5 5.92993 15.5 4C15.5 2.07007 13.9346 0.5 12.0103 0.5C10.3306 0.5 8.91162 1.37134 8 2.95727C7.08838 1.37134 5.66944 0.5 3.98974 0.5C2.06543 0.5 0.5 2.07007 0.5 4C0.5 5.92993 2.06543 7.5 3.98974 7.5C5.66944 7.5 7.08838 6.62866 8 5.04272ZM8.80567 4.43457L8.56909 4L8.80567 3.56543C9.54101 2.21411 10.6489 1.5 12.0103 1.5C13.3831 1.5 14.5 2.62158 14.5 4C14.5 5.37842 13.3831 6.5 12.0103 6.5C10.6489 6.5 9.54101 5.78589 8.80567 4.43457ZM1.5 4C1.5 2.62158 2.61694 1.5 3.98974 1.5C5.35108 1.5 6.45898 2.21411 7.19433 3.56543L7.4309 4L7.19433 4.43457C6.45898 5.78589 5.35108 6.5 3.98974 6.5C2.61694 6.5 1.5 5.37842 1.5 4ZM12.1267 4.3752H12.8905V3.64441H12.1267V2.87536H11.3963V3.64441H10.6314V4.3752H11.3963V5.14425H12.1267V4.3752ZM5.3472 3.64441H3.08701V4.3752H5.3472V3.64441Z" fill="black"/>
</g>
</svg>
