<svg width="56" height="57" viewBox="0 0 56 57" fill="none" xmlns="http://www.w3.org/2000/svg">
<path d="M50.75 11C51.2137 11.0013 51.6584 11.1858 51.9863 11.5137C52.3142 11.8416 52.4987 12.2863 52.5 12.75V51.25C52.4987 51.7137 52.3142 52.1584 51.9863 52.4863C51.6584 52.8142 51.2137 52.9987 50.75 53H12.25C11.7863 52.9987 11.3416 52.8142 11.0137 52.4863C10.6858 52.1584 10.5013 51.7137 10.5 51.25V12.75C10.5013 12.2863 10.6858 11.8416 11.0137 11.5137C11.3416 11.1858 11.7863 11.0013 12.25 11H50.75ZM43.75 4C44.2141 4 44.6591 4.18451 44.9873 4.5127C45.3155 4.84088 45.5 5.28587 45.5 5.75C45.5 6.21413 45.3155 6.65912 44.9873 6.9873C44.6591 7.31549 44.2141 7.5 43.75 7.5H7V44.25C7 44.7141 6.81549 45.1591 6.4873 45.4873C6.15912 45.8155 5.71413 46 5.25 46C4.78587 46 4.34088 45.8155 4.0127 45.4873C3.68451 45.1591 3.5 44.7141 3.5 44.25V5.75C3.5 5.28587 3.68451 4.84088 4.0127 4.5127C4.34088 4.18451 4.78587 4 5.25 4H43.75ZM21.665 30.3896C21.3463 30.2562 20.9946 30.2198 20.6553 30.2852C20.316 30.3506 20.0041 30.5155 19.7578 30.7578L16.2578 34.2578C15.9306 34.5877 15.7472 35.0334 15.748 35.498C15.749 35.9628 15.934 36.4086 16.2627 36.7373C16.5914 37.066 17.0372 37.251 17.502 37.252C17.9666 37.2528 18.4123 37.0694 18.7422 36.7422L19.8096 35.6572C20.4388 37.6683 21.5767 39.4837 23.1123 40.9268C24.6478 42.3697 26.53 43.3923 28.5762 43.8955C30.6222 44.3986 32.7634 44.365 34.793 43.7988C36.8227 43.2325 38.6719 42.152 40.1621 40.6621C40.3244 40.5003 40.4532 40.3083 40.541 40.0967C40.6289 39.885 40.6748 39.6579 40.6748 39.4287C40.6748 39.1995 40.6289 38.9724 40.541 38.7607C40.4532 38.5491 40.3243 38.3571 40.1621 38.1953C40.0025 38.0294 39.8114 37.8968 39.5996 37.8066C39.3876 37.7164 39.1591 37.6699 38.9287 37.6699C38.6985 37.6699 38.4707 37.7166 38.2588 37.8066C38.0468 37.8968 37.8551 38.0293 37.6953 38.1953C36.4696 39.4167 34.9093 40.2471 33.2119 40.583C31.5143 40.9189 29.7549 40.7447 28.1562 40.082C26.5577 39.4194 25.1906 38.2987 24.2285 36.8604C23.2664 35.422 22.7522 33.7305 22.75 32C22.7512 31.6539 22.6485 31.3154 22.4551 31.0283C22.2616 30.7412 21.9864 30.5184 21.665 30.3896ZM34.4238 20.1045C32.3778 19.6014 30.2366 19.635 28.207 20.2012C26.1773 20.7675 24.3281 21.848 22.8379 23.3379C22.6756 23.4997 22.5468 23.6917 22.459 23.9033C22.3711 24.115 22.3252 24.3421 22.3252 24.5713C22.3252 24.8005 22.3711 25.0276 22.459 25.2393C22.5468 25.4509 22.6757 25.6429 22.8379 25.8047C22.9975 25.9706 23.1886 26.1032 23.4004 26.1934C23.6124 26.2836 23.8409 26.3301 24.0713 26.3301C24.3015 26.3301 24.5293 26.2834 24.7412 26.1934C24.9532 26.1032 25.1449 25.9707 25.3047 25.8047C26.5304 24.5833 28.0907 23.7529 29.7881 23.417C31.4857 23.0811 33.2451 23.2553 34.8438 23.918C36.4423 24.5806 37.8094 25.7013 38.7715 27.1396C39.7336 28.578 40.2478 30.2695 40.25 32C40.2487 32.3461 40.3515 32.6846 40.5449 32.9717C40.7384 33.2588 41.0136 33.4816 41.335 33.6104C41.5426 33.7085 41.7705 33.7561 42 33.75C42.4649 33.7513 42.9112 33.5686 43.2422 33.2422L46.7422 29.7422C47.0694 29.4123 47.2528 28.9666 47.252 28.502C47.251 28.0372 47.066 27.5914 46.7373 27.2627C46.4086 26.934 45.9628 26.749 45.498 26.748C45.0334 26.7472 44.5877 26.9306 44.2578 27.2578L43.1904 28.3428C42.5612 26.3317 41.4233 24.5163 39.8877 23.0732C38.3522 21.6303 36.47 20.6077 34.4238 20.1045Z" fill="#C9D2D2"/>
</svg>
