<svg width="12" height="12" viewBox="0 0 12 12" fill="none" xmlns="http://www.w3.org/2000/svg">
<path d="M9.75 2.625V4.125C9.75 4.22446 9.71049 4.31984 9.64017 4.39016C9.56984 4.46049 9.47446 4.5 9.375 4.5C9.27554 4.5 9.18016 4.46049 9.10983 4.39016C9.03951 4.31984 9 4.22446 9 4.125V3H6.375V9H7.5C7.59946 9 7.69484 9.03951 7.76517 9.10983C7.83549 9.18016 7.875 9.27554 7.875 9.375C7.875 9.47446 7.83549 9.56984 7.76517 9.64017C7.69484 9.71049 7.59946 9.75 7.5 9.75H4.5C4.40054 9.75 4.30516 9.71049 4.23484 9.64017C4.16451 9.56984 4.125 9.47446 4.125 9.375C4.125 9.27554 4.16451 9.18016 4.23484 9.10983C4.30516 9.03951 4.40054 9 4.5 9H5.625V3H3V4.125C3 4.22446 2.96049 4.31984 2.89016 4.39016C2.81984 4.46049 2.72446 4.5 2.625 4.5C2.52554 4.5 2.43016 4.46049 2.35984 4.39016C2.28951 4.31984 2.25 4.22446 2.25 4.125V2.625C2.25 2.52554 2.28951 2.43016 2.35984 2.35984C2.43016 2.28951 2.52554 2.25 2.625 2.25H9.375C9.47446 2.25 9.56984 2.28951 9.64017 2.35984C9.71049 2.43016 9.75 2.52554 9.75 2.625Z" fill="#C1AB15"/>
</svg>
