<svg width="24" height="24" viewBox="0 0 24 24" fill="none" xmlns="http://www.w3.org/2000/svg">
<path d="M12 13.25C12.6904 13.25 13.25 12.6904 13.25 12C13.25 11.3096 12.6904 10.75 12 10.75C11.3096 10.75 10.75 11.3096 10.75 12C10.75 12.6904 11.3096 13.25 12 13.25Z" fill="currentColor"/>
<path d="M12 18.875C12.6904 18.875 13.25 18.3154 13.25 17.625C13.25 16.9346 12.6904 16.375 12 16.375C11.3096 16.375 10.75 16.9346 10.75 17.625C10.75 18.3154 11.3096 18.875 12 18.875Z" fill="currentColor"/>
<path d="M12 7.625C12.6904 7.625 13.25 7.06536 13.25 6.375C13.25 5.68464 12.6904 5.125 12 5.125C11.3096 5.125 10.75 5.68464 10.75 6.375C10.75 7.06536 11.3096 7.625 12 7.625Z" fill="currentColor"/>
</svg>
