<svg width="16" height="16" viewBox="0 0 16 16" fill="none" xmlns="http://www.w3.org/2000/svg">
<path d="M8 0.125C6.44248 0.125 4.91992 0.586861 3.62489 1.45218C2.32985 2.31749 1.32049 3.5474 0.724452 4.98637C0.128412 6.42534 -0.0275391 8.00874 0.276319 9.53634C0.580178 11.0639 1.3302 12.4671 2.43154 13.5685C3.53288 14.6698 4.93607 15.4198 6.46367 15.7237C7.99127 16.0275 9.57467 15.8716 11.0136 15.2756C12.4526 14.6795 13.6825 13.6702 14.5478 12.3751C15.4131 11.0801 15.875 9.55753 15.875 8C15.875 5.91142 15.0453 3.90838 13.5685 2.43153C12.0916 0.954685 10.0886 0.125 8 0.125ZM11.7744 10.9756C11.8271 11.0279 11.8689 11.0901 11.8975 11.1587C11.9261 11.2272 11.9408 11.3007 11.9408 11.375C11.9408 11.4493 11.9261 11.5228 11.8975 11.5913C11.8689 11.6599 11.8271 11.7221 11.7744 11.7744C11.7221 11.8271 11.6599 11.8689 11.5913 11.8975C11.5228 11.9261 11.4493 11.9408 11.375 11.9408C11.3007 11.9408 11.2272 11.9261 11.1587 11.8975C11.0901 11.8689 11.0279 11.8271 10.9756 11.7744L8 8.79875L5.02438 11.7744C4.97209 11.8271 4.90987 11.8689 4.84133 11.8975C4.77278 11.9261 4.69926 11.9408 4.625 11.9408C4.55075 11.9408 4.47722 11.9261 4.40868 11.8975C4.34013 11.8689 4.27792 11.8271 4.22563 11.7744C4.17291 11.7221 4.13106 11.6599 4.1025 11.5913C4.07394 11.5228 4.05924 11.4493 4.05924 11.375C4.05924 11.3007 4.07394 11.2272 4.1025 11.1587C4.13106 11.0901 4.17291 11.0279 4.22563 10.9756L7.20125 8L4.22563 5.02437C4.11971 4.91845 4.0602 4.77479 4.0602 4.625C4.0602 4.47521 4.11971 4.33155 4.22563 4.22563C4.33155 4.1197 4.47521 4.0602 4.625 4.0602C4.7748 4.0602 4.91846 4.1197 5.02438 4.22563L8 7.20125L10.9756 4.22563C11.0815 4.1197 11.2252 4.0602 11.375 4.0602C11.5248 4.0602 11.6685 4.1197 11.7744 4.22563C11.8803 4.33155 11.9398 4.47521 11.9398 4.625C11.9398 4.77479 11.8803 4.91845 11.7744 5.02437L8.79875 8L11.7744 10.9756Z" fill="white"/>
</svg>
