<svg width="26" height="26" viewBox="0 0 26 26" fill="none" xmlns="http://www.w3.org/2000/svg">
<path d="M13 0.75C10.5772 0.75 8.20877 1.46845 6.19427 2.8145C4.17977 4.16054 2.60965 6.07373 1.68248 8.31213C0.755308 10.5505 0.512717 13.0136 0.985386 15.3899C1.45805 17.7661 2.62475 19.9489 4.33795 21.6621C6.05114 23.3753 8.23388 24.542 10.6101 25.0146C12.9864 25.4873 15.4495 25.2447 17.6879 24.3175C19.9263 23.3904 21.8395 21.8202 23.1855 19.8057C24.5316 17.7912 25.25 15.4228 25.25 13C25.25 9.7511 23.9594 6.63526 21.6621 4.33794C19.3647 2.04062 16.2489 0.75 13 0.75V0.75ZM13.875 23.5V21.75C13.875 21.5179 13.7828 21.2954 13.6187 21.1313C13.4546 20.9672 13.2321 20.875 13 20.875C12.7679 20.875 12.5454 20.9672 12.3813 21.1313C12.2172 21.2954 12.125 21.5179 12.125 21.75V23.5C9.63895 23.3002 7.3052 22.2219 5.54163 20.4584C3.77806 18.6948 2.69983 16.3611 2.50001 13.875H4.25001C4.48207 13.875 4.70463 13.7828 4.86872 13.6187C5.03282 13.4546 5.12501 13.2321 5.12501 13C5.12501 12.7679 5.03282 12.5454 4.86872 12.3813C4.70463 12.2172 4.48207 12.125 4.25001 12.125H2.50001C2.69983 9.63895 3.77806 7.3052 5.54163 5.54162C7.3052 3.77805 9.63895 2.69982 12.125 2.5V4.25C12.125 4.48206 12.2172 4.70462 12.3813 4.86872C12.5454 5.03281 12.7679 5.125 13 5.125C13.2321 5.125 13.4546 5.03281 13.6187 4.86872C13.7828 4.70462 13.875 4.48206 13.875 4.25V2.5C16.3611 2.69982 18.6948 3.77805 20.4584 5.54162C22.222 7.3052 23.3002 9.63895 23.5 12.125H21.75C21.5179 12.125 21.2954 12.2172 21.1313 12.3813C20.9672 12.5454 20.875 12.7679 20.875 13C20.875 13.2321 20.9672 13.4546 21.1313 13.6187C21.2954 13.7828 21.5179 13.875 21.75 13.875H23.5C23.3002 16.3611 22.222 18.6948 20.4584 20.4584C18.6948 22.2219 16.3611 23.3002 13.875 23.5V23.5Z" fill="white"/>
<path d="M19.186 6.81377C19.0221 6.6508 18.8003 6.55933 18.5692 6.55933C18.338 6.55933 18.1162 6.6508 17.9523 6.81377L14.7498 9.99877C14.0797 9.61923 13.3054 9.46535 12.5411 9.5599C11.7769 9.65444 11.0634 9.99239 10.506 10.5238C9.85623 11.1836 9.49439 12.074 9.49978 13C9.50105 13.617 9.67045 14.2221 9.98978 14.75L6.81353 17.9525C6.65056 18.1165 6.55908 18.3382 6.55908 18.5694C6.55908 18.8006 6.65056 19.0223 6.81353 19.1863C6.97747 19.3492 7.19924 19.4407 7.4304 19.4407C7.66156 19.4407 7.88333 19.3492 8.04728 19.1863L11.2498 16.01C11.7777 16.3293 12.3828 16.4987 12.9998 16.5C13.928 16.5 14.8183 16.1313 15.4746 15.4749C16.131 14.8185 16.4998 13.9283 16.4998 13C16.4985 12.383 16.3291 11.778 16.0098 11.25L19.186 8.07377C19.2707 7.99215 19.3381 7.89429 19.3841 7.78604C19.4301 7.6778 19.4538 7.56139 19.4538 7.44377C19.4538 7.32615 19.4301 7.20974 19.3841 7.1015C19.3381 6.99325 19.2707 6.89539 19.186 6.81377V6.81377ZM14.2335 14.2338C13.9056 14.5597 13.4621 14.7427 12.9998 14.7427C12.5375 14.7427 12.0939 14.5597 11.766 14.2338C11.5202 13.9894 11.3525 13.6776 11.2842 13.3379C11.2158 12.9981 11.2498 12.6457 11.382 12.3254C11.5141 12.005 11.7384 11.7311 12.0264 11.5383C12.3145 11.3456 12.6532 11.2427 12.9998 11.2427C13.3463 11.2427 13.6851 11.3456 13.9731 11.5383C14.2611 11.7311 14.4854 12.005 14.6176 12.3254C14.7497 12.6457 14.7838 12.9981 14.7154 13.3379C14.647 13.6776 14.4793 13.9894 14.2335 14.2338Z" fill="white"/>
</svg>
