<svg width="18" height="18" viewBox="0 0 18 18" fill="none" xmlns="http://www.w3.org/2000/svg">
<g id="Icon">
<path id="Vector" fill-rule="evenodd" clip-rule="evenodd" d="M1.06249 17.1249C0.955688 17.1244 0.850779 17.0966 0.757776 17.0441C0.664774 16.9916 0.586782 16.9161 0.531244 16.8249C0.476389 16.7299 0.44751 16.6221 0.44751 16.5124C0.44751 16.4027 0.476389 16.2949 0.531244 16.1999L8.46874 0.574888C8.52119 0.472512 8.60088 0.386596 8.69902 0.326602C8.79717 0.266608 8.90997 0.234863 9.02499 0.234863C9.14002 0.234863 9.25282 0.266608 9.35097 0.326602C9.44911 0.386596 9.5288 0.472512 9.58124 0.574888L17.5187 16.1999C17.5736 16.2949 17.6025 16.4027 17.6025 16.5124C17.6025 16.6221 17.5736 16.7299 17.5187 16.8249C17.459 16.9237 17.3731 17.004 17.2705 17.057C17.1679 17.11 17.0526 17.1335 16.9375 17.1249H1.06249ZM15.9187 15.8749L8.99999 2.25614L2.08124 15.8749H15.9187ZM8.99999 14.6249C9.51776 14.6249 9.93749 14.2052 9.93749 13.6874C9.93749 13.1696 9.51776 12.7499 8.99999 12.7499C8.48223 12.7499 8.06249 13.1696 8.06249 13.6874C8.06249 14.2052 8.48223 14.6249 8.99999 14.6249ZM8.55805 11.3168C8.67526 11.434 8.83423 11.4999 8.99999 11.4999C9.16575 11.4999 9.32473 11.434 9.44194 11.3168C9.55915 11.1996 9.62499 11.0407 9.62499 10.8749V6.49989C9.62499 6.33413 9.55915 6.17516 9.44194 6.05795C9.32473 5.94074 9.16575 5.87489 8.99999 5.87489C8.83423 5.87489 8.67526 5.94074 8.55805 6.05795C8.44084 6.17516 8.37499 6.33413 8.37499 6.49989V10.8749C8.37499 11.0407 8.44084 11.1996 8.55805 11.3168Z" fill="currentColor"/>
</g>
</svg>
