<svg width="49" height="48" viewBox="0 0 49 48" fill="none" xmlns="http://www.w3.org/2000/svg">
<path d="M48.7826 44.7123L26.5576 0.962323C26.4108 0.67567 26.1876 0.435106 25.9128 0.267123C25.638 0.0991398 25.3222 0.0102539 25.0001 0.0102539C24.678 0.0102539 24.3622 0.0991398 24.0874 0.267123C23.8126 0.435106 23.5895 0.67567 23.4426 0.962323L1.21761 44.7123C1.06402 44.9784 0.983154 45.2801 0.983154 45.5873C0.983154 45.8945 1.06402 46.1963 1.21761 46.4623C1.38561 46.7184 1.61787 46.9259 1.89118 47.0641C2.1645 47.2023 2.46929 47.2663 2.77511 47.2498H47.2251C47.5242 47.2486 47.8179 47.1707 48.0783 47.0237C48.3387 46.8766 48.5571 46.6653 48.7126 46.4098C48.8675 46.1561 48.9552 45.8671 48.9674 45.5701C48.9797 45.2731 48.9161 44.9779 48.7826 44.7123ZM23.2501 15.7498C23.2501 15.2857 23.4345 14.8406 23.7627 14.5124C24.0909 14.1842 24.536 13.9998 25.0001 13.9998C25.4642 13.9998 25.9094 14.1842 26.2375 14.5124C26.5657 14.8406 26.7501 15.2857 26.7501 15.7498V29.7498C26.7501 30.214 26.5657 30.6591 26.2375 30.9873C25.9094 31.3155 25.4642 31.4998 25.0001 31.4998C24.536 31.4998 24.0909 31.3155 23.7627 30.9873C23.4345 30.6591 23.2501 30.214 23.2501 29.7498V15.7498ZM25.0001 41.9998C24.4809 41.9998 23.9734 41.8459 23.5417 41.5574C23.1101 41.269 22.7736 40.859 22.5749 40.3794C22.3762 39.8997 22.3243 39.3719 22.4255 38.8627C22.5268 38.3535 22.7768 37.8858 23.144 37.5187C23.5111 37.1516 23.9788 36.9016 24.488 36.8003C24.9972 36.699 25.525 36.751 26.0047 36.9496C26.4843 37.1483 26.8943 37.4848 27.1827 37.9165C27.4712 38.3481 27.6251 38.8556 27.6251 39.3748C27.6251 40.071 27.3485 40.7387 26.8563 41.231C26.364 41.7233 25.6963 41.9998 25.0001 41.9998Z" fill="currentColor"/>
</svg>
