<svg width="17" height="20" viewBox="0 0 17 20" fill="none" xmlns="http://www.w3.org/2000/svg">
<path d="M16.25 11.52C16.25 9.41949 15.3808 7.405 13.8336 5.91972C12.2865 4.43443 10.1881 3.6 8.00002 3.6H3.05752L5.53252 1.2312C5.60281 1.16427 5.65861 1.08463 5.69668 0.996897C5.73476 0.909159 5.75436 0.81505 5.75436 0.720001C5.75436 0.624952 5.73476 0.530846 5.69668 0.443106C5.65861 0.355368 5.60281 0.275736 5.53252 0.208803C5.46279 0.141317 5.37984 0.0877533 5.28845 0.051199C5.19705 0.0146465 5.09902 -0.00417328 5.00002 -0.00417328C4.90101 -0.00417328 4.80298 0.0146465 4.71158 0.051199C4.62019 0.0877533 4.53724 0.141317 4.46752 0.208803L0.717515 3.8088C0.647219 3.87574 0.591423 3.95537 0.553347 4.04311C0.51527 4.13085 0.495667 4.22495 0.495667 4.32C0.495667 4.41505 0.51527 4.50916 0.553347 4.5969C0.591423 4.68464 0.647219 4.76427 0.717515 4.8312L4.46752 8.4312C4.60874 8.56678 4.80029 8.64295 5.00002 8.64295C5.19974 8.64295 5.39129 8.56678 5.53252 8.4312C5.67374 8.29562 5.75308 8.11174 5.75308 7.92C5.75308 7.72826 5.67374 7.54438 5.53252 7.4088L3.05752 5.04H8.00002C9.79023 5.04 11.5071 5.72271 12.773 6.93795C14.0389 8.15319 14.75 9.8014 14.75 11.52C14.75 13.2386 14.0389 14.8868 12.773 16.1021C11.5071 17.3173 9.79023 18 8.00002 18H1.25002C1.0511 18 0.860338 18.0759 0.719685 18.2109C0.579033 18.3459 0.500015 18.529 0.500015 18.72C0.500015 18.911 0.579033 19.0941 0.719685 19.2291C0.860338 19.3641 1.0511 19.44 1.25002 19.44H8.00002C10.1881 19.44 12.2865 18.6056 13.8336 17.1203C15.3808 15.635 16.25 13.6205 16.25 11.52Z" fill="#374146"/>
</svg>
