<svg width="17" height="16" viewBox="0 0 17 16" fill="none" xmlns="http://www.w3.org/2000/svg">
<path d="M13.3624 8.18158C13.2802 8.18205 13.1986 8.16629 13.1225 8.13518C13.0463 8.10408 12.9771 8.05825 12.9187 8.00033C12.8023 7.88323 12.7369 7.72482 12.7369 7.5597C12.7369 7.39459 12.8023 7.23618 12.9187 7.11908L13.8062 6.23158C14.2753 5.76248 14.5388 5.12624 14.5388 4.46283C14.5388 3.79942 14.2753 3.16318 13.8062 2.69408C13.3371 2.22498 12.7008 1.96144 12.0374 1.96144C11.374 1.96144 10.7378 2.22498 10.2687 2.69408L7.61867 5.35033C7.50098 5.46802 7.34136 5.53413 7.17492 5.53413C7.00848 5.53413 6.84886 5.46802 6.73117 5.35033C6.61348 5.23264 6.54736 5.07302 6.54736 4.90658C6.54736 4.74014 6.61348 4.58052 6.73117 4.46283L9.38117 1.81283C9.72958 1.46441 10.1432 1.18804 10.5984 0.999478C11.0537 0.810918 11.5416 0.713867 12.0343 0.713867C12.527 0.713867 13.0149 0.810918 13.4702 0.999478C13.9254 1.18804 14.339 1.46441 14.6874 1.81283C15.0358 2.16124 15.3122 2.57487 15.5008 3.03009C15.6893 3.48532 15.7864 3.97322 15.7864 4.46595C15.7864 4.95868 15.6893 5.44659 15.5008 5.90181C15.3122 6.35704 15.0358 6.77066 14.6874 7.11908L13.8062 8.00033C13.7478 8.05825 13.6785 8.10408 13.6024 8.13518C13.5262 8.16629 13.4447 8.18205 13.3624 8.18158Z" fill="#008184"/>
<path d="M4.96252 15.2816C4.22132 15.2809 3.49694 15.0606 2.88086 14.6485C2.26478 14.2364 1.78465 13.651 1.50109 12.9662C1.21753 12.2814 1.14328 11.5279 1.2877 10.8009C1.43212 10.0739 1.78874 9.40599 2.31252 8.88155L3.19377 8.0003C3.25188 7.94172 3.321 7.89523 3.39716 7.8635C3.47333 7.83177 3.55502 7.81543 3.63752 7.81543C3.72003 7.81543 3.80172 7.83177 3.87788 7.8635C3.95405 7.89523 4.02317 7.94172 4.08127 8.0003C4.19768 8.11741 4.26302 8.27581 4.26302 8.44093C4.26302 8.60604 4.19768 8.76445 4.08127 8.88155L3.19377 9.76905C2.72467 10.2382 2.46113 10.8744 2.46113 11.5378C2.46113 11.8663 2.52583 12.1916 2.65154 12.495C2.77725 12.7985 2.9615 13.0743 3.19377 13.3066C3.42605 13.5388 3.7018 13.7231 4.00528 13.8488C4.30877 13.9745 4.63404 14.0392 4.96252 14.0392C5.62593 14.0392 6.26217 13.7757 6.73127 13.3066L9.38127 10.6503C9.49896 10.5326 9.65859 10.4665 9.82502 10.4665C9.99146 10.4665 10.1511 10.5326 10.2688 10.6503C10.3865 10.768 10.4526 10.9276 10.4526 11.0941C10.4526 11.2605 10.3865 11.4201 10.2688 11.5378L7.61877 14.1878C7.26963 14.5357 6.85532 14.8114 6.39953 14.9991C5.94375 15.1868 5.45543 15.2828 4.96252 15.2816Z" fill="#008184"/>
<path d="M16 10.5H14.125C13.9592 10.5 13.8003 10.4342 13.6831 10.3169C13.5658 10.1997 13.5 10.0408 13.5 9.875C13.5 9.70924 13.5658 9.55027 13.6831 9.43306C13.8003 9.31585 13.9592 9.25 14.125 9.25H16C16.1658 9.25 16.3247 9.31585 16.4419 9.43306C16.5592 9.55027 16.625 9.70924 16.625 9.875C16.625 10.0408 16.5592 10.1997 16.4419 10.3169C16.3247 10.4342 16.1658 10.5 16 10.5Z" fill="#008184"/>
<path d="M13.5001 13.6256C13.4179 13.6261 13.3363 13.6103 13.2602 13.5792C13.184 13.5481 13.1148 13.5023 13.0564 13.4444L11.8064 12.1944C11.6887 12.0767 11.6226 11.917 11.6226 11.7506C11.6226 11.5842 11.6887 11.4245 11.8064 11.3069C11.9241 11.1892 12.0837 11.123 12.2501 11.123C12.4166 11.123 12.5762 11.1892 12.6939 11.3069L13.9439 12.5569C14.0024 12.615 14.0489 12.6841 14.0807 12.7602C14.1124 12.8364 14.1287 12.9181 14.1287 13.0006C14.1287 13.0831 14.1124 13.1648 14.0807 13.241C14.0489 13.3171 14.0024 13.3863 13.9439 13.4444C13.8855 13.5023 13.8162 13.5481 13.7401 13.5792C13.6639 13.6103 13.5824 13.6261 13.5001 13.6256Z" fill="#008184"/>
<path d="M4.75012 4.8756C4.66786 4.87608 4.58632 4.86031 4.51017 4.82921C4.43403 4.79811 4.36477 4.75228 4.30637 4.69435L3.05637 3.44435C2.93868 3.32666 2.87256 3.16704 2.87256 3.0006C2.87256 2.91819 2.88879 2.83659 2.92033 2.76045C2.95187 2.68431 2.99809 2.61513 3.05637 2.55685C3.11464 2.49858 3.18382 2.45235 3.25996 2.42082C3.3361 2.38928 3.4177 2.37305 3.50012 2.37305C3.66655 2.37305 3.82618 2.43916 3.94387 2.55685L5.19387 3.80685C5.25245 3.86496 5.29894 3.93408 5.33067 4.01024C5.3624 4.08641 5.37874 4.1681 5.37874 4.2506C5.37874 4.33311 5.3624 4.4148 5.33067 4.49096C5.29894 4.56713 5.25245 4.63625 5.19387 4.69435C5.13547 4.75228 5.06621 4.79811 4.99006 4.82921C4.91391 4.86031 4.83237 4.87608 4.75012 4.8756Z" fill="#008184"/>
<path d="M2.875 6.75H1C0.83424 6.75 0.675268 6.68415 0.558058 6.56694C0.440848 6.44973 0.375 6.29076 0.375 6.125C0.375 5.95924 0.440848 5.80027 0.558058 5.68306C0.675268 5.56585 0.83424 5.5 1 5.5H2.875C3.04076 5.5 3.19973 5.56585 3.31694 5.68306C3.43415 5.80027 3.5 5.95924 3.5 6.125C3.5 6.29076 3.43415 6.44973 3.31694 6.56694C3.19973 6.68415 3.04076 6.75 2.875 6.75Z" fill="#008184"/>
</svg>
