<svg width="40" height="40" viewBox="0 0 40 40" fill="none" xmlns="http://www.w3.org/2000/svg">
<rect width="40" height="40" rx="20" fill="#008184"/>
<path d="M32.7825 20.5317L26.0325 27.2817C25.9628 27.352 25.8798 27.4078 25.7884 27.4458C25.697 27.4839 25.599 27.5035 25.5 27.5035C25.401 27.5035 25.303 27.4839 25.2116 27.4458C25.1202 27.4078 25.0372 27.352 24.9675 27.2817C24.8972 27.2119 24.8414 27.129 24.8033 27.0376C24.7653 26.9462 24.7457 26.8482 24.7457 26.7492C24.7457 26.6502 24.7653 26.5521 24.8033 26.4607C24.8414 26.3693 24.8972 26.2864 24.9675 26.2167L30.4425 20.7492H20.75C20.5511 20.7492 20.3603 20.6701 20.2197 20.5295C20.079 20.3888 20 20.1981 20 19.9992C20 19.8003 20.079 19.6095 20.2197 19.4688C20.3603 19.3282 20.5511 19.2492 20.75 19.2492H30.4425L24.9675 13.7817C24.8263 13.6404 24.7469 13.4489 24.7469 13.2492C24.7469 13.0494 24.8263 12.8579 24.9675 12.7167C25.1087 12.5754 25.3003 12.4961 25.5 12.4961C25.6997 12.4961 25.8913 12.5754 26.0325 12.7167L32.7825 19.4667C32.8528 19.5364 32.9086 19.6193 32.9467 19.7107C32.9847 19.8021 33.0043 19.9002 33.0043 19.9992C33.0043 20.0982 32.9847 20.1962 32.9467 20.2876C32.9086 20.379 32.8528 20.4619 32.7825 20.5317Z" fill="white"/>
<circle cx="11.9375" cy="20.0625" r="5.5" fill="white"/>
<path fill-rule="evenodd" clip-rule="evenodd" d="M12.0032 16.2969C11.5613 16.2969 11.2032 16.655 11.2032 17.0969V19.9969C11.2032 19.9981 11.2032 19.9993 11.2032 20.0006C11.2008 20.2084 11.2788 20.417 11.4374 20.5756L13.488 22.6262C13.8005 22.9387 14.307 22.9387 14.6194 22.6262C14.9318 22.3138 14.9318 21.8073 14.6194 21.4949L12.8032 19.6786V17.0969C12.8032 16.655 12.445 16.2969 12.0032 16.2969Z" fill="#008184"/>
</svg>
