<svg width="24" height="24" viewBox="0 0 24 24" fill="none" xmlns="http://www.w3.org/2000/svg">
<path fill-rule="evenodd" clip-rule="evenodd" d="M18.2884 8.95108C18.3798 8.913 18.4628 8.85721 18.5325 8.78691C18.6028 8.71719 18.6586 8.63424 18.6967 8.54284C18.7347 8.45145 18.7544 8.35342 18.7544 8.25441C18.7544 8.1554 18.7347 8.05737 18.6967 7.96598C18.6586 7.87458 18.6028 7.79163 18.5325 7.72191L12.5325 1.72191C12.4628 1.65161 12.3798 1.59582 12.2884 1.55774C12.197 1.51966 12.099 1.50006 12 1.50006C11.901 1.50006 11.803 1.51966 11.7116 1.55774C11.6202 1.59582 11.5372 1.65161 11.4675 1.72191L5.4675 7.72191C5.32627 7.86314 5.24693 8.05468 5.24693 8.25441C5.24693 8.45414 5.32627 8.64568 5.4675 8.78691C5.60873 8.92814 5.80028 9.00748 6 9.00748C6.19973 9.00748 6.39127 8.92814 6.5325 8.78691L11.25 4.06191V16.5044C11.25 16.7033 11.329 16.8941 11.4697 17.0347C11.6103 17.1754 11.8011 17.2544 12 17.2544C12.1989 17.2544 12.3897 17.1754 12.5303 17.0347C12.671 16.8941 12.75 16.7033 12.75 16.5044V4.06191L17.4675 8.78691C17.5372 8.85721 17.6202 8.913 17.7116 8.95108C17.803 8.98916 17.901 9.00876 18 9.00876C18.099 9.00876 18.197 8.98916 18.2884 8.95108ZM4.28033 15.2197C4.13968 15.0791 3.94891 15.0001 3.75 15.0001C3.55109 15.0001 3.36032 15.0791 3.21967 15.2197C3.07902 15.3604 3 15.5511 3 15.7501L3 20.2501C3 20.449 3.07902 20.6397 3.21967 20.7804C3.36032 20.921 3.55109 21.0001 3.75 21.0001L20.25 21.0001C20.4489 21.0001 20.6397 20.921 20.7803 20.7804C20.921 20.6397 21 20.449 21 20.2501V15.7501C21 15.5511 20.921 15.3604 20.7803 15.2197C20.6397 15.0791 20.4489 15.0001 20.25 15.0001C20.0511 15.0001 19.8603 15.0791 19.7197 15.2197C19.579 15.3604 19.5 15.5511 19.5 15.7501V19.5001L4.5 19.5001L4.5 15.7501C4.5 15.5511 4.42098 15.3604 4.28033 15.2197Z" fill="#374146"/>
</svg>
