<svg xmlns="http://www.w3.org/2000/svg" width="12" height="15" viewBox="0 0 12 15" fill="none">
  <path d="M10.5 6.50085C10.5 6.63586 10.4445 6.76135 10.3545 6.85632L6.5 10.7059V12.6063C6.93985 12.8014 7.25 13.241 7.25 13.7509C7.25 14.4408 6.68994 15.0008 6 15.0009C5.31 15.0009 4.75 14.4409 4.75 13.7509C4.75 13.2409 5.06004 12.8013 5.5 12.6063V11.3104L4.8252 10.9706L10.5 5.29578V6.50085ZM5.64453 0.146362C5.83948 -0.0487077 6.15955 -0.0487077 6.35449 0.146362L7.35449 1.14636C7.49446 1.29132 7.54003 1.50631 7.45996 1.69128C7.38495 1.88107 7.19985 2.0008 7 2.00085H6.5V6.29382L8.75 4.04382V3.00085C8.75001 2.72584 8.97498 2.50085 9.25 2.50085H10.293L11.1465 1.64734C11.3418 1.4521 11.6582 1.45205 11.8535 1.64734C12.0487 1.84263 12.0487 2.15907 11.8535 2.35437L0.853516 13.3544C0.755894 13.452 0.627887 13.5008 0.5 13.5009C0.372095 13.5009 0.244132 13.452 0.146484 13.3544C-0.0488256 13.1591 -0.0488256 12.8426 0.146484 12.6473L2.82422 9.9696L1.77441 9.44617C1.60453 9.3611 1.5 9.19075 1.5 9.00085V7.39636C1.06 7.20129 0.75 6.76086 0.75 6.25085C0.750007 5.56086 1.31 5.00085 2 5.00085C2.68994 5.00092 3.24999 5.5609 3.25 6.25085C3.25 6.76086 2.94 7.20129 2.5 7.39636V8.69128L3.56934 9.22449L5.5 7.29382V2.00085H5C4.80013 2.00085 4.61509 1.88105 4.54004 1.69128C4.46004 1.50647 4.50484 1.29132 4.64453 1.14636L5.64453 0.146362Z" fill="#C9D2D2"/>
</svg>