<svg width="15" height="19" viewBox="0 0 15 19" fill="none" xmlns="http://www.w3.org/2000/svg">
<path d="M14.0625 3.87472V5.74972C14.0625 5.91548 13.9967 6.07445 13.8794 6.19166C13.7622 6.30887 13.6033 6.37472 13.4375 6.37472H13.125V8.24972C13.1247 8.36514 13.0924 8.4782 13.0317 8.57638C12.971 8.67457 12.8843 8.75403 12.7813 8.80597L8.125 11.1372V15.881C8.454 16.0246 8.72353 16.277 8.88826 16.596C9.05299 16.9149 9.10288 17.2809 9.02954 17.6323C8.9562 17.9837 8.7641 18.2991 8.48555 18.5255C8.20699 18.7519 7.85897 18.8755 7.5 18.8755C7.14103 18.8755 6.79301 18.7519 6.51446 18.5255C6.2359 18.2991 6.0438 17.9837 5.97046 17.6323C5.89712 17.2809 5.94701 16.9149 6.11174 16.596C6.27647 16.277 6.546 16.0246 6.875 15.881V14.2622L2.21875 11.931C2.11568 11.879 2.029 11.7996 1.96833 11.7014C1.90765 11.6032 1.87535 11.4901 1.875 11.3747V9.36847C1.546 9.22488 1.27647 8.97239 1.11174 8.65345C0.94701 8.33451 0.89712 7.96858 0.970461 7.61718C1.0438 7.26578 1.2359 6.95035 1.51446 6.72393C1.79301 6.49751 2.14103 6.37391 2.5 6.37391C2.85897 6.37391 3.20699 6.49751 3.48555 6.72393C3.7641 6.95035 3.9562 7.26578 4.02954 7.61718C4.10288 7.96858 4.05299 8.33451 3.88826 8.65345C3.72353 8.97239 3.454 9.22488 3.125 9.36847V10.9872L6.875 12.8622V2.62472H6.25C6.12555 2.62534 6.00374 2.58879 5.90018 2.51976C5.79663 2.45072 5.71604 2.35234 5.66875 2.23722C5.62167 2.12281 5.6096 1.99699 5.63408 1.87572C5.65856 1.75444 5.71848 1.64316 5.80625 1.55597L7.05625 0.305968C7.11435 0.247387 7.18348 0.200891 7.25964 0.169161C7.3358 0.13743 7.41749 0.121094 7.5 0.121094C7.58251 0.121094 7.6642 0.13743 7.74036 0.169161C7.81652 0.200891 7.88565 0.247387 7.94375 0.305968L9.19375 1.55597C9.28047 1.64386 9.33922 1.75547 9.36258 1.87671C9.38594 1.99795 9.37286 2.1234 9.325 2.23722C9.27811 2.35135 9.19849 2.44906 9.09617 2.51802C8.99384 2.58698 8.87339 2.6241 8.75 2.62472H8.125V9.73722L11.875 7.86222V6.37472H11.5625C11.3967 6.37472 11.2378 6.30887 11.1206 6.19166C11.0034 6.07445 10.9375 5.91548 10.9375 5.74972V3.87472C10.9375 3.70896 11.0034 3.54999 11.1206 3.43278C11.2378 3.31557 11.3967 3.24972 11.5625 3.24972H13.4375C13.6033 3.24972 13.7622 3.31557 13.8794 3.43278C13.9967 3.54999 14.0625 3.70896 14.0625 3.87472Z" fill="#374146"/>
</svg>
