<svg width="11" height="16" viewBox="0 0 11 16" fill="none" xmlns="http://www.w3.org/2000/svg">
<path d="M10.5 3.49997V4.99997C10.5 5.13258 10.4473 5.25975 10.3536 5.35352C10.2598 5.44729 10.1326 5.49997 10 5.49997H9.75V6.99997C9.74972 7.0923 9.72388 7.18276 9.67534 7.2613C9.6268 7.33985 9.55746 7.40342 9.475 7.44497L5.75 9.30997V13.105C6.0132 13.2198 6.22882 13.4218 6.36061 13.677C6.4924 13.9321 6.53231 14.2249 6.47363 14.506C6.41496 14.7871 6.26128 15.0395 6.03844 15.2206C5.81559 15.4017 5.53718 15.5006 5.25 15.5006C4.96283 15.5006 4.68441 15.4017 4.46156 15.2206C4.23872 15.0395 4.08504 14.7871 4.02637 14.506C3.9677 14.2249 4.00761 13.9321 4.13939 13.677C4.27118 13.4218 4.4868 13.2198 4.75 13.105V11.81L1.025 9.94497C0.942545 9.90342 0.873203 9.83985 0.824663 9.7613C0.776123 9.68276 0.750282 9.5923 0.750002 9.49997V7.89497C0.486801 7.7801 0.27118 7.57811 0.139394 7.32295C0.00760831 7.0678 -0.0323038 6.77506 0.0263688 6.49394C0.0850415 6.21282 0.23872 5.96048 0.461565 5.77934C0.684409 5.59821 0.962826 5.49933 1.25 5.49933C1.53718 5.49933 1.81559 5.59821 2.03844 5.77934C2.26128 5.96048 2.41496 6.21282 2.47363 6.49394C2.53231 6.77506 2.49239 7.0678 2.36061 7.32295C2.22882 7.57811 2.0132 7.7801 1.75 7.89497V9.18997L4.75 10.69V2.49997H4.25C4.15044 2.50047 4.05299 2.47123 3.97015 2.416C3.8873 2.36077 3.82284 2.28207 3.785 2.18997C3.74734 2.09844 3.73768 1.99779 3.75726 1.90077C3.77685 1.80375 3.82478 1.71472 3.895 1.64497L4.895 0.644969C4.94148 0.598105 4.99678 0.560908 5.05771 0.535524C5.11864 0.510139 5.184 0.49707 5.25 0.49707C5.31601 0.49707 5.38136 0.510139 5.44229 0.535524C5.50322 0.560908 5.55852 0.598105 5.605 0.644969L6.605 1.64497C6.67438 1.71528 6.72138 1.80457 6.74007 1.90156C6.75875 1.99856 6.74829 2.09891 6.71 2.18997C6.67249 2.28128 6.60879 2.35944 6.52693 2.41461C6.44507 2.46978 6.34871 2.49948 6.25 2.49997H5.75V8.18997L8.75 6.68997V5.49997H8.5C8.36739 5.49997 8.24022 5.44729 8.14645 5.35352C8.05268 5.25975 8 5.13258 8 4.99997V3.49997C8 3.36736 8.05268 3.24018 8.14645 3.14642C8.24022 3.05265 8.36739 2.99997 8.5 2.99997H10C10.1326 2.99997 10.2598 3.05265 10.3536 3.14642C10.4473 3.24018 10.5 3.36736 10.5 3.49997Z" fill="#DCF2ED"/>
</svg>
