<svg width="22" height="22" viewBox="0 0 22 22" fill="none" xmlns="http://www.w3.org/2000/svg">
<path fill-rule="evenodd" clip-rule="evenodd" d="M9.35386 9.37746C9.05219 9.08628 8.708 8.84804 8.33743 8.67863C8.6762 8.30277 8.88274 7.80512 8.88274 7.26511C8.88274 6.0951 7.93508 5.14746 6.7651 5.14746C5.59499 5.14746 4.64745 6.0951 4.64745 7.26511C4.64745 7.80512 4.84856 8.29747 5.18746 8.67333C4.1497 9.16571 3.36102 10.1239 3.12797 11.3098C3.06981 11.6116 3.14917 11.9292 3.35042 12.1675C3.55153 12.4163 3.85333 12.5592 4.1709 12.5592H7.24151C7.53802 12.5592 7.77093 12.321 7.77093 12.0298C7.77093 11.7386 7.53802 11.5004 7.24151 11.5004L4.1656 11.511C4.40924 10.2775 5.50503 9.38276 6.7651 9.38276C7.45853 9.38276 8.11512 9.65276 8.61804 10.1398C8.82445 10.341 9.15805 10.3357 9.36446 10.1292C9.56557 9.91747 9.56557 9.58393 9.35386 9.37746ZM5.70627 7.26511C5.70627 6.68277 6.18269 6.20628 6.7651 6.20628C7.34737 6.20628 7.82392 6.68277 7.82392 7.26511C7.82392 7.84745 7.34737 8.32393 6.7651 8.32393C6.18269 8.32393 5.70627 7.84745 5.70627 7.26511ZM14.6374 16.6039C14.4045 15.4233 13.6157 14.4598 12.5781 13.9727C12.9115 13.5969 13.1181 13.0992 13.1181 12.5592C13.1181 11.3892 12.1704 10.4416 11.0004 10.4416C9.83033 10.4416 8.8828 11.3892 8.8828 12.5592C8.8828 13.0992 9.08921 13.5969 9.42281 13.9727C8.38505 14.4598 7.59636 15.4233 7.36332 16.6039C7.30516 16.9057 7.38452 17.2233 7.58033 17.4616C7.78688 17.7104 8.08868 17.8533 8.40625 17.8533H13.5945C13.9122 17.8533 14.214 17.7104 14.4151 17.4616C14.6162 17.2233 14.6957 16.9057 14.6374 16.6039ZM9.94162 12.5592C9.94162 11.9769 10.418 11.5004 11.0004 11.5004C11.5827 11.5004 12.0593 11.9769 12.0593 12.5592C12.0593 13.1416 11.5827 13.618 11.0004 13.618C10.418 13.618 9.94162 13.1416 9.94162 12.5592ZM8.40625 16.7945C8.65518 15.5663 9.74568 14.6769 11.0004 14.6769C12.2604 14.6769 13.351 15.5716 13.5945 16.7945H8.40625ZM16.8133 8.67333C17.851 9.16571 18.6398 10.1239 18.8727 11.3098C18.931 11.6116 18.8515 11.9292 18.6504 12.1675C18.4493 12.4163 18.1475 12.5592 17.8298 12.5592H14.7591C14.4626 12.5592 14.2297 12.321 14.2297 12.0298C14.2297 11.7386 14.4626 11.5004 14.7591 11.5004H17.8298C17.5915 10.2775 16.4956 9.38276 15.2357 9.38276C14.5421 9.38276 13.8857 9.65276 13.3827 10.1398C13.1762 10.341 12.8427 10.3357 12.6362 10.1292C12.4351 9.91747 12.4351 9.58393 12.6468 9.37746C12.9486 9.08628 13.2927 8.84804 13.6634 8.67863C13.3245 8.30277 13.118 7.80512 13.118 7.26511C13.118 6.0951 14.0656 5.14746 15.2357 5.14746C16.4057 5.14746 17.3533 6.0951 17.3533 7.26511C17.3533 7.80512 17.1521 8.29747 16.8133 8.67333ZM15.2357 6.20628C14.6533 6.20628 14.1769 6.68277 14.1769 7.26511C14.1769 7.84745 14.6533 8.32393 15.2357 8.32393C15.818 8.32393 16.2945 7.84745 16.2945 7.26511C16.2945 6.68277 15.818 6.20628 15.2357 6.20628Z" fill="#374146"/>
</svg>
