<svg width="14" height="15" viewBox="0 0 14 15" fill="none" xmlns="http://www.w3.org/2000/svg">
<path fill-rule="evenodd" clip-rule="evenodd" d="M11.7163 5.71329C11.7849 5.68474 11.8471 5.64289 11.8994 5.59017C11.9521 5.53787 11.9939 5.47566 12.0225 5.40712C12.0511 5.33857 12.0658 5.26505 12.0658 5.19079C12.0658 5.11654 12.0511 5.04301 12.0225 4.97447C11.9939 4.90592 11.9521 4.84371 11.8994 4.79142L7.39938 0.291417C7.34708 0.238695 7.28487 0.196848 7.21633 0.168291C7.14778 0.139733 7.07426 0.125031 7 0.125031C6.92575 0.125031 6.85222 0.139733 6.78368 0.168291C6.71513 0.196848 6.65292 0.238695 6.60063 0.291417L2.10063 4.79142C1.99471 4.89734 1.9352 5.041 1.9352 5.19079C1.9352 5.34059 1.99471 5.48425 2.10063 5.59017C2.20655 5.69609 2.35021 5.75559 2.5 5.75559C2.6498 5.75559 2.79346 5.69609 2.89938 5.59017L6.4375 2.04642V11.3783C6.4375 11.5275 6.49677 11.6706 6.60225 11.776C6.70774 11.8815 6.85082 11.9408 7 11.9408C7.14919 11.9408 7.29226 11.8815 7.39775 11.776C7.50324 11.6706 7.5625 11.5275 7.5625 11.3783V2.04642L11.1006 5.59017C11.1529 5.64289 11.2151 5.68474 11.2837 5.71329C11.3522 5.74185 11.4257 5.75655 11.5 5.75655C11.5743 5.75655 11.6478 5.74185 11.7163 5.71329ZM1.21025 10.4148C1.10476 10.3093 0.961685 10.25 0.812501 10.25C0.663317 10.25 0.520242 10.3093 0.414753 10.4148C0.309264 10.5203 0.25 10.6633 0.25 10.8125V14.1875C0.25 14.3367 0.309263 14.4798 0.414753 14.5853C0.520242 14.6908 0.663316 14.75 0.812501 14.75L13.1875 14.75C13.3367 14.75 13.4798 14.6908 13.5852 14.5853C13.6907 14.4798 13.75 14.3367 13.75 14.1875V10.8125C13.75 10.6633 13.6907 10.5203 13.5852 10.4148C13.4798 10.3093 13.3367 10.25 13.1875 10.25C13.0383 10.25 12.8952 10.3093 12.7898 10.4148C12.6843 10.5203 12.625 10.6633 12.625 10.8125V13.625L1.375 13.625L1.375 10.8125C1.375 10.6633 1.31574 10.5203 1.21025 10.4148Z" fill="#95A5A6"/>
</svg>
