<svg width="48" height="48" viewBox="0 0 48 48" fill="none" xmlns="http://www.w3.org/2000/svg">
<path d="M47.7995 44.7021L25.5745 0.952069C25.4276 0.665417 25.2045 0.424852 24.9297 0.256869C24.6549 0.0888859 24.339 0 24.017 0C23.6949 0 23.379 0.0888859 23.1042 0.256869C22.8294 0.424852 22.6063 0.665417 22.4595 0.952069L0.234456 44.7021C0.0808613 44.9681 0 45.2699 0 45.5771C0 45.8843 0.0808613 46.186 0.234456 46.4521C0.402456 46.7081 0.634717 46.9156 0.90803 47.0538C1.18134 47.192 1.48614 47.2561 1.79196 47.2396H46.242C46.541 47.2383 46.8348 47.1605 47.0952 47.0134C47.3556 46.8664 47.5739 46.655 47.7295 46.3996C47.8843 46.1459 47.972 45.8569 47.9843 45.5599C47.9965 45.2629 47.9329 44.9677 47.7995 44.7021ZM22.267 15.7396C22.267 15.2754 22.4513 14.8303 22.7795 14.5021C23.1077 14.1739 23.5528 13.9896 24.017 13.9896C24.4811 13.9896 24.9262 14.1739 25.2544 14.5021C25.5826 14.8303 25.767 15.2754 25.767 15.7396V29.7396C25.767 30.2037 25.5826 30.6488 25.2544 30.977C24.9262 31.3052 24.4811 31.4896 24.017 31.4896C23.5528 31.4896 23.1077 31.3052 22.7795 30.977C22.4513 30.6488 22.267 30.2037 22.267 29.7396V15.7396ZM24.017 41.9896C23.4978 41.9896 22.9903 41.8356 22.5586 41.5472C22.1269 41.2587 21.7905 40.8488 21.5918 40.3691C21.3931 39.8895 21.3411 39.3617 21.4424 38.8525C21.5437 38.3433 21.7937 37.8755 22.1608 37.5084C22.5279 37.1413 22.9956 36.8913 23.5048 36.79C24.014 36.6887 24.5418 36.7407 25.0215 36.9394C25.5012 37.1381 25.9111 37.4745 26.1996 37.9062C26.488 38.3379 26.642 38.8454 26.642 39.3646C26.642 40.0608 26.3654 40.7284 25.8731 41.2207C25.3808 41.713 24.7132 41.9896 24.017 41.9896Z" fill="currentColor"/>
</svg>
