<svg viewBox="0 0 24 24" fill="none" xmlns="http://www.w3.org/2000/svg">
<path d="M8.21855 9.99219C8.90215 9.99219 9.4181 10.1436 9.76641 10.4463C10.118 10.749 10.2937 11.221 10.2937 11.8623V15.5H9.47832L9.25859 14.7334H9.21953C9.06654 14.9287 8.90866 15.0898 8.7459 15.2168C8.58314 15.3438 8.39434 15.4382 8.17949 15.5C7.9679 15.5651 7.70911 15.5977 7.40312 15.5977C7.08086 15.5977 6.79277 15.5391 6.53887 15.4219C6.28496 15.3014 6.08477 15.1191 5.93828 14.875C5.7918 14.6309 5.71855 14.3216 5.71855 13.9473C5.71855 13.3906 5.92526 12.9723 6.33867 12.6924C6.75534 12.4124 7.38359 12.2578 8.22344 12.2285L9.16094 12.1943V11.9111C9.16094 11.5368 9.07305 11.2699 8.89727 11.1104C8.72474 10.9508 8.4806 10.8711 8.16484 10.8711C7.89466 10.8711 7.63262 10.9102 7.37871 10.9883C7.1248 11.0664 6.87741 11.1624 6.63652 11.2764L6.26543 10.4658C6.5291 10.3258 6.82858 10.2119 7.16387 10.124C7.50241 10.0361 7.85397 9.99219 8.21855 9.99219ZM9.15605 12.917L8.45781 12.9414C7.8849 12.9609 7.48288 13.0586 7.25176 13.2344C7.02064 13.4102 6.90508 13.651 6.90508 13.957C6.90508 14.224 6.98483 14.4193 7.14434 14.543C7.30384 14.6634 7.5138 14.7236 7.77422 14.7236C8.17135 14.7236 8.50013 14.6113 8.76055 14.3867C9.02422 14.1589 9.15605 13.8252 9.15605 13.3857V12.917ZM18.1086 9.99219C18.7141 9.99219 19.1698 10.1484 19.4758 10.4609C19.785 10.7734 19.9396 11.2747 19.9396 11.9648V15.5H18.7922V12.1699C18.7922 11.7598 18.7124 11.4505 18.5529 11.2422C18.3934 11.0339 18.1509 10.9297 17.8254 10.9297C17.3697 10.9297 17.0409 11.0762 16.8391 11.3691C16.6405 11.6589 16.5412 12.0804 16.5412 12.6338V15.5H15.3937V12.1699C15.3937 11.8965 15.3579 11.6686 15.2863 11.4863C15.218 11.3008 15.1122 11.1624 14.9689 11.0713C14.8257 10.9769 14.6451 10.9297 14.427 10.9297C14.1112 10.9297 13.8589 11.0013 13.6701 11.1445C13.4846 11.2878 13.3511 11.4993 13.2697 11.7793C13.1883 12.056 13.1477 12.3962 13.1477 12.7998V15.5H12.0002V10.0947H12.8937L13.0549 10.8223H13.1184C13.229 10.6335 13.3658 10.4788 13.5285 10.3584C13.6945 10.2347 13.8785 10.1436 14.0803 10.085C14.2821 10.0231 14.4921 9.99219 14.7102 9.99219C15.1138 9.99219 15.454 10.0638 15.7307 10.207C16.0074 10.347 16.2141 10.5618 16.3508 10.8516H16.4387C16.6079 10.5586 16.8439 10.3421 17.1467 10.2021C17.4494 10.0622 17.7701 9.99219 18.1086 9.99219Z" fill="#171E21"/>
<line x1="5" y1="17.5" x2="21" y2="17.5" stroke="#171E21"/>
<line x1="4.5" y1="18" x2="4.5" y2="15" stroke="#171E21"/>
<line x1="21.5" y1="18" x2="21.5" y2="15" stroke="#171E21"/>
</svg>
