<svg width="42" height="32" viewBox="0 0 42 32" fill="none" xmlns="http://www.w3.org/2000/svg">
<path d="M21.0005 26.001C22.6571 26.0012 24.0005 27.3443 24.0005 29.001C24.0002 30.6575 22.657 32.0007 21.0005 32.001C19.3438 32.001 18.0008 30.6576 18.0005 29.001C18.0005 27.3441 19.3436 26.001 21.0005 26.001ZM21.0005 18.5C22.3792 18.5001 23.7444 18.7713 25.0181 19.2988C26.2921 19.8266 27.4503 20.6001 28.4253 21.5752C28.6368 21.785 28.7808 22.0536 28.8394 22.3457C28.8979 22.6378 28.8686 22.9407 28.7544 23.2158C28.6402 23.491 28.446 23.7259 28.1978 23.8906C27.9495 24.0553 27.6577 24.1424 27.3599 24.1406C26.9643 24.135 26.587 23.973 26.3101 23.6904C25.6134 22.992 24.7857 22.4377 23.8745 22.0596C22.9635 21.6816 21.9868 21.4874 21.0005 21.4873C20.014 21.4873 19.0367 21.6815 18.1255 22.0596C17.2143 22.4377 16.3866 22.992 15.69 23.6904C15.4089 23.9698 15.0286 24.127 14.6323 24.127C14.2361 24.1269 13.8557 23.9698 13.5747 23.6904C13.2955 23.4094 13.1392 23.029 13.1392 22.6328C13.1392 22.2366 13.2954 21.8562 13.5747 21.5752C14.5497 20.6001 15.708 19.8266 16.9819 19.2988C18.2558 18.7712 19.6217 18.5 21.0005 18.5ZM21.0005 9.50781C26.1701 9.50794 31.1282 11.5604 34.7847 15.2148C35.064 15.4958 35.2211 15.8763 35.2212 16.2725C35.2212 16.6687 35.0641 17.049 34.7847 17.3301C34.5053 17.6072 34.1284 17.764 33.7349 17.7656C33.5375 17.7667 33.3414 17.7289 33.1587 17.6543C32.9761 17.5797 32.8105 17.469 32.6704 17.3301C31.1382 15.7971 29.3183 14.5816 27.3159 13.752C25.3137 12.9223 23.1678 12.4952 21.0005 12.4951C18.833 12.4951 16.6865 12.9223 14.6841 13.752C12.6817 14.5816 10.8619 15.7971 9.3296 17.3301C9.04267 17.5757 8.67385 17.704 8.2964 17.6895C7.91893 17.6749 7.56059 17.5191 7.29347 17.252C7.02635 16.9848 6.8696 16.6265 6.85499 16.249C6.84041 15.8715 6.9696 15.5018 7.21534 15.2148C10.872 11.5603 15.8307 9.50781 21.0005 9.50781ZM21.0298 0.530273C28.5848 0.530273 35.8311 3.52996 41.1753 8.87012C41.3159 9.00953 41.4273 9.17566 41.5034 9.3584C41.5796 9.54119 41.6187 9.73753 41.6187 9.93555C41.6186 10.1335 41.5796 10.3299 41.5034 10.5127C41.4273 10.6952 41.3156 10.8607 41.1753 11C41.0309 11.1354 40.8607 11.241 40.6753 11.3105C40.49 11.38 40.293 11.4123 40.0952 11.4053C39.8949 11.4144 39.6944 11.383 39.5064 11.3135C39.3184 11.2439 39.1456 11.1372 38.9995 11C34.22 6.23719 27.747 3.5625 20.9995 3.5625C14.252 3.56263 7.77902 6.23701 2.99952 11C2.71707 11.2805 2.33506 11.4379 1.93702 11.4365C1.53908 11.4351 1.15787 11.2755 0.877451 10.9932C0.596984 10.7107 0.440497 10.3277 0.441904 9.92969C0.443432 9.53181 0.602917 9.15048 0.885263 8.87012C6.22936 3.53018 13.475 0.53033 21.0298 0.530273Z" fill="#5D6A6B"/>
</svg>
