<svg width="22" height="22" viewBox="0 0 22 22" fill="none" xmlns="http://www.w3.org/2000/svg">
<path d="M11.03 0.982422C11.168 0.982422 11.3038 1.02078 11.4216 1.09277C11.5392 1.16475 11.6351 1.26792 11.698 1.39062L21.2224 20.1406C21.2882 20.2546 21.323 20.384 21.323 20.5156C21.3229 20.6472 21.2882 20.7767 21.2224 20.8906C21.1507 21.0091 21.0476 21.1054 20.9245 21.1689C20.8014 21.2325 20.6632 21.2603 20.5251 21.25H1.47531C1.34714 21.2495 1.2207 21.2163 1.1091 21.1533C0.997678 21.0903 0.9042 20.9999 0.837616 20.8906C0.771818 20.7767 0.73706 20.6472 0.73703 20.5156C0.73703 20.384 0.771821 20.2546 0.837616 20.1406L10.362 1.39062C10.4249 1.26793 10.5208 1.16475 10.6384 1.09277C10.7562 1.02078 10.892 0.982424 11.03 0.982422ZM2.69797 19.75H19.3025L10.9997 3.4082L2.69797 19.75ZM10.9997 16C11.6209 16 12.1245 16.5039 12.1247 17.125C12.1247 17.7463 11.621 18.25 10.9997 18.25C10.3785 18.2498 9.87473 17.7462 9.87473 17.125C9.87497 16.504 10.3787 16.0002 10.9997 16ZM10.9997 7.75C11.1985 7.75 11.3894 7.82931 11.53 7.96973C11.6705 8.11027 11.7496 8.30125 11.7497 8.5V13.75C11.7497 13.9489 11.6707 14.1406 11.53 14.2812C11.3894 14.4217 11.1984 14.5 10.9997 14.5C10.801 14.4999 10.61 14.4218 10.4695 14.2812C10.3288 14.1406 10.2497 13.9489 10.2497 13.75V8.5C10.2498 8.30125 10.3289 8.11027 10.4695 7.96973C10.61 7.8292 10.801 7.75008 10.9997 7.75Z" fill="white"/>
</svg>
