<svg width="42" height="33" viewBox="0 0 42 33" fill="none" xmlns="http://www.w3.org/2000/svg">
<path d="M21.0004 27C22.657 27.0002 24.0002 28.3434 24.0004 30C24.0004 31.6567 22.6571 32.9998 21.0004 33C19.3435 33 18.0004 31.6569 18.0004 30C18.0005 28.3433 19.3436 27 21.0004 27ZM36.0004 -0.00585938C36.3997 -0.00575957 36.7825 0.15318 37.0648 0.435547C37.3472 0.71795 37.5062 1.10066 37.5062 1.5C37.5062 1.89945 37.3473 2.28297 37.0648 2.56543L10.0648 29.5654C9.92543 29.7059 9.75925 29.8174 9.57655 29.8936C9.39396 29.9696 9.19817 30.0087 9.00038 30.0088C8.8024 30.0088 8.606 29.9697 8.42323 29.8936C8.24049 29.8174 8.07438 29.706 7.93495 29.5654C7.7944 29.426 7.68298 29.2599 7.60683 29.0771C7.53067 28.8944 7.49159 28.698 7.49159 28.5C7.49162 28.302 7.5307 28.1056 7.60683 27.9229C7.68294 27.7403 7.79457 27.5748 7.93495 27.4355L21.8402 13.5C19.5353 13.3806 17.2304 13.7464 15.0756 14.5732C12.921 15.4 10.9638 16.6695 9.33046 18.2998C9.04351 18.5455 8.67379 18.6747 8.29628 18.6602C7.91881 18.6455 7.56046 18.4888 7.29335 18.2217C7.02626 17.9545 6.87043 17.5962 6.85585 17.2188C6.84127 16.8413 6.96954 16.4725 7.21523 16.1855C9.45045 13.9512 12.1952 12.2935 15.2133 11.3555C18.2313 10.4174 21.4324 10.2262 24.5404 10.7998L29.4447 6C26.7333 5.03242 23.8791 4.52534 21.0004 4.5C17.6534 4.49917 14.3389 5.16192 11.2494 6.44922C8.16007 7.73647 5.35645 9.62304 3.00038 12C2.7194 12.2793 2.33895 12.4365 1.94276 12.4365C1.54649 12.4365 1.16619 12.2794 0.885147 12C0.605783 11.719 0.448624 11.3387 0.448624 10.9424C0.448703 10.5462 0.605842 10.1657 0.885147 9.88477C4.8442 5.91587 9.88598 3.20291 15.3793 2.08496C20.8729 0.967034 26.5744 1.4944 31.7699 3.60059L34.935 0.435547C35.2174 0.153091 35.6009 -0.00585937 36.0004 -0.00585938ZM24.1498 19.9502C25.7954 20.4502 27.291 21.3524 28.5004 22.5752C28.7797 22.8562 28.9359 23.2366 28.9359 23.6328C28.9359 24.029 28.7797 24.4094 28.5004 24.6904C28.3615 24.8321 28.1958 24.9452 28.0131 25.0225C27.8303 25.0997 27.6334 25.1398 27.435 25.1406C27.0394 25.135 26.6621 24.973 26.3851 24.6904C25.107 23.4065 23.4071 22.6281 21.6 22.5L24.1498 19.9502ZM30.9154 13.2158C32.3274 14.0473 33.6274 15.0556 34.7846 16.2158C35.0638 16.4968 35.221 16.8763 35.2211 17.2725C35.2211 17.6687 35.0639 18.049 34.7846 18.3301C34.5036 18.6093 34.124 18.7665 33.7279 18.7666C33.3316 18.7666 32.9513 18.6095 32.6703 18.3301C31.5054 17.1674 30.1759 16.1821 28.725 15.4053L30.9154 13.2158ZM37.5004 6.70508C38.828 7.64688 40.0724 8.70121 41.2201 9.85547C41.3581 10.0001 41.4664 10.1706 41.5375 10.3574C41.6086 10.5443 41.6411 10.7436 41.6342 10.9434C41.6272 11.1432 41.5805 11.34 41.4965 11.5215C41.4125 11.7029 41.2927 11.8654 41.1449 12C40.8655 12.2771 40.4886 12.4339 40.0951 12.4355C39.8928 12.4407 39.6914 12.4047 39.5033 12.3301C39.3152 12.2553 39.1441 12.1426 39.0004 12C37.848 10.8465 36.5865 9.80724 35.2348 8.89551L37.5004 6.70508Z" fill="#5D6A6B"/>
</svg>
