<svg width="12" height="9" viewBox="0 0 12 9" fill="none" xmlns="http://www.w3.org/2000/svg">
<path d="M6.00037 7.25C6.41434 7.2502 6.75025 7.58601 6.75037 8C6.75037 8.41409 6.41441 8.7498 6.00037 8.75C5.58615 8.75 5.25037 8.41421 5.25037 8C5.25048 7.58588 5.58622 7.25 6.00037 7.25ZM9.75037 0.499023C9.85009 0.499124 9.94547 0.538851 10.016 0.609375C10.0865 0.679936 10.1263 0.775249 10.1263 0.875C10.1263 0.974863 10.0866 1.07099 10.016 1.1416L3.26599 7.8916C3.23117 7.92665 3.18953 7.95463 3.14392 7.97363C3.09842 7.99255 3.04964 8.0019 3.00037 8.00195C2.9509 8.00195 2.9015 7.99265 2.85583 7.97363C2.81018 7.95461 2.76861 7.9267 2.73376 7.8916C2.69865 7.85678 2.67077 7.81517 2.65173 7.76953C2.6327 7.72383 2.62244 7.6745 2.62244 7.625C2.62246 7.57569 2.63282 7.52698 2.65173 7.48145C2.67073 7.43584 2.69871 7.39419 2.73376 7.35938L6.21033 3.875C5.63409 3.84516 5.05764 3.93685 4.51892 4.14355C3.98023 4.35026 3.49076 4.66758 3.0824 5.0752C3.01067 5.1366 2.91796 5.16868 2.82361 5.16504C2.72949 5.16128 2.64026 5.12223 2.57361 5.05566C2.50682 4.98888 2.46788 4.89907 2.46423 4.80469C2.46062 4.71039 2.49272 4.61857 2.55408 4.54688C3.11285 3.98831 3.79864 3.57339 4.5531 3.33887C5.30762 3.10435 6.10813 3.0568 6.88513 3.2002L8.11169 2C7.43392 1.75812 6.71998 1.63137 6.00037 1.625C5.16362 1.62479 4.33427 1.79048 3.56189 2.1123C2.78978 2.43408 2.08925 2.90594 1.50037 3.5C1.43013 3.56982 1.33475 3.60935 1.23572 3.60938C1.13665 3.60938 1.04133 3.56984 0.971069 3.5C0.901335 3.42976 0.862671 3.33434 0.862671 3.23535C0.862792 3.13654 0.901462 3.04181 0.971069 2.97168C1.96087 1.9794 3.2217 1.30097 4.59509 1.02148C5.96844 0.742046 7.39393 0.873864 8.69275 1.40039L9.48376 0.609375C9.55438 0.538761 9.6505 0.499023 9.75037 0.499023ZM6.78748 5.4873C7.19886 5.6123 7.57303 5.83786 7.87537 6.14355C7.94518 6.21378 7.98373 6.30919 7.98376 6.4082C7.98376 6.50721 7.94513 6.6026 7.87537 6.67285C7.84065 6.70827 7.79897 6.73655 7.7533 6.75586C7.7076 6.77517 7.65837 6.78495 7.60876 6.78516C7.50985 6.78375 7.41531 6.74351 7.34607 6.67285C7.02654 6.35187 6.60156 6.15703 6.14978 6.125L6.78748 5.4873ZM8.47888 3.80371C8.83193 4.0116 9.15732 4.26363 9.44666 4.55371C9.51645 4.62396 9.55505 4.71932 9.55505 4.81836C9.55505 4.9174 9.51646 5.01275 9.44666 5.08301C9.37643 5.15282 9.28102 5.19137 9.18201 5.19141C9.08297 5.19141 8.98761 5.15281 8.91736 5.08301C8.62613 4.79235 8.29377 4.54578 7.93103 4.35156L8.47888 3.80371ZM10.1254 2.17676C10.4571 2.41214 10.7682 2.67541 11.0551 2.96387C11.0896 3.00003 11.1164 3.04312 11.1342 3.08984C11.1519 3.1365 11.1603 3.18645 11.1586 3.23633C11.1568 3.28619 11.1453 3.33558 11.1244 3.38086C11.1034 3.42605 11.0733 3.46644 11.0365 3.5C10.9667 3.56926 10.8722 3.60894 10.7738 3.60938C10.7232 3.61066 10.6724 3.6017 10.6254 3.58301C10.5784 3.56433 10.5362 3.53558 10.5004 3.5C10.2123 3.21164 9.8969 2.95156 9.55896 2.72363L10.1254 2.17676Z" fill="#5D6A6B"/>
</svg>
