<svg width="20" height="20" viewBox="0 0 20 20" fill="none" xmlns="http://www.w3.org/2000/svg">
<path d="M9.99952 13C10.5516 13 10.9993 13.4479 10.9995 14C10.9995 14.5523 10.5518 15 9.99952 15C9.44745 14.9997 8.99952 14.5521 8.99952 14C8.99977 13.4481 9.44761 13.0003 9.99952 13ZM10.0005 10.5C10.4599 10.5001 10.9149 10.5908 11.3394 10.7666C11.764 10.9425 12.1501 11.2003 12.4751 11.5254C12.5456 11.5953 12.5933 11.6849 12.6128 11.7822C12.6323 11.8796 12.6226 11.9805 12.5845 12.0723C12.5464 12.1639 12.4817 12.242 12.3989 12.2969C12.3162 12.3517 12.2189 12.3814 12.1196 12.3809C11.9879 12.3789 11.8623 12.3246 11.77 12.2305C11.5378 11.9977 11.2622 11.8126 10.9585 11.6865C10.6549 11.5606 10.3292 11.4962 10.0005 11.4961C9.67165 11.4961 9.34523 11.5605 9.04151 11.6865C8.73784 11.8126 8.46218 11.9977 8.22998 12.2305C8.1363 12.3236 8.00953 12.376 7.87744 12.376C7.74537 12.376 7.61857 12.3236 7.52491 12.2305C7.43181 12.1368 7.3794 12.01 7.3794 11.8779C7.37941 11.7459 7.4318 11.6191 7.52491 11.5254C7.84992 11.2003 8.23598 10.9425 8.66065 10.7666C9.08527 10.5907 9.54088 10.5 10.0005 10.5ZM10.0005 7.50293C11.7236 7.50306 13.3764 8.18713 14.5952 9.40527C14.6883 9.49893 14.7407 9.62577 14.7407 9.75781C14.7407 9.88984 14.6883 10.0167 14.5952 10.1104C14.5021 10.2027 14.3758 10.2553 14.2446 10.2559C14.1791 10.2562 14.1139 10.2435 14.0532 10.2188C13.9923 10.1939 13.9369 10.1567 13.8901 10.1104C13.3794 9.59936 12.7724 9.19453 12.105 8.91797C11.4377 8.64151 10.7228 8.49909 10.0005 8.49902C9.27806 8.49902 8.56244 8.64145 7.89502 8.91797C7.22756 9.19453 6.62062 9.59936 6.10987 10.1104C6.01422 10.1922 5.89095 10.2353 5.76514 10.2305C5.63942 10.2255 5.52013 10.173 5.43116 10.084C5.3422 9.99496 5.28954 9.87576 5.28467 9.75C5.27981 9.62418 5.32289 9.50092 5.40479 9.40527C6.62368 8.18702 8.27717 7.50293 10.0005 7.50293ZM10.0103 4.51074C12.5284 4.51081 14.9438 5.51014 16.7251 7.29004C16.772 7.33651 16.8091 7.3922 16.8345 7.45312C16.8599 7.51405 16.8726 7.5795 16.8726 7.64551C16.8726 7.71149 16.8599 7.77698 16.8345 7.83789C16.8091 7.89865 16.7718 7.95361 16.7251 8C16.677 8.04514 16.6199 8.08035 16.5581 8.10352C16.4964 8.12663 16.4306 8.13811 16.3647 8.13574C16.2981 8.13874 16.2311 8.12765 16.1685 8.10449C16.1059 8.0813 16.0481 8.04565 15.9995 8C14.4064 6.41259 12.2485 5.52148 9.99952 5.52148C7.75044 5.52161 5.59261 6.41241 3.99951 8C3.90543 8.09341 3.77858 8.14591 3.646 8.14551C3.51334 8.14504 3.38597 8.09217 3.29248 7.99805C3.19899 7.9039 3.14651 7.77624 3.14698 7.64355C3.14748 7.51092 3.20129 7.3835 3.29541 7.29004C5.07676 5.51024 7.49213 4.51074 10.0103 4.51074Z" fill="white"/>
</svg>
