<svg xmlns="http://www.w3.org/2000/svg" width="14" height="14" viewBox="0 0 14 14" fill="none">
  <path d="M12.9961 3.38977C13.647 4.47087 14 5.71711 14 7.00012C14 8.38448 13.5894 9.73771 12.8203 10.8888C12.0512 12.0398 10.9577 12.9371 9.67871 13.4669C8.39984 13.9965 6.99239 14.1353 5.63477 13.8654C4.83785 13.7068 4.07947 13.41 3.39062 12.9952L4.12305 12.2628C4.23185 12.3227 4.34223 12.3813 4.45508 12.4347C4.38742 12.3334 4.32257 12.2302 4.25977 12.1261L4.98828 11.3976C5.40547 12.1671 5.92796 12.7096 6.5 12.9103V9.88684L7.88672 8.50012H9.89551C9.99326 7.80539 10.0202 7.10348 9.98145 6.40442L11.8867 4.50012H12.4551C12.3957 4.37172 12.3305 4.24642 12.2627 4.12317L12.9961 3.38977ZM12.6826 0.182739C12.9264 -0.0610871 13.3232 -0.0605855 13.5674 0.182739C13.8115 0.426817 13.8115 0.823427 13.5674 1.0675L1.06738 13.5675C0.823289 13.8114 0.426629 13.8115 0.182617 13.5675C-0.0606424 13.3234 -0.0610114 12.9266 0.182617 12.6827L1.51562 11.3488C0.827669 10.4808 0.352271 9.45883 0.134766 8.36536C-0.135198 7.00768 0.00349607 5.60031 0.533203 4.32141C1.06299 3.04247 1.96034 1.94895 3.11133 1.17981C4.26226 0.410853 5.61583 0.00023381 7 0.00012207C8.5866 0.000167066 10.1175 0.539726 11.3486 1.51575L12.6826 0.182739ZM7.5 12.9103C8.46989 12.5702 9.29986 11.2499 9.71484 9.50012H7.5V12.9103ZM10.7451 9.50012C10.5464 10.549 10.1379 11.547 9.54492 12.4347C10.8287 11.8276 11.859 10.7891 12.4551 9.50012H10.7451ZM1.54492 9.50012C1.73209 9.90489 1.96307 10.2842 2.23047 10.6339L3.27344 9.59094C3.26733 9.56067 3.26063 9.53048 3.25488 9.50012H1.54492ZM4.10547 5.50012C3.96546 6.49518 3.96546 7.50507 4.10547 8.50012H4.36523L6.5 6.36536V5.50012H4.10547ZM1.19043 5.50012C1.06369 5.98998 0.999403 6.49413 1 7.00012C0.999397 7.50613 1.06369 8.01025 1.19043 8.50012H3.08984C2.96986 7.50379 2.96986 6.49645 3.08984 5.50012H1.19043ZM10.9102 5.50012C10.9711 5.99777 11.001 6.49877 11 7.00012C11.001 7.50147 10.9711 8.00249 10.9102 8.50012H12.8105C13.0645 7.51634 13.0645 6.4839 12.8105 5.50012H10.9102ZM4.45508 1.56555C3.17142 2.17267 2.14094 3.21126 1.54492 4.50012H3.25488C3.45358 3.45134 3.86214 2.45316 4.45508 1.56555ZM6.5 1.08997C5.53021 1.43021 4.69998 2.75045 4.29004 4.50012H6.5V1.08997ZM7.5 4.50012H8.36523L9.40039 3.46399C8.94448 2.2415 8.26697 1.35889 7.5 1.08997V4.50012ZM9.54492 1.56555C9.78492 1.92478 9.99265 2.3029 10.1699 2.69446L10.6348 2.22961C10.2981 1.9721 9.93308 1.7491 9.54492 1.56555Z" fill="#5D6A6B"/>
</svg>