<svg xmlns="http://www.w3.org/2000/svg" width="14" height="14" viewBox="0 0 14 14" fill="none">
  <path d="M7 0C5.61553 0 4.26216 0.410543 3.11101 1.17971C1.95987 1.94888 1.06266 3.04213 0.532846 4.32122C0.00303298 5.6003 -0.13559 7.00776 0.134506 8.36563C0.404603 9.7235 1.07129 10.9708 2.05026 11.9497C3.02922 12.9287 4.2765 13.5954 5.63437 13.8655C6.99224 14.1356 8.3997 13.997 9.67879 13.4672C10.9579 12.9373 12.0511 12.0401 12.8203 10.889C13.5895 9.73785 14 8.38447 14 7C14 5.14348 13.2625 3.36301 11.9497 2.05025C10.637 0.737498 8.85652 0 7 0ZM4.455 1.565C3.86186 2.45276 3.45373 3.45097 3.255 4.5H1.545C2.1411 3.21089 3.17104 2.1721 4.455 1.565ZM1 7C0.9994 6.49396 1.06325 5.98991 1.19 5.5H3.09C2.97 6.4964 2.97 7.5036 3.09 8.5H1.19C1.06325 8.01009 0.9994 7.50604 1 7ZM1.545 9.5H3.255C3.45373 10.549 3.86186 11.5472 4.455 12.435C3.17104 11.8279 2.1411 10.7891 1.545 9.5ZM6.5 12.91C5.53 12.57 4.7 11.25 4.29 9.5H6.5V12.91ZM6.5 8.5H4.105C3.96498 7.5049 3.96498 6.4951 4.105 5.5H6.5V8.5ZM6.5 4.5H4.29C4.7 2.75 5.53 1.43 6.5 1.09V4.5ZM12.455 4.5H10.745C10.5463 3.45097 10.1381 2.45276 9.545 1.565C10.829 2.1721 11.8589 3.21089 12.455 4.5ZM7.5 1.09C8.47 1.43 9.3 2.75 9.715 4.5H7.5V1.09ZM7.5 5.5H9.895C10.035 6.4951 10.035 7.5049 9.895 8.5H7.5V5.5ZM7.5 12.91V9.5H9.715C9.3 11.25 8.47 12.57 7.5 12.91ZM9.545 12.435C10.1381 11.5472 10.5463 10.549 10.745 9.5H12.455C11.8589 10.7891 10.829 11.8279 9.545 12.435ZM10.91 8.5C10.9709 8.00234 11.001 7.50138 11 7C11.001 6.49862 10.9709 5.99766 10.91 5.5H12.81C13.064 6.48387 13.064 7.51613 12.81 8.5H10.91Z" fill="#25C2C7"/>
</svg>